<svg width="20" height="21" viewBox="0 0 20 21" fill="none" xmlns="http://www.w3.org/2000/svg">
<g id="1">
<g id="Vector">
<path d="M11.2181 10.7901C10.8647 10.5229 10.5235 10.2609 10.1938 10.0016C13.3032 7.55547 15.1898 5.54395 16.6699 1.33439C17.3617 3.17148 17.572 4.94188 16.8849 7.03765C16.251 8.97107 14.6461 10.2403 12.3411 11.6296C12.0958 11.4477 11.8558 11.2692 11.621 11.0933C12.6636 10.3511 13.4582 9.70021 14.079 9.08899C15.4952 7.69456 16.0035 6.50928 16.4933 4.95815C16.5333 4.83166 16.4631 4.69674 16.3366 4.65679C16.2101 4.61685 16.0752 4.68701 16.0353 4.8135C15.5589 6.32211 15.0824 7.42692 13.742 8.7467C13.1179 9.36121 12.3059 10.0228 11.2181 10.7901Z" fill="#98FFF9"/>
<path d="M8.53507 12.5537C8.22409 12.3775 7.92007 12.2006 7.62438 12.0224C7.51239 12.1054 7.45605 12.1421 7.39883 12.1793C7.34115 12.2169 7.28257 12.255 7.16516 12.3418C6.87006 12.56 6.55094 12.8001 6.22808 13.0429L6.21972 13.0492C6.01733 13.2014 5.81352 13.3547 5.61334 13.5043L6.07508 14.0486C6.08811 14.0361 6.10275 14.025 6.11892 14.0154C7.00815 13.4903 7.81031 13.0052 8.53507 12.5537Z" fill="#98FFF9"/>
<path d="M6.38632 14.4154L6.87072 14.9863C7.58389 14.497 8.24527 14.1189 8.96985 13.7046C9.22741 13.5573 9.49296 13.4055 9.77166 13.2425L9.61558 13.1512C9.41255 13.0412 9.21163 12.9314 9.01314 12.8215C8.23135 13.3118 7.35978 13.8403 6.38632 14.4154Z" fill="#98FFF9"/>
<path d="M6.5619 15.2065C7.10907 16.3366 8.11338 17.833 9.3855 18.9382L6.5619 19.3872C6.61115 18.205 6.52634 16.9345 5.25601 16.9173L3.29498 14.9956C3.24065 14.9092 3.16 14.8103 3.07146 14.7017L3.0708 14.7009C2.84258 14.421 2.56253 14.0775 2.54657 13.7226C2.52982 13.3212 2.71451 12.9118 2.92736 12.44C3.02669 12.2201 3.13215 11.986 3.22605 11.7335C3.68046 12.6124 4.28271 13.1627 5.25601 13.6353L5.33096 13.7055L6.5619 15.2065Z" fill="#98FFF9"/>
<path d="M3.0708 15.2344C2.79654 15.52 2.47627 15.8341 2.14539 16.1584L2.14184 16.1619C2.03089 16.2707 1.91884 16.3793 1.80697 16.4877L1.79017 16.5039C1.17047 17.1042 0.55708 17.6984 0.179627 18.2646C-0.0136825 18.5303 0.00372761 18.9208 0.0214447 19.3179L0.0214517 19.3188C0.0328076 19.5739 0.0442837 19.8317 0 20.0609C0.665838 20.389 1.35145 20.2131 1.84117 20.0609C1.84117 19.8282 1.70729 19.7211 1.57678 19.6167C1.40496 19.4793 1.23897 19.3465 1.39211 18.9382C1.90779 17.9394 3.68007 17.1372 4.80502 16.9557L3.0708 15.2344Z" fill="#98FFF9"/>
<path d="M10.6145 18.9378C11.8866 17.8326 12.8909 16.3362 13.4381 15.2061L14.669 13.705L14.744 13.6349C15.7173 13.1623 16.3195 12.612 16.7739 11.7331C16.8679 11.9858 16.9733 12.2194 17.0726 12.4395C17.2855 12.9114 17.4702 13.3208 17.4534 13.7222C17.4375 14.0771 17.1574 14.4206 16.9292 14.7005C16.8404 14.8094 16.7595 14.9086 16.705 14.9952L14.744 16.9169C13.4736 16.9341 13.3889 18.2046 13.4381 19.3868L10.6145 18.9378Z" fill="#98FFF9"/>
<path d="M17.8579 16.1613C17.5259 15.8358 17.2044 15.5206 16.9292 15.234L15.195 16.9553C16.3199 17.1368 18.0922 17.939 18.6079 18.9378C18.761 19.3461 18.5951 19.4789 18.4232 19.6163C18.2927 19.7207 18.1588 19.8278 18.1588 20.0604C18.6486 20.2127 19.3342 20.3886 20 20.0604C19.9557 19.831 19.9672 19.5729 19.9786 19.3175C19.9963 18.9204 20.0137 18.5299 19.8204 18.2641C19.4429 17.6979 18.8296 17.1039 18.2098 16.5035L18.2089 16.5026C18.0917 16.3891 17.974 16.2751 17.8579 16.1613Z" fill="#98FFF9"/>
<path d="M13.621 14.4063L13.1293 14.9859C12.1152 14.2902 10.954 13.6102 9.84341 12.961C6.61781 11.2137 3.92225 9.49938 3.11509 7.03725C2.42802 4.94147 2.63829 3.17107 3.33007 1.33398C5.22098 6.71161 8.09057 8.83344 12.8348 12.3414C13.1303 12.5599 13.4499 12.8003 13.7731 13.0434C13.9779 13.1974 14.1841 13.3526 14.3867 13.5039L13.9347 14.0367C13.9256 14.0293 13.9159 14.0225 13.9055 14.0164C9.87064 11.6336 7.78035 10.3203 6.51259 9.1264C5.26428 7.95087 4.81391 6.89207 4.09069 4.96344C4.04411 4.83924 3.90567 4.77631 3.78147 4.82288C3.65727 4.86946 3.59434 5.0079 3.64091 5.1321C4.36702 7.06842 4.84857 8.21922 6.18327 9.47611C7.49414 10.7105 9.62806 12.0477 13.621 14.4063Z" fill="#98FFF9"/>
</g>
</g>
</svg>
