<svg width="165" height="40" viewBox="0 0 165 40" fill="none" xmlns="http://www.w3.org/2000/svg">
<path d="M163.708 11.6667C163.891 11.6667 164.075 11.6667 164.258 11.8333C164.441 12 164.441 12.1667 164.441 12.3333V16C164.441 16.1667 164.441 16.3333 164.258 16.5C164.075 16.6667 163.891 16.6667 163.708 16.6667H160.225V31.3333C160.225 31.5 160.225 31.6667 160.041 31.8333C159.858 32 159.675 32 159.491 32H154.175C153.991 32 153.808 32 153.625 31.8333C153.441 31.6667 153.441 31.5 153.441 31.3333V16.5H149.958C149.775 16.5 149.591 16.5 149.408 16.3333C149.225 16.1667 149.225 16 149.225 15.8333V12.1667C149.225 12 149.225 11.8333 149.408 11.6667C149.591 11.6667 149.775 11.6667 149.958 11.6667H153.441V6.5C153.441 6.33333 153.441 6.16667 153.625 6C153.808 5.83333 153.991 5.83333 154.175 5.83333H159.491C159.675 5.83333 159.858 5.83333 160.041 6C160.225 6.16667 160.225 6.33333 160.225 6.5V11.6667H163.708Z" fill="white"/>
<path d="M148.491 21.5C148.491 22.3333 148.308 23 148.125 23.5C147.941 23.8333 147.575 24 146.841 24H133.641C134.008 25.1667 134.558 26 135.475 26.5C136.391 27 137.675 27.3333 139.141 27.3333C139.875 27.3333 140.608 27.3333 141.158 27.1667C141.891 27 142.625 26.6667 143.358 26.1667C143.541 26 143.725 26 143.908 26C144.091 26 144.275 26 144.458 26.1667L146.841 28.1667C147.025 28.3333 147.025 28.3333 147.025 28.5C147.025 28.6667 147.025 28.8333 146.841 29C145.741 30 144.641 30.6667 143.175 31.3333C141.891 31.8333 140.425 32.1667 138.775 32.1667C136.575 32.1667 134.558 31.6667 132.725 30.8333C131.075 29.8333 129.608 28.6667 128.691 27C127.775 25.5 127.225 23.6667 127.225 21.8333C127.225 20 127.775 18.1667 128.691 16.6667C129.608 15.1667 131.075 13.8333 132.725 13C134.375 12 136.208 11.6667 138.408 11.6667C140.425 11.6667 142.258 12.1667 143.725 13C145.375 13.8333 146.475 15.1667 147.391 16.6667C148.125 18 148.491 19.6667 148.491 21.5ZM138.225 16.6667C137.125 16.6667 136.025 17 135.291 17.5C134.375 18 134.008 18.8333 133.641 20H142.625C142.441 18.8333 141.891 18 141.158 17.5C140.241 17 139.325 16.6667 138.225 16.6667Z" fill="white"/>
<path d="M124.291 12C124.475 12 124.658 12 124.841 12.1667C125.025 12.3333 125.025 12.5 125.025 12.6667V31.8333C125.025 33.8333 124.475 35.5 123.191 36.6667C122.091 38 120.625 38.8333 118.791 39.3333C116.958 39.6667 115.308 40 113.291 40C111.458 40 109.625 39.8333 107.975 39.3333C106.325 38.8333 104.858 38.1667 103.758 37.5C103.575 37.3333 103.575 37.1667 103.575 37C103.575 36.8333 103.575 36.6667 103.575 36.6667L105.225 33.8333C105.408 33.6667 105.591 33.5 105.775 33.5C105.958 33.5 105.958 33.5 106.141 33.5C107.058 34 108.158 34.5 109.258 34.6667C110.358 34.8333 111.458 35 112.925 35C114.391 35 115.858 34.6667 116.958 34.1667C118.241 33.6667 118.791 32.6667 118.791 31.3333V29.5C117.141 31.3333 114.941 32.1667 112.375 32.1667C110.358 32.1667 108.525 31.6667 107.058 30.8333C105.408 29.8333 104.125 28.6667 103.208 27C102.291 25.5 101.925 23.6667 101.925 21.8333C101.925 20 102.291 18.3333 103.208 16.6667C104.308 15 105.408 13.8333 107.058 12.8333C108.708 11.8333 110.358 11.5 112.375 11.5C114.758 11.5 116.775 12.3333 118.608 14.1667L118.791 12.5C118.791 12.1667 119.158 11.8333 119.525 11.8333H124.291V12ZM113.291 26.5C114.575 26.5 115.858 26 116.775 25C117.691 24 118.241 23 118.241 21.6667C118.241 20.3333 117.691 19.3333 116.775 18.3333C115.858 17.3333 114.758 16.8333 113.291 16.8333C111.825 16.8333 110.725 17.3333 109.808 18.1667C108.891 19 108.341 20.1667 108.341 21.5C108.341 22.8333 108.708 24 109.625 24.8333C110.725 26 111.825 26.5 113.291 26.5Z" fill="white"/>
<path d="M99.7247 11.6667C99.9081 11.6667 100.091 11.6667 100.275 11.8333C100.458 12 100.458 12.1667 100.458 12.3333V16C100.458 16.1667 100.458 16.3333 100.275 16.5C100.091 16.6667 99.9081 16.6667 99.7247 16.6667H96.2414V31.3333C96.2414 31.5 96.2414 31.6667 96.0581 31.8333C95.8747 32 95.6914 32 95.5081 32H90.1914C90.0081 32 89.8247 32 89.6414 31.8333C89.6414 31.6667 89.6414 31.5 89.6414 31.3333V16.5H85.9747C85.7914 16.5 85.6081 16.5 85.4247 16.3333C85.2414 16.1667 85.2414 16 85.2414 15.8333V12.1667C85.2414 12 85.2414 11.8333 85.4247 11.6667C85.6081 11.6667 85.7914 11.6667 85.9747 11.6667H89.6414V6.5C89.6414 6.33333 89.6414 6.16667 89.8247 6C90.0081 5.83333 90.1914 5.83333 90.3747 5.83333H95.6914C95.8747 5.83333 96.0581 5.83333 96.2414 6C96.4247 6.16667 96.4247 6.33333 96.4247 6.5V11.6667H99.7247Z" fill="white"/>
<path d="M79.5581 10C78.6414 10 77.7247 9.66667 76.9914 9C76.4414 8.33333 76.0747 7.66667 76.0747 6.66667C76.0747 5.66667 76.4414 5 77.1748 4.33333C77.7248 3.66667 78.6414 3.33333 79.5581 3.33333C80.4747 3.33333 81.3914 3.66667 82.1247 4.33333C82.8581 5 83.2247 5.83333 83.2247 6.66667C83.2247 7.5 82.8581 8.33333 82.1247 9C81.3914 9.66667 80.6581 10 79.5581 10ZM76.2581 12.1667C76.2581 12 76.2581 11.8333 76.4414 11.6667C76.6247 11.6667 76.8081 11.6667 76.9914 11.6667H82.3081C82.4914 11.6667 82.6747 11.6667 82.8581 11.8333C83.0414 12 83.0414 12.1667 83.0414 12.3333V31.3333C83.0414 31.5 83.0414 31.6667 82.8581 31.8333C82.6747 32 82.4914 32 82.3081 32H76.9914C76.8081 32 76.6247 32 76.4414 31.8333C76.2581 31.6667 76.2581 31.5 76.2581 31.3333V12.1667Z" fill="white"/>
<path d="M67.8247 16.6667C69.4747 17 70.9414 17.8333 72.0414 19.1667C73.3247 20.5 73.8747 22 73.8747 23.6667C73.8747 26.3333 72.9581 28.5 70.9414 29.8333C69.1081 31.1667 66.1747 31.8333 62.3247 31.8333H51.5081C51.3247 31.8333 51.1414 31.8333 50.9581 31.6667C50.7747 31.5 50.7747 31.3333 50.7747 31.1667V4C50.7747 3.83333 50.7747 3.66667 50.9581 3.5C50.9581 3.5 51.1414 3.33333 51.3247 3.33333H62.1414C64.1581 3.33333 65.8081 3.66667 67.0914 4.33333C68.5581 5 69.6581 5.83333 70.2081 7C70.9414 8.16667 71.3081 9.33333 71.3081 10.8333C71.3081 12.1667 70.9414 13.5 70.2081 14.5C69.6581 15.5 68.7414 16.3333 67.8247 16.6667ZM65.0747 11.6667C65.0747 10 63.9747 9 61.5914 9H57.5581V14.5H61.5914C62.6914 14.5 63.6081 14.3333 64.1581 13.8333C64.7081 13.3333 65.0747 12.5 65.0747 11.6667ZM62.5081 26.3333C63.7914 26.3333 64.8914 26 65.8081 25.5C66.5414 25 67.0914 24 67.0914 23C67.0914 21.8333 66.7247 21 65.8081 20.5C65.0747 20 63.9747 19.6667 62.5081 19.6667H57.5581V26.3333H62.5081Z" fill="white"/>
<path d="M12.8247 0.833333C13.3747 0.333333 14.1081 0 14.8414 0H20.1581C20.8914 0 21.2581 0.666667 20.7081 1.16667L10.2581 11.5H16.1247L21.9914 17.1667H10.2581L21.9914 28.6667H14.8414C14.1081 28.6667 13.1914 28.3333 12.6414 27.8333L0.724742 16.1667C-0.191925 15.1667 -0.191925 13.5 0.908075 12.5L12.8247 0.833333Z" fill="white"/>
<path d="M29.1414 39.1667C28.5914 39.6667 27.8581 40 26.9414 40H21.6247C20.8914 40 20.5247 39.3333 21.0747 38.8333L31.7081 28.5H25.8414L19.9747 22.8333H31.7081L19.9747 11.3333H27.1247C27.8581 11.3333 28.7747 11.6667 29.3247 12.1667L41.2414 23.8333C42.3414 24.8333 42.3414 26.5 41.2414 27.5L29.1414 39.1667Z" fill="white"/>
</svg>
