<svg width="190" height="44" viewBox="0 0 190 44" fill="none" xmlns="http://www.w3.org/2000/svg">
<path fill-rule="evenodd" clip-rule="evenodd" d="M32.477 20.7399L32.4153 20.6929C33.7908 18.7124 34.4786 16.3037 34.4786 13.4666C34.4786 9.25817 33.0343 5.96077 30.1457 3.5744C27.2569 1.18803 23.2817 -0.00343363 18.2196 7.43215e-06H5.6128V1.76269H17.9927C22.2947 1.76269 26.1324 2.72016 28.5672 4.70479C30.8316 6.55264 31.6621 8.14242 32.3249 10.5219C31.6519 8.35147 30.0657 6.95525 29.0804 6.13456C27.355 4.68416 25.2117 3.6699 19.3726 3.6699H9.64917V5.38871H19.1559C24.1387 5.38871 25.9674 6.00292 27.6438 7.24429C29.7897 8.83405 31.1206 10.7335 31.1206 13.4743C31.1206 15.9442 30.2539 17.2656 28.7993 18.6359C28.6291 18.5688 28.4589 18.5044 28.2835 18.4424L28.4485 18.3546C30.0244 17.485 31.1154 15.8152 31.1154 13.4666C31.1154 10.9013 29.6453 9.29863 28.2061 8.39534C26.8573 7.54884 25.5728 6.98107 20.0921 6.98107H13.1026V8.12693H19.896C24.8429 8.12693 26.7179 9.00699 27.2854 9.35539C28.397 10.0367 29.8645 11.2187 29.8645 13.4847C29.8645 14.9299 29.0108 16.6694 27.7496 17.3791C27.34 17.606 26.9077 17.7894 26.46 17.9262C24.5825 17.5005 22.6619 17.2944 20.7369 17.312H12.3057V19.0746H20.5048C24.8067 19.0746 28.7012 19.9598 31.0793 22.0168C32.8743 23.5441 34.1803 25.5662 34.8345 27.8313C34.164 25.6608 32.7866 24.3447 31.5925 23.444C29.7871 22.0787 27.7238 20.9767 21.8847 20.9794H8.66652V22.698H21.668C26.6508 22.698 28.477 23.3123 30.1559 24.5537C32.3018 26.1435 33.6119 28.0429 33.6119 30.7838C33.6119 33.4265 32.2811 35.3543 30.1249 36.9441C27.9197 38.5701 24.5489 38.6191 23.1769 38.6191H15.9552V40.3353H21.3534C25.872 40.3353 28.8896 39.9482 31.5023 38.0125C33.9525 36.1905 35.2549 33.8343 35.2549 30.7863C35.2787 32.4197 34.9278 34.0367 34.2295 35.513C33.5312 36.9894 32.5038 38.286 31.2263 39.303C28.7529 41.347 24.34 42.2477 19.9245 42.2477H5.71081V44H20.025C25.3553 44 29.5154 42.8422 32.5055 40.5262C35.4956 38.2104 36.9924 34.9569 36.9958 30.7657C36.9855 26.5521 35.5352 23.2538 32.6449 20.8709C32.5899 20.8255 32.5336 20.7828 32.477 20.7399ZM32.7316 13.6912C32.7264 15.82 32.0864 17.9008 30.891 19.6656C30.7389 19.578 30.5841 19.4928 30.4293 19.4076C31.8986 17.8635 32.7205 15.8178 32.7316 13.6912ZM23.8703 28.2958H11.4802V29.2553H23.8703V28.2958ZM16.5896 31.7876H23.7957V32.6104H16.5896V31.7876ZM9.36563 28.2958H5.69552V29.2553H9.36563V28.2958ZM3.40744 31.7205H14.5545V32.6799H3.40744V31.7205ZM13.8968 39.0448H3.40744V40.1951H13.8968V39.0448ZM6.15437 7.24949H10.4976V8.0413H6.15437V7.24949ZM13.0767 13.5467H3.1289V14.4675H13.0767V13.5467ZM7.34828 10.7335H23.8188V11.6543H7.34828V10.7335ZM23.5069 13.5467H15.5837V14.4675H23.5069V13.5467ZM33.5965 30.7684C33.5965 32.9854 32.5261 34.6448 30.9477 35.4835C29.3744 36.3171 27.1461 36.7972 23.378 36.7972H0.464844V35.7055H23.2748C26.7514 35.7055 29.0881 35.1455 30.2384 34.5208C31.5023 33.8318 32.3559 32.1569 32.3559 30.7632C32.3559 28.5824 30.8885 27.434 29.7769 26.7759C29.2094 26.4404 27.3317 25.5913 22.3875 25.5913H13.6855V24.4997H22.5913C28.1726 24.4997 29.3563 25.0494 30.7079 25.8649C32.147 26.7397 33.5965 28.2934 33.5965 30.7684ZM77.8728 11.3426C77.2217 11.3605 76.5842 11.1536 76.0674 10.7567C75.8343 10.5876 75.6451 10.3651 75.5155 10.1079C75.3857 9.85061 75.3195 9.56606 75.322 9.27795C75.3195 8.9884 75.3857 8.70238 75.5153 8.44347C75.645 8.18457 75.8342 7.96018 76.0674 7.78882C76.5812 7.38551 77.2202 7.17546 77.8728 7.19526C78.5358 7.17539 79.1854 7.38504 79.7118 7.78882C79.9475 7.95569 80.1399 8.17676 80.2727 8.43339C80.4053 8.69003 80.4746 8.97479 80.4746 9.26378C80.4746 9.55275 80.4053 9.8375 80.2727 10.0941C80.1399 10.3508 79.9475 10.5718 79.7118 10.7387C79.1876 11.1479 78.5373 11.3614 77.8728 11.3426ZM79.7968 36.3402H75.8533V16.4035H79.7968V36.3402ZM50.1291 36.3402V8.42113H59.9297C62.9095 8.42113 65.2729 9.01128 67.0199 10.1916C68.7668 11.3718 69.6402 12.91 69.6402 14.806C69.6614 16.3353 69.0934 17.8139 68.054 18.9352C66.9966 20.1053 65.5352 20.9363 63.6696 21.4283V21.5058C65.9925 21.7259 67.8512 22.4365 69.2456 23.6374C69.925 24.2091 70.466 24.9274 70.8282 25.7381C71.1904 26.549 71.3646 27.4313 71.3374 28.319C71.3374 30.7089 70.2798 32.6428 68.165 34.1207C66.0501 35.5987 63.385 36.3385 60.1697 36.3402H50.1291ZM54.1679 11.3813V20.396H58.2945C60.5058 20.396 62.2441 19.9659 63.5096 19.1056C64.1156 18.714 64.6093 18.1714 64.9424 17.5312C65.2757 16.891 65.437 16.1752 65.4104 15.4538C65.4104 12.7422 63.207 11.3865 58.8002 11.3865L54.1679 11.3813ZM54.1679 23.3356V33.3826H59.6486C62.0197 33.3826 63.8586 32.9283 65.1654 32.0199C65.7847 31.6167 66.2903 31.061 66.6336 30.4064C66.9768 29.7515 67.1462 29.0194 67.1256 28.2804C67.1256 24.9856 64.353 23.3373 58.8079 23.3356H54.1679ZM93.5487 36.7688C95.0722 36.7705 96.2981 36.5631 97.2266 36.1468L97.2344 33.4215C96.4533 33.8787 95.5598 34.1077 94.6552 34.0821C93.3553 34.0821 92.4251 33.7966 91.8646 33.2253C91.3041 32.6541 91.0238 31.7001 91.0238 30.3631V19.129H97.2266V16.4037H91.0238V10.504L87.0829 11.5363V16.4037H82.8504V19.129H87.0829V30.9284C87.0812 34.8219 89.2364 36.7688 93.5487 36.7688ZM133.033 36.3402H129.339V19.1109C129.358 17.4413 129.461 15.7735 129.649 14.1144H129.561C129.325 14.9726 129.006 15.8057 128.609 16.6023L117.777 36.3402H115.972L105.157 16.7469C104.748 15.9054 104.429 15.023 104.206 14.1144H104.118C104.263 15.7878 104.322 17.4675 104.296 19.1469V36.3402H100.69V10.6562H105.591L115.322 28.5668C115.894 29.5513 116.382 30.5822 116.782 31.6484H116.916C117.548 30.2393 118.056 29.1888 118.44 28.4972L128.37 10.6562H133.012L133.033 36.3402ZM153.06 36.3402H157.004V23.3744C157.002 18.4157 154.109 15.9365 148.325 15.9365C145.166 15.9365 142.377 16.5592 139.958 17.8049V21.0774C142.318 19.4497 145.123 18.5925 147.99 18.6232C151.37 18.6247 153.06 20.3187 153.06 23.7047L145.681 24.5434C140.263 25.1524 137.554 27.3194 137.554 31.0445C137.534 31.859 137.712 32.6661 138.074 33.3957C138.437 34.1253 138.972 34.7553 139.633 35.2305C141.021 36.2818 142.941 36.8074 145.393 36.8074C148.721 36.8091 151.245 35.615 152.965 33.2252H153.06V36.3402ZM147.128 26.9178L153.06 26.257L153.076 28.2417C153.093 29.0425 152.93 29.8372 152.6 30.5666C152.269 31.2961 151.778 31.942 151.165 32.4561C149.89 33.5659 148.276 34.1207 146.321 34.1207C144.897 34.1207 143.756 33.8127 142.896 33.1969C142.498 32.94 142.171 32.5867 141.946 32.1698C141.72 31.7531 141.603 31.286 141.606 30.8121C141.615 29.4736 142.08 28.5419 143.002 28.0172C143.923 27.4925 145.299 27.126 147.128 26.9178ZM175.299 19.6347C174.612 19.2063 173.617 18.9921 172.318 18.9921C171.516 18.9791 170.721 19.1453 169.991 19.4788C169.261 19.8124 168.614 20.3047 168.099 20.92C166.969 22.2051 166.405 23.9575 166.405 26.177V36.3402H162.463V16.4035H166.405V20.5147H166.502C167.006 19.1834 167.907 18.0386 169.081 17.2345C170.22 16.4538 171.57 16.0419 172.95 16.0551C173.745 16.0267 174.538 16.1189 175.305 16.3287V16.4037H178.885V11.5363L182.826 10.504V16.4037H189.016V19.129H182.826V30.3631C182.826 31.7001 183.106 32.6541 183.667 33.2253C184.228 33.7966 185.158 34.0821 186.458 34.0821C187.361 34.1077 188.255 33.8787 189.036 33.4215L189.028 36.1468C188.1 36.5631 186.874 36.7705 185.351 36.7688C181.038 36.7688 178.883 34.8219 178.885 30.9284V19.129H175.3L175.299 19.6347ZM0.79248 42.2606H3.41545V43.9293H0.79248V42.2606Z" fill="white"/>
</svg>
