<svg width="130" height="42" viewBox="0 0 130 42" fill="none" xmlns="http://www.w3.org/2000/svg">
<g id="BYBIT logo">
<path d="M14.1948 42H0.226562V9.46784H13.6294C20.1435 9.46784 23.9416 13.0318 23.9416 18.6043C23.9416 22.2122 21.5032 24.5454 19.8174 25.3197C21.8327 26.2327 24.4099 28.2885 24.4099 32.6302C24.4134 38.7099 20.1469 42 14.1948 42ZM13.116 15.135H6.74066V22.6281H13.116C15.8805 22.6281 17.4275 21.12 17.4275 18.8816C17.431 16.6431 15.884 15.135 13.116 15.135ZM13.5392 28.3393H6.74413V36.3362H13.5392C16.491 36.3362 17.8993 34.5069 17.8993 32.3158C17.8993 30.1212 16.491 28.3393 13.5392 28.3393Z" fill="white"/>
<path d="M45.5166 28.6571V42H39.0475V28.6571L29.0163 9.46784H36.0923L42.3254 22.5808L48.4649 9.46784H55.5409L45.5166 28.6571Z" fill="white"/>
<path d="M74.2022 41.6619H60.234V9.1297H73.6368C80.1509 9.1297 83.9491 12.6937 83.9491 18.2662C83.9491 21.8741 81.5106 24.2072 79.8248 24.9816C81.8401 25.8945 84.4173 27.9504 84.4173 32.2921C84.4208 38.3718 80.1544 41.6619 74.2022 41.6619ZM73.1234 14.7969H66.7481V22.29H73.1234C75.8879 22.29 77.435 20.7819 77.435 18.5434C77.435 16.305 75.8879 14.7969 73.1234 14.7969ZM73.5466 28.0011H66.7516V35.9981H73.5466C76.4984 35.9981 77.9067 34.1687 77.9067 31.9776C77.9032 29.7831 76.4984 28.0011 73.5466 28.0011Z" fill="white"/>
<path d="M120.557 15.1316V41.9966H114.043V15.1316H105.326V9.46784H129.277V15.1316H120.557Z" fill="white"/>
<path d="M92.4923 32.5322V0H99.0064V32.5322H92.4923Z" fill="#F7A600"/>
</g>
</svg>
