<svg width="165" height="36" viewBox="0 0 165 36" fill="none" xmlns="http://www.w3.org/2000/svg">
<g id="Vector">
<path d="M18.3528 0.0430255C13.5933 0.0431827 9.02869 1.91642 5.66318 5.25068C2.29766 8.58495 0.406867 13.1071 0.406709 17.8225C0.406709 17.8255 0.406709 17.8278 0.406709 17.8302C0.406097 17.8418 0.406097 17.8535 0.406709 17.8652C0.406709 17.8735 0.406709 17.8818 0.406709 17.8901C0.406414 17.892 0.406414 17.894 0.406709 17.896C0.407471 17.904 0.408872 17.9119 0.410897 17.9197C0.41191 17.9291 0.413509 17.9384 0.415684 17.9476C0.415684 17.9565 0.419872 17.9659 0.422266 17.9748C0.424659 17.9837 0.427052 17.9932 0.430044 18.0021C0.433036 18.011 0.437823 18.024 0.442011 18.0347C0.446199 18.0454 0.447396 18.0495 0.450986 18.0572C0.454576 18.0649 0.465346 18.0887 0.473125 18.1035L0.482698 18.1189C0.488682 18.1296 0.495263 18.1408 0.502444 18.1515L0.51441 18.1675C0.520992 18.177 0.528172 18.1865 0.535352 18.1954L0.549713 18.212C0.556893 18.2203 0.564671 18.2285 0.57245 18.2363L0.589203 18.2529L0.612539 18.2736L0.631686 18.289C0.639465 18.2955 0.64766 18.3014 0.656218 18.3068C0.662799 18.3121 0.670578 18.3169 0.677758 18.3216L0.70229 18.3364L0.726224 18.3495L0.751953 18.3613L0.777083 18.3726L0.804607 18.3821L0.829737 18.391L0.860253 18.3987C0.868629 18.3987 0.876408 18.4028 0.884785 18.404L0.920685 18.4099H0.941627C0.961489 18.4122 0.981474 18.4132 1.00146 18.4129H17.7545V35.0098C17.7545 35.0293 17.7545 35.0483 17.7575 35.069C17.7575 35.0756 17.7575 35.0827 17.7575 35.0898C17.7575 35.0969 17.7604 35.1135 17.7628 35.1254C17.7652 35.1372 17.767 35.1414 17.7688 35.1497C17.7706 35.158 17.7736 35.1698 17.7766 35.1793C17.7796 35.1888 17.782 35.1965 17.785 35.2048C17.788 35.2131 17.7916 35.2232 17.7952 35.2321L17.8059 35.257L17.8185 35.2824L17.8317 35.3062L17.8466 35.3305L17.861 35.3518L17.8789 35.3755L17.8951 35.3951L17.916 35.4182L17.9322 35.4348L17.9567 35.4567L17.9735 35.4715C17.9824 35.4787 17.992 35.4852 18.0016 35.4917L18.0183 35.5041L18.05 35.5231L18.0662 35.5326C18.0806 35.5403 18.0949 35.5468 18.1099 35.5533C18.1248 35.5599 18.129 35.5611 18.1386 35.5646L18.1691 35.5759L18.1972 35.5836L18.2242 35.5901C18.2336 35.5923 18.2432 35.5938 18.2529 35.5948L18.2762 35.599H18.281C18.3037 35.6016 18.3264 35.603 18.3492 35.6031H18.357C21.9058 35.602 25.3747 34.5585 28.325 32.6046C31.2753 30.6506 33.5746 27.8739 34.9322 24.6255C36.2899 21.377 36.6449 17.8028 35.9525 14.3545C35.26 10.9062 33.5511 7.73869 31.0419 5.25244C29.3795 3.59611 27.402 2.28286 25.224 1.38867C23.0459 0.494477 20.7105 0.0371069 18.3528 0.0430255ZM35.0909 17.2297H18.9512V1.24046C27.7121 1.54693 34.7815 8.55011 35.0909 17.2297ZM21.1955 21.477L18.9512 30.2544V19.2541L21.1955 21.477ZM17.7545 16.3915L15.5107 14.1686L17.7545 5.39115V16.3915ZM22.0416 20.6388L19.7978 18.4153H30.9013L22.0416 20.6388ZM17.5792 1.24698L14.3541 13.8615L1.62194 17.056C2.01565 8.51514 8.95823 1.63703 17.5792 1.24698ZM5.80496 17.2297L14.6646 15.0068L16.9084 17.2297H5.80496ZM19.1265 34.3986L22.3515 21.7841L35.0843 18.589C34.6918 27.1334 27.751 34.0097 19.1265 34.3986Z" fill="white"/>
<path d="M48.2329 22.1587C48.4194 22.4239 48.6453 22.6595 48.903 22.8576C49.1471 23.0455 49.4131 23.2038 49.6952 23.3289C49.9639 23.448 50.2448 23.538 50.5329 23.5974C50.7936 23.6525 51.0592 23.6813 51.3257 23.6834H60.9172V21.0496H51.3257C50.9847 21.0496 50.7206 20.9568 50.5335 20.771C50.3464 20.5853 50.2527 20.3235 50.2523 19.9856V12.8721C50.2523 12.5141 50.3442 12.244 50.5281 12.0618C50.712 11.8796 50.9779 11.7889 51.3257 11.7897H60.9172V9.15595H51.3257C50.9101 9.15007 50.4961 9.20827 50.0985 9.32845C49.7576 9.43274 49.4347 9.58807 49.1412 9.78904C48.8728 9.97455 48.6334 10.1983 48.4309 10.453C48.2392 10.6939 48.0784 10.9576 47.9523 11.2378C47.8319 11.5039 47.7412 11.7822 47.6818 12.0677C47.6261 12.326 47.5968 12.5891 47.5945 12.8532V19.9856C47.5886 20.3987 47.6471 20.8101 47.768 21.2055C47.8728 21.545 48.0296 21.8664 48.2329 22.1587Z" fill="white"/>
<path d="M65.8158 20.1172H75.1619V23.6834H77.8209V10.4832C77.8219 10.3059 77.7872 10.1301 77.7186 9.96629C77.6524 9.80653 77.5549 9.66138 77.4316 9.53926C77.3084 9.41715 77.1619 9.32051 77.0006 9.25494C76.8353 9.18705 76.6579 9.15259 76.4789 9.15357H70.4888C69.4882 9.14312 68.4951 9.32552 67.5648 9.69064C66.6976 10.0318 65.9082 10.5415 65.2432 11.1898C64.5798 11.8454 64.058 12.628 63.7096 13.4898C63.3414 14.381 63.1574 15.3567 63.1574 16.417V23.6834H65.8158V20.1172ZM65.8158 16.4194C65.8158 15.6839 65.9199 15.0575 66.1281 14.5402C66.31 14.0652 66.5785 13.6273 66.9203 13.2486C67.2208 12.9195 67.5773 12.6452 67.9734 12.4382C68.3204 12.2564 68.6853 12.1104 69.0624 12.0025C69.3599 11.917 69.6645 11.8575 69.9725 11.8247C70.235 11.801 70.4071 11.7891 70.4888 11.7891H75.1619V17.4799H65.8158V16.4194Z" fill="white"/>
<path d="M81.8346 16.7845C82.2444 17.1139 82.7137 17.3631 83.2174 17.519C83.6669 17.663 84.1356 17.7397 84.6079 17.7466H90.723C90.9522 17.7439 91.1798 17.7851 91.3932 17.8681C91.5867 17.9448 91.7611 18.0624 91.9041 18.2125C92.0461 18.365 92.1556 18.5442 92.226 18.7395C92.3033 18.9541 92.3413 19.1805 92.3385 19.4082C92.3385 19.9081 92.1971 20.3067 91.9143 20.6039C91.6315 20.901 91.2344 21.0496 90.723 21.0496H80.4692V23.6834H90.7254C91.0333 23.681 91.3401 23.6471 91.6409 23.582C91.9707 23.5125 92.2917 23.4071 92.5982 23.2678C92.9215 23.1202 93.2268 22.9366 93.5083 22.7207C93.8059 22.493 94.0647 22.2194 94.2748 21.9104C94.5036 21.5715 94.681 21.2012 94.8013 20.8113C94.9404 20.3566 95.0078 19.8833 95.0012 19.4082C95.0076 18.9352 94.9421 18.464 94.8067 18.0104C94.688 17.6214 94.5105 17.2524 94.2802 16.9161C94.068 16.6087 93.8114 16.3338 93.5185 16.1004C93.2391 15.879 92.9347 15.6904 92.6114 15.5385C92.3057 15.3936 91.9846 15.283 91.654 15.2089C91.3553 15.14 91.0505 15.1003 90.7439 15.0903H84.6103C84.1057 15.0903 83.7122 14.9433 83.4298 14.6493C83.1474 14.3553 83.0058 13.9552 83.005 13.4489C83.005 12.949 83.1466 12.5471 83.4298 12.2432C83.713 11.9393 84.1065 11.7873 84.6103 11.7873H93.6603V9.15595H84.6103C84.1379 9.16274 83.6692 9.23967 83.2198 9.38417C82.6914 9.54602 82.2019 9.81269 81.7808 10.1679C81.3598 10.5232 81.0162 10.9596 80.7708 11.4506C80.4872 11.9944 80.3454 12.6613 80.3454 13.4513C80.3454 14.2413 80.4868 14.9099 80.7696 15.4573C81.0249 15.9699 81.3881 16.4225 81.8346 16.7845Z" fill="white"/>
<path d="M101.789 23.6834H104.448V11.7897H110.307V9.15595H95.9202V11.7897H101.789V23.6834Z" fill="white"/>
<path d="M114.919 11.7897H123.693C123.747 11.7897 123.807 11.7933 123.872 11.7998C123.938 11.8071 124.001 11.8299 124.057 11.8662C124.12 11.9092 124.169 11.9688 124.2 12.0381C124.242 12.1461 124.262 12.2619 124.256 12.3777V14.0375C124.261 14.3508 124.206 14.6622 124.092 14.9546C123.989 15.2132 123.83 15.4466 123.627 15.6387C123.418 15.8322 123.175 15.9851 122.909 16.0892C122.616 16.2044 122.308 16.2744 121.994 16.2967H115.983V18.931H117.897L123.44 23.6822H127.55L121.998 18.931C122.35 18.9283 122.701 18.891 123.046 18.8196C123.427 18.7419 123.797 18.6212 124.15 18.4597C124.522 18.2894 124.873 18.0769 125.196 17.8266C125.536 17.5635 125.834 17.2509 126.08 16.8995C126.347 16.5161 126.552 16.0942 126.689 15.6487C126.846 15.1261 126.922 14.5828 126.914 14.0375V12.357C126.909 12.003 126.852 11.6515 126.745 11.3137C126.629 10.9359 126.442 10.5834 126.193 10.2751C125.921 9.94149 125.582 9.66873 125.196 9.47487C124.787 9.26225 124.286 9.15595 123.693 9.15595H113.6C113.418 9.15427 113.237 9.18873 113.069 9.25731C112.909 9.32187 112.764 9.41832 112.644 9.54067C112.524 9.66381 112.429 9.80819 112.363 9.96629C112.294 10.1301 112.259 10.3059 112.26 10.4832V23.6834H114.919V11.7897Z" fill="white"/>
<path d="M142.61 23.6834C142.789 23.6844 142.967 23.6499 143.132 23.582C143.291 23.5168 143.437 23.4223 143.561 23.3034C143.684 23.1842 143.782 23.0411 143.847 22.8831C143.917 22.716 143.951 22.5368 143.95 22.3561V9.15595H141.291V21.0496H136.618C136.538 21.0496 136.366 21.0378 136.101 21.0141C135.793 20.9813 135.489 20.9218 135.191 20.8362C134.814 20.7283 134.449 20.5823 134.102 20.4005C133.706 20.1935 133.35 19.9192 133.049 19.5902C132.708 19.2127 132.44 18.7765 132.257 18.3032C132.049 17.7895 131.945 17.1613 131.945 16.4188V9.15595H129.286V16.4194C129.277 17.2015 129.38 17.981 129.593 18.7342C129.779 19.3874 130.064 20.0092 130.437 20.5784C130.782 21.1017 131.204 21.5712 131.689 21.9714C132.156 22.3563 132.669 22.6814 133.218 22.9388C133.755 23.1902 134.319 23.3788 134.9 23.5008C135.464 23.6208 136.04 23.682 136.618 23.6834H142.61Z" fill="white"/>
<path d="M163.828 9.46834C163.652 9.23771 163.404 9.07103 163.122 8.99411C162.836 8.9188 162.534 8.93646 162.258 9.0445C161.986 9.14944 161.757 9.34218 161.609 9.59164L155.557 20.0158L149.502 9.59164C149.43 9.46693 149.336 9.35544 149.226 9.26205C149.118 9.17155 148.995 9.0998 148.863 9.04984C148.593 8.94646 148.299 8.92701 148.018 8.99411C147.734 9.06841 147.483 9.2355 147.307 9.46834C147.128 9.70068 147.032 9.98609 147.036 10.2787V23.6834H149.695V15.0287L154.429 23.2447C154.538 23.4461 154.705 23.6111 154.908 23.719C155.107 23.8267 155.33 23.8825 155.557 23.8814C155.79 23.8824 156.02 23.8266 156.227 23.719C156.433 23.6128 156.602 23.4476 156.712 23.2447L161.426 15.0287V23.6834H164.106V10.2805C164.109 9.98631 164.011 9.69977 163.828 9.46834Z" fill="white"/>
</g>
</svg>
