<svg width="236" height="51" viewBox="0 0 236 51" fill="none" xmlns="http://www.w3.org/2000/svg">
<path d="M26.5133 8.13404e-05C19.6807 0.000306806 13.128 2.68688 8.29662 7.46885C3.46523 12.2508 0.750886 18.7365 0.750658 25.4992C0.750658 25.5034 0.750658 25.5068 0.750658 25.5102C0.749781 25.527 0.749781 25.5437 0.750658 25.5604C0.750658 25.5723 0.750658 25.5842 0.750658 25.5961C0.750235 25.5989 0.750235 25.6018 0.750658 25.6046C0.751753 25.6161 0.753764 25.6275 0.756671 25.6386C0.758125 25.6521 0.76042 25.6654 0.763543 25.6786C0.763543 25.6913 0.769555 25.7049 0.772991 25.7177C0.776427 25.7304 0.779863 25.744 0.784158 25.7568C0.788453 25.7695 0.795324 25.7882 0.801337 25.8036C0.80735 25.8189 0.809067 25.8248 0.814221 25.8359C0.819375 25.8469 0.834836 25.8809 0.846003 25.9022L0.859746 25.9243C0.868335 25.9396 0.877784 25.9557 0.888091 25.971L0.905271 25.994C0.914719 26.0076 0.925027 26.0212 0.935334 26.0339L0.955949 26.0578C0.966256 26.0697 0.977423 26.0816 0.988589 26.0926L1.01264 26.1164L1.04614 26.1462L1.07363 26.1683C1.08479 26.1775 1.09656 26.186 1.10884 26.1938C1.11829 26.2014 1.12946 26.2082 1.13977 26.215L1.17498 26.2363L1.20934 26.255L1.24628 26.272L1.28235 26.2881L1.32186 26.3017L1.35794 26.3145L1.40175 26.3256C1.41377 26.3256 1.42494 26.3315 1.43696 26.3332L1.4885 26.3417H1.51856C1.54708 26.3449 1.57577 26.3463 1.60446 26.346H25.6544V50.149C25.6544 50.177 25.6544 50.2042 25.6587 50.234C25.6587 50.2433 25.6587 50.2535 25.6587 50.2637C25.6587 50.274 25.663 50.2978 25.6664 50.3148C25.6698 50.3318 25.6724 50.3377 25.675 50.3496C25.6776 50.3615 25.6819 50.3785 25.6861 50.3921C25.6904 50.4057 25.6939 50.4168 25.6982 50.4287C25.7025 50.4406 25.7076 50.455 25.7128 50.4678L25.7282 50.5035L25.7463 50.5401L25.7652 50.5741L25.7866 50.6089L25.8073 50.6395L25.833 50.6735L25.8562 50.7016L25.8863 50.7347L25.9095 50.7585L25.9447 50.79L25.9687 50.8113C25.9816 50.8215 25.9954 50.8308 26.0091 50.8402L26.0332 50.858L26.0787 50.8852L26.1019 50.8988C26.1225 50.9099 26.1431 50.9192 26.1646 50.9286C26.1861 50.9379 26.1921 50.9396 26.2058 50.9447L26.2496 50.9609L26.29 50.9719L26.3286 50.9813C26.3422 50.9844 26.356 50.9867 26.3699 50.9881L26.4034 50.994H26.4102C26.4428 50.9978 26.4754 50.9998 26.5082 51H26.5193C31.6139 50.9984 36.5936 49.5018 40.8289 46.6995C45.0642 43.8971 48.3651 39.9148 50.314 35.2559C52.263 30.5971 52.7727 25.4709 51.7786 20.5254C50.7846 15.5799 48.3314 11.0371 44.7292 7.47136C42.3428 5.09588 39.504 3.21242 36.3773 1.92999C33.2505 0.647548 29.8979 -0.00840704 26.5133 8.13404e-05ZM50.5418 24.649H27.3723V1.71742C39.9491 2.15696 50.0977 12.2009 50.5418 24.649ZM30.5942 30.7405L27.3723 43.3289V27.5523L30.5942 30.7405ZM25.6544 23.4469L22.4333 20.2587L25.6544 7.6703V23.4469ZM31.8088 29.5383L28.5877 26.3494H44.5273L31.8088 29.5383ZM25.4027 1.72677L20.7729 19.8184L2.4952 24.3999C3.06039 12.1507 13.0269 2.28618 25.4027 1.72677ZM8.50016 24.649L21.2187 21.4609L24.4398 24.649H8.50016ZM27.624 49.2725L32.2537 31.1809L50.5323 26.5985C49.9688 38.8528 40.0049 48.7147 27.624 49.2725Z" fill="white"/>
<path d="M69.4079 31.7182C69.6756 32.0984 70 32.4364 70.3699 32.7205C70.7204 32.99 71.1022 33.2169 71.5072 33.3964C71.8929 33.5672 72.2961 33.6964 72.7097 33.7815C73.0839 33.8605 73.4652 33.9018 73.8478 33.9048H87.6169V30.1275H73.8478C73.3582 30.1275 72.9792 29.9943 72.7106 29.7279C72.442 29.4616 72.3075 29.0861 72.3069 28.6015V18.3994C72.3069 17.8859 72.4389 17.4985 72.7029 17.2373C72.9668 16.976 73.3485 16.8459 73.8478 16.847H87.6169V13.0697H73.8478C73.2512 13.0613 72.6569 13.1448 72.0861 13.3171C71.5967 13.4667 71.1332 13.6895 70.7118 13.9777C70.3265 14.2438 69.9829 14.5646 69.6922 14.9299C69.4169 15.2755 69.1861 15.6536 69.0051 16.0555C68.8323 16.4371 68.7021 16.8362 68.6168 17.2458C68.5368 17.6161 68.4948 17.9935 68.4914 18.3722V28.6015C68.483 29.1939 68.567 29.784 68.7405 30.3511C68.891 30.8379 69.1161 31.299 69.4079 31.7182Z" fill="white"/>
<path d="M94.6492 28.7902H108.066V33.9048H111.883V14.9733C111.885 14.7189 111.835 14.4669 111.736 14.2319C111.641 14.0028 111.501 13.7946 111.324 13.6195C111.147 13.4443 110.937 13.3057 110.706 13.2117C110.468 13.1143 110.214 13.0649 109.957 13.0663H101.358C99.9212 13.0513 98.4955 13.3129 97.1599 13.8366C95.9151 14.3259 94.7819 15.0569 93.8272 15.9867C92.8748 16.927 92.1258 18.0493 91.6256 19.2853C91.0971 20.5634 90.8328 21.9628 90.8328 23.4834V33.9048H94.6492V28.7902ZM94.6492 23.4868C94.6492 22.4321 94.7986 21.5337 95.0975 20.7918C95.3586 20.1105 95.7441 19.4825 96.2348 18.9393C96.6662 18.4674 97.1779 18.074 97.7466 17.7771C98.2447 17.5164 98.7685 17.307 99.3099 17.1522C99.737 17.0296 100.174 16.9442 100.616 16.8972C100.993 16.8632 101.24 16.8462 101.358 16.8462H108.066V25.0078H94.6492V23.4868Z" fill="white"/>
<path d="M117.645 24.0105C118.233 24.4829 118.907 24.8404 119.63 25.0639C120.275 25.2704 120.948 25.3805 121.626 25.3904H130.405C130.734 25.3864 131.061 25.4456 131.367 25.5647C131.645 25.6747 131.895 25.8432 132.101 26.0586C132.304 26.2773 132.461 26.5343 132.563 26.8144C132.673 27.1221 132.728 27.4468 132.724 27.7734C132.724 28.4904 132.521 29.062 132.115 29.4882C131.709 29.9144 131.139 30.1275 130.405 30.1275H115.685V33.9048H130.408C130.85 33.9015 131.291 33.8527 131.723 33.7594C132.196 33.6597 132.657 33.5086 133.097 33.3088C133.561 33.0971 133.999 32.8339 134.403 32.5241C134.831 32.1976 135.202 31.8052 135.504 31.362C135.832 30.8759 136.087 30.3449 136.26 29.7857C136.459 29.1336 136.556 28.4548 136.546 27.7734C136.556 27.0951 136.462 26.4192 136.267 25.7687C136.097 25.2108 135.842 24.6816 135.511 24.1993C135.207 23.7583 134.838 23.3642 134.418 23.0295C134.017 22.7118 133.58 22.4413 133.116 22.2235C132.677 22.0157 132.216 21.8571 131.741 21.7508C131.313 21.6521 130.875 21.5951 130.435 21.5808H121.63C120.905 21.5808 120.341 21.3699 119.935 20.9482C119.53 20.5266 119.326 19.9527 119.325 19.2267C119.325 18.5097 119.529 17.9333 119.935 17.4974C120.342 17.0616 120.907 16.8436 121.63 16.8436H134.622V13.0697H121.63C120.952 13.0795 120.279 13.1898 119.634 13.397C118.875 13.6292 118.172 14.0116 117.568 14.5211C116.964 15.0306 116.47 15.6565 116.118 16.3607C115.711 17.1406 115.507 18.0971 115.507 19.2301C115.507 20.363 115.71 21.322 116.116 22.107C116.483 22.8423 117.004 23.4913 117.645 24.0105Z" fill="white"/>
<path d="M146.291 33.9048H150.109V16.847H158.519V13.0697H137.866V16.847H146.291V33.9048Z" fill="white"/>
<path d="M165.14 16.847H177.735C177.813 16.847 177.898 16.8521 177.993 16.8615C178.087 16.8721 178.178 16.9047 178.257 16.9567C178.348 17.0185 178.419 17.1038 178.463 17.2033C178.524 17.3581 178.552 17.5242 178.543 17.6904V20.0709C178.551 20.5202 178.471 20.9668 178.308 21.3861C178.16 21.757 177.932 22.0917 177.641 22.3672C177.341 22.6448 176.991 22.864 176.61 23.0133C176.19 23.1786 175.747 23.279 175.296 23.3109H166.667V27.089H169.415L177.372 33.9031H183.273L175.302 27.089C175.807 27.0851 176.312 27.0316 176.807 26.9292C177.353 26.8178 177.885 26.6447 178.391 26.4131C178.926 26.1688 179.429 25.8641 179.893 25.5051C180.381 25.1278 180.809 24.6795 181.162 24.1755C181.545 23.6256 181.84 23.0205 182.036 22.3816C182.262 21.6321 182.371 20.8529 182.359 20.0709V17.6606C182.352 17.1529 182.27 16.6488 182.117 16.1643C181.95 15.6225 181.681 15.117 181.324 14.6748C180.934 14.1964 180.446 13.8052 179.893 13.5271C179.305 13.2222 178.586 13.0697 177.735 13.0697H163.246C162.985 13.0673 162.725 13.1168 162.483 13.2151C162.254 13.3077 162.047 13.446 161.874 13.6215C161.702 13.7981 161.565 14.0052 161.47 14.2319C161.372 14.4669 161.322 14.7189 161.323 14.9733V33.9048H165.14V16.847Z" fill="white"/>
<path d="M204.892 33.9048C205.149 33.9062 205.403 33.8568 205.641 33.7594C205.87 33.666 206.079 33.5304 206.257 33.3599C206.434 33.1888 206.574 32.9837 206.668 32.7571C206.767 32.5173 206.817 32.2604 206.815 32.0013V13.0697H202.998V30.1275H196.289C196.175 30.1275 195.928 30.1105 195.548 30.0765C195.106 30.0295 194.669 29.9441 194.242 29.8214C193.7 29.6667 193.176 29.4573 192.678 29.1966C192.11 28.8997 191.598 28.5063 191.167 28.0344C190.677 27.493 190.291 26.8675 190.029 26.1887C189.73 25.4519 189.581 24.551 189.581 23.486V13.0697H185.765V23.4868C185.751 24.6086 185.9 25.7265 186.205 26.8068C186.472 27.7436 186.881 28.6353 187.416 29.4516C187.912 30.2022 188.518 30.8756 189.214 31.4495C189.884 32.0015 190.621 32.4677 191.409 32.837C192.179 33.1975 192.99 33.4679 193.823 33.643C194.634 33.8151 195.46 33.9028 196.289 33.9048H204.892Z" fill="white"/>
<path d="M235.351 13.5178C235.098 13.187 234.743 12.9479 234.339 12.8376C233.928 12.7296 233.493 12.7549 233.098 12.9099C232.707 13.0604 232.379 13.3368 232.166 13.6946L223.478 28.6448L214.786 13.6946C214.682 13.5157 214.548 13.3558 214.389 13.2219C214.234 13.0921 214.058 12.9892 213.868 12.9175C213.481 12.7693 213.058 12.7414 212.655 12.8376C212.247 12.9442 211.888 13.1838 211.635 13.5178C211.377 13.851 211.24 14.2603 211.246 14.6799V33.9048H215.062V21.4923L221.859 33.2757C222.015 33.5645 222.254 33.8012 222.546 33.9558C222.832 34.1103 223.152 34.1905 223.478 34.1888C223.813 34.1902 224.143 34.1102 224.439 33.9558C224.735 33.8036 224.978 33.5666 225.137 33.2757L231.903 21.4923V33.9048H235.75V14.6825C235.755 14.2606 235.614 13.8497 235.351 13.5178Z" fill="white"/>
</svg>
