<svg width="218" height="36" viewBox="0 0 218 36" fill="none" xmlns="http://www.w3.org/2000/svg">
<path d="M15.6527 28.4107C14.9506 28.1244 14.3543 27.627 13.9461 26.987H13.9472L25.238 22.2393C25.4242 22.15 25.6264 22.0996 25.8326 22.0911C26.0388 22.0825 26.2445 22.116 26.4374 22.1896C26.6302 22.2631 26.8062 22.3752 26.9545 22.5189C27.1029 22.6626 27.2205 22.835 27.3004 23.0257C27.3802 23.2164 27.4206 23.4213 27.419 23.6281C27.4174 23.8348 27.374 24.0391 27.2913 24.2285C27.2085 24.418 27.0883 24.5886 26.9378 24.73C26.7873 24.8715 26.6096 24.9808 26.4157 25.0514L18.4601 28.3982C18.0161 28.5858 17.5395 28.6835 17.0576 28.6857C16.5758 28.6878 16.0983 28.5943 15.6527 28.4107Z" fill="white"/>
<path d="M10.5187 10.5829C10.8012 10.4657 11.1041 10.4057 11.4099 10.4061V10.405C11.7228 10.4043 12.0325 10.4683 12.3197 10.593L12.4519 10.6496V26.2531L12.2937 26.3177C12.0043 26.4377 11.7037 26.4977 11.4031 26.4977C10.951 26.4977 10.5057 26.3573 10.1146 26.0968C9.46023 25.6562 9.08387 24.9495 9.08387 24.1601V12.7392C9.08313 12.4328 9.14277 12.1293 9.25937 11.846C9.37597 11.5628 9.54723 11.3054 9.76334 11.0886C9.97944 10.8718 10.2361 10.7 10.5187 10.5829Z" fill="white"/>
<path d="M25.8184 14.788C25.6182 14.787 25.4201 14.7462 25.2358 14.668L13.9483 9.92138C14.3552 9.27921 14.9373 8.79107 15.6538 8.49774C16.0991 8.31371 16.5765 8.22005 17.0582 8.22219C17.5399 8.22433 18.0164 8.32222 18.4601 8.51019L26.4157 11.857C26.6005 11.9337 26.7683 12.0465 26.9091 12.1888C27.05 12.3312 27.1612 12.5002 27.2362 12.686C27.3888 13.062 27.3888 13.4777 27.2306 13.8525C27.1534 14.0374 27.0405 14.2052 26.8983 14.3461C26.7561 14.4871 26.5875 14.5984 26.4021 14.6737C26.217 14.7501 26.0186 14.7889 25.8184 14.788Z" fill="white"/>
<path fill-rule="evenodd" clip-rule="evenodd" d="M36.175 18C36.175 27.9406 28.1324 36 18.2125 36C8.29147 36 0.25 27.9406 0.25 18C0.25 8.0594 8.29147 0 18.2125 0C28.1324 0 36.175 8.0594 36.175 18ZM14.5811 29.2783C15.3282 29.7103 16.1757 29.9376 17.0383 29.9374V29.9362C17.6912 29.9359 18.3375 29.8049 18.9393 29.5512L26.896 26.2044C27.2318 26.0638 27.5365 25.8581 27.7926 25.599C28.0486 25.3398 28.251 25.0325 28.3879 24.6947C28.5972 24.1866 28.651 23.6276 28.5425 23.0887C28.4339 22.5499 28.1679 22.0556 27.7783 21.6687C27.3886 21.2817 26.893 21.0197 26.3543 20.9158C25.8156 20.8119 25.2583 20.8708 24.7532 21.0852L13.7076 25.731V11.1751L24.752 15.821C25.0869 15.9636 25.4467 16.038 25.8105 16.04C26.1743 16.0419 26.5349 15.9713 26.8712 15.8323C27.2085 15.6954 27.5154 15.4927 27.774 15.2361C28.0326 14.9795 28.2378 14.674 28.3778 14.3373C28.5194 14.0013 28.5932 13.6406 28.5948 13.2758C28.5963 12.9111 28.5256 12.5497 28.3868 12.2126C28.25 11.8748 28.0477 11.5675 27.7917 11.3085C27.5356 11.0496 27.2308 10.8441 26.8949 10.704L18.9405 7.3561C18.3454 7.10414 17.7065 6.97281 17.0605 6.9697C16.4145 6.96659 15.7743 7.09176 15.1769 7.33798C14.1703 7.74912 13.3287 8.48377 12.7842 9.42645C12.2423 9.19958 11.653 9.10994 11.0684 9.16545C10.4837 9.22095 9.9217 9.4199 9.43198 9.7447C8.42722 10.4118 7.82707 11.5319 7.82707 12.7381V24.1624C7.82655 24.7514 7.9711 25.3314 8.24791 25.851C8.52472 26.3706 8.92522 26.8137 9.41389 27.141C9.90194 27.4709 10.4639 27.6746 11.0496 27.7339C11.6353 27.7932 12.2266 27.7062 12.7706 27.4808L12.7819 27.4763C13.2134 28.2248 13.8339 28.8462 14.5811 29.2783Z" fill="white"/>
<path d="M50.8497 28.4741C49.6548 27.8049 48.6887 26.7906 48.0773 25.5634C47.4319 24.3006 47.1098 22.8056 47.1098 21.0784V14.8866C47.1098 13.1606 47.4319 11.6645 48.0773 10.4016C48.6901 9.17364 49.6557 8.15754 50.8497 7.48413C52.0522 6.80118 53.4695 6.46028 55.1004 6.46028C56.4533 6.46028 57.6796 6.75022 58.7793 7.32896C59.8778 7.90884 60.7911 8.74468 61.52 9.83422C62.2479 10.9271 62.7463 12.2183 63.0164 13.7076H59.2054C59.0379 13.0223 58.7384 12.3763 58.3238 11.806C57.9474 11.2859 57.4572 10.8589 56.8907 10.5579C56.3392 10.2685 55.7252 10.1192 55.1027 10.123C54.246 10.123 53.5034 10.3167 52.8796 10.704C52.2545 11.0925 51.7731 11.6441 51.4318 12.3576C51.0927 13.0711 50.922 13.916 50.922 14.8866V21.0784C50.922 22.0524 51.0916 22.8951 51.4306 23.6086C51.7731 24.3221 52.2545 24.8714 52.8796 25.2542C53.5034 25.6359 54.246 25.8284 55.1027 25.8284C55.7514 25.8284 56.3538 25.6891 56.9054 25.4094C57.4592 25.1308 57.9361 24.7208 58.3374 24.1828C58.7386 23.6448 59.0279 22.9981 59.2054 22.2427H63.0164C62.7373 23.732 62.2343 25.022 61.5065 26.115C60.7775 27.2079 59.8643 28.0403 58.7646 28.6214C57.6649 29.2012 56.4443 29.4889 55.1027 29.4889C53.4673 29.4912 52.0511 29.1525 50.8497 28.4741ZM67.9894 6.69246H71.6908V29.259H67.9894V6.69246ZM69.9548 16.3295H82.7635V19.8835H69.9548V16.3295ZM80.5495 6.69246H84.2509V29.259H80.5495V6.69246ZM96.5985 6.69246H99.2929L107.75 29.259H103.769L97.9457 12.4493L92.1229 29.259H88.1434L96.5985 6.69246ZM92.1229 21.4193H103.971V24.9733H92.1229V21.4193ZM115.264 29.2579H111.485V6.69132H115.264V29.2579ZM121.167 6.69246H125.194L134.889 24.0593L134.516 24.4637V6.69359H138.109V29.2443H134.052L124.387 12.1424L124.76 11.7381V29.2443H121.167V6.69246ZM144.17 6.69246H147.873V29.259H144.17V6.69246ZM145.952 16.9513H153.154C153.753 16.9513 154.278 16.8131 154.727 16.5391C155.183 16.258 155.548 15.851 155.779 15.3668C156.03 14.8594 156.159 14.2739 156.159 13.6125C156.159 12.9409 156.033 12.3519 155.786 11.8445C155.556 11.3572 155.191 10.9472 154.733 10.6644C154.279 10.3858 153.753 10.2453 153.154 10.2453H145.952V6.69359H153.046C154.419 6.69359 155.626 6.98239 156.671 7.55434C157.697 8.11292 158.54 8.95597 159.1 9.98258C159.679 11.0279 159.968 12.2387 159.968 13.6147C159.968 14.9897 159.679 16.1982 159.1 17.239C158.539 18.2609 157.695 19.0986 156.671 19.6514C155.626 20.2211 154.419 20.5053 153.046 20.5053H145.952V16.9513ZM164.71 6.69246H168.411V29.259H164.71V6.69246ZM166.445 25.7038H179.484V29.2567H166.445V25.7038ZM189.975 6.69246H192.669L201.126 29.259H197.145L191.322 12.4493L185.499 29.259H181.518L189.975 6.69246ZM185.499 21.4193H197.347V24.9733H185.499V21.4193ZM210.499 20.3185V29.2567H206.814V20.3185L200.059 6.69132H204.04L208.655 16.6399L213.269 6.69132H217.25L210.499 20.3185Z" fill="white"/>
</svg>
