<svg width="148" height="25" viewBox="0 0 148 25" fill="none" xmlns="http://www.w3.org/2000/svg">
<g clip-path="url(#clip0_4857_39414)">
<path d="M12.5825 24.4345C19.309 24.4345 24.7626 18.9809 24.7626 12.2543C24.7626 5.5278 19.309 0.0742188 12.5825 0.0742188C5.85516 0.0742188 0.402344 5.5278 0.402344 12.2543C0.402344 18.9809 5.85516 24.4345 12.5825 24.4345Z" fill="white"/>
<path d="M11.7851 20.3327C11.2002 20.3328 10.6255 20.179 10.1189 19.8867C9.61224 19.5943 9.19148 19.1738 8.89889 18.6673L8.89122 18.6704C8.52233 18.8229 8.1214 18.8818 7.72423 18.8417C7.32706 18.8015 6.946 18.6637 6.61507 18.4405C6.2837 18.219 6.01213 17.9191 5.82443 17.5675C5.63673 17.2159 5.53871 16.8234 5.53906 16.4249V8.69437C5.53906 7.87818 5.94601 7.12022 6.62733 6.66882C6.9594 6.44904 7.3405 6.31442 7.73694 6.27686C8.13338 6.2393 8.53298 6.29996 8.90042 6.45347C9.26963 5.81558 9.84034 5.31847 10.5229 5.04026C10.928 4.87365 11.3621 4.78895 11.8001 4.79105C12.2381 4.79316 12.6714 4.88203 13.0749 5.05252L18.4687 7.31795C18.6965 7.41276 18.9031 7.5518 19.0768 7.72703C19.2504 7.90225 19.3876 8.11018 19.4803 8.33877C19.5745 8.56691 19.6224 8.81146 19.6214 9.05825C19.6203 9.30505 19.5703 9.54918 19.4742 9.77651C19.3793 10.0043 19.2401 10.211 19.0648 10.3847C18.8894 10.5583 18.6814 10.6955 18.4526 10.7881C18.2246 10.8822 17.9801 10.93 17.7334 10.9287C17.4867 10.9274 17.2427 10.877 17.0157 10.7805L9.52655 7.63677V17.4863L17.0164 14.3426C17.3589 14.1976 17.7369 14.1577 18.1021 14.228C18.4674 14.2983 18.8035 14.4756 19.0677 14.7375C19.3319 14.9993 19.5123 15.3338 19.5859 15.6984C19.6595 16.063 19.623 16.4413 19.4811 16.7851C19.3882 17.0137 19.251 17.2216 19.0774 17.397C18.9038 17.5723 18.6972 17.7116 18.4695 17.8067L13.0741 20.0713C12.6661 20.2431 12.2278 20.3316 11.7851 20.3319V20.3327ZM9.68826 18.3362C9.96512 18.7693 10.3694 19.1059 10.8455 19.2996C11.1477 19.4239 11.4715 19.4871 11.7982 19.4857C12.1249 19.4842 12.4481 19.4181 12.7492 19.2912L18.1438 17.0265C18.2753 16.9787 18.3957 16.9047 18.4978 16.809C18.5998 16.7133 18.6814 16.5978 18.7375 16.4697C18.7936 16.3415 18.823 16.2032 18.8241 16.0633C18.8252 15.9234 18.7978 15.7847 18.7436 15.6557C18.6895 15.5267 18.6097 15.41 18.5091 15.3128C18.4085 15.2155 18.2892 15.1397 18.1585 15.0899C18.0277 15.0402 17.8882 15.0175 17.7484 15.0233C17.6086 15.0291 17.4714 15.0632 17.3452 15.1236L9.68903 18.3362H9.68826ZM7.9685 7.11639C7.76116 7.11609 7.5558 7.15673 7.36421 7.23598C7.17262 7.31523 6.99856 7.43153 6.85202 7.57821C6.70548 7.72489 6.58935 7.89907 6.51028 8.09074C6.43122 8.28241 6.39078 8.4878 6.39128 8.69514V16.4233C6.39128 16.9575 6.64649 17.4357 7.09022 17.7339C7.35539 17.9101 7.65735 18.0052 7.9639 18.0052C8.16776 18.0052 8.37162 17.9645 8.56781 17.8833L8.6751 17.8396V7.28116L8.58544 7.24284C8.39072 7.15848 8.1807 7.11517 7.9685 7.11562V7.11639ZM17.3437 10.0003C17.4687 10.0532 17.603 10.0808 17.7387 10.0815C17.8745 10.0821 18.009 10.0558 18.1346 10.0041C18.2603 9.95319 18.3746 9.87786 18.471 9.7825C18.5674 9.68713 18.644 9.57361 18.6963 9.44849C18.8036 9.19482 18.8036 8.91356 18.7002 8.65912C18.6493 8.53338 18.5739 8.41902 18.4783 8.3227C18.3828 8.22639 18.2691 8.15005 18.1438 8.09813L12.7492 5.83347C12.4483 5.70627 12.1252 5.64003 11.7986 5.63858C11.4719 5.63713 11.1482 5.70051 10.8463 5.82504C10.3604 6.02353 9.96569 6.35384 9.68979 6.78838L17.3437 10.0003Z" fill="white"/>
<path d="M11.7902 20.2863C11.359 20.2863 10.932 20.2017 10.5333 20.0372C9.85191 19.7597 9.2822 19.2633 8.91397 18.6263L8.9063 18.6302C8.53891 18.782 8.13966 18.8406 7.74413 18.8007C7.3486 18.7609 6.96907 18.6238 6.63934 18.4018C6.30898 18.181 6.03821 17.882 5.85105 17.5315C5.66389 17.181 5.56612 16.7897 5.56641 16.3923V8.68787C5.56641 7.87397 5.97259 7.11985 6.65161 6.66998C6.98221 6.45017 7.36199 6.31542 7.75721 6.27772C8.15242 6.24002 8.55083 6.30052 8.91703 6.45386C9.28504 5.81883 9.85319 5.32373 10.5326 5.04601C10.936 4.87973 11.3684 4.79506 11.8047 4.7969C12.241 4.79875 12.6727 4.88706 13.0747 5.05674L18.4516 7.31451C18.6785 7.40913 18.8844 7.5478 19.0574 7.72249C19.2304 7.89718 19.367 8.10444 19.4594 8.33226C19.553 8.55974 19.6006 8.80348 19.5995 9.04945C19.5985 9.29541 19.5488 9.53873 19.4533 9.7654C19.3586 9.99217 19.2199 10.1979 19.0452 10.3708C18.8705 10.5436 18.6633 10.6801 18.4355 10.7724C18.2081 10.8656 17.9645 10.913 17.7187 10.9119C17.4729 10.9109 17.2298 10.8614 17.0031 10.7663L9.53934 7.63332V17.4507L17.0039 14.3177C17.2305 14.222 17.4737 14.1719 17.7197 14.1705C17.9657 14.169 18.2095 14.2162 18.4372 14.3093C18.6649 14.4023 18.8719 14.5395 19.0464 14.7129C19.2209 14.8862 19.3594 15.0923 19.454 15.3194C19.6472 15.7807 19.6495 16.2896 19.4594 16.7525C19.3669 16.9802 19.2303 17.1873 19.0573 17.3619C18.8843 17.5364 18.6784 17.675 18.4516 17.7695L13.0747 20.0257C12.6639 20.1997 12.2316 20.2871 11.7894 20.2871L11.7902 20.2863ZM9.69874 18.2975C9.97234 18.7267 10.3747 19.0639 10.8506 19.2578C11.1516 19.382 11.4744 19.4451 11.8 19.4434C12.1257 19.4417 12.4477 19.3752 12.7474 19.2479L18.1228 16.9901C18.3765 16.8836 18.5727 16.6851 18.6769 16.4306C18.7549 16.2423 18.7751 16.0349 18.7349 15.835C18.6946 15.6351 18.5958 15.4518 18.451 15.3083C18.3061 15.1647 18.1218 15.0676 17.9216 15.0292C17.7214 14.9907 17.5142 15.0128 17.3266 15.0925L9.69874 18.2975ZM7.98435 7.11601C7.7779 7.11601 7.57348 7.1567 7.38276 7.23575C7.19205 7.3148 7.01879 7.43067 6.87288 7.57672C6.72697 7.72277 6.61128 7.89614 6.53241 8.08693C6.45355 8.27772 6.41306 8.48219 6.41326 8.68863V16.3916C6.41326 16.9257 6.66617 17.4009 7.10914 17.6975C7.37277 17.8737 7.67319 17.9672 7.97975 17.9672C8.18437 17.9672 8.3867 17.9274 8.58289 17.8461L8.69095 17.8017V7.27925L8.60205 7.24247C8.40702 7.15929 8.19714 7.11653 7.98511 7.11678L7.98435 7.11601ZM17.3289 9.98995C17.4533 10.043 17.5871 10.0707 17.7224 10.0714C17.8577 10.072 17.9917 10.0457 18.1167 9.99378C18.3719 9.88955 18.5704 9.69336 18.6762 9.43892C18.7834 9.18602 18.7835 8.90552 18.68 8.65185C18.629 8.52657 18.5538 8.41263 18.4585 8.3166C18.3633 8.22058 18.25 8.14437 18.1251 8.09239L12.7497 5.83539C12.211 5.60751 11.609 5.57794 11.0506 5.75193C10.4921 5.92591 10.0134 6.29219 9.69951 6.7857L17.3289 9.98918V9.98995Z" fill="url(#paint0_linear_4857_39414)"/>
<path d="M34.7157 19.3415C33.9054 18.8887 33.2503 18.2023 32.8357 17.3719C32.3981 16.5174 32.1797 15.5058 32.1797 14.337V10.1472C32.1797 8.97924 32.3981 7.96684 32.8357 7.11233C33.2513 6.28137 33.906 5.59381 34.7157 5.13812C35.5311 4.67599 36.4921 4.44531 37.598 4.44531C38.5154 4.44531 39.3469 4.64151 40.0926 5.03313C40.8375 5.42552 41.4568 5.99111 41.9511 6.72837C42.4446 7.46793 42.7826 8.3416 42.9658 9.3494H40.3815C40.2679 8.88565 40.0649 8.44855 39.7837 8.06264C39.5285 7.71065 39.1961 7.42176 38.812 7.21809C38.438 7.02227 38.0217 6.92121 37.5996 6.9238C37.0186 6.9238 36.5151 7.05485 36.0921 7.31695C35.6683 7.57982 35.3418 7.95305 35.1103 8.43587C34.8804 8.91869 34.7647 9.49041 34.7647 10.1472V14.337C34.7647 14.9961 34.8797 15.5663 35.1096 16.0491C35.3418 16.5319 35.6683 16.9036 36.0921 17.1627C36.5151 17.4209 37.0186 17.5512 37.5996 17.5512C38.0395 17.5512 38.4479 17.457 38.8219 17.2677C39.1975 17.0791 39.5209 16.8017 39.7929 16.4377C40.065 16.0736 40.2612 15.636 40.3815 15.1249H42.9658C42.7765 16.1327 42.4354 17.0056 41.9419 17.7451C41.4476 18.4847 40.8283 19.048 40.0826 19.4411C39.3369 19.8335 38.5092 20.0282 37.5996 20.0282C36.4906 20.0297 35.5303 19.8006 34.7157 19.3415ZM46.3379 4.60242H48.8478V19.8726H46.3379V4.60242ZM47.6706 11.1236H56.356V13.5285H47.6706V11.1236ZM54.8547 4.60242H57.3646V19.8726H54.8547V4.60242ZM65.7373 4.60242H67.5644L73.2992 19.8726H70.5992L66.6508 8.49795L62.7024 19.8726H60.004L65.7373 4.60242ZM62.7024 14.5677H70.7364V16.9726H62.7024V14.5677ZM78.3941 19.8718H75.8313V4.60165H78.3941V19.8718ZM82.3969 4.60242H85.1276L91.7016 16.3541L91.4487 16.6277V4.60319H93.885V19.8626H91.1337L84.5804 8.29026L84.8333 8.01666V19.8626H82.3969V4.60242ZM97.9951 4.60242H100.506V19.8726H97.9951V4.60242ZM99.2029 11.5443H104.087C104.493 11.5443 104.849 11.4508 105.153 11.2654C105.462 11.0752 105.71 10.7997 105.867 10.4721C106.037 10.1288 106.124 9.73259 106.124 9.28502C106.124 8.83056 106.039 8.43204 105.871 8.0887C105.716 7.75896 105.468 7.48152 105.158 7.29013C104.85 7.1016 104.493 7.00656 104.087 7.00656H99.2029V4.60319H104.014C104.945 4.60319 105.763 4.79862 106.471 5.18564C107.167 5.56361 107.739 6.13408 108.119 6.82876C108.511 7.53614 108.708 8.3554 108.708 9.28655C108.708 10.2169 108.511 11.0347 108.119 11.739C107.739 12.4305 107.166 12.9973 106.471 13.3714C105.763 13.7569 104.945 13.9492 104.014 13.9492H99.2029V11.5443ZM111.923 4.60242H114.433V19.8726H111.923V4.60242ZM113.099 17.4669H121.941V19.8711H113.099V17.4669ZM129.054 4.60242H130.881L136.616 19.8726H133.916L129.968 8.49795L126.019 19.8726H123.32L129.054 4.60242ZM126.019 14.5677H134.053V16.9726H126.019V14.5677ZM142.972 13.8228V19.8711H140.473V13.8228L135.893 4.60165H138.592L141.721 11.3336L144.85 4.60165H147.549L142.972 13.8228Z" fill="white"/>
</g>
<defs>
<linearGradient id="paint0_linear_4857_39414" x1="5.56717" y1="12.542" x2="19.6004" y2="12.542" gradientUnits="userSpaceOnUse">
<stop stop-color="#D71C5D"/>
<stop offset="0.109" stop-color="#DC2B54"/>
<stop offset="0.522" stop-color="#EF6233"/>
<stop offset="0.832" stop-color="#FB831F"/>
<stop offset="1" stop-color="#FF9017"/>
</linearGradient>
<clipPath id="clip0_4857_39414">
<rect width="147.146" height="24.5243" fill="white" transform="translate(0.402344 -0.00585938)"/>
</clipPath>
</defs>
</svg>
