<svg width="265" height="62" viewBox="0 0 265 62" fill="none" xmlns="http://www.w3.org/2000/svg">
<path d="M38.6427 44.8864L27.6047 49.608V49.1357C25.4764 49.6719 23.1188 49.9808 20.8857 50.0802C10.5051 49.9808 2.26562 44.6355 2.16973 38.2747V35.9135C5.57919 40.7915 12.5197 44.0599 20.8857 43.9418C23.7158 44.0599 26.6112 43.6191 29.044 42.9973L30.0039 40.636C27.1184 41.4831 23.9689 42.0725 20.8857 42.0528C10.5051 42.0725 2.26562 36.7271 2.16973 30.2483V28.3593C5.57919 32.8684 12.5049 36.1378 20.8857 35.9144C24.6559 36.1378 28.3432 35.3576 31.4432 34.0254L31.9236 31.6641C28.8948 33.2363 24.9693 34.1494 20.8857 34.0254C10.5051 34.1494 2.26562 28.804 2.16973 22.2209V20.3319C5.57919 24.9462 12.5197 28.2147 20.8857 28.3593C25.6405 28.2147 30.1482 26.9779 33.8434 25.0535L34.3238 22.2199C30.9697 24.6658 26.0735 26.242 20.8857 26.4703C10.5051 26.242 2.26661 20.8956 2.16973 14.1935C2.26562 7.81902 10.5051 2.47365 20.8857 2.38903C27.0739 2.47365 32.8212 4.60864 36.2435 8.05515L36.5767 8.60119L38.9966 8.61103L38.6427 8.05515C35.2392 3.50376 28.4321 0.5 20.8857 0.5C9.39987 0.5 0.25 6.72889 0.25 14.1935V38.747C0.653322 46.0336 9.59462 51.9683 20.8857 51.9683C28.3432 51.9683 35.0454 49.0826 38.6427 44.8864Z" fill="#B2B2B2"/>
<path d="M34.1528 61.5L38.0278 45.2966L26.888 50.0625L33.6694 21.9454H20.5911L23.9817 8.125H65.6346L62.244 21.9454H48.6832L45.777 29.5704L60.7908 23.375L34.1528 61.5ZM40.9341 41.9603L38.9966 51.4921L54.9792 27.6647L41.9019 33.3839L47.7145 20.0397H60.7908L63.2127 10.0317H25.4349L23.013 20.0397H36.0903L29.7933 46.7272L40.9341 41.9623V41.9603ZM94.3298 19.3558C94.2151 20.9359 93.6289 22.1795 92.5712 23.0886C91.5135 23.9967 90.1197 24.4503 88.3897 24.4503C86.4986 24.4503 85.0089 23.8167 83.9255 22.5485C82.8411 21.2813 82.2984 19.5408 82.2984 17.3281V16.4298C82.2984 15.0179 82.5485 13.7733 83.0487 12.697C83.5489 11.6216 84.2636 10.7952 85.1918 10.2206C86.121 9.64501 87.2005 9.35772 88.4312 9.35772C90.1335 9.35772 91.5056 9.81227 92.5465 10.7204C93.5864 11.6275 94.1875 12.9026 94.3506 14.5437H91.3098C91.2357 13.5953 90.9698 12.9075 90.5141 12.4805C90.0574 12.0535 89.3634 11.84 88.4312 11.84C87.417 11.84 86.6588 12.2011 86.1556 12.9243C85.6515 13.6474 85.3935 14.769 85.3796 16.2891V17.3989C85.3796 18.9859 85.6218 20.1459 86.1042 20.8789C86.5886 21.6118 87.3498 21.9788 88.3907 21.9788C89.3298 21.9788 90.0307 21.7653 90.4933 21.3383C90.9569 20.9113 91.2219 20.2502 91.2891 19.3558H94.3298ZM110.032 17.2375C110.032 18.6838 109.775 19.9511 109.261 21.0402C108.748 22.1303 108.013 22.9706 107.056 23.5629C106.1 24.1542 105.004 24.4503 103.767 24.4503C102.545 24.4503 101.453 24.1581 100.493 23.5727C99.5344 22.9873 98.7901 22.152 98.2632 21.0658C97.7363 19.9796 97.4694 18.7301 97.4625 17.3172V16.5911C97.4625 15.1449 97.7244 13.8727 98.2484 12.7737C98.7723 11.6738 99.5117 10.8296 100.469 10.2403C101.425 9.6519 102.518 9.35772 103.748 9.35772C104.977 9.35772 106.071 9.65288 107.027 10.2403C107.982 10.8296 108.723 11.6738 109.246 12.7727C109.77 13.8727 110.032 15.1419 110.032 16.5813V17.2375ZM106.95 16.5715C106.95 15.0307 106.674 13.8609 106.12 13.06C105.565 12.2601 104.775 11.8597 103.748 11.8597C102.726 11.8597 101.94 12.2552 101.385 13.0453C100.831 13.8353 100.551 14.9933 100.545 16.5213V17.2375C100.545 18.737 100.822 19.9009 101.375 20.7273C101.929 21.5548 102.726 21.969 103.767 21.969C104.788 21.969 105.571 21.5705 106.12 20.7736C106.667 19.9766 106.944 18.8147 106.95 17.2877V16.5715ZM117.055 24.2486H114.015V9.55942H117.055V24.2486ZM133.457 24.2486H130.415L124.496 14.584V24.2486H121.455V9.55942H124.496L130.426 19.2446V9.55942H133.457V24.2486ZM148.51 12.0112H143.99V24.2486H140.949V12.0112H136.489V9.55942H148.51V12.0112ZM160.705 17.883H154.867V21.8175H161.718V24.2486H151.825V9.55942H161.698V12.0112H154.867V15.5118H160.705V17.883ZM168.125 21.8175H174.582V24.2486H165.084V9.55942H168.125V21.8175ZM186.786 17.882H180.948V21.8175H187.8V24.2486H177.907V9.55942H187.78V12.0112H180.948V15.5118H186.786V17.882ZM202.843 22.392C202.296 23.0444 201.522 23.551 200.521 23.9102C199.522 24.2703 198.414 24.4513 197.197 24.4513C195.92 24.4513 194.8 24.1729 193.837 23.6179C192.874 23.063 192.13 22.2582 191.607 21.2016C191.083 20.1459 190.815 18.9052 190.801 17.4796V16.48C190.801 15.014 191.049 13.7448 191.546 12.6724C192.042 11.6 192.759 10.7784 193.694 10.2107C194.63 9.64206 195.727 9.35772 196.984 9.35772C198.734 9.35772 200.103 9.77292 201.09 10.6043C202.076 11.4347 202.66 12.6439 202.843 14.2308H199.883C199.748 13.3896 199.449 12.7747 198.986 12.3841C198.523 11.9945 197.886 11.7997 197.075 11.7997C196.041 11.7997 195.254 12.1864 194.713 12.9597C194.173 13.733 193.899 14.8831 193.892 16.4101V17.3477C193.892 18.8885 194.187 20.0514 194.774 20.8385C195.362 21.6256 196.224 22.0192 197.359 22.0192C198.501 22.0192 199.316 21.7771 199.802 21.2931V18.7606H197.035V16.5311H202.843V22.392ZM212.351 18.8718H209.929V24.2486H206.887V9.55942H212.372C214.115 9.55942 215.46 9.94608 216.405 10.7204C217.352 11.4937 217.824 12.5858 217.824 13.9986C217.824 15.0012 217.607 15.8365 217.171 16.5055C216.735 17.1746 216.074 17.7078 215.189 18.1043L218.382 24.1069V24.2486H215.118L212.351 18.8718ZM209.929 16.4199H212.381C213.145 16.4199 213.736 16.2261 214.155 15.8395C214.574 15.4528 214.784 14.9205 214.784 14.2407C214.784 13.548 214.586 13.003 214.191 12.6065C213.795 12.21 213.189 12.0112 212.372 12.0112H209.928L209.929 16.4199ZM230.05 21.2212H224.718L223.704 24.2486H220.471L225.965 9.55942H228.782L234.306 24.2486H231.074L230.05 21.2212ZM225.539 18.7714H229.228L227.374 13.2716L225.539 18.7714ZM240.308 19.0734V24.2486H237.267V9.55942H243.024C244.132 9.55942 245.107 9.76111 245.948 10.1655C246.791 10.5689 247.437 11.1415 247.89 11.8853C248.342 12.6281 248.569 13.4742 248.569 14.4227C248.569 15.8621 248.075 16.9965 247.084 17.8269C246.094 18.6583 244.723 19.0734 242.974 19.0734H240.308ZM240.308 16.6216H243.024C243.829 16.6216 244.442 16.4337 244.864 16.0569C245.287 15.6801 245.497 15.1419 245.497 14.4434C245.497 13.7232 245.285 13.1407 244.859 12.697C244.434 12.2542 243.846 12.025 243.095 12.0112H240.308V16.6216ZM264.25 24.2486H261.209V17.9538H255.28V24.2486H252.238V9.55942H255.28V15.5118H261.209V9.55942H264.25V24.2486Z" fill="white"/>
<path d="M90.6614 36.8038H87.3735V45.8259H85.5566V36.8038H82.2984V35.3339H90.6614V36.8038ZM94.2003 38.8798C94.7747 38.2167 95.5012 37.8851 96.38 37.8851C98.0507 37.8851 98.8969 38.8335 98.9206 40.7314V45.8259H97.162V40.7964C97.162 40.2582 97.0453 39.8774 96.811 39.6541C96.5768 39.4308 96.2327 39.3196 95.779 39.3196C95.0742 39.3196 94.5483 39.6315 94.2003 40.2552V45.8259H92.4407V34.7574H94.2003V38.8798ZM104.742 45.9696C103.627 45.9696 102.723 45.6203 102.03 44.9217C101.339 44.2232 100.992 43.2915 100.992 42.1295V41.9131C100.992 41.1348 101.143 40.4392 101.444 39.8273C101.723 39.2403 102.164 38.7442 102.715 38.3967C103.261 38.0553 103.894 37.8777 104.539 37.8851C105.606 37.8851 106.43 38.2235 107.012 38.9005C107.593 39.5783 107.885 40.5366 107.885 41.7763V42.4827H102.765C102.818 43.1262 103.035 43.6348 103.413 44.0097C103.792 44.3845 104.269 44.5725 104.843 44.5725C105.65 44.5725 106.306 44.2478 106.813 43.5984L107.762 44.4997C107.448 44.9665 107.013 45.3412 106.505 45.5849C105.981 45.8407 105.394 45.9696 104.742 45.9696ZM104.532 39.2891C104.049 39.2891 103.66 39.4583 103.363 39.7948C103.066 40.1303 102.877 40.5986 102.795 41.1998H106.146V41.0699C106.108 40.4835 105.951 40.0408 105.676 39.7407C105.4 39.4406 105.02 39.2891 104.532 39.2891ZM114.747 45.8259V39.3265H113.552V38.0287H114.747V37.3154C114.747 36.4506 114.988 35.7826 115.471 35.3123C115.954 34.841 116.629 34.6059 117.498 34.6059C117.808 34.6059 118.136 34.6491 118.483 34.7357L118.439 36.1053C118.217 36.0641 117.992 36.0447 117.766 36.0472C116.926 36.0472 116.507 36.4772 116.507 37.3371V38.0287H118.098V39.3265H116.507V45.8259H114.747ZM124.723 45.0624C124.207 45.6675 123.473 45.9696 122.522 45.9696C121.673 45.9696 121.029 45.7226 120.593 45.2277C120.156 44.7328 119.938 44.0176 119.938 43.0799V38.0287H121.697V43.0583C121.697 44.0481 122.11 44.5439 122.935 44.5439C123.789 44.5439 124.366 44.2389 124.665 43.6289V38.0287H126.425V45.8259H124.767L124.723 45.0624ZM131.014 36.1338V38.0287H132.398V39.3265H131.014V43.6781C131.014 43.9762 131.074 44.1917 131.192 44.3235C131.311 44.4554 131.521 44.5213 131.825 44.5213C132.029 44.5213 132.233 44.4977 132.441 44.4495V45.8043C132.064 45.9113 131.674 45.9669 131.282 45.9696C129.931 45.9696 129.256 45.2277 129.256 43.7431V39.3255H127.967V38.0287H129.255V36.1348L131.014 36.1338ZM139.08 45.0624C138.563 45.6675 137.829 45.9696 136.878 45.9696C136.028 45.9696 135.386 45.7226 134.949 45.2277C134.512 44.7328 134.293 44.0176 134.293 43.0799V38.0287H136.053V43.0583C136.053 44.0481 136.466 44.5439 137.292 44.5439C138.146 44.5439 138.722 44.2389 139.021 43.6289V38.0287H140.781V45.8259H139.123L139.08 45.0624ZM147.268 39.6285C147.031 39.5899 146.791 39.5708 146.551 39.5715C145.744 39.5715 145.202 39.8784 144.922 40.4933V45.8259H143.162V38.0287H144.843L144.885 38.9005C145.311 38.2235 145.9 37.8851 146.652 37.8851C146.903 37.8851 147.111 37.9185 147.275 37.9855L147.268 39.6285ZM152.285 45.9696C151.17 45.9696 150.266 45.6203 149.573 44.9217C148.881 44.2232 148.534 43.2915 148.534 42.1295V41.9131C148.534 41.1348 148.685 40.4392 148.987 39.8273C149.266 39.2403 149.706 38.7442 150.257 38.3967C150.803 38.0553 151.437 37.8777 152.082 37.8851C153.149 37.8851 153.973 38.2235 154.554 38.9005C155.136 39.5783 155.427 40.5366 155.427 41.7763V42.4827H150.308C150.361 43.1262 150.577 43.6348 150.956 44.0097C151.335 44.3845 151.811 44.5725 152.385 44.5725C153.192 44.5725 153.848 44.2478 154.356 43.5984L155.305 44.4997C154.99 44.9665 154.556 45.3412 154.047 45.5849C153.523 45.8407 152.936 45.9696 152.285 45.9696ZM152.075 39.2891C151.592 39.2891 151.202 39.4583 150.906 39.7948C150.609 40.1303 150.419 40.5986 150.337 41.1998H153.688V41.0699C153.651 40.4835 153.494 40.0408 153.219 39.7407C152.943 39.4406 152.562 39.2891 152.075 39.2891ZM161.341 41.855C161.341 41.0915 161.493 40.4038 161.797 39.7909C162.076 39.2054 162.522 38.7142 163.078 38.378C163.629 38.0494 164.261 37.8851 164.976 37.8851C166.032 37.8851 166.89 38.2235 167.55 38.9005C168.208 39.5783 168.565 40.4766 168.617 41.5963L168.625 42.0065C168.625 42.7749 168.477 43.4627 168.18 44.0677C167.903 44.6508 167.46 45.1395 166.905 45.4727C166.352 45.8043 165.714 45.9696 164.99 45.9696C163.885 45.9696 163 45.6036 162.336 44.8716C161.674 44.1386 161.341 43.1616 161.341 41.9416V41.855ZM163.1 42.0065C163.1 42.8094 163.267 43.4371 163.6 43.8906C163.933 44.3452 164.396 44.5725 164.99 44.5725C165.583 44.5725 166.046 44.3413 166.376 43.8798C166.707 43.4194 166.872 42.7444 166.872 41.855C166.872 41.0679 166.702 40.4432 166.362 39.9817C166.021 39.5203 165.56 39.2901 164.975 39.2901C164.402 39.2901 163.945 39.5164 163.607 39.9709C163.269 40.4254 163.1 41.1024 163.1 42.0065ZM171.326 45.8259V39.3265H170.131V38.0287H171.326V37.3154C171.326 36.4506 171.567 35.7826 172.049 35.3123C172.533 34.841 173.208 34.6059 174.077 34.6059C174.386 34.6059 174.714 34.6491 175.061 34.7357L175.018 36.1053C174.796 36.0642 174.571 36.0448 174.346 36.0472C173.506 36.0472 173.085 36.4772 173.085 37.3371V38.0287H174.678V39.3265H173.085V45.8259H171.326ZM182.496 38.0287L182.547 38.8434C183.097 38.2039 183.851 37.8851 184.805 37.8851C185.853 37.8851 186.57 38.2836 186.956 39.0815C187.526 38.2836 188.327 37.8851 189.36 37.8851C190.224 37.8851 190.867 38.1222 191.289 38.5984C191.711 39.0736 191.928 39.7751 191.938 40.7019V45.8259H190.178V40.7531C190.178 40.2582 190.069 39.8951 189.852 39.6649C189.634 39.4337 189.276 39.3186 188.774 39.3186C188.373 39.3186 188.046 39.4258 187.793 39.6393C187.535 39.8597 187.349 40.1521 187.26 40.4786L187.268 45.8259H185.508V40.695C185.484 39.7781 185.014 39.3186 184.097 39.3186C183.392 39.3186 182.892 39.6039 182.598 40.1765V45.8259H180.838V38.0287H182.496ZM194.008 41.856C194.008 41.0915 194.16 40.4038 194.463 39.7909C194.743 39.2053 195.189 38.7141 195.746 38.378C196.295 38.0494 196.928 37.8851 197.643 37.8851C198.699 37.8851 199.557 38.2235 200.216 38.9005C200.875 39.5783 201.231 40.4766 201.283 41.5963L201.291 42.0065C201.291 42.7749 201.143 43.4627 200.846 44.0677C200.57 44.6508 200.126 45.1395 199.571 45.4727C199.019 45.8043 198.381 45.9696 197.656 45.9696C196.551 45.9696 195.666 45.6036 195.003 44.8716C194.34 44.1386 194.008 43.1616 194.008 41.9416V41.856ZM195.767 42.0065C195.767 42.8094 195.933 43.4371 196.266 43.8906C196.6 44.3452 197.063 44.5725 197.656 44.5725C198.25 44.5725 198.712 44.3413 199.043 43.8798C199.373 43.4194 199.54 42.7444 199.54 41.855C199.54 41.0679 199.369 40.4432 199.028 39.9817C198.688 39.5203 198.226 39.2901 197.643 39.2901C197.068 39.2901 196.612 39.5164 196.273 39.9709C195.936 40.4254 195.767 41.1024 195.767 42.0065ZM205.005 38.0287L205.056 38.93C205.635 38.2334 206.395 37.8851 207.336 37.8851C208.967 37.8851 209.798 38.8149 209.827 40.6734V45.8259H208.068V40.7747C208.068 40.2798 207.96 39.9129 207.745 39.6757C207.531 39.4376 207.18 39.3186 206.692 39.3186C205.983 39.3186 205.454 39.6384 205.106 40.2769V45.8259H203.346V38.0287H205.005ZM215.662 45.9696C214.547 45.9696 213.643 45.6203 212.951 44.9217C212.258 44.2232 211.912 43.2915 211.912 42.1295V41.9131C211.912 41.1348 212.062 40.4392 212.364 39.8273C212.643 39.2402 213.084 38.7441 213.635 38.3967C214.181 38.0555 214.814 37.8779 215.459 37.8851C216.527 37.8851 217.35 38.2235 217.932 38.9005C218.513 39.5783 218.804 40.5366 218.804 41.7763V42.4827H213.685C213.739 43.1262 213.954 43.6348 214.333 44.0097C214.713 44.3845 215.189 44.5725 215.763 44.5725C216.569 44.5725 217.226 44.2478 217.733 43.5984L218.682 44.4997C218.367 44.9664 217.934 45.341 217.425 45.5849C216.901 45.8407 216.314 45.9696 215.662 45.9696ZM215.452 39.2891C214.97 39.2891 214.58 39.4583 214.283 39.7948C213.986 40.1303 213.796 40.5986 213.714 41.1998H217.066V41.0699C217.028 40.4835 216.872 40.0408 216.596 39.7407C216.321 39.4406 215.939 39.2891 215.452 39.2891ZM223.409 43.318L225.001 38.0287H226.876L223.763 47.0075C223.285 48.319 222.475 48.9753 221.331 48.9753C221.044 48.9707 220.759 48.927 220.484 48.8454V47.4906L220.817 47.5123C221.261 47.5123 221.595 47.4316 221.819 47.2712C222.044 47.1099 222.221 46.8393 222.351 46.4605L222.605 45.7895L219.854 38.0287H221.751L223.409 43.318Z" fill="#B2B2B2"/>
</svg>
