<svg width="182" height="43" viewBox="0 0 182 43" fill="none" xmlns="http://www.w3.org/2000/svg">
<g id="Coin telegram">
<path d="M26.6544 30.936L19.0923 34.1631V33.8403C17.6342 34.2068 16.0189 34.4179 14.4891 34.4858C7.3773 34.4179 1.73247 30.7646 1.66677 26.4172V24.8034C4.00259 28.1373 8.75753 30.3712 14.4891 30.2905C16.428 30.3712 18.4117 30.0699 20.0784 29.645L20.736 28.0311C18.7591 28.6101 16.6014 29.0129 14.4891 28.9994C7.3773 29.0129 1.73247 25.3595 1.66677 20.9315V19.6404C4.00259 22.7222 8.74737 24.9567 14.4891 24.8041C17.0721 24.9567 19.5982 24.4235 21.722 23.513L22.0512 21.8991C19.9761 22.9737 17.2868 23.5977 14.4891 23.513C7.3773 23.5977 1.73247 19.9443 1.66677 15.4451V14.154C4.00259 17.3077 8.75753 19.5416 14.4891 19.6404C17.7466 19.5416 20.8348 18.6963 23.3664 17.381L23.6955 15.4444C21.3976 17.1161 18.0432 18.1933 14.4891 18.3493C7.3773 18.1933 1.73314 14.5393 1.66677 9.95862C1.73247 5.60189 7.3773 1.94852 14.4891 1.89069C18.7286 1.94852 22.6661 3.40772 25.0107 5.76327L25.239 6.13648L26.8969 6.1432L26.6544 5.76327C24.3227 2.65257 19.6591 0.599609 14.4891 0.599609C6.62014 0.599609 0.351562 4.85682 0.351562 9.95862V26.74C0.627878 31.7201 6.75356 35.7763 14.4891 35.7763C19.5982 35.7763 24.1899 33.804 26.6544 30.936Z" fill="#FABF2C"/>
<path d="M23.5784 42.2909L26.2332 31.2164L18.6013 34.4737L23.2472 15.2568H14.2872L16.6102 5.81101H45.1466L42.8236 15.2568H33.5332L31.5421 20.4682L41.8281 16.2338L23.5784 42.2909ZM28.2243 28.9362L26.8969 35.4508L37.8466 19.1657L28.8873 23.0746L32.8695 13.9543H41.8281L43.4873 7.1142H17.6057L15.9465 13.9543H24.9058L20.5917 32.1942L28.2243 28.9375V28.9362ZM64.8056 13.4869C64.7271 14.5668 64.3255 15.4168 63.6008 16.0381C62.8762 16.6588 61.9213 16.9688 60.7361 16.9688C59.4405 16.9688 58.4199 16.5357 57.6776 15.6689C56.9347 14.8028 56.5629 13.6133 56.5629 12.101V11.487C56.5629 10.5221 56.7342 9.67144 57.0769 8.93579C57.4196 8.20082 57.9093 7.63597 58.5452 7.24326C59.1818 6.84989 59.9214 6.65353 60.7645 6.65353C61.9307 6.65353 62.8708 6.9642 63.5839 7.58486C64.2964 8.20485 64.7081 9.07633 64.8199 10.198H62.7367C62.6859 9.54973 62.5037 9.0797 62.1915 8.78786C61.8786 8.49602 61.4032 8.3501 60.7645 8.3501C60.0697 8.3501 59.5502 8.59688 59.2055 9.09113C58.8601 9.58537 58.6833 10.352 58.6739 11.3909V12.1494C58.6739 13.234 58.8398 14.0268 59.1703 14.5278C59.5021 15.0288 60.0236 15.2796 60.7368 15.2796C61.3801 15.2796 61.8603 15.1337 62.1773 14.8418C62.4949 14.55 62.6764 14.0981 62.7224 13.4869H64.8056ZM75.563 12.0391C75.563 13.0276 75.3869 13.8937 75.0348 14.6381C74.6833 15.3831 74.1801 15.9574 73.5245 16.3622C72.8696 16.7663 72.1185 16.9688 71.2713 16.9688C70.4336 16.9688 69.6859 16.769 69.0283 16.3689C68.3713 15.9688 67.8614 15.3979 67.5004 14.6556C67.1394 13.9132 66.9566 13.0592 66.9518 12.0936V11.5973C66.9518 10.6088 67.1313 9.73936 67.4902 8.98824C67.8492 8.23646 68.3558 7.6595 69.0113 7.25671C69.6662 6.85459 70.4153 6.65353 71.2578 6.65353C72.1003 6.65353 72.8493 6.85527 73.5042 7.25671C74.1591 7.6595 74.6663 8.23646 75.0246 8.98757C75.3835 9.73936 75.563 10.6068 75.563 11.5906V12.0391ZM73.452 11.5839C73.452 10.5308 73.2624 9.73129 72.8831 9.18392C72.5032 8.63723 71.9614 8.36355 71.2578 8.36355C70.5582 8.36355 70.0191 8.63387 69.6391 9.17384C69.2599 9.71381 69.0675 10.5053 69.0635 11.5496V12.0391C69.0635 13.0639 69.2531 13.8594 69.6324 14.4242C70.0116 14.9898 70.5582 15.2729 71.2713 15.2729C71.9702 15.2729 72.5073 15.0005 72.8831 14.4558C73.2577 13.9112 73.4473 13.117 73.452 12.0734V11.5839ZM80.3748 16.8309H78.2916V6.79138H80.3748V16.8309ZM91.6117 16.8309H89.5278L85.4725 10.2255V16.8309H83.3893V6.79138H85.4725L89.5353 13.4109V6.79138H91.6117V16.8309ZM101.925 8.4671H98.8277V16.8309H96.7445V8.4671H93.6888V6.79138H101.925V8.4671ZM110.279 12.4802H106.279V15.1693H110.973V16.8309H104.196V6.79138H110.96V8.4671H106.279V10.8596H110.279V12.4802ZM115.363 15.1693H119.786V16.8309H113.279V6.79138H115.363V15.1693ZM128.148 12.4796H124.148V15.1693H128.842V16.8309H122.065V6.79138H128.828V8.4671H124.148V10.8596H128.148V12.4796ZM139.148 15.562C138.773 16.0078 138.243 16.3541 137.557 16.5996C136.873 16.8457 136.113 16.9694 135.28 16.9694C134.405 16.9694 133.637 16.7791 132.978 16.3999C132.318 16.0206 131.809 15.4706 131.45 14.7484C131.091 14.0268 130.907 13.1789 130.898 12.2045V11.5213C130.898 10.5194 131.068 9.65194 131.409 8.91898C131.749 8.18602 132.24 7.62454 132.88 7.23654C133.522 6.84787 134.273 6.65353 135.134 6.65353C136.333 6.65353 137.271 6.9373 137.947 7.50552C138.623 8.07305 139.023 8.89948 139.148 9.98413H137.12C137.028 9.40919 136.823 8.98892 136.506 8.72196C136.189 8.45567 135.752 8.32253 135.196 8.32253C134.488 8.32253 133.949 8.5868 133.578 9.11533C133.208 9.64387 133.02 10.43 133.016 11.4736V12.1144C133.016 13.1675 133.218 13.9623 133.62 14.5002C134.023 15.0382 134.613 15.3072 135.391 15.3072C136.173 15.3072 136.732 15.1417 137.064 14.8109V13.08H135.169V11.5563H139.148V15.562ZM145.662 13.156H144.003V16.8309H141.919V6.79138H145.676C146.87 6.79138 147.792 7.05565 148.439 7.58486C149.088 8.1134 149.412 8.85981 149.412 9.82543C149.412 10.5106 149.263 11.0815 148.964 11.5388C148.666 11.9961 148.212 12.3605 147.606 12.6315L149.794 16.7341V16.8309H147.558L145.662 13.156ZM144.003 11.4803H145.682C146.206 11.4803 146.611 11.3478 146.898 11.0836C147.185 10.8193 147.329 10.4555 147.329 9.99085C147.329 9.51745 147.193 9.14492 146.922 8.87393C146.651 8.60294 146.236 8.4671 145.676 8.4671H144.002L144.003 11.4803ZM157.787 14.7618H154.134L153.44 16.8309H151.225L154.989 6.79138H156.919L160.704 16.8309H158.489L157.787 14.7618ZM154.697 13.0874H157.225L155.954 9.3285L154.697 13.0874ZM164.815 13.2939V16.8309H162.732V6.79138H166.676C167.435 6.79138 168.103 6.92923 168.679 7.20561C169.256 7.48131 169.699 7.87267 170.01 8.38103C170.32 8.88872 170.475 9.46702 170.475 10.1153C170.475 11.099 170.136 11.8744 169.458 12.4419C168.779 13.0101 167.84 13.2939 166.642 13.2939H164.815ZM164.815 11.6182H166.676C167.227 11.6182 167.647 11.4897 167.937 11.2322C168.226 10.9746 168.371 10.6068 168.371 10.1294C168.371 9.63715 168.225 9.23906 167.933 8.93579C167.642 8.6332 167.239 8.47652 166.725 8.4671H164.815V11.6182ZM181.218 16.8309H179.135V12.5286H175.073V16.8309H172.989V6.79138H175.073V10.8596H179.135V6.79138H181.218V16.8309Z" fill="white"/>
<path d="M62.2924 25.4119H60.0399V31.5782H58.7951V25.4119H56.5629V24.4073H62.2924V25.4119ZM64.7169 26.8308C65.1104 26.3775 65.6082 26.1509 66.2103 26.1509C67.3548 26.1509 67.9345 26.7992 67.9508 28.0963V31.5782H66.746V28.1407C66.746 27.7729 66.666 27.5126 66.5055 27.36C66.345 27.2073 66.1094 27.1314 65.7985 27.1314C65.3156 27.1314 64.9553 27.3445 64.7169 27.7708V31.5782H63.5114V24.0133H64.7169V26.8308ZM71.9391 31.6764C71.1751 31.6764 70.5561 31.4377 70.0814 30.9602C69.6073 30.4828 69.3696 29.846 69.3696 29.0518V28.9039C69.3696 28.372 69.4732 27.8966 69.6798 27.4783C69.8708 27.0772 70.1726 26.7381 70.55 26.5006C70.9243 26.2673 71.3583 26.1459 71.8002 26.1509C72.531 26.1509 73.0958 26.3823 73.494 26.8449C73.8922 27.3082 74.092 27.9632 74.092 28.8104V29.2932H70.5846C70.6212 29.733 70.7695 30.0807 71.0289 30.3369C71.2882 30.5931 71.6147 30.7215 72.0081 30.7215C72.5608 30.7215 73.0105 30.4996 73.3579 30.0558L74.0081 30.6717C73.7926 30.9908 73.4952 31.2469 73.1466 31.4134C72.7877 31.5883 72.3854 31.6764 71.9391 31.6764ZM71.7955 27.1105C71.4643 27.1105 71.1975 27.2262 70.9943 27.4561C70.7911 27.6854 70.6611 28.0055 70.6049 28.4164H72.9008V28.3276C72.875 27.9268 72.7673 27.6243 72.5791 27.4192C72.3901 27.2141 72.1294 27.1105 71.7955 27.1105ZM78.7935 31.5782V27.1361H77.9747V26.2491H78.7935V25.7616C78.7935 25.1705 78.9587 24.7139 79.2892 24.3925C79.6204 24.0704 80.0829 23.9097 80.6782 23.9097C80.8902 23.9097 81.1151 23.9393 81.3528 23.9985L81.323 24.9345C81.1709 24.9064 81.0164 24.8931 80.8618 24.8948C80.2861 24.8948 79.999 25.1887 79.999 25.7764V26.2491H81.0893V27.1361H79.999V31.5782H78.7935ZM85.6282 31.0564C85.2747 31.4699 84.7715 31.6764 84.12 31.6764C83.5382 31.6764 83.0974 31.5076 82.7987 31.1694C82.4994 30.8311 82.3497 30.3423 82.3497 29.7014V26.2491H83.5552V29.6866C83.5552 30.3631 83.8376 30.702 84.4031 30.702C84.9882 30.702 85.3837 30.4935 85.5883 30.0766V26.2491H86.7938V31.5782H85.658L85.6282 31.0564ZM89.9382 24.954V26.2491H90.8864V27.1361H89.9382V30.1103C89.9382 30.314 89.9788 30.4613 90.0601 30.5514C90.1414 30.6415 90.2856 30.6865 90.4936 30.6865C90.6331 30.6865 90.7733 30.6704 90.9155 30.6375V31.5634C90.6573 31.6365 90.3903 31.6745 90.1217 31.6764C89.196 31.6764 88.7334 31.1694 88.7334 30.1546V27.1354H87.8503V26.2491H88.7327V24.9547L89.9382 24.954ZM95.4639 31.0564C95.1097 31.4699 94.6071 31.6764 93.9556 31.6764C93.3732 31.6764 92.933 31.5076 92.6337 31.1694C92.3343 30.8311 92.1846 30.3423 92.1846 29.7014V26.2491H93.3901V29.6866C93.3901 30.3631 93.6732 30.702 94.2387 30.702C94.8239 30.702 95.2187 30.4935 95.4239 30.0766V26.2491H96.6294V31.5782H95.4937L95.4639 31.0564ZM101.073 27.3425C100.911 27.3161 100.747 27.303 100.582 27.3035C100.03 27.3035 99.658 27.5133 99.4664 27.9336V31.5782H98.2609V26.2491H99.4122L99.4413 26.8449C99.7325 26.3823 100.136 26.1509 100.652 26.1509C100.824 26.1509 100.966 26.1738 101.078 26.2195L101.073 27.3425ZM104.51 31.6764C103.747 31.6764 103.128 31.4377 102.653 30.9602C102.179 30.4828 101.941 29.846 101.941 29.0518V28.9039C101.941 28.372 102.045 27.8966 102.251 27.4783C102.442 27.0772 102.744 26.7381 103.121 26.5006C103.496 26.2673 103.93 26.1459 104.372 26.1509C105.102 26.1509 105.667 26.3823 106.065 26.8449C106.464 27.3082 106.663 27.9632 106.663 28.8104V29.2932H103.156C103.193 29.733 103.341 30.0807 103.6 30.3369C103.86 30.5931 104.186 30.7215 104.58 30.7215C105.132 30.7215 105.582 30.4996 105.929 30.0558L106.579 30.6717C106.364 30.9908 106.067 31.2469 105.718 31.4134C105.359 31.5883 104.957 31.6764 104.51 31.6764ZM104.367 27.1105C104.036 27.1105 103.769 27.2262 103.566 27.4561C103.363 27.6854 103.233 28.0055 103.176 28.4164H105.472V28.3276C105.446 27.9268 105.339 27.6243 105.15 27.4192C104.962 27.2141 104.701 27.1105 104.367 27.1105ZM110.715 28.8642C110.715 28.3424 110.819 27.8724 111.028 27.4535C111.219 27.0533 111.524 26.7176 111.905 26.4878C112.283 26.2632 112.715 26.1509 113.206 26.1509C113.929 26.1509 114.517 26.3823 114.969 26.8449C115.42 27.3082 115.664 27.9221 115.7 28.6874L115.705 28.9678C115.705 29.493 115.604 29.963 115.401 30.3765C115.211 30.775 114.907 31.1091 114.527 31.3368C114.148 31.5634 113.711 31.6764 113.215 31.6764C112.458 31.6764 111.852 31.4262 111.397 30.9259C110.943 30.425 110.715 29.7572 110.715 28.9234V28.8642ZM111.92 28.9678C111.92 29.5165 112.035 29.9455 112.263 30.2555C112.49 30.5662 112.808 30.7215 113.215 30.7215C113.621 30.7215 113.938 30.5635 114.165 30.2481C114.391 29.9334 114.505 29.4721 114.505 28.8642C114.505 28.3263 114.388 27.8993 114.155 27.5839C113.921 27.2685 113.605 27.1112 113.205 27.1112C112.812 27.1112 112.499 27.2658 112.268 27.5765C112.036 27.8872 111.92 28.3498 111.92 28.9678ZM117.556 31.5782V27.1361H116.737V26.2491H117.556V25.7616C117.556 25.1705 117.721 24.7139 118.051 24.3925C118.383 24.0704 118.845 23.9097 119.44 23.9097C119.652 23.9097 119.877 23.9393 120.115 23.9985L120.085 24.9345C119.933 24.9064 119.779 24.8931 119.625 24.8948C119.049 24.8948 118.761 25.1887 118.761 25.7764V26.2491H119.852V27.1361H118.761V31.5782H117.556ZM125.208 26.2491L125.243 26.8059C125.62 26.3688 126.136 26.1509 126.79 26.1509C127.508 26.1509 127.999 26.4233 128.264 26.9686C128.654 26.4233 129.203 26.1509 129.911 26.1509C130.502 26.1509 130.943 26.313 131.233 26.6385C131.522 26.9632 131.67 27.4427 131.677 28.0761V31.5782H130.471V28.1111C130.471 27.7729 130.397 27.5247 130.248 27.3674C130.099 27.2094 129.853 27.1307 129.51 27.1307C129.235 27.1307 129.011 27.204 128.837 27.3499C128.66 27.5005 128.533 27.7003 128.472 27.9235L128.478 31.5782H127.272V28.0714C127.255 27.4447 126.933 27.1307 126.305 27.1307C125.822 27.1307 125.479 27.3257 125.278 27.717V31.5782H124.073V26.2491H125.208ZM133.095 28.8649C133.095 28.3424 133.199 27.8724 133.407 27.4535C133.599 27.0532 133.904 26.7175 134.286 26.4878C134.662 26.2632 135.096 26.1509 135.585 26.1509C136.309 26.1509 136.897 26.3823 137.348 26.8449C137.8 27.3082 138.044 27.9221 138.08 28.6874L138.085 28.9678C138.085 29.493 137.983 29.963 137.78 30.3765C137.59 30.775 137.287 31.1091 136.907 31.3368C136.528 31.5634 136.091 31.6764 135.595 31.6764C134.838 31.6764 134.231 31.4262 133.777 30.9259C133.323 30.425 133.095 29.7572 133.095 28.9234V28.8649ZM134.3 28.9678C134.3 29.5165 134.414 29.9455 134.642 30.2555C134.871 30.5662 135.188 30.7215 135.595 30.7215C136.001 30.7215 136.318 30.5635 136.545 30.2481C136.771 29.9334 136.885 29.4721 136.885 28.8642C136.885 28.3263 136.768 27.8993 136.535 27.5839C136.302 27.2685 135.985 27.1112 135.585 27.1112C135.192 27.1112 134.879 27.2658 134.647 27.5765C134.416 27.8872 134.3 28.3498 134.3 28.9678ZM140.629 26.2491L140.664 26.8651C141.061 26.389 141.582 26.1509 142.226 26.1509C143.344 26.1509 143.913 26.7864 143.933 28.0566V31.5782H142.727V28.1259C142.727 27.7877 142.654 27.5368 142.507 27.3748C142.36 27.212 142.119 27.1307 141.785 27.1307C141.299 27.1307 140.937 27.3492 140.698 27.7856V31.5782H139.493V26.2491H140.629ZM147.93 31.6764C147.167 31.6764 146.547 31.4377 146.073 30.9602C145.598 30.4828 145.361 29.846 145.361 29.0518V28.9039C145.361 28.372 145.464 27.8966 145.671 27.4783C145.862 27.0771 146.164 26.738 146.542 26.5006C146.916 26.2674 147.35 26.146 147.791 26.1509C148.523 26.1509 149.087 26.3823 149.486 26.8449C149.884 27.3082 150.083 27.9632 150.083 28.8104V29.2932H146.576C146.613 29.733 146.76 30.0807 147.02 30.3369C147.28 30.5931 147.606 30.7215 148 30.7215C148.552 30.7215 149.002 30.4996 149.349 30.0558L149.999 30.6717C149.784 30.9907 149.487 31.2468 149.138 31.4134C148.779 31.5883 148.377 31.6764 147.93 31.6764ZM147.786 27.1105C147.456 27.1105 147.189 27.2262 146.985 27.4561C146.782 27.6854 146.652 28.0055 146.596 28.4164H148.892V28.3276C148.866 27.9268 148.759 27.6243 148.57 27.4192C148.382 27.2141 148.12 27.1105 147.786 27.1105ZM153.238 29.8641L154.329 26.2491H155.613L153.48 32.3858C153.153 33.2822 152.598 33.7307 151.814 33.7307C151.617 33.7275 151.422 33.6977 151.234 33.6419V32.716L151.462 32.7308C151.766 32.7308 151.995 32.6756 152.149 32.566C152.302 32.4557 152.424 32.2708 152.513 32.0119L152.687 31.5533L150.802 26.2491H152.102L153.238 29.8641Z" fill="#FABF2C"/>
</g>
</svg>
