<svg width="17" height="18" viewBox="0 0 17 18" fill="none" xmlns="http://www.w3.org/2000/svg">
<path fill-rule="evenodd" clip-rule="evenodd" d="M0.109375 1.2513C0.109375 0.791065 0.482471 0.417969 0.942708 0.417969H3.44271C3.66372 0.417969 3.87568 0.505766 4.03196 0.662046L13.026 9.65612L13.6868 8.99538C14.0122 8.66994 14.5399 8.66994 14.8653 8.99538C15.1907 9.32082 15.1907 9.84845 14.8653 10.1739L12.9546 12.0846L15.1094 14.2395L15.3535 13.9954C15.6789 13.6699 16.2065 13.6699 16.532 13.9954C16.8574 14.3208 16.8574 14.8485 16.532 15.1739L14.8653 16.8406C14.5399 17.166 14.0122 17.166 13.6868 16.8406C13.3613 16.5151 13.3613 15.9875 13.6868 15.662L13.9309 15.418L11.776 13.2631L9.8653 15.1739C9.53986 15.4993 9.01222 15.4993 8.68679 15.1739C8.36135 14.8485 8.36135 14.3208 8.68679 13.9954L9.34753 13.3346L0.353453 4.34056C0.197172 4.18428 0.109375 3.97232 0.109375 3.7513V1.2513ZM10.526 12.1561L11.8475 10.8346L3.09753 2.08464H1.77604V3.40612L10.526 12.1561Z" fill="#03082F"/>
</svg>
