<svg width="132" height="37" viewBox="0 0 132 37" fill="none" xmlns="http://www.w3.org/2000/svg">
<g id="logo_creo.bdc18584 1" clip-path="url(#clip0_4857_39868)">
<path id="Vector" d="M43.6607 21.2935L44.3481 22.6722C44.4645 22.9056 44.3769 23.1881 44.1511 23.3162C43.5968 23.6312 42.4585 24.1244 40.7564 24.1244C37.5018 24.1244 34.5117 21.4646 34.5117 18.16C34.5117 14.8553 37.487 12.1543 40.7564 12.1543C42.4585 12.1543 43.5977 12.6475 44.1511 12.9624C44.3778 13.0915 44.4645 13.3731 44.3481 13.6065L43.6607 14.9851C43.5391 15.2291 43.2422 15.3247 42.9996 15.1993C42.6039 14.9948 41.956 14.7438 41.1618 14.7438C38.5219 14.7438 37.3626 16.5918 37.3626 18.1319C37.3626 19.6719 38.5219 21.534 41.1618 21.534C41.9569 21.534 42.6039 21.2831 42.9996 21.0786C43.2422 20.9531 43.5391 21.0497 43.6607 21.2935Z" fill="white"/>
<path id="Vector_2" d="M49.6674 12.3633C51.8048 12.3633 53.4254 13.5251 53.4254 15.7934C53.4254 17.3659 52.6462 18.468 51.4501 18.9946C51.2646 19.0762 51.2102 19.3149 51.3407 19.4711L54.189 22.8977C54.5243 23.3014 54.2381 23.913 53.7144 23.913H51.9973C51.8065 23.913 51.6252 23.8244 51.5088 23.6726L48.7245 20.0625C48.5449 19.8299 48.1736 19.9572 48.1736 20.2511V23.2944C48.1736 23.6366 47.897 23.9139 47.5555 23.9139H46.1651C45.8237 23.9139 45.5469 23.6366 45.5469 23.2944V12.9169C45.5469 12.6115 45.7938 12.3641 46.0985 12.3641L49.6674 12.3633ZM48.4802 17.487C49.4722 17.487 50.6595 17.4168 50.6595 15.9751C50.6595 14.5333 49.4722 14.4631 48.4802 14.4631C48.3103 14.4631 48.1728 14.6008 48.1728 14.7711V17.179C48.1728 17.3492 48.3103 17.487 48.4802 17.487Z" fill="white"/>
<path id="Vector_3" d="M61.6326 14.6742H58.6285C58.379 14.6742 58.1767 14.8768 58.1767 15.1269V16.5187C58.1767 16.7688 58.379 16.9714 58.6285 16.9714H61.4645C61.7474 16.9714 61.9767 17.2014 61.9767 17.4848V18.7686C61.9767 19.0521 61.7474 19.2819 61.4645 19.2819H58.6285C58.379 19.2819 58.1767 19.4847 58.1767 19.7348V21.1537C58.1767 21.4038 58.379 21.6064 58.6285 21.6064H61.6326C61.9155 21.6064 62.1448 21.8364 62.1448 22.1198V23.2975C62.1448 23.6396 61.8682 23.9169 61.5267 23.9169H56.169C55.8275 23.9169 55.5508 23.6396 55.5508 23.2975V12.92C55.5508 12.6146 55.7977 12.3672 56.1024 12.3672H61.5915C61.8962 12.3672 62.1431 12.6146 62.1431 12.92V14.1634C62.1431 14.4469 61.9137 14.6767 61.6309 14.6767L61.6326 14.6742Z" fill="white"/>
<path id="Vector_4" d="M68.9441 12.1543C72.1434 12.1543 74.7413 14.7588 74.7413 18.1328C74.7413 21.5068 72.2546 24.1244 68.9441 24.1244C65.6335 24.1244 63.1328 21.5068 63.1328 18.1328C63.1328 14.7588 65.7727 12.1543 68.9441 12.1543ZM68.9441 21.577C71.0394 21.577 71.9053 19.8554 71.9053 18.1328C71.9053 16.4103 70.9833 14.6886 68.9441 14.6886C66.9048 14.6886 65.9688 16.4103 65.9688 18.1328C65.9688 19.8554 66.7928 21.577 68.9441 21.577Z" fill="white"/>
<path id="Vector_5" d="M83.9986 14.6727H81.1871C80.8781 14.6727 80.6277 14.9236 80.6277 15.2334V16.4075C80.6277 16.7173 80.8781 16.9682 81.1871 16.9682H83.8314C84.1607 16.9682 84.4268 17.2358 84.4268 17.565V18.6811C84.4268 19.0111 84.1598 19.2779 83.8314 19.2779H81.1871C80.8781 19.2779 80.6277 19.5288 80.6277 19.8386V21.0408C80.6277 21.3506 80.8781 21.6015 81.1871 21.6015H83.9986C84.3279 21.6015 84.594 21.8691 84.594 22.1982V23.6031C84.594 23.7734 84.4566 23.9111 84.2867 23.9111H78.3073C78.1375 23.9111 78 23.7734 78 23.6031V12.6694C78 12.4991 78.1375 12.3613 78.3073 12.3613H84.2867C84.4566 12.3613 84.594 12.4991 84.594 12.6694V14.0743C84.594 14.4042 84.327 14.6709 83.9986 14.6709V14.6727Z" fill="white"/>
<path id="Vector_6" d="M88.424 23.913H86.4128C86.2429 23.913 86.1055 23.7752 86.1055 23.605V12.6712C86.1055 12.501 86.2429 12.3633 86.4128 12.3633H88.5632C88.6683 12.3633 88.7655 12.4167 88.8224 12.5053L93.3133 19.5316H93.3413V12.6712C93.3413 12.501 93.4787 12.3633 93.6487 12.3633H95.6607C95.8307 12.3633 95.968 12.501 95.968 12.6712V23.605C95.968 23.7752 95.8307 23.913 95.6607 23.913H93.5094C93.4043 23.913 93.3072 23.8594 93.2502 23.7708L88.7593 16.7446H88.7313V23.605C88.7313 23.7752 88.5938 23.913 88.424 23.913Z" fill="white"/>
<path id="Vector_7" d="M108.063 19.149C108.063 20.173 107.767 21.1848 107.165 22.0114C106.097 23.4751 104.375 24.1244 102.741 24.1244C99.6398 24.1244 97.125 21.4507 97.125 18.1459C97.125 14.8412 99.4996 12.1543 102.741 12.1543C104.645 12.1543 106.007 12.8229 106.999 13.9155C107.105 14.0331 107.105 14.2139 106.999 14.3314L105.726 15.7319C105.596 15.874 105.37 15.8635 105.254 15.71C104.614 14.8623 103.811 14.5341 102.895 14.5341C101.274 14.5341 99.962 16.1444 99.962 18.1459C99.962 20.1475 101.275 21.7016 102.895 21.7016C104.044 21.7016 105.181 21.0233 105.368 19.8273C105.398 19.6421 105.25 19.4753 105.064 19.4753H103.048C102.878 19.4753 102.741 19.3377 102.741 19.1674V17.7537C102.741 17.5835 102.878 17.4457 103.048 17.4457H107.756C107.926 17.4457 108.064 17.5835 108.064 17.7537V19.148L108.063 19.149Z" fill="white"/>
<path id="Vector_8" d="M111.345 23.913H109.726C109.447 23.913 109.223 23.6866 109.223 23.4084V12.931C109.223 12.6177 109.476 12.3633 109.789 12.3633H111.282C111.594 12.3633 111.848 12.6177 111.848 12.931V23.4084C111.848 23.6874 111.622 23.913 111.345 23.913Z" fill="white"/>
<path id="Vector_9" d="M115.646 23.913H114.026C113.748 23.913 113.523 23.6866 113.523 23.4084V12.931C113.523 12.6177 113.777 12.3633 114.09 12.3633H115.506C115.907 12.3633 116.28 12.5677 116.497 12.9065L120.732 19.5316H120.76V12.931C120.76 12.6177 121.014 12.3633 121.327 12.3633H122.82C123.132 12.3633 123.386 12.6177 123.386 12.931V23.4084C123.386 23.6874 123.16 23.913 122.882 23.913H121.036C120.865 23.913 120.704 23.8252 120.611 23.6804L116.178 16.7446H116.15V23.4075C116.15 23.6866 115.924 23.9121 115.647 23.9121L115.646 23.913Z" fill="white"/>
<path id="Vector_10" d="M131.151 14.6728H128.084C127.867 14.6728 127.692 14.8483 127.692 15.0651V16.577C127.692 16.7938 127.867 16.9693 128.084 16.9693H130.983C131.264 16.9693 131.492 17.1975 131.492 17.4791V18.769C131.492 19.0507 131.264 19.2789 130.983 19.2789H128.084C127.867 19.2789 127.692 19.4544 127.692 19.6711V21.2112C127.692 21.4279 127.867 21.6034 128.084 21.6034H131.151C131.432 21.6034 131.659 21.8316 131.659 22.1132V23.4084C131.659 23.6874 131.433 23.913 131.156 23.913H125.569C125.291 23.913 125.066 23.6866 125.066 23.4084V12.931C125.066 12.6177 125.32 12.3633 125.633 12.3633H131.093C131.405 12.3633 131.659 12.6177 131.659 12.931V14.163C131.659 14.4446 131.432 14.6728 131.151 14.6728Z" fill="white"/>
<path id="Vector_11" d="M2.38913 7.79151C1.09238 8.5409 0.292969 9.92825 0.292969 11.4288V24.6415C0.292969 26.142 1.09238 27.5284 2.38913 28.2796L13.8059 34.8864C15.1026 35.6358 16.7006 35.6358 17.9973 34.8864L29.1647 28.4244C29.2837 28.3559 29.2942 28.1875 29.1847 28.105L24.7123 24.7143C24.6764 24.6871 24.6317 24.6739 24.5879 24.6757C24.5232 24.6791 24.4689 24.7239 24.4137 24.7564L24.3235 24.8091L24.1966 24.8836L24.0355 24.9784L23.8436 25.0916C23.7701 25.1346 23.6966 25.1776 23.6239 25.2206L23.3788 25.3645C23.2903 25.4171 23.201 25.469 23.1126 25.5216L22.8271 25.6892L22.5268 25.8656L22.2142 26.0498C22.1065 26.113 21.9997 26.1762 21.892 26.2394C21.7843 26.3026 21.6731 26.3683 21.5636 26.4324C21.4542 26.4965 21.3421 26.5623 21.2318 26.6273C21.1215 26.6922 21.0103 26.7571 20.9 26.8221C20.7905 26.8862 20.681 26.951 20.5707 27.0151C20.4605 27.0791 20.3554 27.1414 20.2476 27.2047C20.14 27.2678 20.0384 27.3275 19.9342 27.3889L19.633 27.5662L19.3466 27.7346L19.0787 27.8917L18.8327 28.0366L18.6112 28.1673L18.4168 28.2814L18.253 28.3779L18.1235 28.4543L18.0306 28.5086L17.9773 28.5402L17.9659 28.5472C16.6752 29.2773 15.0939 29.2712 13.8086 28.5279L7.88345 25.0995C6.58671 24.3484 5.78729 22.9619 5.78729 21.4613V14.6036C5.78729 13.103 6.58671 11.7158 7.88345 10.9655L8.19253 10.7864L14.7165 7.14479C14.7393 7.13689 14.7603 7.12461 14.7787 7.10969C14.8269 7.0702 14.8566 7.01141 14.8566 6.94647V1.03732C14.8566 0.892534 14.7157 0.791621 14.5782 0.837251L2.38913 7.79151Z" fill="white"/>
<path id="Vector_12" d="M19.652 20.9299C21.3364 19.2419 21.3364 16.5049 19.652 14.8168C17.9676 13.1288 15.2367 13.1288 13.5524 14.8168C11.868 16.5049 11.868 19.2419 13.5524 20.9299C15.2367 22.618 17.9676 22.618 19.652 20.9299Z" fill="white"/>
<path id="Vector_13" d="M24.0357 14.4084C25.4412 14.3069 26.4985 13.0828 26.3973 11.6743C26.296 10.2657 25.0746 9.20604 23.6691 9.3075C22.2636 9.40896 21.2063 10.6331 21.3075 12.0417C21.4087 13.4502 22.6302 14.5099 24.0357 14.4084Z" fill="white"/>
</g>
<defs>
<clipPath id="clip0_4857_39868">
<rect width="131.364" height="35.6413" fill="white" transform="translate(0.292969 0.8125)"/>
</clipPath>
</defs>
</svg>
