<svg width="202" height="78" viewBox="0 0 202 78" fill="none" xmlns="http://www.w3.org/2000/svg">
<path d="M46.557 45.8796C46.1937 44.0605 45.6231 42.3462 44.9477 40.788C44.1673 39.0227 43.2845 37.4107 42.2458 36.0087C40.3245 33.4118 38.1931 31.3854 36.0645 29.7735C33.1554 27.435 30.1952 25.8258 27.9078 24.3188C27.4396 24.0065 26.9741 23.6944 26.557 23.4361C25.206 22.5023 24.1672 21.6169 23.4407 20.8392C23.2335 20.632 23.0774 20.4247 22.9724 20.2686C22.8164 20.0614 22.6602 19.9053 22.6091 19.6983L22.5579 19.647C22.5579 19.647 22.5579 19.5958 22.5069 19.542C22.4557 19.491 22.4557 19.4372 22.4557 19.386C22.1436 18.8667 21.9875 18.2423 21.9875 17.5669C21.9875 17.5669 21.9875 17.2036 22.1436 16.5793C22.1436 16.4743 22.1436 16.372 22.2486 16.267C22.3534 16.0087 22.4557 15.7477 22.5606 15.4356C22.924 14.8112 23.3923 14.2919 24.0139 13.9286C24.4282 13.6701 24.8965 13.5141 25.3648 13.4091C25.9892 13.3042 26.6108 13.2019 27.2351 13.2019H27.2862C28.7932 13.2019 30.6097 13.5141 32.4288 14.0334C33.0531 14.2407 33.6747 14.5017 34.2991 14.709C35.1307 15.021 35.8573 15.3333 36.5839 15.6427C37.2082 15.9549 37.7786 16.2132 38.298 16.4743C39.9612 17.3059 40.9999 18.0325 40.9999 18.0325L41.2071 18.1373L41.2582 18.1885L48.4273 7.38384C48.2711 7.22776 45.7254 5.56468 41.9337 3.85048C38.7125 2.39461 34.6086 0.836484 29.9343 0.370922H29.8831C29.0515 0.265973 28.1688 0.214844 27.2324 0.214844H27.1274C23.0235 0.265973 18.8685 1.40967 15.2302 4.11151C13.4111 5.41129 11.8018 7.17663 10.6069 9.35909C9.41213 11.5415 8.73667 14.1384 8.7878 16.8403C8.7878 17.879 8.83893 18.9177 9.04613 19.9566C9.46057 22.5535 10.4481 24.9431 11.7479 26.9182C11.9551 27.2815 12.2162 27.5938 12.4234 27.9059C12.4234 27.9059 12.4476 27.9436 12.4557 27.9544C12.4342 27.9302 12.4099 27.9114 12.3885 27.8871C9.73775 29.6524 7.50685 31.7837 5.73881 34.1733C3.97078 36.5632 2.72481 39.1599 1.89596 41.8108L14.2076 45.8634C14.6221 44.4102 15.3002 43.1105 16.1829 41.9156C17.7356 39.8435 19.9127 38.0835 23.3249 36.7865C23.3277 36.7891 23.3302 36.7918 23.3357 36.7918C23.3357 36.7918 23.3868 36.843 23.4918 36.8968C23.5968 36.9479 23.804 37.0529 24.0111 37.2089C24.6867 37.6234 25.8304 38.2988 27.2324 39.3403C27.5957 39.5986 28.0128 39.8596 28.4273 40.2741C29.0515 40.7423 29.571 41.2078 30.0903 41.7272C31.3363 42.9733 32.3239 44.273 33.0505 45.9361C33.777 47.5991 34.2965 49.6767 34.4013 52.5857V53.105C34.4013 54.612 34.1942 56.0652 33.8309 57.365C33.7259 57.6234 33.6747 57.8845 33.5725 58.1455C33.4164 58.6137 33.2091 59.0792 32.9483 59.5475C32.9483 59.5475 32.9483 59.5986 32.8971 59.6525C32.846 59.8086 32.6388 60.1719 32.2727 60.6912C31.9606 61.2106 31.4413 61.886 30.7657 62.5615C30.6097 62.7176 30.4024 62.9248 30.1952 63.0809C28.7421 64.2246 27.1301 64.7951 25.1038 64.8462C23.804 64.7951 22.2996 64.5341 20.4805 63.8585C18.7663 63.1321 17.001 61.5739 15.65 59.1842C14.2991 56.8456 13.4676 53.7806 13.4676 50.7692C13.4676 50.6131 13.4676 50.5109 13.5187 50.3548C13.5187 48.7968 13.777 47.2898 14.2453 45.8876L1.93365 41.8349C0.946014 44.7439 0.480469 47.8091 0.480469 50.7692C0.480469 51.652 0.531598 52.4834 0.585417 53.3661C0.948703 57.6772 2.24849 61.886 4.326 65.6266C4.53321 65.9899 4.74042 66.3532 4.95033 66.6654C7.44494 70.6643 11.0295 73.9904 15.6528 75.9119C18.8228 77.1579 21.9901 77.8333 25.1063 77.7822C27.0816 77.7822 28.9492 77.5238 30.7685 77.0044C35.0795 75.8607 38.8201 73.3688 41.522 70.0965C43.341 67.8629 44.7432 65.422 45.6769 62.7203C45.7819 62.4593 45.8842 62.1497 45.9892 61.8887C46.0402 61.7837 46.0402 61.7327 46.094 61.6304C46.5623 60.2284 46.8746 58.8262 47.0816 57.3704C47.2889 55.9685 47.3939 54.5663 47.3939 53.1105V52.2278C47.3939 51.4475 47.3427 50.6696 47.2377 49.787C47.0763 48.4252 46.8691 47.1255 46.557 45.8796ZM19.665 34.4318C19.6356 34.4102 19.6059 34.3806 19.5735 34.3592C19.614 34.3861 19.657 34.421 19.6974 34.4479C19.8238 34.5286 19.9288 34.5959 20.0552 34.6766C19.9208 34.5932 19.8024 34.5205 19.665 34.4318Z" fill="url(#paint0_linear_3301_29360)"/>
<path opacity="0.4" d="M30.1632 63.0784C26.6837 66.3507 19.3049 70.0913 4.9157 66.663C4.70849 66.3507 4.50126 65.9874 4.29137 65.6241C2.21386 61.8835 0.914067 57.6775 0.550781 53.3636L13.4867 50.3496C13.4357 50.5058 13.4357 50.6081 13.4357 50.7641C13.4357 53.7781 14.2671 56.8432 15.6181 59.179C16.969 61.5687 18.7343 63.1269 20.4486 63.8535C22.2677 64.5289 23.7719 64.7872 25.0718 64.8411C27.0982 64.7927 28.7074 64.2194 30.1632 63.0784Z" fill="url(#paint1_linear_3301_29360)"/>
<path opacity="0.4" d="M45.6703 62.7118C44.7364 65.4137 43.3317 67.8544 41.5151 70.088C38.8134 73.3605 35.0728 75.8549 30.7616 76.9961V62.553C31.437 61.8776 31.9566 61.2022 32.2686 60.6827C32.6319 60.1634 32.8392 59.8001 32.893 59.644C32.9442 59.593 32.944 59.539 32.944 59.539C33.2051 59.0709 33.4123 58.6053 33.5684 58.137C33.6734 57.8787 33.7246 57.6177 33.8294 57.3594C34.1927 56.0595 34.4 54.6064 34.4 53.0994V52.5799C34.295 49.6709 33.7756 47.5934 33.049 45.9303C32.3224 44.2673 31.3348 42.9701 30.0888 41.7216C29.5695 41.2021 29.0501 40.7339 28.4258 40.2656C33.6196 44.1678 41.6201 51.7 45.6703 62.7118Z" fill="url(#paint2_linear_3301_29360)"/>
<path opacity="0.4" d="M48.429 7.38317L41.26 18.1878L41.209 18.1366L41.0017 18.0318C41.0017 18.0318 39.9629 17.3052 38.2998 16.4736C37.7805 16.2153 37.2099 15.9542 36.5857 15.642C35.8591 15.3299 35.1298 15.0178 34.3009 14.7083C33.6766 14.501 33.055 14.24 32.4306 14.0327C30.6115 13.5134 28.795 13.2012 27.288 13.2012H27.2368C26.6126 13.2012 25.9908 13.3062 25.3665 13.4085C24.8984 13.5134 24.4328 13.6668 24.0157 13.9279C23.3914 14.2912 22.9258 14.8105 22.5625 15.4349C25.4097 8.70178 35.8079 2.53116 48.429 7.38317Z" fill="url(#paint3_linear_3301_29360)"/>
<path d="M23.3544 36.7707C19.9259 38.0704 17.7435 39.8357 16.1853 41.9133C15.3026 43.1082 14.6273 44.408 14.21 45.8612L1.89844 41.8083C2.72998 39.1576 3.97595 36.5607 5.74128 34.1711C7.50932 31.7814 9.74022 29.6528 12.3909 27.8848C14.5733 30.7938 17.2214 32.7691 19.6621 34.4294C20.9646 35.2637 22.2105 36.0441 23.3544 36.7707Z" fill="url(#paint4_linear_3301_29360)"/>
<path d="M65.1712 27.2114C68.4301 27.2114 71.2153 28.3659 73.527 30.6775C75.8359 32.9864 76.993 35.7717 76.993 39.0305C76.993 42.2895 75.8359 45.0748 73.527 47.3836C71.2153 49.6925 68.4301 50.8498 65.1712 50.8498H62.8891C61.7159 50.8498 60.7122 50.4327 59.8751 49.5958C59.0382 48.7561 58.6211 47.7524 58.6211 46.5843V31.4822C58.6211 30.3008 59.0382 29.2943 59.8751 28.4574C60.7122 27.6313 61.7159 27.2167 62.8891 27.2167H65.1712V27.2114ZM62.3267 46.579C62.3267 46.7406 62.3778 46.8778 62.4801 46.9881C62.5878 47.0903 62.725 47.1388 62.8891 47.1388H65.1712C67.4236 47.1388 69.3397 46.3504 70.922 44.7786C72.5071 43.1937 73.2983 41.2776 73.2983 39.0279C73.2983 36.7781 72.5071 34.862 70.922 33.2771C69.3397 31.692 67.4236 30.9008 65.1712 30.9008H62.8891C62.725 30.9008 62.5878 30.9573 62.4801 31.0676C62.3778 31.178 62.3267 31.3153 62.3267 31.4767V46.579Z" fill="white"/>
<path d="M83.89 37.1815H91.1074C91.5999 37.1815 92.033 37.3591 92.3963 37.7116C92.7596 38.0749 92.94 38.5083 92.94 39.0141V39.0437C92.94 39.5497 92.7596 39.9829 92.3963 40.3462C92.033 40.6987 91.6026 40.8764 91.1074 40.8764H83.89V45.3247C83.89 45.8307 84.0674 46.2586 84.4201 46.6111C84.7726 46.9636 85.2005 47.1412 85.7091 47.1412H91.11C91.6026 47.1412 92.0358 47.3214 92.3991 47.6847C92.7624 48.048 92.9426 48.4814 92.9426 48.9847V49.0169C92.9426 49.5309 92.7624 49.9588 92.3991 50.3032C92.0358 50.6665 91.6052 50.8469 91.11 50.8469H85.7091C84.186 50.8469 82.8835 50.3085 81.8016 49.2269C80.7225 48.1477 80.1843 46.8478 80.1843 45.3247V32.7359C80.1843 31.2128 80.7225 29.9103 81.8016 28.8312C82.8835 27.7521 84.186 27.2139 85.7091 27.2139H91.11C91.6026 27.2139 92.0358 27.3942 92.3991 27.7575C92.7624 28.1018 92.9426 28.5297 92.9426 29.0437V29.0734C92.9426 29.5794 92.7624 30.0126 92.3991 30.3731C92.0358 30.7364 91.6052 30.9195 91.11 30.9195H85.7091C85.2031 30.9195 84.7752 31.0972 84.4201 31.4497C84.0649 31.8022 83.89 32.2301 83.89 32.7359V37.1815Z" fill="white"/>
<path d="M99.9168 45.3247C99.9168 45.8307 100.089 46.2586 100.447 46.6111C100.799 46.9636 101.227 47.1412 101.731 47.1412H106.133C106.636 47.1412 107.072 47.3214 107.433 47.6847C107.793 48.048 107.979 48.4814 107.979 48.9847V49.0169C107.979 49.5309 107.796 49.9588 107.433 50.3032C107.07 50.6665 106.636 50.8469 106.133 50.8469H101.731C100.207 50.8469 98.905 50.3085 97.8286 49.2269C96.7495 48.1477 96.2058 46.8478 96.2058 45.3247V29.0437C96.2058 28.5379 96.3887 28.1046 96.752 27.744C97.1153 27.3915 97.5432 27.2139 98.0412 27.2139H98.0842C98.5821 27.2139 99.01 27.3915 99.3733 27.744C99.7366 28.1073 99.9195 28.5405 99.9195 29.0437V45.3247H99.9168Z" fill="white"/>
<path d="M124.101 29.0709C124.101 29.5769 123.918 30.0101 123.555 30.3708C123.202 30.7234 122.774 30.901 122.271 30.901H118.576V49.0146C118.576 49.5204 118.399 49.9483 118.046 50.3008C117.683 50.6641 117.25 50.8445 116.746 50.8445H116.717C116.211 50.8445 115.778 50.6641 115.417 50.3008C115.064 49.9483 114.887 49.5204 114.887 49.0146V30.901H111.192C110.699 30.901 110.269 30.7234 109.908 30.3708C109.545 30.0075 109.362 29.5742 109.362 29.0709V29.0415C109.362 28.5355 109.545 28.1023 109.908 27.7416C110.272 27.3891 110.699 27.2114 111.192 27.2114H122.271C122.774 27.2114 123.202 27.3891 123.555 27.7416C123.918 28.1049 124.101 28.5382 124.101 29.0415V29.0709Z" fill="white"/>
<path d="M142.646 49.0165C142.646 49.5305 142.463 49.9584 142.1 50.3029C141.737 50.6662 141.309 50.8463 140.816 50.8463H140.771C140.278 50.8463 139.848 50.6662 139.487 50.3029C139.121 49.9584 138.941 49.5305 138.941 49.0165V42.2672H130.693V49.0165C130.693 49.5305 130.512 49.9584 130.149 50.3029C129.786 50.6662 129.355 50.8463 128.86 50.8463H128.814C128.322 50.8463 127.891 50.6662 127.531 50.3029C127.167 49.9584 126.984 49.5305 126.984 49.0165V35.0337C126.984 32.8754 127.751 31.0293 129.285 29.4928C130.819 27.9696 132.66 27.208 134.807 27.208C136.968 27.208 138.812 27.9696 140.345 29.4928C141.879 31.0267 142.646 32.8727 142.646 35.0337V49.0165ZM138.941 38.5751V35.0337C138.941 33.8927 138.542 32.9212 137.743 32.1139C136.936 31.3066 135.959 30.9029 134.807 30.9029C133.669 30.9029 132.695 31.3066 131.887 32.1139C131.091 32.9212 130.69 33.8927 130.69 35.0337V38.5751H138.941Z" fill="white"/>
<path d="M148.473 27.2114C148.965 27.2114 149.398 27.3891 149.762 27.7416C150.125 28.1049 150.305 28.5382 150.305 29.0415V37.182H158.691V29.0415C158.691 28.5355 158.871 28.1023 159.234 27.7416C159.598 27.3891 160.026 27.2114 160.523 27.2114H160.569C161.062 27.2114 161.492 27.3891 161.853 27.7416C162.216 28.1049 162.399 28.5382 162.399 29.0415V49.0172C162.399 49.5312 162.216 49.9591 161.853 50.3035C161.49 50.6668 161.062 50.8472 160.569 50.8472H160.523C160.026 50.8472 159.598 50.6668 159.234 50.3035C158.871 49.9591 158.691 49.5312 158.691 49.0172V40.8741H150.305V49.0172C150.305 49.5312 150.125 49.9591 149.762 50.3035C149.398 50.6668 148.968 50.8472 148.473 50.8472H148.427C147.935 50.8472 147.504 50.6668 147.143 50.3035C146.78 49.9591 146.597 49.5312 146.597 49.0172V29.0415C146.597 28.5355 146.78 28.1023 147.143 27.7416C147.507 27.3891 147.935 27.2114 148.427 27.2114H148.473Z" fill="white"/>
<path d="M182.007 43.0243C182.007 45.1825 181.241 47.0232 179.706 48.5463C178.173 50.0802 176.33 50.8472 174.169 50.8472C172.021 50.8472 170.181 50.0802 168.646 48.5463C167.113 47.0232 166.346 45.1825 166.346 43.0243V29.0415C166.346 28.5355 166.529 28.1023 166.892 27.7416C167.255 27.3891 167.684 27.2114 168.175 27.2114H168.222C168.713 27.2114 169.147 27.3891 169.51 27.7416C169.874 28.1049 170.054 28.5382 170.054 29.0415V43.0243C170.054 44.1625 170.452 45.1366 171.252 45.9441C172.058 46.7406 173.033 47.1388 174.172 47.1388C175.323 47.1388 176.3 46.7406 177.108 45.9441C177.905 45.1366 178.305 44.1625 178.305 43.0243V29.0415C178.305 28.5355 178.485 28.1023 178.852 27.7416C179.215 27.3891 179.643 27.2114 180.135 27.2114H180.181C180.673 27.2114 181.104 27.3891 181.464 27.7416C181.827 28.1049 182.01 28.5382 182.01 29.0415V43.0243H182.007Z" fill="white"/>
<path d="M185.955 31.4769C185.955 30.2955 186.373 29.289 187.209 28.4521C188.047 27.6259 189.05 27.2114 190.224 27.2114H193.824C195.671 27.2114 197.245 27.8627 198.545 29.1626C199.843 30.4623 200.496 32.0339 200.496 33.8692C200.496 35.9466 199.843 37.5317 198.545 38.6216C200.078 39.7922 200.845 41.5306 200.845 43.8424C200.845 45.769 200.158 47.4187 198.786 48.7912C197.416 50.1636 195.761 50.8498 193.824 50.8498H190.224C189.05 50.8498 188.047 50.4327 187.209 49.5958C186.373 48.7561 185.955 47.7524 185.955 46.5845V31.4769ZM189.663 36.8348L193.824 36.8212C194.65 36.8212 195.355 36.5388 195.928 35.9735C196.501 35.3977 196.787 34.6981 196.787 33.8692C196.787 33.0512 196.5 32.3568 195.928 31.7809C195.345 31.197 194.639 30.9036 193.824 30.9036H190.224C190.059 30.9036 189.922 30.9601 189.814 31.0704C189.711 31.1809 189.66 31.3181 189.66 31.4796V36.8348H189.663ZM193.824 47.1415C194.742 47.1415 195.525 46.824 196.171 46.1888C196.806 45.5431 197.123 44.7599 197.123 43.8424C197.123 42.9246 196.806 42.1415 196.171 41.4957C195.522 40.8498 194.742 40.5269 193.824 40.5269H189.663V46.579C189.663 46.7406 189.715 46.8778 189.818 46.9881C189.924 47.0903 190.063 47.1388 190.225 47.1388H193.824V47.1415Z" fill="white"/>
<path d="M68.3982 59.0521C67.7523 58.8878 67.093 58.8071 66.4201 58.8071C64.2297 58.8044 62.3378 59.5903 60.7878 61.1457C59.2324 62.6985 58.4492 64.5876 58.4492 66.7781C58.4467 68.9687 59.2296 70.8578 60.7878 72.4105C62.3378 73.9633 64.2297 74.749 66.4201 74.749C67.0902 74.749 67.7523 74.6683 68.3954 74.5042C69.0683 74.3427 69.453 73.8447 69.4396 73.164V73.1452C69.4424 72.701 69.2539 72.3163 68.896 72.0525L68.8745 72.0364L68.1505 71.7781L68.1128 71.7646L67.7442 71.8103H67.7334L67.7254 71.8131C67.2922 71.9153 66.8562 71.9691 66.4176 71.9691C64.9752 71.9664 63.7669 71.4686 62.7469 70.4594C61.7323 69.4423 61.2318 68.2285 61.2291 66.7834C61.2318 65.3356 61.7323 64.1246 62.7469 63.1048C63.7669 62.0875 64.9752 61.587 66.4176 61.5842C66.8535 61.5842 67.2922 61.6408 67.7226 61.7485L67.7307 61.7511L68.0726 61.7942L68.1128 61.7996L68.8502 61.5359L68.8745 61.5277L68.896 61.5116C69.2539 61.2398 69.4424 60.8576 69.4396 60.4191V60.3895C69.4557 59.7059 69.0708 59.2109 68.3982 59.0521Z" fill="#B2B2B2"/>
<path d="M87.5978 58.8037C86.1393 58.8012 84.8717 59.3258 83.8303 60.3619C82.7916 61.4006 82.2615 62.6709 82.2642 64.1375V73.3679C82.2615 73.7445 82.4014 74.0837 82.6758 74.3393C82.9369 74.603 83.2733 74.7457 83.6393 74.743H83.6689C84.0376 74.7457 84.3712 74.603 84.635 74.3339C84.9041 74.0837 85.044 73.7445 85.044 73.3679V69.0783H90.1543V73.3679C90.1517 73.7445 90.2916 74.0837 90.566 74.3393C90.8271 74.603 91.1635 74.7457 91.5295 74.743H91.559C91.9278 74.7457 92.2615 74.603 92.5252 74.3339C92.7943 74.0837 92.9343 73.7445 92.9343 73.3679V64.1375C92.9369 62.6735 92.4122 61.4006 91.368 60.3619C90.3319 59.3285 89.0645 58.8037 87.5978 58.8037ZM85.0466 64.1375C85.0494 63.4244 85.2916 62.8323 85.7895 62.3264C86.2953 61.8232 86.8847 61.5783 87.6005 61.5783C88.3191 61.581 88.9111 61.8258 89.417 62.329C89.9148 62.835 90.157 63.4244 90.1597 64.1402V66.3092H85.0494V64.1375H85.0466Z" fill="#B2B2B2"/>
<path d="M111.729 58.8037C110.23 58.8012 108.93 59.3393 107.864 60.3996C106.796 61.4652 106.258 62.7704 106.258 64.2747V73.3651C106.255 73.742 106.395 74.081 106.669 74.3367C106.93 74.6003 107.262 74.743 107.63 74.7402H107.66C108.028 74.743 108.365 74.6003 108.629 74.3312C108.898 74.081 109.038 73.742 109.038 73.3651V69.7456H111.729C113.233 69.7484 114.533 69.2074 115.593 68.1391C116.661 67.0734 117.202 65.7736 117.202 64.2747C117.205 62.7704 116.661 61.4652 115.593 60.3996C114.533 59.3419 113.233 58.8037 111.729 58.8037ZM113.637 66.1774C113.104 66.7075 112.482 66.9658 111.729 66.9658H109.038V64.2774C109.04 63.5239 109.296 62.8996 109.821 62.3667C110.351 61.8366 110.978 61.5783 111.729 61.5755C112.485 61.5783 113.104 61.834 113.637 62.3667C114.164 62.8996 114.417 63.5212 114.417 64.2747C114.417 65.0309 114.164 65.6498 113.637 66.1774Z" fill="#B2B2B2"/>
<path d="M131.83 58.8037H131.8C131.434 58.8012 131.101 58.9411 130.834 59.1994C130.565 59.4685 130.422 59.8049 130.422 60.179V73.3679C130.42 73.7473 130.565 74.0837 130.834 74.3367C131.098 74.6003 131.431 74.743 131.8 74.743H131.83C132.198 74.7457 132.535 74.6031 132.799 74.334C133.065 74.0837 133.208 73.7446 133.208 73.3679V60.179C133.21 59.8049 133.065 59.4685 132.799 59.2022C132.529 58.9411 132.196 58.8037 131.83 58.8037Z" fill="#B2B2B2"/>
<path d="M154.814 58.8037H147.505C147.139 58.8012 146.802 58.9384 146.538 59.2022C146.269 59.4713 146.127 59.8077 146.129 60.179V60.2004C146.127 60.5718 146.272 60.9109 146.538 61.1773C146.805 61.4411 147.141 61.5783 147.507 61.5757H149.776V73.3679C149.773 73.7393 149.913 74.0729 150.174 74.334C150.441 74.6031 150.78 74.7458 151.154 74.743H151.173C151.547 74.7458 151.883 74.6031 152.149 74.334C152.41 74.0729 152.55 73.7393 152.548 73.3679V61.5757H154.816C155.188 61.5783 155.524 61.4411 155.785 61.1773C156.051 60.9137 156.194 60.5745 156.194 60.2004V60.179C156.197 59.8049 156.051 59.4685 155.785 59.2022C155.521 58.9411 155.185 58.8037 154.814 58.8037Z" fill="#B2B2B2"/>
<path d="M174.142 58.8037C172.682 58.8012 171.415 59.3258 170.379 60.3619C169.335 61.4006 168.808 62.6709 168.81 64.1375V73.3679C168.808 73.7473 168.953 74.0837 169.222 74.3367C169.486 74.6003 169.818 74.743 170.188 74.743H170.218C170.586 74.7457 170.923 74.603 171.187 74.3339C171.453 74.0837 171.595 73.7445 171.595 73.3679V69.0783H176.703V73.3679C176.701 73.7473 176.846 74.0837 177.115 74.3367C177.379 74.6003 177.711 74.743 178.081 74.743H178.111C178.479 74.7457 178.816 74.603 179.08 74.3339C179.346 74.0837 179.488 73.7445 179.488 73.3679V64.1375C179.491 62.6709 178.96 61.4006 177.922 60.3619C176.877 59.3285 175.605 58.8037 174.142 58.8037ZM171.593 64.1375C171.595 63.4217 171.835 62.8323 172.333 62.3264C172.838 61.8232 173.431 61.5783 174.144 61.5783C174.863 61.581 175.457 61.8258 175.963 62.329C176.458 62.835 176.701 63.4244 176.703 64.1402V66.3092H171.595L171.593 64.1375Z" fill="#B2B2B2"/>
<path d="M200.602 72.3695C200.338 72.1004 199.996 71.9604 199.624 71.9604H196.719L195.986 71.6591L195.688 70.927V60.179C195.691 59.8077 195.551 59.4685 195.278 59.2022C195.013 58.9384 194.679 58.8012 194.316 58.8037H194.283C193.92 58.8012 193.583 58.9384 193.319 59.2022C193.048 59.4685 192.908 59.8077 192.911 60.179V70.927C192.908 71.974 193.288 72.8835 194.028 73.6235C194.768 74.3663 195.674 74.743 196.721 74.7403H199.627C200.001 74.743 200.34 74.6003 200.607 74.3312C200.873 74.081 201.017 73.742 201.017 73.3652V73.3436C201.011 72.975 200.868 72.636 200.602 72.3695Z" fill="#B2B2B2"/>
<defs>
<linearGradient id="paint0_linear_3301_29360" x1="27.5801" y1="-1.22746" x2="22.6526" y2="70.6225" gradientUnits="userSpaceOnUse">
<stop stop-color="white"/>
<stop offset="1" stop-color="#ADADAD"/>
</linearGradient>
<linearGradient id="paint1_linear_3301_29360" x1="14.238" y1="74.6072" x2="15.7659" y2="52.2233" gradientUnits="userSpaceOnUse">
<stop/>
<stop offset="1" stop-opacity="0"/>
</linearGradient>
<linearGradient id="paint2_linear_3301_29360" x1="44.1607" y1="49.9958" x2="28.1942" y2="60.08" gradientUnits="userSpaceOnUse">
<stop/>
<stop offset="1" stop-opacity="0"/>
</linearGradient>
<linearGradient id="paint3_linear_3301_29360" x1="32.9476" y1="-1.69554" x2="38.1686" y2="25.1833" gradientUnits="userSpaceOnUse">
<stop/>
<stop offset="1" stop-opacity="0"/>
</linearGradient>
<linearGradient id="paint4_linear_3301_29360" x1="18.9107" y1="29.3056" x2="10.2015" y2="41.6052" gradientUnits="userSpaceOnUse">
<stop/>
<stop offset="1" stop-opacity="0"/>
</linearGradient>
</defs>
</svg>
