<svg width="22" height="12" viewBox="0 0 22 12" fill="none" xmlns="http://www.w3.org/2000/svg">
<path id="Vector" d="M11.4901 11.2422L21.0864 1.90755C21.2466 1.75179 21.3359 1.54487 21.3359 1.32968C21.3359 1.1145 21.2466 0.907571 21.0864 0.751819L21.0755 0.741768C20.9979 0.666 20.9044 0.605668 20.8008 0.564441C20.6972 0.523213 20.5856 0.501953 20.4728 0.501953C20.3601 0.501953 20.2485 0.523213 20.1449 0.564441C20.0413 0.605668 19.9478 0.666 19.8701 0.741768L10.8341 9.53202L1.80175 0.741766C1.72409 0.665999 1.63061 0.605666 1.527 0.564439C1.42338 0.523212 1.31181 0.501951 1.19905 0.501951C1.08629 0.501951 0.974715 0.523212 0.871102 0.564439C0.767491 0.605666 0.67401 0.665999 0.596349 0.741766L0.585505 0.751817C0.425307 0.907569 0.335938 1.1145 0.335938 1.32968C0.335938 1.54486 0.425307 1.75179 0.585505 1.90755L10.1817 11.2422C10.2661 11.3243 10.3676 11.3896 10.4801 11.4343C10.5925 11.4789 10.7136 11.502 10.8359 11.502C10.9583 11.502 11.0793 11.4789 11.1918 11.4343C11.3043 11.3896 11.4058 11.3243 11.4901 11.2422Z" fill="#98FFF9"/>
</svg>
