<svg width="97" height="30" viewBox="0 0 97 30" fill="none" xmlns="http://www.w3.org/2000/svg">
<g id="ea_logo-2" clip-path="url(#clip0_4857_39903)">
<path id="Vector" d="M33.7151 18.5255V2.46049L36.8567 0.292969H31.6212L21.9352 10.1106L25.949 11.3217L22.895 12.5969L19.0553 11.0668L18.3574 11.9594L19.4043 12.3419L20.3644 14.6368L33.7151 18.5255ZM0.730469 0.484105L3.87175 2.71567L3.959 22.2234L18.8809 27.387L28.1305 24.1995L17.8339 17.6332L15.2161 16.4218L14.5178 17.2506L14.954 18.2706L11.7255 18.9719L10.7654 16.6132L12.1617 16.2945L12.9469 15.3381L11.9872 14.892L14.6923 10.4293L16.3503 11.0033L16.8738 10.3656L13.1214 8.70789V6.15834L16.6993 8.19828L20.6262 0.484105H0.730469ZM67.2751 5.86991V8.38744L70.3973 7.65861V5.86991H67.2751ZM68.5606 10.6399L67.2751 10.8387V13.6878H63.7858V3.68367H71.8662L73.6108 4.74354V9.44756L71.7745 9.8451L74.8047 13.6875H70.948L68.5606 10.6399ZM56.7153 7.26107L55.3381 9.97762L57.7255 9.44756L56.7153 7.26107ZM58.7356 11.5013L54.1442 12.5614L53.5934 13.6878H50.1042L55.0627 3.68367H58.3682L63.3267 13.6878H59.8375L58.7356 11.5013ZM44.3192 9.64633V11.435H49.4614V13.6878H40.8299V4.74354L38.9016 3.68367H49.4614V5.93617H44.3192V7.45984H48.3596V9.71259H44.3192V9.64633ZM79.3041 8.32118V13.6878H75.8145V3.68367H78.9367L83.8952 9.05001V3.68367H89.6802L87.3844 4.80979V13.6878H84.2626L79.3041 8.32118Z" fill="white"/>
<path id="Vector_2" fill-rule="evenodd" clip-rule="evenodd" d="M79.5776 18.0558H77.6493V21.1696H79.5776V20.507H81.506V21.8322L80.6798 22.4283H76.6395L75.813 21.8322V17.3932L76.6395 16.7971H80.5878L81.4143 17.3932V18.7183H79.486V18.0558H79.5776ZM70.1201 19.3809V22.2957H68.1917V16.7971H69.8443L72.5991 19.7122V16.7971H74.5275V22.2957H72.8745L70.1201 19.3809ZM58.2747 22.2957V16.7971H60.2031V22.2957H58.2747ZM55.2446 21.1031H57.632V22.3617H53.3162V16.8636H55.2446V21.1036V21.1031ZM50.2861 21.1031H52.6735V22.3617H48.3577V16.8636H50.2861V21.1036V21.1031ZM44.4094 18.8506L43.6746 20.3083L44.9602 20.0432L44.4094 18.8506ZM45.5113 21.1031L43.0322 21.6994L42.7565 22.2957H40.8281L43.4912 16.7969H45.3276L47.9903 22.2957H46.062L45.5113 21.1031ZM64.1514 18.8506L63.4169 20.3083L64.7025 20.0432L64.1514 18.8506ZM65.3453 21.1031L62.8658 21.6994L62.5905 22.2957H60.6621L63.3249 16.7969H65.1616L67.8243 22.2957H65.896L65.3453 21.1031ZM84.5361 20.1095V21.1031H87.3826V22.3617H82.6078V16.8636H87.3826V18.1223H84.5361V18.9174H86.7398V20.176H84.5361V20.11V20.1095Z" fill="white"/>
<path id="Vector_3" d="M67.2779 8.38551L70.3997 7.65644V8.05423L66.084 9.37937L67.2779 8.38551ZM71.7773 9.77667L74.8075 13.6193H74.2564L70.3997 9.44538L71.7773 9.77667ZM64.8905 4.41032L63.7886 3.68149H71.869L73.6136 4.74161V7.06037L72.9708 5.07265L71.869 4.41008L64.8905 4.41032ZM57.7283 9.44538L57.912 9.90918L53.4125 11.2343L55.3408 10.0417L57.7283 9.44538ZM52.4024 8.98158L55.0655 3.61523H58.371L61.5849 10.1745L57.8199 4.34406H55.5245L52.4024 8.98158ZM44.322 7.39165H48.3623V8.7168L47.8112 7.85545L42.9444 8.18674L44.322 7.39165ZM40.2816 4.41032L38.9961 3.68149H49.5559V4.94013L48.8214 4.07904L40.2816 4.41032ZM44.322 11.4331H49.4642V12.5592L49.0051 11.8306L42.669 12.1619L44.322 11.4331ZM83.898 4.41032V3.68125H89.683L88.2137 4.41008L83.898 4.41032ZM75.8173 4.41032V3.68125H78.9395L83.898 9.04759L85.2752 11.6979L78.3884 4.41008L75.8173 4.41032Z" fill="white"/>
</g>
<defs>
<clipPath id="clip0_4857_39903">
<rect width="96.1095" height="29.5572" fill="white" transform="translate(0.730469 0.0449219)"/>
</clipPath>
</defs>
</svg>
