<svg width="21" height="21" viewBox="0 0 21 21" fill="none" xmlns="http://www.w3.org/2000/svg">
<g id="Frame" clip-path="url(#clip0_4235_34325)">
<g id="Group">
<path id="Vector" d="M4.08396 3.7334L7.77729 7.1834L6.64062 8.40006L4.91729 6.79173V13.8334C4.91729 14.7501 5.66396 15.5001 6.58396 15.5001H11.1673V17.1667H6.58396C4.74312 17.1667 3.25062 15.6751 3.25062 13.8334V6.79173L1.52729 8.40006L0.390625 7.1834L4.08396 3.7334ZM14.084 5.50006H9.50062V3.8334H14.084C15.9248 3.8334 17.4173 5.32506 17.4173 7.16673V14.2084L19.1406 12.6001L20.2773 13.8167L16.584 17.2667L12.8906 13.8167L14.0273 12.6001L15.7506 14.2084V7.16673C15.7506 6.25006 15.004 5.50006 14.084 5.50006Z" fill="#C09AFF"/>
</g>
</g>
<defs>
<clipPath id="clip0_4235_34325">
<rect width="20" height="20" fill="white" transform="translate(0.332031 0.5)"/>
</clipPath>
</defs>
</svg>
