<svg width="46" height="52" viewBox="0 0 46 52" fill="none" xmlns="http://www.w3.org/2000/svg">
<g id="Frame" clip-path="url(#clip0_4929_40576)">
<g id="Group">
<g id="Layer 4">
<g id="Group_2">
<path id="Vector" d="M37.7492 41.0476C45.9383 32.8584 45.9383 19.5811 37.7492 11.3919C29.56 3.20269 16.2827 3.20269 8.09347 11.3919C-0.0957239 19.5811 -0.0957239 32.8584 8.09347 41.0476C16.2827 49.2368 29.56 49.2368 37.7492 41.0476Z" fill="url(#paint0_linear_4929_40576)"/>
<g id="Vector_2" style="mix-blend-mode:overlay" opacity="0.61">
<path d="M1.9375 26.2207C1.9375 27.2947 2.01853 28.3493 2.17454 29.3797C3.41659 29.6082 4.69493 29.7292 6.00349 29.7292C17.5847 29.7292 26.9732 20.3406 26.9732 8.75944C26.9732 7.68549 26.8922 6.6309 26.7362 5.60049C25.4941 5.37192 24.2158 5.25098 22.9072 5.25098C11.326 5.25098 1.9375 14.6395 1.9375 26.2207Z" fill="white"/>
</g>
<g id="Vector_3" style="mix-blend-mode:overlay" opacity="0.61">
<path d="M2.32031 22.1136C2.69281 22.1402 3.06772 22.1583 3.44626 22.1583C11.9725 22.1583 18.8854 15.2466 18.8854 6.71917C18.8854 6.35636 18.8709 5.99716 18.8467 5.6416C10.5285 7.26582 3.96993 13.8062 2.32031 22.1136Z" fill="white"/>
</g>
<path id="Vector_4" d="M22.906 45.8201C11.5546 45.8201 2.3112 36.7992 1.94959 25.5361C1.94234 25.7635 1.9375 25.9921 1.9375 26.2207C1.9375 37.8018 11.326 47.1904 22.9072 47.1904C34.4884 47.1904 43.877 37.8018 43.877 26.2207C43.877 25.9909 43.8721 25.7635 43.8649 25.5361C43.5033 36.8005 34.2598 45.8201 22.9084 45.8201H22.906Z" fill="url(#paint1_linear_4929_40576)"/>
<g id="Vector_5" style="mix-blend-mode:overlay">
<path d="M22.9072 6.73491C34.2393 6.73491 43.4706 15.7256 43.8625 26.9621C43.8709 26.7154 43.877 26.4686 43.877 26.2207C43.877 14.6395 34.4884 5.25098 22.9072 5.25098C11.326 5.25098 1.9375 14.6395 1.9375 26.2207C1.9375 26.4686 1.94355 26.7166 1.95201 26.9621C2.34386 15.7244 11.574 6.73491 22.9072 6.73491Z" fill="white"/>
</g>
<path id="Vector_6" d="M33.8326 37.1275C39.8567 31.1033 39.8567 21.3362 33.8326 15.312C27.8084 9.28782 18.0413 9.28782 12.0171 15.312C5.99293 21.3362 5.99293 31.1033 12.0171 37.1275C18.0413 43.1516 27.8084 43.1516 33.8326 37.1275Z" fill="url(#paint2_linear_4929_40576)"/>
<path id="Vector_7" d="M23.22 10.8096L23.2659 25.9923H38.1209C38 17.7527 31.4221 11.0805 23.2188 10.8096H23.22Z" fill="url(#paint3_linear_4929_40576)"/>
<g id="Group_3">
<g id="Group_4">
<path id="Vector_8" d="M12.1428 26.9483H7.56399C7.16368 26.9483 6.83594 26.6206 6.83594 26.2202C6.83594 25.8199 7.16368 25.4922 7.56399 25.4922H12.1428C12.5431 25.4922 12.8708 25.8199 12.8708 26.2202C12.8708 26.6206 12.5431 26.9483 12.1428 26.9483Z" fill="#E8951B"/>
<path id="Vector_9" d="M38.2912 26.9483H33.7124C33.3121 26.9483 32.9844 26.6206 32.9844 26.2202C32.9844 25.8199 33.3121 25.4922 33.7124 25.4922H38.2912C38.6915 25.4922 39.0193 25.8199 39.0193 26.2202C39.0193 26.6206 38.6915 26.9483 38.2912 26.9483Z" fill="#E8951B"/>
</g>
<g id="Group_5">
<path id="Vector_10" d="M14.7857 19.1099L11.5482 15.8723C11.2652 15.5893 11.2652 15.1261 11.5482 14.8431C11.8312 14.5601 12.2944 14.5601 12.5774 14.8431L15.8149 18.0807C16.0979 18.3637 16.0979 18.8269 15.8149 19.1099C15.5319 19.3929 15.0687 19.3929 14.7857 19.1099Z" fill="#E8951B"/>
<path id="Vector_11" d="M33.2779 37.5972L30.0404 34.3596C29.7574 34.0766 29.7574 33.6134 30.0404 33.3304C30.3234 33.0474 30.7866 33.0474 31.0696 33.3304L34.3071 36.568C34.5901 36.851 34.5901 37.3142 34.3071 37.5972C34.0241 37.8802 33.5609 37.8802 33.2779 37.5972Z" fill="#E8951B"/>
</g>
<g id="Group_6">
<path id="Vector_12" d="M31.0696 19.1099L34.3071 15.8723C34.5901 15.5893 34.5901 15.1261 34.3071 14.8431C34.0241 14.5601 33.5609 14.5601 33.2779 14.8431L30.0404 18.0807C29.7574 18.3637 29.7574 18.8269 30.0404 19.1099C30.3234 19.3929 30.7866 19.3929 31.0696 19.1099Z" fill="#E8951B"/>
<path id="Vector_13" d="M12.5774 37.5972L15.8149 34.3596C16.0979 34.0766 16.0979 33.6134 15.8149 33.3304C15.5319 33.0474 15.0687 33.0474 14.7857 33.3304L11.5482 36.568C11.2652 36.851 11.2652 37.3142 11.5482 37.5972C11.8312 37.8802 12.2944 37.8802 12.5774 37.5972Z" fill="#E8951B"/>
</g>
<g id="Group_7">
<path id="Vector_14" d="M23.6514 37.0034V41.5822C23.6514 41.9825 23.3237 42.3103 22.9234 42.3103C22.5231 42.3103 22.1953 41.9825 22.1953 41.5822V37.0034C22.1953 36.6031 22.5231 36.2754 22.9234 36.2754C23.3237 36.2754 23.6514 36.6031 23.6514 37.0034Z" fill="#E8951B"/>
<path id="Vector_15" d="M23.6514 10.857V15.4357C23.6514 15.8361 23.3237 16.1638 22.9234 16.1638C22.5231 16.1638 22.1953 15.8361 22.1953 15.4357V10.857C22.1953 10.4567 22.5231 10.1289 22.9234 10.1289C23.3237 10.1289 23.6514 10.4567 23.6514 10.857Z" fill="#E8951B"/>
</g>
</g>
<path id="Vector_16" d="M22.9192 9.11133C13.4896 9.11133 5.84375 16.7559 5.84375 26.1868C5.84375 35.6177 13.4884 43.2611 22.9192 43.2611C32.3501 43.2611 39.9935 35.6165 39.9935 26.1868C39.9935 16.7571 32.3489 9.11133 22.9192 9.11133ZM22.9313 41.32C14.5804 41.32 7.81023 34.5498 7.81023 26.1989C7.81023 17.848 14.5804 11.0778 22.9313 11.0778C31.2822 11.0778 38.0524 17.848 38.0524 26.1989C38.0524 34.5498 31.2822 41.32 22.9313 41.32Z" fill="#E2860C"/>
<path id="Vector_17" d="M22.918 43.2659C13.5924 43.2659 6.01427 35.7906 5.84738 26.5049C5.84496 26.6089 5.84375 26.7141 5.84375 26.8193C5.84375 36.249 13.4884 43.8936 22.9192 43.8936C32.3501 43.8936 39.9935 36.249 39.9935 26.8193C39.9935 26.7141 39.9911 26.6101 39.9899 26.5049C39.8218 35.7906 32.2437 43.2659 22.9192 43.2659H22.918Z" fill="white"/>
<g id="Vector_18" style="mix-blend-mode:overlay" opacity="0.58">
<path d="M21.3132 12.0493C16.8578 11.9997 11.8013 15.9302 9.53971 20.7219C7.27935 25.5135 14.237 27.2623 19.6007 22.5263C24.9644 17.7903 26.4483 12.1061 21.312 12.0493H21.3132Z" fill="white"/>
</g>
<g id="Vector_19" style="mix-blend-mode:overlay" opacity="0.58">
<path d="M31.8844 31.7805C29.7752 31.7575 27.3806 33.6188 26.309 35.8876C25.2387 38.1564 28.5331 38.9849 31.0729 36.7414C33.6126 34.4992 34.3153 31.8071 31.8832 31.7805H31.8844Z" fill="white"/>
</g>
<g id="Vector_20" style="mix-blend-mode:overlay" opacity="0.58">
<path d="M38.9145 36.4379C38.4089 35.6458 35.4556 38.4165 34.3768 40.2197C33.298 42.0229 35.3359 41.7036 37.3858 39.6077C39.4345 37.5119 38.9145 36.4379 38.9145 36.4379Z" fill="white"/>
</g>
<g id="Vector_21" style="mix-blend-mode:overlay" opacity="0.58">
<path d="M11.4926 11.2192C10.9871 10.427 8.03372 13.1977 6.95493 15.001C5.87615 16.8042 7.91398 16.4849 9.96391 14.389C12.0126 12.2931 11.4926 11.2192 11.4926 11.2192Z" fill="white"/>
</g>
<g id="Group_8">
<g id="Group_9">
<path id="Vector_22" d="M12.625 51.8991L11.6527 51.506C10.8775 51.1928 10.5001 50.3027 10.8134 49.5287L11.7894 43.7332C12.1026 42.958 12.613 43.755 13.3882 44.0682L16.708 45.4095C17.4832 45.7227 18.2391 45.4385 17.9258 46.2125L14.6024 51.0598C14.2892 51.835 13.3991 52.2123 12.625 51.8991Z" fill="url(#paint4_linear_4929_40576)"/>
<path id="Vector_23" d="M33.8343 51.8991L34.8066 51.506C35.5819 51.1928 35.9592 50.3027 35.646 49.5287L34.67 43.7332C34.3567 42.958 33.8464 43.755 33.0711 44.0682L29.7513 45.4095C28.9761 45.7227 28.2203 45.4385 28.5335 46.2125L31.8569 51.0598C32.1701 51.835 33.0603 52.2123 33.8343 51.8991Z" fill="url(#paint5_linear_4929_40576)"/>
</g>
<g id="Vector_24" style="mix-blend-mode:overlay" opacity="0.58">
<path d="M12.1268 44.9729C12.1268 44.9729 10.9004 49.7379 11.071 50.2507C11.2427 50.7647 13.6808 48.751 14.3448 47.1897C15.0088 45.6284 12.1268 44.9717 12.1268 44.9717V44.9729Z" fill="white"/>
</g>
<g id="Vector_25" style="mix-blend-mode:overlay" opacity="0.58">
<path d="M31.3919 45.5429C31.3919 45.5429 29.9939 46.1137 29.5948 46.2842C29.1957 46.4559 32.6195 51.2488 33.2181 51.3334C33.8168 51.4193 33.4467 44.6576 31.3919 45.5416V45.5429Z" fill="white"/>
</g>
</g>
<g id="Group_10">
<path id="Vector_26" d="M41.0699 9.87262L34.5469 4.85645L32.1295 8.00005L38.6525 13.0162L41.0699 9.87262Z" fill="url(#paint6_linear_4929_40576)"/>
<path id="Vector_27" opacity="0.67" d="M41.0664 9.8736L39.5469 8.70508L37.1295 11.8487L38.649 13.0172L41.0664 9.8736Z" fill="#D13600"/>
<g id="Vector_28" style="mix-blend-mode:overlay">
<path d="M36.582 6.43024L35.0625 5.26172L32.6451 8.40532L34.1646 9.57384L36.582 6.43024Z" fill="white"/>
</g>
<path id="Vector_29" d="M44.7174 7.52645L35.9952 0.82034C35.5599 0.485336 34.9286 0.567575 34.5936 1.00296L32.0889 4.25987C31.7539 4.69525 31.8361 5.32655 32.2715 5.66156L40.9937 12.3677C41.4291 12.7027 42.0604 12.6204 42.3954 12.185L44.9 8.92814C45.235 8.49276 45.1528 7.86145 44.7174 7.52645Z" fill="url(#paint7_linear_4929_40576)"/>
<path id="Vector_30" opacity="0.67" d="M41.5137 11.6898L32.7916 4.98372C32.3562 4.64872 32.2739 4.01862 32.6089 3.58203L32.0889 4.25929C31.7539 4.69468 31.8361 5.32598 32.2715 5.66099L40.9937 12.3671C41.4291 12.7021 42.0604 12.6199 42.3954 12.1845L42.9154 11.5072C42.5804 11.9426 41.9503 12.0248 41.5137 11.6898Z" fill="#D13600"/>
<g id="Vector_31" style="mix-blend-mode:overlay" opacity="0.61">
<path d="M32.0332 4.91718L34.5379 1.66027C34.8729 1.22489 35.5029 1.14265 35.9395 1.47765L44.6617 8.18376C44.8468 8.32647 44.9677 8.52118 45.0197 8.73283C45.2144 8.318 45.1031 7.80522 44.7258 7.51496L36.0024 0.807644C35.567 0.472641 34.9357 0.55488 34.6007 0.990263L32.0961 4.24717C31.9038 4.49752 31.8494 4.81317 31.9207 5.09979C31.9509 5.0357 31.9872 4.97402 32.032 4.91718H32.0332Z" fill="white"/>
</g>
</g>
<g id="Group_11">
<path id="Vector_32" d="M7.34414 13.0181L13.8672 8.00195L11.4498 4.85835L4.92673 9.87452L7.34414 13.0181Z" fill="url(#paint8_linear_4929_40576)"/>
<path id="Vector_33" opacity="0.67" d="M7.34764 13.0172L8.86719 11.8486L6.44978 8.70503L4.93023 9.87355L7.34764 13.0172Z" fill="#D13600"/>
<g id="Vector_34" style="mix-blend-mode:overlay">
<path d="M11.832 9.5738L13.3516 8.40527L10.9342 5.26167L9.41461 6.43019L11.832 9.5738Z" fill="white"/>
</g>
<path id="Vector_35" d="M9.99763 0.821099L1.27627 7.52776C0.838917 7.86408 0.757015 8.49126 1.09333 8.92861L3.59847 12.1863C3.93479 12.6237 4.56197 12.7056 4.99932 12.3692L13.7207 5.66257C14.158 5.32626 14.2399 4.69907 13.9036 4.26172L11.3985 1.00403C11.0622 0.566682 10.435 0.484781 9.99763 0.821099Z" fill="url(#paint9_linear_4929_40576)"/>
<path id="Vector_36" opacity="0.67" d="M4.47982 11.6918L13.202 4.98568C13.6374 4.65067 13.7196 4.02058 13.3846 3.58398L13.9046 4.26125C14.2397 4.69663 14.1574 5.32794 13.722 5.66294L4.99986 12.369C4.56447 12.704 3.93317 12.6218 3.59817 12.1864L3.07812 11.5092C3.41313 11.9445 4.04322 12.0268 4.47982 11.6918Z" fill="#D13600"/>
<g id="Vector_37" style="mix-blend-mode:overlay" opacity="0.61">
<path d="M13.9546 4.91815L11.4499 1.66125C11.1149 1.22586 10.4848 1.14362 10.0482 1.47863L1.32724 8.18352C1.1422 8.32623 1.02126 8.52095 0.969259 8.73259C0.774546 8.31777 0.88581 7.80498 1.26314 7.51473L9.98532 0.808621C10.4207 0.473618 11.052 0.555857 11.387 0.99124L13.8917 4.24815C14.084 4.49849 14.1384 4.81414 14.067 5.10077C14.0368 5.03667 14.0005 4.97499 13.9558 4.91815H13.9546Z" fill="white"/>
</g>
</g>
<path id="Vector_38" d="M25.269 26.5468C25.5757 25.2473 24.7709 23.9452 23.4714 23.6385C22.1719 23.3318 20.8699 24.1366 20.5632 25.4361C20.2564 26.7356 21.0613 28.0377 22.3607 28.3444C23.6602 28.6511 24.9623 27.8463 25.269 26.5468Z" fill="#E8951B"/>
<g id="Group_12">
<path id="Vector_39" d="M22.9996 28.0181L33.2795 27.1267C33.6822 27.1352 34.0233 26.643 34.0317 26.239C34.0402 25.8363 33.7221 25.3284 33.3194 25.3187L23.0903 23.9678C23.0806 23.9678 23.0697 23.969 23.0601 23.9714C23.0347 23.9702 23.0105 23.9666 22.9851 23.9654C21.8664 23.94 20.94 24.8265 20.9146 25.9452C20.8892 27.0639 21.7757 27.9902 22.8944 28.0156C22.9198 28.0156 22.944 28.0144 22.9694 28.0132C22.979 28.0156 22.9899 28.0181 22.9996 28.0181Z" fill="#E8951B"/>
<g id="Vector_40" style="mix-blend-mode:overlay" opacity="0.61">
<path d="M23.2919 27.5053L32.8848 26.7495C33.2609 26.7579 33.5742 26.5173 33.5802 26.2149C33.5875 25.9126 33.2851 25.6586 32.909 25.6501L23.3596 24.4649C23.3499 24.4649 23.3402 24.4649 23.3306 24.4673C23.3076 24.4661 23.2846 24.4637 23.2604 24.4625C22.2167 24.4395 21.3556 25.1011 21.3363 25.9404C21.3169 26.7797 22.149 27.4799 23.1927 27.5029C23.2169 27.5029 23.2399 27.5029 23.2628 27.5017C23.2725 27.5029 23.2822 27.5053 23.2919 27.5053Z" fill="white"/>
</g>
<path id="Vector_41" d="M32.8908 26.422L23.2979 27.1778C23.2882 27.1778 23.2786 27.1766 23.2689 27.1742C23.2459 27.1742 23.2229 27.1754 23.1987 27.1754C22.224 27.1536 21.4354 26.5417 21.3508 25.7773C21.3423 25.8306 21.3375 25.8862 21.3363 25.9406C21.3169 26.7799 22.149 27.4802 23.1927 27.5032C23.2169 27.5032 23.2399 27.5032 23.2628 27.5019C23.2725 27.5032 23.2822 27.5056 23.2919 27.5056L32.8848 26.7497C33.2609 26.7582 33.5742 26.5175 33.5802 26.2151C33.5814 26.1571 33.5681 26.1027 33.5488 26.0507C33.4556 26.2708 33.1956 26.4292 32.8908 26.422Z" fill="white"/>
</g>
</g>
</g>
</g>
</g>
<defs>
<linearGradient id="paint0_linear_4929_40576" x1="37.7486" y1="41.0475" x2="8.09414" y2="11.3919" gradientUnits="userSpaceOnUse">
<stop stop-color="#D58D21"/>
<stop offset="1" stop-color="#F7E436"/>
</linearGradient>
<linearGradient id="paint1_linear_4929_40576" x1="1.93629" y1="36.3627" x2="43.8746" y2="36.3627" gradientUnits="userSpaceOnUse">
<stop stop-color="#D58D21"/>
<stop offset="1" stop-color="#E45C24"/>
</linearGradient>
<linearGradient id="paint2_linear_4929_40576" x1="16.5223" y1="14.9463" x2="29.8741" y2="38.4546" gradientUnits="userSpaceOnUse">
<stop stop-color="white"/>
<stop offset="1" stop-color="#F5E2AB"/>
</linearGradient>
<linearGradient id="paint3_linear_4929_40576" x1="30.6698" y1="25.9923" x2="30.6698" y2="10.8096" gradientUnits="userSpaceOnUse">
<stop stop-color="#460077"/>
<stop offset="1" stop-color="#B000C2"/>
</linearGradient>
<linearGradient id="paint4_linear_4929_40576" x1="10.7033" y1="47.7061" x2="17.9996" y2="47.7061" gradientUnits="userSpaceOnUse">
<stop stop-color="#D58D21"/>
<stop offset="1" stop-color="#E45C24"/>
</linearGradient>
<linearGradient id="paint5_linear_4929_40576" x1="28.4609" y1="47.7061" x2="35.756" y2="47.7061" gradientUnits="userSpaceOnUse">
<stop stop-color="#D58D21"/>
<stop offset="1" stop-color="#E45C24"/>
</linearGradient>
<linearGradient id="paint6_linear_4929_40576" x1="32.1297" y1="8.93493" x2="41.0708" y2="8.93493" gradientUnits="userSpaceOnUse">
<stop stop-color="#D58D21"/>
<stop offset="0.74" stop-color="#E6B92C"/>
<stop offset="1" stop-color="#F7E436"/>
</linearGradient>
<linearGradient id="paint7_linear_4929_40576" x1="43.0182" y1="10.0214" x2="34.0602" y2="3.23188" gradientUnits="userSpaceOnUse">
<stop stop-color="#D58D21"/>
<stop offset="0.74" stop-color="#E6B92C"/>
<stop offset="1" stop-color="#F7E436"/>
</linearGradient>
<linearGradient id="paint8_linear_4929_40576" x1="4.92581" y1="0.60472" x2="13.8669" y2="0.60472" gradientUnits="userSpaceOnUse">
<stop stop-color="#D58D21"/>
<stop offset="0.74" stop-color="#E6B92C"/>
<stop offset="1" stop-color="#F7E436"/>
</linearGradient>
<linearGradient id="paint9_linear_4929_40576" x1="3.06255" y1="10.4794" x2="11.792" y2="2.83354" gradientUnits="userSpaceOnUse">
<stop stop-color="#D58D21"/>
<stop offset="0.74" stop-color="#E6B92C"/>
<stop offset="1" stop-color="#F7E436"/>
</linearGradient>
<clipPath id="clip0_4929_40576">
<rect width="44.2543" height="51.4066" fill="white" transform="translate(0.890625 0.598633)"/>
</clipPath>
</defs>
</svg>
