<svg width="21" height="21" viewBox="0 0 21 21" fill="none" xmlns="http://www.w3.org/2000/svg">
<g id="Frame">
<g id="Group">
<path id="Vector" d="M14.5837 5.08313C13.5654 5.03313 12.3512 5.50813 11.342 6.88313L10.6712 7.79147L9.99953 6.88313C8.98953 5.50813 7.77453 5.03313 6.75619 5.08313C5.72036 5.14147 4.7987 5.73313 4.33119 6.6748C3.87119 7.60813 3.8037 8.99147 4.73036 10.6915C5.62536 12.3331 7.44453 14.2498 10.6712 16.1998C13.8962 14.2498 15.7145 12.3331 16.6095 10.6915C17.5354 8.99147 17.4679 7.60813 17.007 6.6748C16.5395 5.73313 15.6187 5.14147 14.5837 5.08313ZM18.0729 11.4915C16.947 13.5581 14.7387 15.7581 11.0904 17.8831L10.6712 18.1331L10.2512 17.8831C6.60203 15.7581 4.39369 13.5581 3.26619 11.4915C2.13286 9.40813 2.0912 7.44147 2.83786 5.93313C3.57703 4.44147 5.04369 3.50813 6.67203 3.4248C8.04786 3.3498 9.4787 3.89147 10.6704 5.0998C11.8612 3.89147 13.292 3.3498 14.667 3.4248C16.2954 3.50813 17.762 4.44147 18.5012 5.93313C19.2479 7.44147 19.2062 9.40813 18.0729 11.4915Z" fill="#C09AFF"/>
</g>
</g>
</svg>
