<svg width="20" height="21" viewBox="0 0 20 21" fill="none" xmlns="http://www.w3.org/2000/svg">
<g id="Frame">
<g id="Group">
<path id="Vector" d="M1.46094 8.83366C1.46094 5.15033 4.4476 2.16699 8.13177 2.16699H11.7701C15.5118 2.16699 18.5443 5.20033 18.5443 8.94199C18.5443 11.4087 17.2051 13.6753 15.0476 14.867L8.33594 18.5837V15.5087H8.2801C4.53844 15.592 1.46094 12.5837 1.46094 8.83366ZM8.13177 3.83366C5.3676 3.83366 3.1276 6.07533 3.1276 8.83366C3.1276 11.642 5.43594 13.9003 8.2426 13.842L8.5351 13.8337H10.0026V15.7503L14.2418 13.4087C15.8676 12.5087 16.8776 10.8003 16.8776 8.94199C16.8776 6.11699 14.5909 3.83366 11.7701 3.83366H8.13177Z" fill="#C09AFF"/>
</g>
</g>
</svg>
