<svg width="185" height="38" viewBox="0 0 185 38" fill="none" xmlns="http://www.w3.org/2000/svg">
<g id="svgexport-18 1" clip-path="url(#clip0_4857_39332)">
<path id="Vector" d="M50.4961 11.8441L51.9364 11.459L58.1349 13.3662L57.041 13.2562L50.4961 11.8441Z" fill="white"/>
<path id="Vector_2" d="M20.0722 18.0977L8.91485 29.339L0.820312 37.4627L11.376 33.025L33.4719 23.7458L27.8568 21.3618L19.4524 24.9012L24.4112 19.9132" fill="url(#paint0_linear_4857_39332)"/>
<path id="Vector_3" d="M43.5508 14.7595L45.2098 16.4467L46.8688 18.097L53.8148 15.1814L58.1356 13.3658L50.4968 11.8438L43.5508 14.7595Z" fill="url(#paint1_linear_4857_39332)"/>
<path id="Vector_4" d="M58.0243 29.3384L46.867 18.0971L45.208 16.4466L43.5489 14.7595L40.632 11.8437H34.5793H34.3423H25.081L35.4545 16.2082H38.8272L39.0823 16.4466L47.4868 24.9005L16.4396 11.8437L23.2033 5.04027H29.8029H33.4673H43.7313L50.4949 11.8437L58.1336 13.3659L45.5179 0.675781H39.3923H33.4673H29.8029H27.5422H21.4165L17.0776 5.04027L12.1188 10.0283L8.80078 13.3659L13.1215 15.1813L55.5631 33.0244L66.1189 37.4622L58.0243 29.3384Z" fill="white"/>
<path id="Vector_5" d="M168.763 13.1836H166.082V25.0484H168.763V13.1836Z" fill="white"/>
<path id="Vector_6" d="M182.816 22.8087C182.232 22.8087 181.831 22.4235 181.831 21.8735V15.4367H184.639V13.1811H181.831V9H179.151V13.1811H175.177V12.2459C175.177 11.5673 175.487 11.2556 176.161 11.2556H177.364V9.51346V9.33008V9.01833H175.779C173.81 9.01833 172.498 10.3203 172.498 12.2825V13.1995H170.711V15.4551H172.498V25.0826H175.177V15.4551H179.151V21.8917C179.151 23.7989 180.629 25.0826 182.853 25.0826H184.749V24.7709V24.294V22.8454H182.816V22.8087Z" fill="white"/>
<path id="Vector_7" d="M75.7794 18.6826H80.8293C80.2642 20.8832 78.514 22.3502 76.454 22.3502C73.4641 22.3502 71.4769 20.223 71.4769 16.9955C71.4769 13.8046 73.4641 11.6957 76.454 11.6957C77.6754 11.6957 78.9151 12.3375 79.772 13.3645H83.0536C81.7045 10.7605 79.0792 9 76.454 9C71.6774 9 68.4688 12.1908 68.4688 16.9955C68.4688 21.8367 71.6592 25.0459 76.454 25.0459C80.9387 25.0459 83.9469 21.8367 83.9469 16.9955V15.9869H75.7976V18.6826H75.7794Z" fill="white"/>
<path id="Vector_8" d="M94.8732 14.3205C94.8732 14.3205 93.7429 13.1836 91.5005 13.1836C91.4094 13.1836 91.3365 13.1836 91.2454 13.1836C87.7632 13.1836 85.4297 15.5676 85.4297 19.1252C85.4297 22.6828 87.7632 25.0667 91.2454 25.0667C91.3365 25.0667 91.4094 25.0667 91.5005 25.0667C93.7429 25.0667 94.8732 23.9298 94.8732 23.9298V25.0667H97.5533V19.1435V13.202H94.8732V14.3205ZM94.8732 19.1252C94.8732 21.2524 93.5242 22.6828 91.5188 22.6828C89.4769 22.6828 88.1278 21.2707 88.1278 19.1252C88.1278 16.998 89.4952 15.5676 91.5188 15.5676C93.5242 15.5676 94.8732 16.9796 94.8732 19.1252Z" fill="white"/>
<path id="Vector_9" d="M111.351 13.1836C111.26 13.1836 111.187 13.1836 111.096 13.1836C109.364 13.2569 108.179 13.9904 107.851 14.2289C107.067 13.5687 105.955 13.1836 104.606 13.1836C104.515 13.1836 104.442 13.1836 104.351 13.1836C103.53 13.2203 102.838 13.4037 102.309 13.6054V13.1836H99.6289V13.4586V17.163V18.19V19.7487V25.0484H102.309V19.7487V17.163C102.309 16.1911 103.111 15.5676 104.351 15.5676C105.572 15.5676 106.374 16.1911 106.393 17.163V18.19V25.0484H109.073V17.163C109.073 16.1911 109.875 15.5676 111.114 15.5676C112.336 15.5676 113.156 16.1911 113.156 17.163V25.0484H115.836V16.888C115.8 14.669 114.013 13.1836 111.351 13.1836Z" fill="white"/>
<path id="Vector_10" d="M123.787 13.1836C120.141 13.1836 117.734 15.5676 117.734 19.1252C117.734 22.6828 120.141 25.0667 123.787 25.0667C126.431 25.0667 128.673 23.5081 129.493 21.1607H126.722C126.158 22.151 125.009 22.8112 123.787 22.8112C122.037 22.8112 120.706 21.6375 120.451 19.8587H126.158H129.62H129.84V19.6386V19.3452V19.1252C129.84 15.5676 127.433 13.1836 123.787 13.1836ZM120.633 17.6215C121.143 16.2278 122.292 15.4392 123.787 15.4392C125.282 15.4392 126.431 16.2278 126.941 17.6215H120.633Z" fill="white"/>
<path id="Vector_11" d="M168.763 9H166.082V11.6957H168.763V9Z" fill="white"/>
<path id="Vector_12" d="M159.174 20.9223L156.968 13.1836H155.601H154.234L152.045 20.9223L149.384 13.1836H146.539L150.624 25.0484H153.413L155.601 17.3647L157.788 25.0484H160.578L164.661 13.1836H161.835L159.174 20.9223Z" fill="white"/>
<path id="Vector_13" d="M138.771 15.6232L138.46 15.5498C136.674 15.1464 134.961 14.7614 134.961 13.661C134.961 12.5974 136.31 11.9006 138.333 11.9006C140.339 11.9006 141.779 12.7992 141.98 14.1745V14.2112H145.006V14.1379C144.787 11.0203 142.18 9.02148 138.333 9.02148C134.431 9.02148 131.824 10.892 131.824 13.6794C131.824 16.9986 135.288 17.8055 138.06 18.4657L138.37 18.539C140.156 18.9424 141.869 19.3276 141.869 20.4278C141.869 21.4915 140.521 22.1883 138.497 22.1883C136.491 22.1883 135.052 21.2897 134.851 19.9144V19.8776H131.824V19.9511C132.044 23.0685 134.651 25.0673 138.497 25.0673C142.399 25.0673 145.006 23.1969 145.006 20.4094C145.006 17.0719 141.542 16.2651 138.771 15.6232Z" fill="white"/>
</g>
<defs>
<linearGradient id="paint0_linear_4857_39332" x1="9.97396" y1="36.5481" x2="24.9123" y2="22.8149" gradientUnits="userSpaceOnUse">
<stop stop-color="#FFEE00"/>
<stop offset="0.9878" stop-color="#FFA902"/>
</linearGradient>
<linearGradient id="paint1_linear_4857_39332" x1="46.8987" y1="18.0994" x2="51.6703" y2="13.2751" gradientUnits="userSpaceOnUse">
<stop stop-color="#C6C6C6"/>
<stop offset="0.9878" stop-color="white"/>
</linearGradient>
<clipPath id="clip0_4857_39332">
<rect width="183.932" height="36.7864" fill="white" transform="translate(0.820312 0.675781)"/>
</clipPath>
</defs>
</svg>
