<svg width="13" height="12" viewBox="0 0 13 12" fill="none" xmlns="http://www.w3.org/2000/svg">
<g id="Game role:">
<path id="Vector" d="M3.71512 0.779297L4.42033 3.97554C4.52869 4.06104 4.65101 4.07534 4.85078 4.02248L4.97436 3.98969L5.06523 4.08053L7.07217 6.08676L7.16225 6.17684L7.13024 6.30052C7.07257 6.52357 7.0949 6.65909 7.21067 6.77486L7.53309 7.09728L9.85733 4.77233L9.53486 4.4499C9.45055 4.36554 9.3111 4.34469 9.06648 4.41563L8.93987 4.45209L8.84679 4.35901L6.79292 2.30513L6.75418 2.22696L6.72811 2.14799V1.65508C6.7278 1.65461 6.72768 1.65404 6.72739 1.65358L3.71505 0.779321L3.71512 0.779297ZM7.95165 2.15848L7.61431 2.49658L8.65765 3.53987L8.9957 3.20255L7.9517 2.15848H7.95165ZM10.8172 4.44247L7.00516 8.2546L7.88838 9.13925L11.7012 5.3264L10.8172 4.44247ZM5.2328 4.87737L1.0625 9.04767V11.1351L6.27688 5.92142L5.2328 4.87737Z" fill="#98FFF9"/>
</g>
</svg>
