<svg width="21" height="20" viewBox="0 0 21 20" fill="none" xmlns="http://www.w3.org/2000/svg">
<g id="game-icons:fast-arrow" clip-path="url(#clip0_4235_29136)">
<path id="Vector" d="M1.65625 0.78125V2.04258L15.6325 15.2809L1.65625 3.96113V6.26355L15.5602 16.0379L12.1661 15.3533L13.2174 16.5621L10.4634 16.6796L20.0584 19.2032L17.4998 9.47453L16.9001 13.0823L15.8337 11.8534L16.4854 14.2153L7.13867 0.78125H6.26484L11.8225 8.94277L5.11664 1.64719L8.98285 7.05918L2.60484 0.78125H1.65625ZM18.5703 4.38227L17.3112 5.88547L19.467 14.0187L20.0641 5.51109L18.5703 4.38219V4.38227ZM9.5125 17.1905L8.53691 18.1073L9.38355 19.1862L15.2127 18.687L9.51242 17.1905H9.5125Z" fill="#98FFF9"/>
</g>
<defs>
<clipPath id="clip0_4235_29136">
<rect width="20" height="20" fill="white" transform="translate(0.835938)"/>
</clipPath>
</defs>
</svg>
