<svg width="176" height="40" viewBox="0 0 176 40" fill="none" xmlns="http://www.w3.org/2000/svg">
<g id="logo">
<g id="Mask group">
<mask id="mask0_1048_29828" style="mask-type:luminance" maskUnits="userSpaceOnUse" x="0" y="0" width="176" height="40">
<g id="Group">
<path id="Vector" d="M0.414062 0H175.087V40H0.414062V0Z" fill="white"/>
</g>
</mask>
<g mask="url(#mask0_1048_29828)">
<path id="Fill-1" fill-rule="evenodd" clip-rule="evenodd" d="M145.021 11.8876H149.981V6.92578H145.021V11.8876ZM118.654 20.1506C119.602 17.6365 122.029 15.8465 124.875 15.8465C127.721 15.8465 130.148 17.6365 131.097 20.1506H118.654ZM124.875 11.2332C118.657 11.2332 113.615 16.2759 113.615 22.4966C113.615 28.7173 118.657 33.7592 124.875 33.7592C129.142 33.7592 132.854 31.3862 134.765 27.8883L130.604 25.8692C129.448 27.8298 127.316 29.146 124.875 29.146C121.792 29.146 119.2 27.0464 118.448 24.1987H131.302C131.302 24.2008 131.301 24.2037 131.301 24.2062H136.009C136.094 23.6485 136.138 23.0775 136.138 22.4966C136.138 16.2759 131.095 11.2332 124.875 11.2332ZM137.445 33.1588H142.406V28.197H137.445V33.1588ZM145.021 33.1588H149.981V14.0689H145.021V33.1588ZM163.827 29.146C160.155 29.146 157.179 26.1688 157.179 22.4966C157.179 18.8236 160.155 15.8465 163.827 15.8465C167.499 15.8465 170.475 18.8236 170.475 22.4966C170.475 26.1688 167.499 29.146 163.827 29.146ZM163.825 11.2332C157.607 11.2332 152.565 16.2759 152.565 22.4966C152.565 28.7173 157.607 33.7592 163.825 33.7592C170.045 33.7592 175.087 28.7173 175.087 22.4966C175.087 16.2759 170.045 11.2332 163.825 11.2332ZM60.1098 18.3448V23.4751H67.0459C66.6837 24.941 65.9677 26.2547 64.941 27.3041C63.3924 28.8871 61.2452 29.7592 58.8943 29.7592C54.0162 29.7592 50.047 25.7896 50.047 20.9099C50.047 16.0303 54.0162 12.0602 58.8943 12.0602C61.5074 12.0602 63.9093 13.1789 65.5745 15.1083L69.5457 11.8627C66.9127 8.77639 63.0062 6.92952 58.8943 6.92952C51.1878 6.92952 44.918 13.2013 44.918 20.9099C44.918 28.6186 51.1878 34.8899 58.8943 34.8899C62.6362 34.8899 66.0855 33.5414 68.6074 30.9638C70.7234 28.8003 72.126 25.7825 72.3957 22.7593C72.5272 21.2846 72.5392 19.8199 72.4616 18.3448H60.1098ZM85.3768 29.1472C81.7051 29.1472 78.7282 26.1692 78.7282 22.4966C78.7282 18.8232 81.7051 15.8461 85.3768 15.8461C89.049 15.8461 92.0258 18.8232 92.0258 22.4966C92.0258 26.1692 89.049 29.1472 85.3768 29.1472ZM92.0267 13.4282C90.1628 12.0614 87.8646 11.2523 85.3768 11.2523C79.1588 11.2523 74.1181 16.2946 74.1181 22.5141C74.1181 28.7344 79.1588 33.7758 85.3768 33.7758C87.8646 33.7758 90.1628 32.9671 92.0267 31.6003V33.1588H96.636V11.8697H92.0267V13.4282ZM106.531 6.9262H101.921V11.8876H99.1582V16.239H101.921V27.6265C101.921 28.8024 102.069 29.7916 102.362 30.568C102.65 31.336 103.092 31.9372 103.616 32.4069C104.148 32.8837 104.772 33.2551 105.512 33.4659C106.264 33.6775 107.093 33.7592 107.969 33.7592C108.877 33.7592 109.686 33.665 110.376 33.4787C111.017 33.3065 111.631 33.063 112.203 32.7534V29.2472C111.293 29.6406 110.443 29.7829 109.474 29.8281C108.45 29.8763 107.844 29.5837 107.34 29.1032C106.812 28.5999 106.531 27.9439 106.531 26.8435V16.239H112.203V11.8876H106.531V6.9262Z" fill="white"/>
</g>
</g>
<g id="Mask group_2">
<mask id="mask1_1048_29828" style="mask-type:luminance" maskUnits="userSpaceOnUse" x="0" y="0" width="176" height="40">
<g id="Group_2">
<path id="Vector_2" d="M0.414062 0H175.087V40H0.414062V0Z" fill="#2354E6"/>
</g>
</mask>
<g mask="url(#mask1_1048_29828)">
<path id="Fill-3" fill-rule="evenodd" clip-rule="evenodd" d="M20.4097 31.0002C14.3361 31.0002 9.41234 26.0758 9.41234 20.0003C9.41234 13.9252 14.3361 8.99994 20.4097 8.99994V0C9.36629 0 0.414062 8.9543 0.414062 20.0003C0.414062 31.0459 9.36629 40.0002 20.4097 40.0002C31.4527 40.0002 40.4054 31.0459 40.4054 20.0003H31.4071C31.4071 26.0758 26.4834 31.0002 20.4097 31.0002Z" fill="#2354E6"/>
</g>
</g>
<g id="Mask group_3">
<mask id="mask2_1048_29828" style="mask-type:luminance" maskUnits="userSpaceOnUse" x="0" y="0" width="176" height="40">
<g id="Group_3">
<path id="Vector_3" d="M0.414062 0H175.087V40H0.414062V0Z" fill="#17E6A1"/>
</g>
</mask>
<g mask="url(#mask2_1048_29828)">
<path id="Fill-4" fill-rule="evenodd" clip-rule="evenodd" d="M20.4102 19.9999H31.4075V9H20.4102V19.9999Z" fill="#17E6A1"/>
</g>
</g>
</g>
</svg>
