<svg width="202" height="46" viewBox="0 0 202 46" fill="none" xmlns="http://www.w3.org/2000/svg">
<path fill-rule="evenodd" clip-rule="evenodd" d="M167.109 13.6704H172.814V7.96436H167.109V13.6704ZM136.787 23.1729C137.877 20.2817 140.669 18.2232 143.942 18.2232C147.215 18.2232 150.006 20.2817 151.096 23.1729H136.787ZM143.942 12.9179C136.791 12.9179 130.992 18.717 130.992 25.8708C130.992 33.0247 136.791 38.8228 143.942 38.8228C148.849 38.8228 153.118 36.0938 155.315 32.0713L150.53 29.7493C149.201 32.004 146.748 33.5176 143.942 33.5176C140.396 33.5176 137.415 31.1031 136.55 27.8282H151.333C151.332 27.8306 151.332 27.8339 151.331 27.8368H156.745C156.843 27.1955 156.894 26.5389 156.894 25.8708C156.894 18.717 151.095 12.9179 143.942 12.9179ZM158.397 38.1323H164.102V32.4263H158.397V38.1323ZM167.109 38.1323H172.814V16.1789H167.109V38.1323ZM188.736 33.5176C184.514 33.5176 181.091 30.0938 181.091 25.8708C181.091 21.6469 184.514 18.2232 188.736 18.2232C192.959 18.2232 196.382 21.6469 196.382 25.8708C196.382 30.0938 192.959 33.5176 188.736 33.5176ZM188.734 12.9179C181.583 12.9179 175.785 18.717 175.785 25.8708C175.785 33.0247 181.583 38.8228 188.734 38.8228C195.887 38.8228 201.686 33.0247 201.686 25.8708C201.686 18.717 195.887 12.9179 188.734 12.9179ZM69.4616 21.0962V26.996H77.4381C77.0216 28.6819 76.1982 30.1926 75.0175 31.3994C73.2366 33.2198 70.7673 34.2228 68.0638 34.2228C62.454 34.2228 57.8894 29.6577 57.8894 24.0461C57.8894 18.4345 62.454 13.8689 68.0638 13.8689C71.0688 13.8689 73.831 15.1554 75.7459 17.3743L80.3129 13.6418C77.285 10.0926 72.7924 7.96865 68.0638 7.96865C59.2013 7.96865 51.991 15.1812 51.991 24.0461C51.991 32.9111 59.2013 40.1231 68.0638 40.1231C72.3669 40.1231 76.3337 38.5723 79.2338 35.6081C81.6673 33.1201 83.2802 29.6496 83.5903 26.1729C83.7415 24.477 83.7554 22.7926 83.6662 21.0962H69.4616ZM98.5186 33.519C94.2961 33.519 90.8727 30.0943 90.8727 25.8708C90.8727 21.6464 94.2961 18.2227 98.5186 18.2227C102.742 18.2227 106.165 21.6464 106.165 25.8708C106.165 30.0943 102.742 33.519 98.5186 33.519ZM106.166 15.4422C104.023 13.8704 101.38 12.9399 98.5186 12.9399C91.3679 12.9399 85.5711 18.7385 85.5711 25.8909C85.5711 33.0442 91.3679 38.8419 98.5186 38.8419C101.38 38.8419 104.023 37.9119 106.166 36.3401V38.1323H111.467V13.6499H106.166V15.4422ZM122.846 7.96483H117.544V13.6704H114.367V18.6746H117.544V31.7702C117.544 33.1225 117.714 34.2601 118.051 35.1529C118.383 36.0361 118.891 36.7275 119.494 37.2677C120.106 37.816 120.823 38.243 121.674 38.4855C122.538 38.7288 123.492 38.8228 124.5 38.8228C125.543 38.8228 126.474 38.7145 127.268 38.5002C128.005 38.3022 128.711 38.0221 129.369 37.6661V33.634C128.323 34.0864 127.345 34.25 126.23 34.3021C125.053 34.3574 124.356 34.021 123.776 33.4684C123.169 32.8896 122.846 32.1352 122.846 30.8697V18.6746H129.369V13.6704H122.846V7.96483Z" fill="white"/>
<path fill-rule="evenodd" clip-rule="evenodd" d="M23.8075 35.6503C16.8228 35.6503 11.1605 29.9871 11.1605 23.0003C11.1605 16.014 16.8228 10.3499 23.8075 10.3499V0C11.1076 0 0.8125 10.2974 0.8125 23.0003C0.8125 35.7027 11.1076 46.0002 23.8075 46.0002C36.507 46.0002 46.8025 35.7027 46.8025 23.0003H36.4545C36.4545 29.9871 30.7922 35.6503 23.8075 35.6503Z" fill="#B2B2B2"/>
<path fill-rule="evenodd" clip-rule="evenodd" d="M23.8074 23L36.4545 23.0003L36.4544 10.3501L23.8075 10.3499L23.8074 23Z" fill="white"/>
</svg>
