<svg width="134" height="31" viewBox="0 0 134 31" fill="none" xmlns="http://www.w3.org/2000/svg">
<g id="logo">
<g id="Mask group">
<mask id="mask0_4857_39914" style="mask-type:luminance" maskUnits="userSpaceOnUse" x="0" y="0" width="134" height="31">
<g id="Group">
<path id="Vector" d="M0.757812 0.648438H133.285V30.9972H0.757812V0.648438Z" fill="white"/>
</g>
</mask>
<g mask="url(#mask0_4857_39914)">
<path id="Fill-1" fill-rule="evenodd" clip-rule="evenodd" d="M110.473 9.66891H114.237V5.9043H110.473V9.66891ZM90.4683 15.9382C91.1875 14.0307 93.0291 12.6726 95.1886 12.6726C97.3478 12.6726 99.1893 14.0307 99.9089 15.9382H90.4683ZM95.1886 9.17244C90.4709 9.17244 86.6451 12.9984 86.6451 17.7182C86.6451 22.438 90.4709 26.2633 95.1886 26.2633C98.4261 26.2633 101.242 24.4629 102.692 21.809L99.5352 20.2771C98.6581 21.7646 97.0403 22.7632 95.1886 22.7632C92.8491 22.7632 90.8826 21.1702 90.3119 19.0096H100.065C100.064 19.0112 100.064 19.0134 100.064 19.0153H103.636C103.7 18.5921 103.734 18.159 103.734 17.7182C103.734 12.9984 99.9079 9.17244 95.1886 9.17244ZM104.726 25.8078H108.489V22.0432H104.726V25.8078ZM110.473 25.8078H114.237V11.3239H110.473V25.8078ZM124.742 22.7632C121.956 22.7632 119.698 20.5044 119.698 17.7182C119.698 14.9314 121.956 12.6726 124.742 12.6726C127.528 12.6726 129.786 14.9314 129.786 17.7182C129.786 20.5044 127.528 22.7632 124.742 22.7632ZM124.74 9.17244C120.023 9.17244 116.197 12.9984 116.197 17.7182C116.197 22.438 120.023 26.2633 124.74 26.2633C129.46 26.2633 133.285 22.438 133.285 17.7182C133.285 12.9984 129.46 9.17244 124.74 9.17244ZM46.0498 14.5681V18.4605H51.3123C51.0376 19.5728 50.4943 20.5695 49.7153 21.3657C48.5404 22.5667 46.9112 23.2285 45.1276 23.2285C41.4265 23.2285 38.415 20.2166 38.415 16.5143C38.415 12.8121 41.4265 9.79987 45.1276 9.79987C47.1101 9.79987 48.9325 10.6486 50.1959 12.1125L53.209 9.65002C51.2113 7.30839 48.2473 5.90713 45.1276 5.90713C39.2805 5.90713 34.5234 10.6656 34.5234 16.5143C34.5234 22.363 39.2805 27.1212 45.1276 27.1212C47.9666 27.1212 50.5837 26.0981 52.497 24.1424C54.1026 22.5009 55.1667 20.2113 55.3713 17.9175C55.4711 16.7986 55.4802 15.6873 55.4213 14.5681H46.0498ZM65.2203 22.7641C62.4345 22.7641 60.1759 20.5047 60.1759 17.7182C60.1759 14.9311 62.4345 12.6723 65.2203 12.6723C68.0065 12.6723 70.2651 14.9311 70.2651 17.7182C70.2651 20.5047 68.0065 22.7641 65.2203 22.7641ZM70.2657 10.8378C68.8516 9.80082 67.1079 9.18692 65.2203 9.18692C60.5026 9.18692 56.6781 13.0126 56.6781 17.7314C56.6781 22.4509 60.5026 26.2759 65.2203 26.2759C67.1079 26.2759 68.8516 25.6624 70.2657 24.6253V25.8078H73.7629V9.65537H70.2657V10.8378ZM81.2702 5.90461H77.7727V9.66891H75.6765V12.9704H77.7727V21.6103C77.7727 22.5025 77.8848 23.253 78.107 23.8421C78.3261 24.4248 78.6609 24.881 79.0591 25.2373C79.4626 25.5991 79.936 25.8808 80.4972 26.0408C81.0675 26.2013 81.6967 26.2633 82.3617 26.2633C83.0501 26.2633 83.6638 26.1919 84.1876 26.0505C84.6739 25.9199 85.14 25.7351 85.5737 25.5002V22.84C84.8838 23.1384 84.2389 23.2464 83.503 23.2807C82.7262 23.3173 82.2667 23.0953 81.8843 22.7308C81.4836 22.3489 81.2702 21.8511 81.2702 21.0162V12.9704H85.5737V9.66891H81.2702V5.90461Z" fill="white"/>
</g>
</g>
<g id="Mask group_2">
<mask id="mask1_4857_39914" style="mask-type:luminance" maskUnits="userSpaceOnUse" x="0" y="0" width="134" height="31">
<g id="Group_2">
<path id="Vector_2" d="M0.757812 0.648438H133.285V30.9972H0.757812V0.648438Z" fill="#2354E6"/>
</g>
</mask>
<g mask="url(#mask1_4857_39914)">
<path id="Fill-3" fill-rule="evenodd" clip-rule="evenodd" d="M15.9289 24.1689C11.3207 24.1689 7.58498 20.4326 7.58498 15.823C7.58498 11.2138 11.3207 7.47687 15.9289 7.47687V0.648438C7.55004 0.648438 0.757812 7.44224 0.757812 15.823C0.757812 24.2035 7.55004 30.9973 15.9289 30.9973C24.3075 30.9973 31.1 24.2035 31.1 15.823H24.2728C24.2728 20.4326 20.5371 24.1689 15.9289 24.1689Z" fill="#2354E6"/>
</g>
</g>
<g id="Mask group_3">
<mask id="mask2_4857_39914" style="mask-type:luminance" maskUnits="userSpaceOnUse" x="0" y="0" width="134" height="31">
<g id="Group_3">
<path id="Vector_3" d="M0.757812 0.648438H133.285V30.9972H0.757812V0.648438Z" fill="#17E6A1"/>
</g>
</mask>
<g mask="url(#mask2_4857_39914)">
<path id="Fill-4" fill-rule="evenodd" clip-rule="evenodd" d="M15.9297 15.8244H24.2736V7.47852H15.9297V15.8244Z" fill="#17E6A1"/>
</g>
</g>
</g>
</svg>
