<svg width="142" height="38" viewBox="0 0 142 38" fill="none" xmlns="http://www.w3.org/2000/svg">
<g id="svgexport-1 (1) 1" clip-path="url(#clip0_4857_39296)">
<path id="Vector" d="M18.4715 0.486328C28.5393 0.486328 36.701 8.72123 36.701 18.8794C36.701 29.0377 28.5393 37.2727 18.4715 37.2727C8.40375 37.2727 0.242188 29.0377 0.242188 18.8794C0.242188 8.72123 8.40375 0.486328 18.4715 0.486328ZM18.4715 3.9898C10.3214 3.9898 3.71444 10.6561 3.71444 18.8794C3.71444 27.1029 10.3214 33.7692 18.4715 33.7692C26.6216 33.7692 33.2287 27.1029 33.2287 18.8794C33.2287 10.6561 26.6216 3.9898 18.4715 3.9898ZM18.4715 7.49325C24.704 7.49325 29.7564 12.591 29.7564 18.8794C29.7564 25.168 24.704 30.2657 18.4715 30.2657C12.2391 30.2657 7.1867 25.168 7.1867 18.8794C7.1867 12.591 12.2391 7.49325 18.4715 7.49325ZM18.4715 10.9967C14.1568 10.9967 10.659 14.526 10.659 18.8794C10.659 23.233 14.1568 26.7623 18.4715 26.7623C22.7863 26.7623 26.2841 23.233 26.2841 18.8794C26.2841 14.526 22.7863 10.9967 18.4715 10.9967ZM18.4715 14.5002C20.8687 14.5002 22.812 16.4609 22.812 18.8794C22.812 21.2982 20.8687 23.2588 18.4715 23.2588C16.0744 23.2588 14.1312 21.2982 14.1312 18.8794C14.1312 16.4609 16.0744 14.5002 18.4715 14.5002Z" fill="white"/>
<path id="Vector_2" d="M54.7857 17.7407V21.9967H57.0151C57.0151 23.0327 56.9588 23.8884 56.8461 24.564C56.7561 25.217 56.6208 25.735 56.4408 26.1178C56.2606 26.4782 56.0354 26.7259 55.7652 26.861C55.5174 26.9961 55.2248 27.0636 54.8869 27.0636C54.4141 27.0636 54.0312 26.9398 53.7384 26.692C53.4682 26.4443 53.2543 26.0051 53.0966 25.3746C52.9615 24.744 52.8715 23.8996 52.8264 22.8413C52.7813 21.7604 52.7589 20.4092 52.7589 18.7877C52.7589 17.1664 52.7813 15.8265 52.8264 14.7681C52.8715 13.6872 52.9615 12.8315 53.0966 12.2009C53.2543 11.5704 53.4794 11.1313 53.7723 10.8836C54.0875 10.6358 54.5041 10.512 55.022 10.512C55.7652 10.512 56.2494 10.861 56.4745 11.5591C56.6998 12.1446 56.8123 13.0792 56.8123 14.3628H62.8926C62.8926 12.899 62.7012 11.6605 62.3183 10.6471C61.9355 9.61122 61.4062 8.76675 60.7307 8.11368C60.0551 7.46063 59.2445 6.98772 58.2986 6.69497C57.3753 6.40224 56.3619 6.25586 55.2585 6.25586C53.4119 6.25586 51.9032 6.53735 50.7321 7.10033C49.5612 7.64078 48.6379 8.44022 47.9623 9.49862C47.3093 10.557 46.8589 11.8631 46.6112 13.417C46.3859 14.9708 46.2734 16.7611 46.2734 18.7877C46.2734 20.7921 46.3296 22.5709 46.4422 24.1249C46.5773 25.6786 46.8814 26.9848 47.3542 28.0432C47.8272 29.1016 48.5253 29.901 49.4485 30.4415C50.3719 30.9594 51.6329 31.2184 53.2317 31.2184C53.7723 31.2184 54.3014 31.1845 54.8193 31.117C55.3599 31.0495 55.8552 30.9368 56.3057 30.7793C56.7786 30.5991 57.1951 30.3401 57.5555 30.0024C57.9383 29.6645 58.2311 29.2367 58.4337 28.7188H58.5013L58.6364 30.8468H62.8926V17.7407H54.7857ZM64.4349 6.72876V30.8468H78.4533V25.7125H70.7179V6.72876H64.4349ZM78.821 6.72876V30.8468H85.104V6.72876H78.821ZM92.8651 17.1326V11.2551H94.0474C95.6688 11.2551 96.4795 12.2347 96.4795 14.1939C96.4795 15.2072 96.2655 15.9504 95.8377 16.4232C95.4323 16.8962 94.8355 17.1326 94.0474 17.1326H92.8651ZM86.5823 6.72876V30.8468H92.8651V21.6589H95.0608C97.6504 21.6589 99.6097 21.0398 100.938 19.8011C102.289 18.54 102.965 16.6597 102.965 14.1601C102.965 13.1017 102.83 12.1221 102.56 11.2213C102.289 10.3206 101.862 9.54365 101.276 8.8906C100.713 8.21502 99.9925 7.68581 99.1142 7.303C98.2359 6.92018 97.2001 6.72876 96.0065 6.72876H86.5823ZM99.6616 24.1586V30.8468H105.336V24.1586H99.6616ZM115.462 17.7407V21.9967H117.692C117.692 23.0327 117.635 23.8884 117.523 24.564C117.433 25.217 117.297 25.735 117.117 26.1178C116.937 26.4782 116.712 26.7259 116.442 26.861C116.194 26.9961 115.901 27.0636 115.563 27.0636C115.091 27.0636 114.708 26.9398 114.415 26.692C114.145 26.4443 113.931 26.0051 113.773 25.3746C113.638 24.744 113.548 23.8996 113.503 22.8413C113.458 21.7604 113.435 20.4092 113.435 18.7877C113.435 17.1664 113.458 15.8265 113.503 14.7681C113.548 13.6872 113.638 12.8315 113.773 12.2009C113.931 11.5704 114.156 11.1313 114.449 10.8836C114.764 10.6358 115.181 10.512 115.698 10.512C116.442 10.512 116.926 10.861 117.151 11.5591C117.376 12.1446 117.489 13.0792 117.489 14.3628H123.569C123.569 12.899 123.378 11.6605 122.995 10.6471C122.612 9.61122 122.083 8.76675 121.407 8.11368C120.732 7.46063 119.921 6.98772 118.975 6.69497C118.052 6.40224 117.038 6.25586 115.935 6.25586C114.088 6.25586 112.58 6.53735 111.409 7.10033C110.238 7.64078 109.314 8.44022 108.639 9.49862C107.986 10.557 107.535 11.8631 107.288 13.417C107.062 14.9708 106.95 16.7611 106.95 18.7877C106.95 20.7921 107.006 22.5709 107.119 24.1249C107.254 25.6786 107.558 26.9848 108.031 28.0432C108.504 29.1016 109.202 29.901 110.125 30.4415C111.048 30.9594 112.309 31.2184 113.908 31.2184C114.449 31.2184 114.978 31.1845 115.496 31.117C116.036 31.0495 116.532 30.9368 116.982 30.7793C117.455 30.5991 117.872 30.3401 118.232 30.0024C118.615 29.6645 118.908 29.2367 119.11 28.7188H119.178L119.313 30.8468H123.569V17.7407H115.462ZM133.218 17.7407V21.9967H135.448C135.448 23.0327 135.391 23.8884 135.279 24.564C135.189 25.217 135.054 25.735 134.874 26.1178C134.693 26.4782 134.468 26.7259 134.198 26.861C133.95 26.9961 133.657 27.0636 133.32 27.0636C132.847 27.0636 132.464 26.9398 132.171 26.692C131.901 26.4443 131.687 26.0051 131.529 25.3746C131.394 24.744 131.304 23.8996 131.259 22.8413C131.214 21.7604 131.192 20.4092 131.192 18.7877C131.192 17.1664 131.214 15.8265 131.259 14.7681C131.304 13.6872 131.394 12.8315 131.529 12.2009C131.687 11.5704 131.912 11.1313 132.205 10.8836C132.52 10.6358 132.937 10.512 133.455 10.512C134.198 10.512 134.682 10.861 134.907 11.5591C135.132 12.1446 135.245 13.0792 135.245 14.3628H141.325C141.325 12.899 141.134 11.6605 140.751 10.6471C140.368 9.61122 139.839 8.76675 139.163 8.11368C138.488 7.46063 137.677 6.98772 136.731 6.69497C135.808 6.40224 134.795 6.25586 133.691 6.25586C131.845 6.25586 130.336 6.53735 129.165 7.10033C127.994 7.64078 127.071 8.44022 126.395 9.49862C125.742 10.557 125.292 11.8631 125.044 13.417C124.819 14.9708 124.706 16.7611 124.706 18.7877C124.706 20.7921 124.762 22.5709 124.875 24.1249C125.01 25.6786 125.314 26.9848 125.787 28.0432C126.26 29.1016 126.958 29.901 127.881 30.4415C128.805 30.9594 130.066 31.2184 131.665 31.2184C132.205 31.2184 132.734 31.1845 133.252 31.117C133.793 31.0495 134.288 30.9368 134.738 30.7793C135.211 30.5991 135.628 30.3401 135.988 30.0024C136.371 29.6645 136.664 29.2367 136.866 28.7188H136.934L137.069 30.8468H141.325V17.7407H133.218Z" fill="#F2F2F2"/>
</g>
<defs>
<clipPath id="clip0_4857_39296">
<rect width="141.087" height="36.7864" fill="white" transform="translate(0.242188 0.486328)"/>
</clipPath>
</defs>
</svg>
