<svg width="27" height="22" viewBox="0 0 27 22" fill="none" xmlns="http://www.w3.org/2000/svg">
<g id="Group">
<g id="&#226;&#128;&#148;&#195;&#142;&#195;&#147;&#195;&#136;_2">
<g id="Group_2">
<path id="Vector" d="M26.5389 6.12641L21.87 1.37113L21.5338 1.32683C21.5338 1.32683 21.5326 1.32683 21.5295 1.32683L14.2139 0.370117L7.25675 2.25525C7.25675 2.25525 7.25366 2.25586 7.25305 2.25586H7.25243L4.66383 2.95725L3.03617 5.41949H3.03555C3.03555 5.41949 3.03555 5.42195 3.03432 5.42318L0.453125 9.32572L15.9458 21.44L25.2085 8.04969C25.3041 7.91311 25.356 7.83743 25.356 7.83743L26.5395 6.12703L26.5389 6.12641Z" fill="#4D22B0"/>
<g id="Group_3">
<path id="Vector_2" d="M9.73145 6.0241L1.34704 9.04129L0.609375 9.30647L3.15911 5.45007C3.15911 5.45007 3.16035 5.44822 3.16035 5.44761H3.16097L4.76951 3.01367L5.10997 3.21978C5.10997 3.21978 5.13279 3.23332 5.1735 3.25916L7.60667 4.73576L9.73083 6.0241H9.73145Z" fill="url(#paint0_linear_4235_30038)"/>
<path id="Vector_3" d="M14.2113 0.457031L9.73476 6.02506L7.61059 4.73672C7.61059 4.73672 7.60751 4.73488 7.60628 4.73365L4.77344 3.01463L7.33181 2.32124H7.33243C7.33243 2.32124 7.33428 2.32063 7.33613 2.32063L14.2113 0.457031Z" fill="url(#paint1_linear_4235_30038)"/>
<path id="Vector_4" d="M21.7769 1.44574L20.692 4.95698L20.4502 4.78902L20.4477 4.78779C20.4477 4.78779 20.4477 4.78779 20.4465 4.78656L14.2109 0.457031L21.4408 1.40206H21.4451L21.7769 1.44574Z" fill="url(#paint2_linear_4235_30038)"/>
<path id="Vector_5" d="M26.3865 6.1462L20.6875 4.95753L21.7724 1.44629L26.3865 6.1462Z" fill="url(#paint3_linear_4235_30038)"/>
<path id="Vector_6" d="M26.3904 6.14534L25.221 7.83605C25.221 7.83605 25.1698 7.91049 25.0754 8.04585L15.9219 21.2787L20.1067 6.9587C20.1067 6.95562 20.1079 6.95316 20.1079 6.95316L20.6914 4.95605L26.3904 6.14472V6.14534Z" fill="url(#paint4_linear_4235_30038)"/>
<path id="Vector_7" d="M20.692 4.95698L9.73438 6.02444H9.73499L14.2103 0.457031L20.2257 4.63336C20.2257 4.63336 20.2269 4.63459 20.2282 4.63459H20.2288L20.692 4.95698Z" fill="url(#paint5_linear_4235_30038)"/>
<path id="Vector_8" d="M15.9231 21.279L9.73438 6.02449L20.692 4.95703L15.9231 21.279Z" fill="url(#paint6_linear_4235_30038)"/>
<path id="Vector_9" d="M15.9201 21.2793L0.609375 9.30776L0.615543 9.3053C0.615543 9.3053 0.61616 9.3053 0.616776 9.3053L9.73083 6.02539L15.0499 19.137C15.0542 19.145 15.0561 19.1499 15.0561 19.1499L15.9195 21.2793H15.9201Z" fill="url(#paint7_linear_4235_30038)"/>
</g>
<g id="Group_4" opacity="0.5">
<path id="Vector_10" d="M0.609375 9.30723L5.16486 7.65282L9.72405 6.00579L9.72651 6.00456H9.7296L12.4687 5.73447L15.2084 5.46868L20.6878 4.94141H20.6903L20.6927 4.94202L23.5416 5.54066L26.388 6.14545L23.5361 5.56158L20.6853 4.97217H20.6909L15.2127 5.51297L12.4736 5.78122L9.73392 6.04455L9.73947 6.04332L5.17596 7.67866L0.609375 9.30723Z" fill="white"/>
<path id="Vector_11" d="M20.6875 4.95655C20.7677 4.66123 20.8528 4.36714 20.9391 4.07367L21.2044 3.19447L21.4813 2.31835C21.5757 2.02673 21.6713 1.73571 21.7718 1.44531C21.6922 1.74063 21.6065 2.03472 21.5201 2.3282L21.2549 3.20739L20.978 4.08351C20.8836 4.37514 20.788 4.66616 20.6875 4.95655Z" fill="white"/>
<path id="Vector_12" d="M9.73438 6.02449L11.2936 9.83413L12.8448 13.6462L15.9471 21.2698L15.8978 21.2729L18.2902 13.114L19.4874 9.03431L20.692 4.95703L19.5127 9.04046L18.3248 13.122L15.9484 21.2852L15.9268 21.3578L15.8984 21.2877L12.8127 13.6579L11.2695 9.84275L9.73438 6.02449Z" fill="white"/>
<path id="Vector_13" d="M4.77344 3.01367L5.4007 3.37975L6.02487 3.75013L7.2689 4.49827L8.50553 5.25565L9.12169 5.63772L9.73476 6.0241L9.1075 5.65802L8.48333 5.28764L7.23991 4.5395L6.00267 3.78212L5.38651 3.40005L4.77344 3.01367Z" fill="white"/>
<path id="Vector_14" d="M14.2109 0.456055L15.0288 1.00917L15.8429 1.56658L17.4669 2.68696L19.0834 3.81656L19.8896 4.38444L20.6914 4.95662L19.8735 4.40413L19.0588 3.84671L17.4354 2.72633L15.8189 1.59673L15.0127 1.02824L14.2109 0.456055Z" fill="white"/>
<path id="Vector_15" d="M9.73438 6.02408L10.2839 5.32147L10.8378 4.62131L11.9517 3.22592L13.0761 1.8373L13.6416 1.14514L14.2115 0.456055L13.662 1.15929L13.1081 1.85944L11.9942 3.25484L10.8699 4.64346L10.3043 5.33562L9.73438 6.02408Z" fill="white"/>
</g>
<path id="Vector_16" style="mix-blend-mode:color-dodge" d="M14.2117 0.457031L9.73519 6.02506L7.61102 4.73672C8.14021 5.05419 9.24793 5.17724 9.73148 5.04312C10.2163 4.90838 12.2991 2.4123 11.3141 2.03515C10.3489 1.666 7.45559 2.29356 7.33594 2.32001L14.2117 0.457031Z" fill="url(#paint8_linear_4235_30038)"/>
<path id="Vector_17" style="mix-blend-mode:color-dodge" d="M20.2251 4.63336C20.0931 4.5583 16.0316 4.41802 14.7808 4.58599C13.5195 4.7558 9.78865 5.96907 9.73438 6.02383L14.2097 0.457031L20.2251 4.63336Z" fill="url(#paint9_linear_4235_30038)"/>
<path id="Vector_18" style="mix-blend-mode:color-dodge" d="M20.4465 4.78656L14.2109 0.457031L21.4408 1.40206C21.3038 1.39652 17.8314 1.24825 17.6198 1.74475C17.4083 2.24126 20.3423 4.69919 20.4471 4.78717L20.4465 4.78656Z" fill="url(#paint10_linear_4235_30038)"/>
<path id="Vector_19" style="mix-blend-mode:multiply" d="M25.0754 8.04516L15.9219 21.278L20.1067 6.95801C20.061 7.18442 18.5894 14.4315 18.421 16.1579C18.265 17.7612 24.0756 9.47992 25.0754 8.04516Z" fill="url(#paint11_linear_4235_30038)"/>
<path id="Vector_20" style="mix-blend-mode:color-dodge" d="M11.4062 10.1417L19.8252 7.92676L15.9241 21.2783L11.4062 10.1417Z" fill="url(#paint12_linear_4235_30038)"/>
<path id="Vector_21" style="mix-blend-mode:color-dodge" d="M15.0503 19.136C14.8949 18.7927 11.5458 11.4466 9.68005 9.47536C7.80568 7.49487 0.876232 9.23849 0.617188 9.30432L9.73124 6.02441L15.0503 19.136Z" fill="url(#paint13_linear_4235_30038)"/>
<path id="Vector_22" style="mix-blend-mode:color-dodge" d="M20.5277 5.52308C20.5277 5.52308 18.1445 11.1514 11.4062 10.1424L12.8298 13.6518C12.8298 13.6518 18.0563 12.6705 19.6315 8.64425L20.5283 5.52246L20.5277 5.52308Z" fill="url(#paint14_linear_4235_30038)"/>
<path id="Vector_23" style="mix-blend-mode:screen" d="M21.5953 4.89527C21.6255 5.1992 19.6093 5.64096 17.091 5.88213C14.5733 6.12331 12.5071 6.07163 12.4769 5.7677C12.4467 5.46376 14.4629 5.02201 16.9812 4.78083C19.4989 4.53965 21.565 4.59134 21.5953 4.89527Z" fill="url(#paint15_radial_4235_30038)"/>
<path id="Vector_24" style="mix-blend-mode:screen" d="M14.6355 17.9994C14.4024 18.0849 12.9727 15.1637 11.4425 11.474C9.91226 7.78433 8.86128 4.72468 9.09503 4.63855C9.32817 4.55303 10.7579 7.47424 12.2881 11.1639C13.8183 14.8536 14.8693 17.9132 14.6355 17.9994Z" fill="url(#paint16_radial_4235_30038)"/>
<path id="Vector_25" style="mix-blend-mode:screen" d="M10.1375 7.44068C11.6587 7.00873 12.7115 6.02696 12.4892 5.24785C12.2669 4.46873 10.8535 4.1873 9.33238 4.61925C7.81125 5.0512 6.75837 6.03297 6.9807 6.81208C7.20304 7.5912 8.6164 7.87263 10.1375 7.44068Z" fill="url(#paint17_radial_4235_30038)"/>
<path id="Vector_26" style="mix-blend-mode:screen" d="M23.5612 5.16377C23.6063 4.35665 22.3603 3.63104 20.7781 3.54308C19.1959 3.45512 17.8767 4.03811 17.8317 4.84523C17.7866 5.65234 19.0326 6.37795 20.6148 6.46591C22.197 6.55387 23.5161 5.97089 23.5612 5.16377Z" fill="url(#paint18_radial_4235_30038)"/>
<path id="Vector_27" style="mix-blend-mode:screen" d="M9.78219 5.88182C9.57557 5.7397 10.3854 4.40214 11.5906 2.89478C12.7957 1.38679 13.9399 0.279341 14.1465 0.421464C14.3531 0.563587 13.5433 1.90114 12.3381 3.40851C11.1329 4.91649 9.98819 6.02333 9.78157 5.88182H9.78219Z" fill="url(#paint19_radial_4235_30038)"/>
<path id="Vector_28" style="mix-blend-mode:screen" d="M0.635957 9.34434C0.543441 9.121 2.50355 8.19382 5.01443 7.27278C7.52531 6.35175 9.63529 5.78634 9.72781 6.00967C9.82032 6.23301 7.86022 7.16019 5.34934 8.08123C2.83845 9.00226 0.728473 9.56767 0.635957 9.34434Z" fill="url(#paint20_radial_4235_30038)"/>
<path id="Vector_29" style="mix-blend-mode:screen" d="M21.4675 5.52876C21.4342 5.56813 20.715 5.10116 19.8614 4.48468C19.0078 3.86881 18.3429 3.33662 18.3762 3.29724C18.4095 3.25786 19.1287 3.72484 19.9823 4.34132C20.8359 4.9578 21.5008 5.48938 21.4675 5.52876Z" fill="url(#paint21_radial_4235_30038)"/>
<path id="Vector_30" style="mix-blend-mode:screen" d="M20.149 6.72459C20.0972 6.71167 20.2909 5.91 20.5814 4.93421C20.8719 3.95842 21.1494 3.17767 21.2018 3.19059C21.2537 3.20351 21.06 4.00518 20.7695 4.98097C20.479 5.95676 20.2014 6.73751 20.149 6.72459Z" fill="url(#paint22_radial_4235_30038)"/>
<path id="Vector_31" style="mix-blend-mode:color-dodge" d="M9.73598 6.02467L1.35156 9.04186C6.35113 6.84049 7.61181 4.73633 7.61181 4.73633L9.73598 6.02467Z" fill="url(#paint23_linear_4235_30038)"/>
<path id="Vector_32" style="mix-blend-mode:screen" d="M0.453125 9.32614L15.9458 21.4398L12.7738 13.5154L4.51087 7.9043L0.453125 9.32614Z" fill="url(#paint24_linear_4235_30038)"/>
<path id="Vector_33" style="mix-blend-mode:screen" d="M0.453125 9.3255L4.66322 2.95703L7.25428 4.51916L4.51088 7.90366L0.453125 9.3255Z" fill="url(#paint25_linear_4235_30038)"/>
<path id="Vector_34" style="mix-blend-mode:multiply" d="M26.5384 6.12672L23.8665 5.61914L15.9453 21.4397L26.5384 6.12672Z" fill="url(#paint26_linear_4235_30038)"/>
</g>
</g>
</g>
<defs>
<linearGradient id="paint0_linear_4235_30038" x1="5.43449" y1="1.50288" x2="5.08645" y2="9.66737" gradientUnits="userSpaceOnUse">
<stop stop-color="#FCA9FF"/>
<stop offset="1" stop-color="#4D22F2"/>
</linearGradient>
<linearGradient id="paint1_linear_4235_30038" x1="8.32772" y1="-0.77086" x2="11.896" y2="6.94314" gradientUnits="userSpaceOnUse">
<stop stop-color="#D592FF"/>
<stop offset="1" stop-color="#4D22F2"/>
</linearGradient>
<linearGradient id="paint2_linear_4235_30038" x1="16.865" y1="4.47571" x2="18.1526" y2="0.573708" gradientUnits="userSpaceOnUse">
<stop stop-color="#D592FF"/>
<stop offset="1" stop-color="#4D22F2"/>
</linearGradient>
<linearGradient id="paint3_linear_4235_30038" x1="20.6494" y1="3.92489" x2="26.297" y2="3.7163" gradientUnits="userSpaceOnUse">
<stop stop-color="#AB5DE1"/>
<stop offset="1" stop-color="#351EB4"/>
</linearGradient>
<linearGradient id="paint4_linear_4235_30038" x1="23.5198" y1="14.3213" x2="16.3708" y2="12.4665" gradientUnits="userSpaceOnUse">
<stop stop-color="#D592FF"/>
<stop offset="1" stop-color="#4D22F2"/>
</linearGradient>
<linearGradient id="paint5_linear_4235_30038" x1="15.1817" y1="5.93024" x2="15.5292" y2="0.961621" gradientUnits="userSpaceOnUse">
<stop stop-color="#E772FF"/>
<stop offset="1" stop-color="#4D22F2"/>
</linearGradient>
<linearGradient id="paint6_linear_4235_30038" x1="14.813" y1="26.3721" x2="15.3737" y2="-3.02162" gradientUnits="userSpaceOnUse">
<stop stop-color="#CA75FF"/>
<stop offset="1" stop-color="#4D22F2"/>
</linearGradient>
<linearGradient id="paint7_linear_4235_30038" x1="1.33559" y1="19.628" x2="13.3949" y2="12.0475" gradientUnits="userSpaceOnUse">
<stop stop-color="#D5B1FF"/>
<stop offset="1" stop-color="#4D22F2"/>
</linearGradient>
<linearGradient id="paint8_linear_4235_30038" x1="27.6887" y1="1.38611" x2="6.03563" y2="3.95384" gradientUnits="userSpaceOnUse">
<stop stop-color="white"/>
<stop offset="1"/>
</linearGradient>
<linearGradient id="paint9_linear_4235_30038" x1="14.1756" y1="-1.03141" x2="14.8274" y2="4.15155" gradientUnits="userSpaceOnUse">
<stop stop-color="white"/>
<stop offset="1"/>
</linearGradient>
<linearGradient id="paint10_linear_4235_30038" x1="-0.699142" y1="-5.78245" x2="22.1742" y2="3.64423" gradientUnits="userSpaceOnUse">
<stop stop-color="white"/>
<stop offset="1"/>
</linearGradient>
<linearGradient id="paint11_linear_4235_30038" x1="11.57" y1="38.6107" x2="21.7744" y2="9.66489" gradientUnits="userSpaceOnUse">
<stop stop-color="#5C5CBD"/>
<stop offset="1" stop-color="white"/>
</linearGradient>
<linearGradient id="paint12_linear_4235_30038" x1="19.3237" y1="40.189" x2="15.7622" y2="10.1144" gradientUnits="userSpaceOnUse">
<stop stop-color="white"/>
<stop offset="1"/>
</linearGradient>
<linearGradient id="paint13_linear_4235_30038" x1="23.5743" y1="-13.6534" x2="7.36057" y2="15.2004" gradientUnits="userSpaceOnUse">
<stop stop-color="white"/>
<stop offset="1"/>
</linearGradient>
<linearGradient id="paint14_linear_4235_30038" x1="38.9746" y1="-9.58606" x2="11.4387" y2="13.4294" gradientUnits="userSpaceOnUse">
<stop stop-color="white"/>
<stop offset="1"/>
</linearGradient>
<radialGradient id="paint15_radial_4235_30038" cx="0" cy="0" r="1" gradientUnits="userSpaceOnUse" gradientTransform="translate(16.2942 13.7482) rotate(-5.46657) scale(4.56898 0.560975)">
<stop stop-color="white"/>
<stop offset="0.06" stop-color="#E4E4E4"/>
<stop offset="0.21" stop-color="#A8A8A8"/>
<stop offset="0.36" stop-color="#757575"/>
<stop offset="0.5" stop-color="#4B4B4B"/>
<stop offset="0.64" stop-color="#2A2A2A"/>
<stop offset="0.77" stop-color="#121212"/>
<stop offset="0.89" stop-color="#040404"/>
<stop offset="1"/>
</radialGradient>
<radialGradient id="paint16_radial_4235_30038" cx="0" cy="0" r="1" gradientUnits="userSpaceOnUse" gradientTransform="translate(-3.8936 36.5894) rotate(67.48) scale(7.22195 0.474398)">
<stop stop-color="white"/>
<stop offset="0.06" stop-color="#E4E4E4"/>
<stop offset="0.21" stop-color="#A8A8A8"/>
<stop offset="0.36" stop-color="#757575"/>
<stop offset="0.5" stop-color="#4B4B4B"/>
<stop offset="0.64" stop-color="#2A2A2A"/>
<stop offset="0.77" stop-color="#121212"/>
<stop offset="0.89" stop-color="#040404"/>
<stop offset="1"/>
</radialGradient>
<radialGradient id="paint17_radial_4235_30038" cx="0" cy="0" r="1" gradientUnits="userSpaceOnUse" gradientTransform="translate(7.56044 -21.4203) rotate(163.499) scale(2.88186 1.64337)">
<stop stop-color="#CFCFCF"/>
<stop offset="0.04" stop-color="#BCBCBC"/>
<stop offset="0.17" stop-color="#8A8A8A"/>
<stop offset="0.31" stop-color="#606060"/>
<stop offset="0.44" stop-color="#3D3D3D"/>
<stop offset="0.58" stop-color="#222222"/>
<stop offset="0.71" stop-color="#0F0F0F"/>
<stop offset="0.85" stop-color="#030303"/>
<stop offset="1"/>
</radialGradient>
<radialGradient id="paint18_radial_4235_30038" cx="0" cy="0" r="1" gradientUnits="userSpaceOnUse" gradientTransform="translate(18.0122 -15.0138) rotate(-176.389) scale(2.88176 1.64269)">
<stop stop-color="#CFCFCF"/>
<stop offset="0.04" stop-color="#BCBCBC"/>
<stop offset="0.17" stop-color="#8A8A8A"/>
<stop offset="0.31" stop-color="#606060"/>
<stop offset="0.44" stop-color="#3D3D3D"/>
<stop offset="0.58" stop-color="#222222"/>
<stop offset="0.71" stop-color="#0F0F0F"/>
<stop offset="0.85" stop-color="#030303"/>
<stop offset="1"/>
</radialGradient>
<radialGradient id="paint19_radial_4235_30038" cx="0" cy="0" r="1" gradientUnits="userSpaceOnUse" gradientTransform="translate(126.2 88.6259) rotate(128.599) scale(3.64616 0)">
<stop stop-color="#CFCFCF"/>
<stop offset="0.04" stop-color="#BCBCBC"/>
<stop offset="0.17" stop-color="#8A8A8A"/>
<stop offset="0.31" stop-color="#606060"/>
<stop offset="0.44" stop-color="#3D3D3D"/>
<stop offset="0.58" stop-color="#222222"/>
<stop offset="0.71" stop-color="#0F0F0F"/>
<stop offset="0.85" stop-color="#030303"/>
<stop offset="1"/>
</radialGradient>
<radialGradient id="paint20_radial_4235_30038" cx="0" cy="0" r="1" gradientUnits="userSpaceOnUse" gradientTransform="translate(29.0146 50.4857) rotate(159.876) scale(4.68752 0)">
<stop stop-color="#CFCFCF"/>
<stop offset="0.04" stop-color="#BCBCBC"/>
<stop offset="0.17" stop-color="#8A8A8A"/>
<stop offset="0.31" stop-color="#606060"/>
<stop offset="0.44" stop-color="#3D3D3D"/>
<stop offset="0.58" stop-color="#222222"/>
<stop offset="0.71" stop-color="#0F0F0F"/>
<stop offset="0.85" stop-color="#030303"/>
<stop offset="1"/>
</radialGradient>
<radialGradient id="paint21_radial_4235_30038" cx="0" cy="0" r="1" gradientUnits="userSpaceOnUse" gradientTransform="translate(48.2937 9.3058) rotate(35.8228) scale(1.89771 0.090297)">
<stop stop-color="white"/>
<stop offset="1"/>
</radialGradient>
<radialGradient id="paint22_radial_4235_30038" cx="0" cy="0" r="1" gradientUnits="userSpaceOnUse" gradientTransform="translate(46.4885 -3.53433) rotate(106.589) scale(1.83673 0.090518)">
<stop stop-color="white"/>
<stop offset="1"/>
</radialGradient>
<linearGradient id="paint23_linear_4235_30038" x1="15.9213" y1="13.2907" x2="5.67442" y2="7.52817" gradientUnits="userSpaceOnUse">
<stop stop-color="white"/>
<stop offset="1"/>
</linearGradient>
<linearGradient id="paint24_linear_4235_30038" x1="7.68052" y1="15.9375" x2="10.3591" y2="13.0633" gradientUnits="userSpaceOnUse">
<stop stop-color="#CFCFCF"/>
<stop offset="0.04" stop-color="#BCBCBC"/>
<stop offset="0.17" stop-color="#8A8A8A"/>
<stop offset="0.31" stop-color="#606060"/>
<stop offset="0.44" stop-color="#3D3D3D"/>
<stop offset="0.58" stop-color="#222222"/>
<stop offset="0.71" stop-color="#0F0F0F"/>
<stop offset="0.85" stop-color="#030303"/>
<stop offset="1"/>
</linearGradient>
<linearGradient id="paint25_linear_4235_30038" x1="1.99749" y1="5.89773" x2="5.04783" y2="7.22847" gradientUnits="userSpaceOnUse">
<stop stop-color="#CFCFCF"/>
<stop offset="0.04" stop-color="#BCBCBC"/>
<stop offset="0.17" stop-color="#8A8A8A"/>
<stop offset="0.31" stop-color="#606060"/>
<stop offset="0.44" stop-color="#3D3D3D"/>
<stop offset="0.58" stop-color="#222222"/>
<stop offset="0.71" stop-color="#0F0F0F"/>
<stop offset="0.85" stop-color="#030303"/>
<stop offset="1"/>
</linearGradient>
<linearGradient id="paint26_linear_4235_30038" x1="22.9398" y1="14.5627" x2="19.7101" y2="13.0704" gradientUnits="userSpaceOnUse">
<stop stop-color="#5C5CBD"/>
<stop offset="1" stop-color="white"/>
</linearGradient>
</defs>
</svg>
