<svg width="108" height="19" viewBox="0 0 108 19" fill="none" xmlns="http://www.w3.org/2000/svg">
<g id="Group 306455">
<g id="Vector">
<path d="M7.96656 14.7476C7.6207 14.6066 7.32698 14.3615 7.12584 14.0463L12.6885 11.7074C12.7802 11.6635 12.8798 11.6386 12.9814 11.6344C13.083 11.6302 13.1843 11.6467 13.2793 11.683C13.3743 11.7192 13.461 11.7744 13.5341 11.8452C13.6071 11.916 13.6651 12.0009 13.7044 12.0949C13.7438 12.1888 13.7637 12.2897 13.7629 12.3916C13.7621 12.4934 13.7407 12.5941 13.6999 12.6874C13.6592 12.7807 13.6 12.8648 13.5258 12.9345C13.4517 13.0041 13.3642 13.058 13.2686 13.0928L9.34956 14.7415C9.13085 14.8339 8.89604 14.882 8.65868 14.8831C8.42131 14.8841 8.18608 14.8381 7.96656 14.7476Z" fill="white"/>
<path d="M5.43746 5.96527C5.57665 5.90757 5.72584 5.87799 5.87646 5.87821C6.03063 5.87788 6.1832 5.90885 6.32466 5.97027L6.3898 5.99816V13.6847L6.31185 13.7165C6.16932 13.7757 6.02122 13.8052 5.87312 13.8052C5.65042 13.8052 5.43105 13.7361 5.23841 13.6077C4.91604 13.3907 4.73064 13.0426 4.73064 12.6537V7.02754C4.73027 6.8766 4.75965 6.72707 4.81709 6.58753C4.87453 6.448 4.9589 6.3212 5.06536 6.21442C5.17182 6.10763 5.29827 6.02296 5.43746 5.96527Z" fill="white"/>
<path d="M12.9744 8.03679C12.8758 8.03631 12.7782 8.01622 12.6874 7.97769L7.12696 5.63942C7.32739 5.32307 7.61413 5.0826 7.96712 4.9381C8.1865 4.84744 8.42165 4.80131 8.65895 4.80236C8.89626 4.80341 9.13099 4.85164 9.34956 4.94424L13.2686 6.59292C13.3597 6.63071 13.4423 6.68629 13.5117 6.7564C13.5811 6.82652 13.6359 6.90978 13.6728 7.00132C13.748 7.18655 13.748 7.39131 13.6701 7.57598C13.6321 7.66707 13.5764 7.74971 13.5064 7.81914C13.4363 7.88856 13.3533 7.9434 13.262 7.98048C13.1708 8.01813 13.073 8.03727 12.9744 8.03679Z" fill="white"/>
<path fill-rule="evenodd" clip-rule="evenodd" d="M18.0762 9.6191C18.0762 14.516 14.1143 18.4862 9.22758 18.4862C4.34029 18.4862 0.378906 14.516 0.378906 9.6191C0.378906 4.72217 4.34029 0.751953 9.22758 0.751953C14.1143 0.751953 18.0762 4.72217 18.0762 9.6191ZM7.43868 15.175C7.80674 15.3878 8.22422 15.4998 8.64915 15.4997C8.9708 15.4995 9.28917 15.4344 9.58563 15.3094L13.5053 13.6607C13.6707 13.5915 13.8208 13.4901 13.9469 13.3625C14.073 13.2348 14.1727 13.0835 14.2402 12.917C14.3433 12.6667 14.3698 12.3913 14.3163 12.1259C14.2628 11.8605 14.1318 11.617 13.9399 11.4264C13.7479 11.2357 13.5037 11.1066 13.2384 11.0555C12.973 11.0043 12.6985 11.0333 12.4496 11.1389L7.00837 13.4275V6.25704L12.4491 8.54566C12.614 8.61592 12.7913 8.6526 12.9705 8.65356C13.1497 8.65451 13.3273 8.61973 13.493 8.55124C13.6592 8.48379 13.8103 8.38396 13.9377 8.25754C14.0651 8.13112 14.1662 7.98063 14.2352 7.81478C14.305 7.64928 14.3413 7.47155 14.3421 7.29189C14.3428 7.11222 14.308 6.93419 14.2396 6.7681C14.1723 6.60169 14.0726 6.45032 13.9465 6.32275C13.8203 6.19519 13.6702 6.09397 13.5047 6.02494L9.58619 4.37571C9.29306 4.25159 8.97829 4.18689 8.66007 4.18536C8.34184 4.18383 8.02647 4.24549 7.73216 4.36678C7.23633 4.56932 6.82172 4.93122 6.55349 5.3956C6.28655 5.28384 5.99625 5.23969 5.70824 5.26703C5.42023 5.29437 5.14337 5.39238 4.90212 5.55238C4.40716 5.881 4.11152 6.43279 4.11152 7.02698V12.6548C4.11126 12.945 4.18247 13.2307 4.31883 13.4867C4.45519 13.7426 4.65249 13.9609 4.89322 14.1222C5.13364 14.2847 5.41047 14.385 5.69901 14.4142C5.98755 14.4434 6.27881 14.4006 6.54681 14.2895L6.55238 14.2873C6.76494 14.656 7.07062 14.9622 7.43868 15.175Z" fill="white"/>
<path d="M25.3053 14.7789C24.7167 14.4492 24.2408 13.9495 23.9395 13.345C23.6216 12.7229 23.4629 11.9864 23.4629 11.1356V8.08539C23.4629 7.23511 23.6216 6.49809 23.9395 5.876C24.2414 5.27106 24.7171 4.77051 25.3053 4.43878C25.8977 4.10235 26.5959 3.93441 27.3993 3.93441C28.0657 3.93441 28.6698 4.07724 29.2116 4.36234C29.7527 4.648 30.2026 5.05975 30.5617 5.59648C30.9203 6.13488 31.1658 6.77091 31.2989 7.50459H29.4215C29.3389 7.16698 29.1914 6.84877 28.9872 6.56783C28.8018 6.31158 28.5603 6.10126 28.2812 5.95299C28.0095 5.81043 27.7071 5.73687 27.4004 5.73875C26.9784 5.73875 26.6126 5.83415 26.3052 6.02497C25.9973 6.21633 25.7602 6.48804 25.592 6.83954C25.425 7.19103 25.3409 7.60725 25.3409 8.08539V11.1356C25.3409 11.6154 25.4244 12.0305 25.5915 12.382C25.7602 12.7335 25.9973 13.0041 26.3052 13.1927C26.6126 13.3807 26.9784 13.4755 27.4004 13.4755C27.72 13.4755 28.0167 13.4069 28.2884 13.2691C28.5612 13.1318 28.7962 12.9299 28.9939 12.6649C29.1915 12.3998 29.334 12.0813 29.4215 11.7091H31.2989C31.1613 12.4428 30.9136 13.0783 30.555 13.6167C30.1959 14.1551 29.746 14.5652 29.2043 14.8514C28.6626 15.137 28.0613 15.2788 27.4004 15.2788C26.5948 15.2799 25.8971 15.1131 25.3053 14.7789ZM33.7486 4.04878H35.572V15.1655H33.7486V4.04878ZM34.7168 8.79619H41.0267V10.547H34.7168V8.79619ZM39.936 4.04878H41.7594V15.1655H39.936V4.04878ZM47.842 4.04878H49.1694L53.3356 15.1655H51.3741L48.5057 6.88473L45.6372 15.1655H43.6769L47.842 4.04878ZM45.6372 11.3035H51.4738V13.0543H45.6372V11.3035ZM57.037 15.1649H55.1752V4.04823H57.037V15.1649ZM59.945 4.04878H61.9287L66.7047 12.604L66.5209 12.8032V4.04934H68.2909V15.1582H66.2921L61.5312 6.73353L61.715 6.53435V15.1582H59.945V4.04878ZM71.2768 4.04878H73.1008V15.1655H71.2768V4.04878ZM72.1543 9.1025H75.7026C75.9976 9.1025 76.256 9.03443 76.477 8.89941C76.7017 8.76095 76.8817 8.56044 76.9954 8.32195C77.119 8.072 77.1824 7.78355 77.1824 7.45772C77.1824 7.12687 77.1206 6.83675 76.9987 6.5868C76.8858 6.34675 76.7057 6.14477 76.4804 6.00544C76.2565 5.86819 75.9976 5.799 75.7026 5.799H72.1543V4.04934H75.6491C76.3256 4.04934 76.9202 4.19161 77.4347 4.47337C77.9401 4.74853 78.3557 5.16384 78.6317 5.66957C78.9168 6.18453 79.0593 6.78096 79.0593 7.45884C79.0593 8.13616 78.9168 8.73147 78.6317 9.24421C78.3552 9.74761 77.9396 10.1603 77.4347 10.4326C76.9202 10.7132 76.3256 10.8533 75.6491 10.8533H72.1543V9.1025ZM81.3949 4.04878H83.2183V15.1655H81.3949V4.04878ZM82.2496 13.4142H88.673V15.1644H82.2496V13.4142ZM93.8409 4.04878H95.1682L99.3345 15.1655H97.373L94.5045 6.88473L91.6361 15.1655H89.6751L93.8409 4.04878ZM91.6361 11.3035H97.4726V13.0543H91.6361V11.3035ZM103.952 10.7612V15.1644H102.136V10.7612L98.8089 4.04823H100.77L103.043 8.94906L105.316 4.04823H107.277L103.952 10.7612Z" fill="white"/>
</g>
</g>
</svg>
