<svg width="148" height="44" viewBox="0 0 148 44" fill="none" xmlns="http://www.w3.org/2000/svg">
<g id="huobi-1 1" clip-path="url(#clip0_1048_29819)">
<path id="Vector" d="M55.3812 10.9672V23.3823H43.0468V12.5703C43.0468 11.6817 42.326 10.9609 41.4374 10.9609H37.2617V40.6816C37.2617 41.5702 37.9825 42.291 38.8711 42.291H43.0468V28.428H55.3874V40.6754C55.375 41.564 56.0834 42.2972 56.9719 42.3096H56.9968H61.1725V12.5703C61.1725 11.6817 60.4517 10.9609 59.5631 10.9609H55.3812V10.9672ZM79.876 18.7344V33.6289C79.8885 34.9835 79.1801 36.2449 78.0119 36.9409C74.7434 38.8299 71.3569 36.4624 71.3569 33.3555V20.3438C71.3569 19.4552 70.6361 18.7344 69.7475 18.7344H65.5718V33.8899C65.5843 38.774 69.5363 42.7259 74.4203 42.7508H76.794C81.6843 42.7384 85.6487 38.774 85.6611 33.8837V20.3438C85.6611 19.4552 84.9403 18.7344 84.0517 18.7344H79.876Z" fill="white"/>
<path id="Vector_2" d="M143.055 42.3091H147.23V21.207C147.23 20.3185 146.51 19.5977 145.621 19.5977H141.445V40.6873C141.439 41.5759 142.154 42.3029 143.042 42.3091H143.055Z" fill="#2CA6E0"/>
<path id="Vector_3" d="M147.318 15.3775C148 13.732 147.218 11.8454 145.573 11.1638C143.927 10.4821 142.041 11.2636 141.359 12.9091C140.678 14.5547 141.459 16.4412 143.105 17.1229C144.75 17.8045 146.637 17.0231 147.318 15.3775Z" fill="#2CA6E0"/>
<path id="Vector_4" d="M100.587 18.7227C94.5289 18.7227 89.5703 23.0537 89.5703 29.1122V32.3868C89.5703 38.4453 94.5289 42.7515 100.587 42.7515C106.646 42.7515 111.604 38.4453 111.604 32.3868V29.1122C111.611 23.0537 106.652 18.7227 100.587 18.7227ZM105.795 32.7783C105.795 35.6429 103.452 37.5505 100.581 37.5505C97.7104 37.5505 95.374 35.6429 95.374 32.7783V28.6896C95.374 25.825 97.7166 23.9174 100.581 23.9174C103.446 23.9174 105.795 25.825 105.795 28.6896V32.7783Z" fill="white"/>
<path id="Vector_5" d="M126.531 18.7222C124.717 18.7097 122.927 19.1199 121.293 19.909V12.6016C121.293 11.713 120.572 10.9922 119.683 10.9922H115.508V32.3863C115.508 38.4448 120.466 42.751 126.525 42.751C132.583 42.751 137.542 38.4448 137.542 32.3863V29.1117C137.548 23.0532 132.602 18.7222 126.531 18.7222ZM131.745 32.7778C131.745 35.6424 129.402 37.55 126.531 37.55C123.667 37.55 121.324 35.6424 121.324 32.7778V28.6891C121.324 25.8246 123.667 23.9169 126.531 23.9169C129.396 23.9169 131.745 25.8246 131.745 28.6891V32.7778Z" fill="#2CA6E0"/>
<path id="Vector_6" d="M19.7792 13.5341C19.7792 7.22091 16.7034 1.78383 14.3608 0.0191044C14.3608 0.0191044 14.1806 -0.0803166 14.1992 0.17445C14.0066 12.3722 7.77414 15.6779 4.35033 20.127C-3.55364 30.4046 3.79109 41.6703 11.2849 43.7519C15.4606 44.9201 10.3156 41.6889 9.65071 34.8724C8.8367 26.6453 19.7792 20.3569 19.7792 13.5341Z" fill="white"/>
<path id="Vector_7" d="M23.3683 17.6897C23.3186 17.6586 23.2502 17.6337 23.2067 17.7145C23.0762 19.2493 21.5104 22.5302 19.5219 25.5501C12.7799 35.7781 16.6201 40.7118 18.7825 43.3651C20.0377 44.9 18.7825 43.3651 21.9143 41.793C25.7855 39.4442 28.2958 35.3804 28.6687 30.8692C29.2838 23.599 24.9217 19.0194 23.3683 17.6897Z" fill="#2CA6E0"/>
</g>
<defs>
<clipPath id="clip0_1048_29819">
<rect width="146.621" height="44" fill="white" transform="translate(0.9375)"/>
</clipPath>
</defs>
</svg>
