<svg width="16" height="17" viewBox="0 0 16 17" fill="none" xmlns="http://www.w3.org/2000/svg">
<g clip-path="url(#clip0_4398_18561)">
<path fill-rule="evenodd" clip-rule="evenodd" d="M5.33333 1.83333C3.12419 1.83333 1.33333 3.62419 1.33333 5.83333C1.33333 8.04247 3.12419 9.83333 5.33333 9.83333C7.54247 9.83333 9.33333 8.04247 9.33333 5.83333C9.33333 3.62419 7.54247 1.83333 5.33333 1.83333ZM0 5.83333C0 2.88781 2.38781 0.5 5.33333 0.5C8.27885 0.5 10.6667 2.88781 10.6667 5.83333C10.6667 8.77885 8.27885 11.1667 5.33333 11.1667C2.38781 11.1667 0 8.77885 0 5.83333Z" fill="#98FFF9"/>
<path fill-rule="evenodd" clip-rule="evenodd" d="M12.4234 6.7939C12.6072 6.47488 13.0149 6.36528 13.3339 6.54911C14.043 6.95773 14.6486 7.52408 15.1038 8.20431C15.5589 8.88453 15.8514 9.66038 15.9586 10.4718C16.0657 11.2832 15.9847 12.1084 15.7218 12.8834C15.4589 13.6585 15.0211 14.3627 14.4424 14.9414C13.8637 15.5201 13.1595 15.9579 12.3844 16.2208C11.6093 16.4837 10.7842 16.5648 9.97276 16.4576C9.16136 16.3504 8.38551 16.0579 7.70528 15.6028C7.02506 15.1476 6.45871 14.5421 6.05008 13.8329C5.86626 13.5139 5.97585 13.1063 6.29487 12.9224C6.61389 12.7386 7.02152 12.8482 7.20535 13.1672C7.51182 13.6991 7.93658 14.1533 8.44675 14.4946C8.95692 14.836 9.53881 15.0553 10.1474 15.1357C10.7559 15.2161 11.3748 15.1554 11.9561 14.9582C12.5374 14.761 13.0655 14.4326 13.4996 13.9986C13.9336 13.5645 14.262 13.0364 14.4591 12.4551C14.6563 11.8738 14.7171 11.2549 14.6367 10.6464C14.5563 10.0378 14.337 9.45594 13.9956 8.94577C13.6543 8.4356 13.2001 8.01084 12.6682 7.70437C12.3492 7.52055 12.2396 7.11291 12.4234 6.7939Z" fill="#98FFF9"/>
<path fill-rule="evenodd" clip-rule="evenodd" d="M4 4.49967C4 4.13148 4.29848 3.83301 4.66667 3.83301H5.33333C5.70152 3.83301 6 4.13148 6 4.49967V7.16634C6 7.53453 5.70152 7.83301 5.33333 7.83301C4.96514 7.83301 4.66667 7.53453 4.66667 7.16634V5.16634C4.29848 5.16634 4 4.86786 4 4.49967Z" fill="#98FFF9"/>
<path fill-rule="evenodd" clip-rule="evenodd" d="M11.064 9.56147C11.3244 9.30112 11.7465 9.30112 12.0068 9.56147L12.4735 10.0281C12.5985 10.1532 12.6688 10.3227 12.6688 10.4995C12.6688 10.6764 12.5985 10.8459 12.4735 10.9709L10.6068 12.8376C10.3465 13.098 9.92436 13.098 9.66401 12.8376C9.40366 12.5773 9.40366 12.1552 9.66401 11.8948L11.0593 10.4995C10.8037 10.2388 10.8052 9.82024 11.064 9.56147Z" fill="#98FFF9"/>
</g>
<defs>
<clipPath id="clip0_4398_18561">
<rect width="16" height="16" fill="white" transform="translate(0 0.5)"/>
</clipPath>
</defs>
</svg>
