<svg width="16" height="17" viewBox="0 0 16 17" fill="none" xmlns="http://www.w3.org/2000/svg">
<path fill-rule="evenodd" clip-rule="evenodd" d="M2.58579 1.75278C2.96086 1.37771 3.46957 1.16699 4 1.16699H9.66667C9.84348 1.16699 10.013 1.23723 10.1381 1.36225L13.8047 5.02892C13.9298 5.15395 14 5.32351 14 5.50033V13.8337C14 14.3641 13.7893 14.8728 13.4142 15.2479C13.0391 15.6229 12.5304 15.8337 12 15.8337H4C3.46957 15.8337 2.96086 15.6229 2.58579 15.2479C2.21071 14.8728 2 14.3641 2 13.8337V3.16699C2 2.63656 2.21071 2.12785 2.58579 1.75278ZM4 2.50033C3.82319 2.50033 3.65362 2.57056 3.5286 2.69559C3.40357 2.82061 3.33333 2.99018 3.33333 3.16699V13.8337C3.33333 14.0105 3.40357 14.18 3.5286 14.3051C3.65362 14.4301 3.82319 14.5003 4 14.5003H12C12.1768 14.5003 12.3464 14.4301 12.4714 14.3051C12.5964 14.18 12.6667 14.0105 12.6667 13.8337V5.77647L9.39052 2.50033H4Z" fill="#03082F"/>
<path fill-rule="evenodd" clip-rule="evenodd" d="M9.33073 1.16699C9.69892 1.16699 9.9974 1.46547 9.9974 1.83366V5.16699H13.3307C13.6989 5.16699 13.9974 5.46547 13.9974 5.83366C13.9974 6.20185 13.6989 6.50033 13.3307 6.50033H9.33073C8.96254 6.50033 8.66406 6.20185 8.66406 5.83366V1.83366C8.66406 1.46547 8.96254 1.16699 9.33073 1.16699Z" fill="#03082F"/>
<path fill-rule="evenodd" clip-rule="evenodd" d="M4.66406 9.16667C4.66406 8.79848 4.96254 8.5 5.33073 8.5H10.6641C11.0323 8.5 11.3307 8.79848 11.3307 9.16667C11.3307 9.53486 11.0323 9.83333 10.6641 9.83333H5.33073C4.96254 9.83333 4.66406 9.53486 4.66406 9.16667Z" fill="#03082F"/>
<path fill-rule="evenodd" clip-rule="evenodd" d="M4.66406 11.8337C4.66406 11.4655 4.96254 11.167 5.33073 11.167H10.6641C11.0323 11.167 11.3307 11.4655 11.3307 11.8337C11.3307 12.2018 11.0323 12.5003 10.6641 12.5003H5.33073C4.96254 12.5003 4.66406 12.2018 4.66406 11.8337Z" fill="#03082F"/>
<path fill-rule="evenodd" clip-rule="evenodd" d="M4.66406 6.49967C4.66406 6.13148 4.96254 5.83301 5.33073 5.83301H6.66406C7.03225 5.83301 7.33073 6.13148 7.33073 6.49967C7.33073 6.86786 7.03225 7.16634 6.66406 7.16634H5.33073C4.96254 7.16634 4.66406 6.86786 4.66406 6.49967Z" fill="#03082F"/>
</svg>
