<svg width="21" height="20" viewBox="0 0 21 20" fill="none" xmlns="http://www.w3.org/2000/svg">
<g id="li:heart" clip-path="url(#clip0_4235_29131)">
<path id="Vector (Stroke)" fill-rule="evenodd" clip-rule="evenodd" d="M4.96307 2.06791C5.61135 1.79872 6.30639 1.66016 7.00833 1.66016C7.71027 1.66016 8.40531 1.79872 9.05358 2.06791C9.70186 2.33709 10.2906 2.7316 10.7861 3.22881L10.7889 3.23159L10.8375 3.28085L10.8861 3.2316L10.8889 3.22881C11.3844 2.7316 11.9731 2.33709 12.6214 2.06791C13.2697 1.79872 13.9647 1.66016 14.6667 1.66016C15.3686 1.66016 16.0636 1.79872 16.7119 2.06791C17.36 2.337 17.9485 2.73133 18.4439 3.22829C20.5648 5.3497 20.6119 8.85733 18.0989 11.4175L18.0934 11.423L11.4268 18.0896C11.2705 18.2459 11.0585 18.3337 10.8375 18.3337C10.6165 18.3337 10.4045 18.2459 10.2482 18.0896L3.57611 11.4175C1.06303 8.85735 1.11021 5.3497 3.23107 3.22829C3.72644 2.73132 4.31502 2.337 4.96307 2.06791ZM7.00833 3.32682C6.52574 3.32682 6.04791 3.42209 5.60222 3.60715C5.15653 3.79222 4.75175 4.06344 4.41111 4.40527L4.41008 4.40629C2.99874 5.81764 2.82896 8.27475 4.76292 10.2473L10.8375 16.3219L16.9121 10.2473C18.846 8.27476 18.6763 5.81764 17.2649 4.40629L17.2639 4.40527C16.9232 4.06344 16.5185 3.79221 16.0728 3.60715C15.6271 3.42209 15.1492 3.32682 14.6667 3.32682C14.1841 3.32682 13.7062 3.42209 13.2605 3.60715C12.8154 3.79197 12.4112 4.06273 12.0708 4.40392C12.0703 4.40437 12.0699 4.40482 12.0694 4.40527L11.4305 5.05248C11.274 5.21109 11.0604 5.30037 10.8375 5.30037C10.6146 5.30037 10.401 5.21109 10.2445 5.05248L9.60555 4.40527C9.6051 4.40482 9.60465 4.40437 9.60421 4.40392C9.26384 4.06273 8.85954 3.79197 8.41444 3.60715C7.96875 3.42209 7.49091 3.32682 7.00833 3.32682Z" fill="#98FFF9"/>
</g>
<defs>
<clipPath id="clip0_4235_29131">
<rect width="20" height="20" fill="white" transform="translate(0.835938)"/>
</clipPath>
</defs>
</svg>
