<svg width="16" height="17" viewBox="0 0 16 17" fill="none" xmlns="http://www.w3.org/2000/svg">
<path fill-rule="evenodd" clip-rule="evenodd" d="M7.9974 2.50033C4.68369 2.50033 1.9974 5.18662 1.9974 8.50033C1.9974 11.814 4.68369 14.5003 7.9974 14.5003C11.3111 14.5003 13.9974 11.814 13.9974 8.50033C13.9974 5.18662 11.3111 2.50033 7.9974 2.50033ZM0.664062 8.50033C0.664062 4.45024 3.94731 1.16699 7.9974 1.16699C12.0475 1.16699 15.3307 4.45024 15.3307 8.50033C15.3307 12.5504 12.0475 15.8337 7.9974 15.8337C3.94731 15.8337 0.664062 12.5504 0.664062 8.50033Z" fill="#03082F"/>
<path fill-rule="evenodd" clip-rule="evenodd" d="M8.16955 5.8496C7.85921 5.79637 7.54003 5.85469 7.26856 6.01423C6.9971 6.17378 6.79085 6.42425 6.68636 6.72128C6.56418 7.06861 6.18357 7.25113 5.83624 7.12895C5.48892 7.00676 5.3064 6.62615 5.42858 6.27883C5.63757 5.68475 6.05005 5.18381 6.59299 4.86472C7.13592 4.54563 7.77427 4.42899 8.39496 4.53546C9.01566 4.64193 9.57864 4.96463 9.98421 5.44641C10.3897 5.92809 10.6117 6.53771 10.6108 7.16733C10.6105 8.18757 9.8541 8.86132 9.31394 9.22142C9.02352 9.41504 8.73784 9.5574 8.5274 9.65093C8.42123 9.69812 8.33183 9.73392 8.26741 9.75846C8.23514 9.77076 8.20898 9.78028 8.18994 9.78705L8.16679 9.79516L8.15941 9.79768L8.15681 9.79856L8.15579 9.7989C8.15559 9.79897 8.15496 9.79918 7.94414 9.16672L8.15496 9.79918C7.80566 9.91561 7.42812 9.72684 7.31168 9.37754C7.19533 9.02848 7.38377 8.6512 7.73262 8.5345L7.73177 8.53479C7.73184 8.53476 7.7319 8.53475 7.73262 8.5345L7.74326 8.53077C7.75352 8.52712 7.77033 8.52102 7.79275 8.51248C7.8377 8.49535 7.90455 8.46866 7.98588 8.43251C8.15044 8.35938 8.36476 8.25174 8.57434 8.11202C9.03407 7.80553 9.27747 7.47948 9.27747 7.16672L9.27747 7.16573C9.27794 6.85085 9.16696 6.54597 8.96418 6.30507C8.76139 6.06418 8.4799 5.90283 8.16955 5.8496Z" fill="#03082F"/>
<path fill-rule="evenodd" clip-rule="evenodd" d="M7.33594 11.8337C7.33594 11.4655 7.63441 11.167 8.0026 11.167H8.00927C8.37746 11.167 8.67594 11.4655 8.67594 11.8337C8.67594 12.2018 8.37746 12.5003 8.00927 12.5003H8.0026C7.63441 12.5003 7.33594 12.2018 7.33594 11.8337Z" fill="#03082F"/>
</svg>
