<svg width="17" height="18" viewBox="0 0 17 18" fill="none" xmlns="http://www.w3.org/2000/svg">
<path fill-rule="evenodd" clip-rule="evenodd" d="M1.71875 2.95483C1.71875 2.5839 2.01945 2.2832 2.39038 2.2832H4.40527C4.5834 2.2832 4.75423 2.35396 4.88019 2.47992L12.129 9.72876L12.6616 9.19623C12.9238 8.93394 13.3491 8.93394 13.6114 9.19623C13.8737 9.45852 13.8737 9.88377 13.6114 10.1461L12.0714 11.686L13.8081 13.4227L14.0048 13.226C14.2671 12.9637 14.6924 12.9637 14.9547 13.226C15.2169 13.4883 15.2169 13.9136 14.9547 14.1758L13.6114 15.5191C13.3491 15.7814 12.9238 15.7814 12.6616 15.5191C12.3993 15.2568 12.3993 14.8316 12.6616 14.5693L12.8583 14.3726L11.1216 12.6359L9.5816 14.1758C9.31932 14.4381 8.89406 14.4381 8.63178 14.1758C8.36949 13.9136 8.36949 13.4883 8.63178 13.226L9.16431 12.6935L1.91547 5.44464C1.78951 5.31869 1.71875 5.14785 1.71875 4.96973V2.95483ZM10.1141 11.7437L11.1792 10.6786L4.12707 3.62646H3.06201V4.69153L10.1141 11.7437Z" fill="#03082F"/>
</svg>
