<svg width="19" height="20" viewBox="0 0 19 20" fill="none" xmlns="http://www.w3.org/2000/svg">
<g id="li:shopping-bag">
<path id="Vector (Stroke)" fill-rule="evenodd" clip-rule="evenodd" d="M4.28164 2.31316C4.41399 2.13815 4.6217 2.03516 4.84228 2.03516H13.2519C13.4725 2.03516 13.6802 2.13815 13.8126 2.31316L15.915 5.09322C16.006 5.21352 16.0552 5.35984 16.0552 5.51022V15.2404C16.0552 15.7934 15.8337 16.3237 15.4394 16.7148C15.0451 17.1058 14.5103 17.3255 13.9528 17.3255H4.14148C3.58388 17.3255 3.04912 17.1058 2.65485 16.7148C2.26057 16.3237 2.03906 15.7934 2.03906 15.2404V5.51022C2.03906 5.35984 2.08824 5.21352 2.17922 5.09322L4.28164 2.31316ZM5.19269 3.42518L3.44067 5.74189V15.2404C3.44067 15.4247 3.51451 15.6015 3.64593 15.7319C3.77736 15.8622 3.95561 15.9354 4.14148 15.9354H13.9528C14.1386 15.9354 14.3169 15.8622 14.4483 15.7319C14.5797 15.6015 14.6536 15.4247 14.6536 15.2404V5.74189L12.9015 3.42518H5.19269Z" fill="white"/>
<path id="Vector (Stroke)_2" fill-rule="evenodd" clip-rule="evenodd" d="M2.03906 5.22108C2.03906 4.86922 2.35282 4.58398 2.73987 4.58398H15.3544C15.7414 4.58398 16.0552 4.86922 16.0552 5.22108C16.0552 5.57294 15.7414 5.85818 15.3544 5.85818H2.73987C2.35282 5.85818 2.03906 5.57294 2.03906 5.22108Z" fill="white"/>
<path id="Vector (Stroke)_3" fill-rule="evenodd" clip-rule="evenodd" d="M6.49647 7.13281C6.84833 7.13281 7.13357 7.51313 7.13357 7.98227C7.13357 8.65815 7.33493 9.30634 7.69337 9.78425C8.0518 10.2622 8.53795 10.5307 9.04485 10.5307C9.55176 10.5307 10.0379 10.2622 10.3963 9.78425C10.7548 9.30634 10.9561 8.65815 10.9561 7.98227C10.9561 7.51313 11.2414 7.13281 11.5932 7.13281C11.9451 7.13281 12.2303 7.51313 12.2303 7.98227C12.2303 9.10873 11.8947 10.189 11.2973 10.9856C10.6999 11.7821 9.88969 12.2296 9.04485 12.2296C8.20001 12.2296 7.38977 11.7821 6.79238 10.9856C6.19499 10.189 5.85938 9.10873 5.85938 7.98227C5.85938 7.51313 6.14461 7.13281 6.49647 7.13281Z" fill="white"/>
</g>
</svg>
