<svg width="16" height="17" viewBox="0 0 16 17" fill="none" xmlns="http://www.w3.org/2000/svg">
<path fill-rule="evenodd" clip-rule="evenodd" d="M0.976311 10.8093C1.60143 10.1842 2.44928 9.83301 3.33333 9.83301H8.66667C9.55072 9.83301 10.3986 10.1842 11.0237 10.8093C11.6488 11.4344 12 12.2823 12 13.1663V14.4997C12 14.8679 11.7015 15.1663 11.3333 15.1663C10.9651 15.1663 10.6667 14.8679 10.6667 14.4997V13.1663C10.6667 12.6359 10.456 12.1272 10.0809 11.7521C9.70581 11.3771 9.1971 11.1663 8.66667 11.1663H3.33333C2.8029 11.1663 2.29419 11.3771 1.91912 11.7521C1.54405 12.1272 1.33333 12.6359 1.33333 13.1663V14.4997C1.33333 14.8679 1.03486 15.1663 0.666667 15.1663C0.298477 15.1663 0 14.8679 0 14.4997V13.1663C0 12.2823 0.35119 11.4344 0.976311 10.8093Z" fill="#98FFF9"/>
<path fill-rule="evenodd" clip-rule="evenodd" d="M5.9974 3.16634C4.89283 3.16634 3.9974 4.06177 3.9974 5.16634C3.9974 6.27091 4.89283 7.16634 5.9974 7.16634C7.10197 7.16634 7.9974 6.27091 7.9974 5.16634C7.9974 4.06177 7.10197 3.16634 5.9974 3.16634ZM2.66406 5.16634C2.66406 3.32539 4.15645 1.83301 5.9974 1.83301C7.83834 1.83301 9.33073 3.32539 9.33073 5.16634C9.33073 7.00729 7.83834 8.49967 5.9974 8.49967C4.15645 8.49967 2.66406 7.00729 2.66406 5.16634Z" fill="#98FFF9"/>
<path fill-rule="evenodd" clip-rule="evenodd" d="M12.6854 10.4201C12.7774 10.0636 13.1411 9.84921 13.4976 9.94125C14.2127 10.1259 14.8462 10.5428 15.2987 11.1265C15.7512 11.7102 15.997 12.4277 15.9976 13.1663L15.9976 14.5001C15.9976 14.8683 15.6991 15.1668 15.3309 15.1668C14.9627 15.1668 14.6642 14.8683 14.6642 14.5001L14.6642 13.1672C14.6642 13.1672 14.6642 13.1673 14.6642 13.1672C14.6638 12.7242 14.5164 12.2936 14.2449 11.9434C13.9734 11.5932 13.5933 11.343 13.1642 11.2322C12.8077 11.1402 12.5933 10.7766 12.6854 10.4201Z" fill="#98FFF9"/>
<path fill-rule="evenodd" clip-rule="evenodd" d="M10.021 2.42139C10.1123 2.06471 10.4755 1.84959 10.8322 1.94092C11.5492 2.1245 12.1847 2.5415 12.6386 3.12617C13.0924 3.71085 13.3387 4.42994 13.3387 5.17008C13.3387 5.91022 13.0924 6.62932 12.6386 7.21399C12.1847 7.79866 11.5492 8.21566 10.8322 8.39925C10.4755 8.49057 10.1123 8.27546 10.021 7.91878C9.92967 7.56209 10.1448 7.19891 10.5015 7.10758C10.9317 6.99743 11.313 6.74723 11.5853 6.39643C11.8576 6.04562 12.0054 5.61417 12.0054 5.17008C12.0054 4.726 11.8576 4.29454 11.5853 3.94374C11.313 3.59293 10.9317 3.34273 10.5015 3.23258C10.1448 3.14126 9.92967 2.77807 10.021 2.42139Z" fill="#98FFF9"/>
</svg>
