<svg width="22" height="22" viewBox="0 0 22 22" fill="none" xmlns="http://www.w3.org/2000/svg">
<g id="material-symbols:joystick">
<path id="Vector" d="M9.93229 7.21309V6.80579C9.22951 6.59816 8.65451 6.203 8.20729 5.62034C7.76007 5.03767 7.53646 4.36268 7.53646 3.59538C7.53646 2.66899 7.86389 1.87836 8.51875 1.2235C9.17361 0.568642 9.96424 0.241211 10.8906 0.241211C11.817 0.241211 12.6076 0.568642 13.2625 1.2235C13.9174 1.87836 14.2448 2.66899 14.2448 3.59538C14.2448 4.36204 14.0212 5.03703 13.574 5.62034C13.1267 6.20364 12.5517 6.59879 11.849 6.80579V7.21309L18.5573 11.0704C18.8608 11.2461 19.0965 11.4818 19.2645 11.7776C19.4326 12.0734 19.5163 12.3967 19.5156 12.7475V14.5683C19.5156 14.9197 19.4319 15.2433 19.2645 15.5391C19.0972 15.8349 18.8614 16.0703 18.5573 16.2454L11.849 20.1027C11.5455 20.2784 11.226 20.3662 10.8906 20.3662C10.5552 20.3662 10.2358 20.2784 9.93229 20.1027L3.22396 16.2454C2.92049 16.0697 2.68506 15.8343 2.51767 15.5391C2.35028 15.2439 2.26626 14.9203 2.26562 14.5683V12.7475C2.26562 12.3961 2.34964 12.0728 2.51767 11.7776C2.68569 11.4825 2.92112 11.2467 3.22396 11.0704L9.93229 7.21309ZM5.90729 11.7412L10.8906 14.6162L15.874 11.7412L11.849 9.41725V12.6995H9.93229V9.41725L5.90729 11.7412Z" fill="white"/>
</g>
</svg>
