<svg width="175" height="40" viewBox="0 0 175 40" fill="none" xmlns="http://www.w3.org/2000/svg">
<g id="logo">
<g id="Mask group">
<mask id="mask0_5216_32851" style="mask-type:luminance" maskUnits="userSpaceOnUse" x="0" y="0" width="175" height="40">
<g id="Group">
<path id="Vector" d="M0.328125 0H175.001V40H0.328125V0Z" fill="white"/>
</g>
</mask>
<g mask="url(#mask0_5216_32851)">
<path id="Fill-1" fill-rule="evenodd" clip-rule="evenodd" d="M144.935 11.8876H149.895V6.92578H144.935V11.8876ZM118.568 20.1506C119.516 17.6365 121.943 15.8465 124.789 15.8465C127.635 15.8465 130.062 17.6365 131.011 20.1506H118.568ZM124.789 11.2332C118.571 11.2332 113.529 16.2759 113.529 22.4966C113.529 28.7173 118.571 33.7592 124.789 33.7592C129.056 33.7592 132.768 31.3862 134.679 27.8883L130.518 25.8692C129.362 27.8298 127.23 29.146 124.789 29.146C121.706 29.146 119.114 27.0464 118.362 24.1987H131.216C131.216 24.2008 131.215 24.2037 131.215 24.2062H135.923C136.008 23.6485 136.052 23.0775 136.052 22.4966C136.052 16.2759 131.009 11.2332 124.789 11.2332ZM137.359 33.1588H142.32V28.197H137.359V33.1588ZM144.935 33.1588H149.895V14.0689H144.935V33.1588ZM163.741 29.146C160.069 29.146 157.093 26.1688 157.093 22.4966C157.093 18.8236 160.069 15.8465 163.741 15.8465C167.413 15.8465 170.389 18.8236 170.389 22.4966C170.389 26.1688 167.413 29.146 163.741 29.146ZM163.739 11.2332C157.521 11.2332 152.479 16.2759 152.479 22.4966C152.479 28.7173 157.521 33.7592 163.739 33.7592C169.959 33.7592 175.001 28.7173 175.001 22.4966C175.001 16.2759 169.959 11.2332 163.739 11.2332ZM60.0239 18.3448V23.4751H66.96C66.5978 24.941 65.8818 26.2547 64.8551 27.3041C63.3065 28.8871 61.1593 29.7592 58.8084 29.7592C53.9303 29.7592 49.9611 25.7896 49.9611 20.9099C49.9611 16.0303 53.9303 12.0602 58.8084 12.0602C61.4214 12.0602 63.8234 13.1789 65.4885 15.1083L69.4598 11.8627C66.8268 8.77639 62.9203 6.92952 58.8084 6.92952C51.1019 6.92952 44.832 13.2013 44.832 20.9099C44.832 28.6186 51.1019 34.8899 58.8084 34.8899C62.5502 34.8899 65.9996 33.5414 68.5214 30.9638C70.6375 28.8003 72.0401 25.7825 72.3097 22.7593C72.4412 21.2846 72.4533 19.8199 72.3757 18.3448H60.0239ZM85.2909 29.1472C81.6191 29.1472 78.6422 26.1692 78.6422 22.4966C78.6422 18.8232 81.6191 15.8461 85.2909 15.8461C88.963 15.8461 91.9399 18.8232 91.9399 22.4966C91.9399 26.1692 88.963 29.1472 85.2909 29.1472ZM91.9407 13.4282C90.0769 12.0614 87.7787 11.2523 85.2909 11.2523C79.0728 11.2523 74.0321 16.2946 74.0321 22.5141C74.0321 28.7344 79.0728 33.7758 85.2909 33.7758C87.7787 33.7758 90.0769 32.9671 91.9407 31.6003V33.1588H96.55V11.8697H91.9407V13.4282ZM106.445 6.9262H101.835V11.8876H99.0722V16.239H101.835V27.6265C101.835 28.8024 101.983 29.7916 102.276 30.568C102.564 31.336 103.006 31.9372 103.531 32.4069C104.062 32.8837 104.686 33.2551 105.426 33.4659C106.178 33.6775 107.007 33.7592 107.883 33.7592C108.791 33.7592 109.6 33.665 110.29 33.4787C110.931 33.3065 111.545 33.063 112.117 32.7534V29.2472C111.208 29.6406 110.358 29.7829 109.388 29.8281C108.364 29.8763 107.758 29.5837 107.254 29.1032C106.726 28.5999 106.445 27.9439 106.445 26.8435V16.239H112.117V11.8876H106.445V6.9262Z" fill="white"/>
</g>
</g>
<g id="Mask group_2">
<mask id="mask1_5216_32851" style="mask-type:luminance" maskUnits="userSpaceOnUse" x="0" y="0" width="175" height="40">
<g id="Group_2">
<path id="Vector_2" d="M0.328125 0H175.001V40H0.328125V0Z" fill="#2354E6"/>
</g>
</mask>
<g mask="url(#mask1_5216_32851)">
<path id="Fill-3" fill-rule="evenodd" clip-rule="evenodd" d="M20.3238 31.0002C14.2501 31.0002 9.3264 26.0758 9.3264 20.0003C9.3264 13.9252 14.2501 8.99994 20.3238 8.99994V0C9.28035 0 0.328125 8.9543 0.328125 20.0003C0.328125 31.0459 9.28035 40.0002 20.3238 40.0002C31.3668 40.0002 40.3194 31.0459 40.3194 20.0003H31.3212C31.3212 26.0758 26.3974 31.0002 20.3238 31.0002Z" fill="#2354E6"/>
</g>
</g>
<g id="Mask group_3">
<mask id="mask2_5216_32851" style="mask-type:luminance" maskUnits="userSpaceOnUse" x="0" y="0" width="175" height="40">
<g id="Group_3">
<path id="Vector_3" d="M0.328125 0H175.001V40H0.328125V0Z" fill="#17E6A1"/>
</g>
</mask>
<g mask="url(#mask2_5216_32851)">
<path id="Fill-4" fill-rule="evenodd" clip-rule="evenodd" d="M20.3281 20.0019H31.3255V9.00195H20.3281V20.0019Z" fill="#17E6A1"/>
</g>
</g>
</g>
</svg>
