<svg width="21" height="16" viewBox="0 0 21 16" fill="none" xmlns="http://www.w3.org/2000/svg">
<path id="Vector" d="M1.20311 15.8533C0.883259 15.8533 0.61496 15.7314 0.398214 15.4875C0.181467 15.2437 0.0734701 14.9423 0.0742227 14.5833C0.0742227 14.2234 0.182596 13.9216 0.399343 13.6778C0.616089 13.4339 0.884012 13.3124 1.20311 13.3133H19.2653C19.5852 13.3133 19.8535 13.4352 20.0702 13.679C20.287 13.9229 20.395 14.2243 20.3942 14.5833C20.3942 14.9431 20.2858 15.2449 20.0691 15.4888C19.8523 15.7326 19.5844 15.8541 19.2653 15.8533H1.20311ZM1.20311 9.50328C0.883259 9.50328 0.61496 9.38136 0.398214 9.13752C0.181467 8.89368 0.0734701 8.59227 0.0742227 8.23328C0.0742227 7.87345 0.182596 7.57161 0.399343 7.32777C0.616089 7.08393 0.884012 6.96244 1.20311 6.96328H19.2653C19.5852 6.96328 19.8535 7.0852 20.0702 7.32904C20.287 7.57288 20.395 7.87429 20.3942 8.23328C20.3942 8.59311 20.2858 8.89495 20.0691 9.13879C19.8523 9.38263 19.5844 9.50413 19.2653 9.50328H1.20311ZM1.20311 3.15328C0.883259 3.15328 0.61496 3.03136 0.398214 2.78752C0.181467 2.54368 0.0734701 2.24227 0.0742227 1.88328C0.0742227 1.52345 0.182596 1.22162 0.399343 0.977776C0.616089 0.733936 0.884012 0.612439 1.20311 0.613286H19.2653C19.5852 0.613286 19.8535 0.735206 20.0702 0.979046C20.287 1.22289 20.395 1.5243 20.3942 1.88328C20.3942 2.24312 20.2858 2.54495 20.0691 2.78879C19.8523 3.03263 19.5844 3.15413 19.2653 3.15328H1.20311Z" fill="url(#paint0_linear_1271_9742)"/>
<defs>
<linearGradient id="paint0_linear_1271_9742" x1="-4.57614" y1="-0.804504" x2="-1.24543" y2="18.1763" gradientUnits="userSpaceOnUse">
<stop stop-color="#9AD4FD"/>
<stop offset="1" stop-color="#8DC4FE" stop-opacity="0.44"/>
</linearGradient>
</defs>
</svg>
