<svg width="241" height="30" viewBox="0 0 241 30" fill="none" xmlns="http://www.w3.org/2000/svg">
<g clip-path="url(#clip0_1048_29865)">
<path d="M47.4177 20.5405L37.161 2.74904C34.9124 -0.959148 29.429 -0.998598 27.2593 2.90683L16.4899 21.4084C14.4779 24.8009 16.9631 29.0614 20.987 29.0614H42.5654C46.6287 29.0614 49.6663 24.6825 47.4177 20.5405Z" fill="#00B996"/>
<path d="M32.6249 21.9213L31.9937 20.8167C31.402 19.791 30.1001 17.5819 30.1001 17.5819L21.4214 2.51248C19.1729 -0.840669 13.8473 -1.11681 11.5987 3.10421L1.49982 20.58C-0.590963 24.2487 1.89431 29.022 6.43093 29.0616H27.891H37.0431H42.4871C36.9249 29.101 35.1497 26.2212 32.6249 21.9213Z" fill="#00FCAF"/>
<path d="M32.6247 21.9202L31.9935 20.8158C31.4018 19.7901 30.1 17.581 30.1 17.581L24.4983 7.71875L16.4507 21.447C14.4389 24.8395 16.9241 29.1 20.948 29.1H27.8514H37.0035H42.487C36.8853 29.0605 35.1494 26.2202 32.6247 21.9202Z" fill="url(#paint0_linear_1048_29865)"/>
<path d="M82.2372 27.483V6.93018H99.3185V8.232C99.3185 9.25765 98.4901 10.0861 97.4645 10.0861H86.4976V15.6089H97.4645V18.7649H86.4976V24.2876H97.4645C98.4901 24.2876 99.3185 25.116 99.3185 26.1417V27.4436L82.2372 27.483Z" fill="#EDEFF2"/>
<path d="M123.856 6.93018H119.832C119.082 6.93018 118.412 7.24577 117.938 7.8375L113.086 13.9521L108.234 7.87695C107.761 7.28523 107.09 6.96963 106.34 6.96963H102.317L110.482 17.2263L102.317 27.483H106.34C107.09 27.483 107.761 27.1674 108.234 26.5757L113.086 20.5006L117.978 26.6152C118.451 27.1674 119.122 27.5224 119.871 27.5224H123.895L115.729 17.2657L123.856 6.93018Z" fill="#EDEFF2"/>
<path d="M68.8642 25.3147L74.4659 15.5314V27.445H78.7265V6.89217H76.0833C75.2549 6.89217 74.4659 7.3261 74.0715 8.07563L67.3652 20.3047L60.6589 8.07563C60.2643 7.3261 59.4753 6.89217 58.6469 6.89217H56.0039V27.445H60.2643V15.5314L65.8661 25.3147H68.8642Z" fill="#EDEFF2"/>
<path d="M134.98 27.72C129.063 27.7989 124.25 23.1439 124.211 17.2266C124.211 13.9918 125.197 11.3093 127.051 9.45517C128.905 7.64053 131.588 6.6543 134.783 6.6543C138.531 6.6543 141.489 7.95611 143.62 10.4808L142.278 11.6249C141.45 12.3349 140.227 12.3744 139.32 11.7038C138.136 10.7964 136.637 10.3625 134.941 10.3625C130.759 10.3625 128.274 12.8872 128.274 17.1477C128.274 21.4476 130.838 24.0907 134.941 24.0907C136.677 24.0907 138.136 23.6173 139.32 22.7494C140.188 22.0787 141.41 22.1183 142.278 22.8283L143.62 23.9723C141.489 26.4576 138.649 27.72 134.98 27.72Z" fill="#EDEFF2"/>
<path d="M237.627 27.6818C236.167 27.6818 235.023 27.3663 234.156 26.814C233.247 26.2223 232.774 25.3543 232.774 24.1708V6.97119H235.063C235.892 6.97119 236.602 7.64182 236.602 8.50969V23.658C236.602 23.6975 236.602 24.4075 237.193 24.9993C237.547 25.3543 237.982 25.5515 238.573 25.5515H239.007C239.166 25.5515 239.323 25.7094 239.323 25.8671V27.7213L237.627 27.6818Z" fill="#00B996"/>
<path d="M188.316 27.6815C185.949 27.6815 184.016 27.0504 182.556 25.788C181.807 25.1568 181.294 24.4467 180.979 23.6577C180.663 22.8688 180.504 21.7247 180.504 20.1863C180.504 18.6873 180.663 17.5037 180.979 16.7147C181.254 15.9653 181.767 15.2945 182.517 14.6634C183.976 13.4011 185.909 12.7699 188.276 12.7699C190.643 12.7699 192.576 13.4011 194.036 14.6634C194.786 15.2945 195.299 16.0047 195.574 16.7147C195.89 17.5431 196.047 18.6873 196.047 20.1863C196.047 21.7247 195.89 22.8688 195.574 23.6577C195.259 24.4467 194.746 25.1568 193.996 25.788C192.616 27.0504 190.683 27.6815 188.316 27.6815ZM188.316 14.9395C185.712 14.9395 184.41 16.7147 184.41 20.2257C184.41 23.7761 185.712 25.5513 188.316 25.5513C190.919 25.5513 192.222 23.7761 192.222 20.2651C192.222 16.7147 190.88 14.9395 188.316 14.9395Z" fill="#00B996"/>
<path d="M204.647 27.6818C202.596 27.6818 200.703 27.1295 199.086 26.0644C198.927 25.9065 198.612 25.7094 198.217 25.4727C198.139 25.4333 198.06 25.3148 198.06 25.1965V6.97119H200.387C201.216 6.97119 201.926 7.68126 201.926 8.50969V13.8353L202.636 13.4408C203.464 13.0069 204.569 12.8096 205.989 12.8096C208.474 12.8096 210.367 13.5591 211.63 15.0187C212.734 16.3205 213.287 18.0563 213.287 20.1865C213.287 22.3168 212.656 24.0525 211.393 25.3148C209.933 26.8928 207.646 27.6818 204.647 27.6818ZM205.042 14.9398C204.174 14.9398 203.187 15.2554 202.083 15.9261L201.926 16.005V24.5654L202.083 24.6837C202.952 25.236 203.977 25.5121 205.042 25.5121C206.462 25.5121 207.567 24.9204 208.316 23.737C208.947 22.7901 209.303 21.5673 209.303 20.1865C209.303 16.715 207.843 14.9398 205.042 14.9398Z" fill="#00B996"/>
<path d="M222.4 27.6421C218.06 27.6421 215.339 24.8018 215.339 20.1863C215.339 15.6103 218.02 12.7699 222.32 12.7699C223.977 12.7699 225.397 13.2038 226.542 14.0322L226.779 14.19V13.046H229.816C230.013 13.046 230.132 13.2038 230.132 13.3616V27.366H226.739V26.1035L226.502 26.3008C225.556 27.1687 224.056 27.6421 222.4 27.6421ZM223.189 15.2945C220.466 15.2945 218.849 17.3854 218.849 20.1863C218.849 22.9871 220.466 25.1568 223.189 25.1568C224.056 25.1568 225.556 25.078 226.739 23.8944L226.779 23.855V16.6753L226.739 16.6358C225.91 15.6891 224.687 15.2945 223.189 15.2945Z" fill="#00B996"/>
<path d="M161.214 27.7211C154.587 27.7211 150.484 23.6974 150.484 17.2277C150.484 10.7581 154.587 6.73438 161.136 6.73438C164.292 6.73438 166.934 7.64169 168.986 9.49579L168 10.6004C167.566 11.0737 166.934 11.3499 166.303 11.3499C165.949 11.3499 165.593 11.271 165.277 11.1132C164.054 10.482 162.634 10.1664 161.136 10.1664C156.874 10.1664 154.232 12.8884 154.232 17.2673C154.232 21.6854 156.993 24.4074 161.412 24.4074C163.542 24.4074 165.199 24.013 166.422 23.1451L166.5 23.1057V18.8845H161.806V17.5038C161.806 16.4783 162.634 15.6498 163.66 15.6498H169.459C169.617 15.6498 169.774 15.8075 169.774 15.9654V25.0781C167.763 26.8138 164.883 27.7211 161.214 27.7211Z" fill="#00B996"/>
<path d="M177.389 27.6818C175.929 27.6818 174.784 27.3663 173.917 26.814C173.01 26.2223 172.536 25.3543 172.536 24.1708V6.97119H174.824C175.653 6.97119 176.363 7.64182 176.363 8.50969V23.658C176.363 23.6975 176.363 24.4075 176.954 24.9993C177.31 25.3543 177.743 25.5515 178.334 25.5515H178.769C178.927 25.5515 179.084 25.7094 179.084 25.8671V27.7213L177.389 27.6818Z" fill="#00B996"/>
</g>
<defs>
<linearGradient id="paint0_linear_1048_29865" x1="13.5866" y1="15.2092" x2="38.5175" y2="24.4223" gradientUnits="userSpaceOnUse">
<stop stop-color="#2BFFBE"/>
<stop offset="1" stop-color="#00A283"/>
</linearGradient>
<clipPath id="clip0_1048_29865">
<rect width="240" height="30" fill="white" transform="translate(0.75)"/>
</clipPath>
</defs>
</svg>
