<svg width="123" height="35" viewBox="0 0 123 35" fill="none" xmlns="http://www.w3.org/2000/svg">
<g id="logo 2" clip-path="url(#clip0_4857_39385)">
<path id="Vector" fill-rule="evenodd" clip-rule="evenodd" d="M20.4139 31.9132V34.4883H0.671875V31.9132H20.4139ZM20.4139 0.154297V29.3382H0.671875V0.154297H20.4139ZM17.8389 2.72934H3.24692V26.7631H17.8389V2.72934Z" fill="url(#paint0_linear_4857_39385)"/>
<path id="Vector_2" fill-rule="evenodd" clip-rule="evenodd" d="M109.212 10.6829V0.154297L109.107 0.188202C108.644 0.333354 108.077 0.455496 107.407 0.554624C106.684 0.661379 105.991 0.741444 105.325 0.794821C104.546 0.874886 103.732 0.941607 102.883 0.994985H100.304V1.31525H102.883V28.6977H100.304V29.0179H109.212V26.696L109.283 26.8393C109.38 27.0294 109.488 27.2151 109.608 27.3966C109.682 27.51 109.776 27.6385 109.888 27.7819L110.005 27.9304C110.046 27.9815 110.09 28.0343 110.136 28.0888L110.279 28.2572C110.393 28.4174 110.53 28.5509 110.691 28.6576C110.851 28.7644 111.001 28.8577 111.138 28.9378C111.299 29.0446 111.459 29.1113 111.62 29.138C112.193 29.2715 112.766 29.3382 113.34 29.3382C114.051 29.3382 114.784 29.2314 115.541 29.0179C116.298 28.8044 117.032 28.4574 117.742 27.9771C118.545 27.4166 119.204 26.7761 119.72 26.0555C120.236 25.3349 120.637 24.5542 120.923 23.7136C121.21 22.8729 121.411 22.0055 121.526 21.1114C121.64 20.2173 121.698 19.33 121.698 18.4492C121.698 17.5953 121.64 16.7212 121.526 15.8271C121.411 14.933 121.21 14.0723 120.923 13.245C120.637 12.4177 120.236 11.6437 119.72 10.9231C119.204 10.2025 118.545 9.56197 117.742 9.00156C117.077 8.54783 116.412 8.2209 115.748 8.02073C115.082 7.82056 114.429 7.72048 113.787 7.72048C112.984 7.72048 112.296 7.84726 111.724 8.1008C111.15 8.35434 110.669 8.70796 110.279 9.16164C110.027 9.4552 109.815 9.72875 109.642 9.98231C109.47 10.2359 109.327 10.4694 109.212 10.6829ZM99.2209 11.4435V0.965044H77.8275V11.3631H78.1698L78.1716 11.1231C78.1879 10.0074 78.3185 8.94988 78.5634 7.95064C78.8259 6.88005 79.3222 5.70241 80.0524 4.4177L80.1303 4.28048C80.4952 3.64931 80.88 3.14637 81.2847 2.77166C81.7183 2.37019 82.1404 2.0624 82.5512 1.84828C82.9619 1.63416 83.3612 1.49365 83.7492 1.42674C84.1372 1.35982 84.4908 1.32636 84.8103 1.32636V28.7468H81.3874V29.068H95.7634V28.7468H92.3412V1.32636L92.4785 1.32842C92.7549 1.33661 93.0399 1.36938 93.3335 1.42674C93.6759 1.49365 94.0296 1.64085 94.3944 1.86835C94.76 2.09586 95.136 2.41703 95.524 2.83188C95.9119 3.24674 96.3111 3.80211 96.7222 4.49799C97.4527 5.7827 98.0003 6.96034 98.3651 8.03094C98.7299 9.10156 98.9127 10.239 98.9127 11.4435H99.2209ZM76.7443 0.965044V10.3193H76.4338L76.4321 9.93467C76.4304 9.74635 76.4274 9.56395 76.4232 9.38747L76.4129 9.04259L76.3993 8.71344C76.3763 8.23167 76.3131 7.76329 76.2096 7.30828C76.1061 6.85329 75.9508 6.37821 75.7439 5.88306C75.5369 5.38792 75.2494 4.83255 74.8814 4.21696C74.4675 3.52108 74.042 2.9724 73.6051 2.57093C73.1681 2.16946 72.7023 1.87505 72.2079 1.68769C71.7134 1.50033 71.1845 1.38659 70.621 1.34644C70.138 1.31203 69.634 1.29236 69.1088 1.28745L68.8444 1.28622H66.0846V14.4545H67.568C67.982 14.4545 68.373 14.4411 68.7409 14.4143C69.1089 14.3875 69.4538 14.314 69.7759 14.1935C70.0979 14.0731 70.3968 13.8924 70.6728 13.6515C70.9487 13.4106 71.2132 13.0761 71.4662 12.6478C71.8572 11.9787 72.1677 11.3097 72.3976 10.6405C72.6123 10.016 72.7268 9.33322 72.7411 8.5921L72.7426 8.4324H73.0186V20.7977H72.7426C72.7426 20.0216 72.6333 19.2989 72.4149 18.6297C72.1964 17.9607 71.8802 17.2782 71.4662 16.5822C71.0062 15.8061 70.4486 15.3109 69.7931 15.0969C69.1813 14.897 68.4945 14.7904 67.7325 14.777L67.568 14.7757H66.0846V28.7067L69.7414 28.7468V29.068H55.08V28.7468H58.1503V1.28622H55.08V0.965044H76.7443ZM34.6286 1.32636C34.0333 1.11225 33.4839 0.991808 32.9802 0.965044H25.5625V1.28622L25.6629 1.32471C25.9997 1.45964 26.3554 1.66092 26.7301 1.92857C27.0964 2.16946 27.5142 2.49064 27.9836 2.8921C28.4529 3.29358 28.9508 3.78873 29.4773 4.37755L30.8854 6.06373V26.8198L30.8837 26.9134C30.866 27.4083 30.7062 27.8321 30.4046 28.1848C30.084 28.5595 29.6948 28.7468 29.237 28.7468H27.4512V29.068H34.5941V28.7468H32.7741L32.6985 28.7451C32.2738 28.7255 31.9156 28.5387 31.6236 28.1848C31.3146 27.81 31.1601 27.3551 31.1601 26.8198V6.34475L31.6862 7.13233L32.2085 7.90924L32.7271 8.67549L33.242 9.43108C33.413 9.68111 33.5833 9.92943 33.7531 10.176L34.2604 10.9103L34.764 11.6339L35.2638 12.3467C35.3468 12.4647 35.4297 12.5822 35.5123 12.6992L36.0065 13.3961L36.4969 14.0824C36.5784 14.1959 36.6597 14.3089 36.7408 14.4215L37.2256 15.0918L37.7066 15.7514C37.8663 15.9695 38.0254 16.1859 38.1839 16.4004L38.6574 17.0386C38.8146 17.2496 38.9712 17.4588 39.1272 17.6662C40.1803 19.0848 41.2563 20.4766 42.3552 21.8415C43.4542 23.2065 44.5015 24.4177 45.4974 25.4748L45.7912 25.7862L46.0757 26.0859L46.352 26.3739L46.621 26.6503C47.1525 27.1915 47.6468 27.6628 48.1414 28.0644C48.9656 28.7335 49.6409 29.068 50.1674 29.068H50.4765V3.21328L50.4781 3.11965C50.4952 2.62474 50.6492 2.20094 50.9401 1.84828C51.2492 1.47357 51.6327 1.28622 52.0905 1.28622H54.16V0.965044H46.7333V1.28622H48.5535L48.6291 1.28795C49.0537 1.30762 49.412 1.49439 49.7038 1.84828C50.0129 2.22299 50.1674 2.67799 50.1674 3.21328V19.3926L50.1374 19.3278C50.127 19.3057 50.1162 19.2832 50.105 19.2602L50.0335 19.1168L49.9528 18.9622L49.863 18.7965L49.7641 18.6196L49.656 18.4317L49.5389 18.2327L49.4125 18.0225L49.2771 17.8012L49.113 17.5378C49.0816 17.488 49.0498 17.4377 49.0176 17.3869L48.8189 17.0775L48.6098 16.7581C48.5741 16.704 48.5379 16.6495 48.5013 16.5947L48.2766 16.2603L48.0416 15.9159L47.7961 15.5616L47.4008 14.9983C47.3077 14.865 47.2149 14.7304 47.1217 14.5944L46.4068 13.5487C46.1116 13.1202 45.8016 12.6794 45.4631 12.2263C44.6732 11.1691 43.8663 10.1253 43.0421 9.09486C42.2179 8.0644 41.3994 7.08748 40.5867 6.1641C40.5325 6.10254 40.4786 6.04148 40.425 5.98093L40.1066 5.62371L39.795 5.27863C39.7435 5.22213 39.6925 5.16613 39.6416 5.11064L39.34 4.78375L39.0452 4.46899C38.9965 4.41754 38.9483 4.3666 38.9002 4.31617L38.6154 4.01961C38.5216 3.92278 38.4289 3.82798 38.3373 3.73519C37.6505 3.03931 36.9866 2.51071 36.3456 2.14938C35.7045 1.78806 35.1321 1.51372 34.6286 1.32636ZM110.939 8.96173C111.104 8.85487 111.291 8.80139 111.502 8.80139C111.9 8.80139 112.281 8.96843 112.645 9.30258C113.009 9.63665 113.307 10.0042 113.542 10.4051C113.964 11.1535 114.21 12.2628 114.281 13.7329C114.351 15.203 114.386 16.8068 114.386 18.5442C114.386 19.1574 114.381 19.7497 114.371 20.3213L114.359 20.886C114.348 21.3507 114.332 21.801 114.314 22.2369L114.29 22.753C114.281 22.9227 114.273 23.0901 114.263 23.2551C114.181 24.6584 113.929 25.7343 113.506 26.4827C113.471 26.5429 113.433 26.6077 113.389 26.6772L113.296 26.8226C113.28 26.8478 113.263 26.8737 113.246 26.8999L113.137 27.0641C112.985 27.2913 112.803 27.5185 112.592 27.7457C112.381 27.9729 112.147 28.16 111.889 28.3069C111.631 28.454 111.361 28.5275 111.08 28.5275C110.869 28.5275 110.711 28.4741 110.605 28.3671L110.06 27.8058C109.872 27.5919 109.714 27.3246 109.585 27.004C109.457 26.6832 109.357 26.3624 109.287 26.0417C109.076 25.2131 108.97 24.331 108.97 23.3955V14.4546L108.972 14.1354C108.978 13.7121 108.995 13.2973 109.022 12.8909C109.058 12.3831 109.146 11.9019 109.287 11.4476C109.403 11.0734 109.532 10.7192 109.673 10.385C109.814 10.051 110.013 9.7636 110.271 9.52309L110.407 9.39606C110.428 9.37606 110.45 9.35657 110.471 9.3376L110.592 9.23074C110.728 9.11374 110.844 9.02413 110.939 8.96173Z" fill="white"/>
</g>
<defs>
<linearGradient id="paint0_linear_4857_39385" x1="-5.09896" y1="19.1672" x2="21.5367" y2="30.8126" gradientUnits="userSpaceOnUse">
<stop stop-color="#18D3FD"/>
<stop offset="1" stop-color="#DE04FF"/>
</linearGradient>
<clipPath id="clip0_4857_39385">
<rect width="121.886" height="34.334" fill="white" transform="translate(0.671875 0.154297)"/>
</clipPath>
</defs>
</svg>
