<svg width="220" height="34" viewBox="0 0 220 34" fill="none" xmlns="http://www.w3.org/2000/svg">
<g clip-path="url(#clip0_1048_29847)">
<path d="M43.0175 26.1568C42.5085 26.1568 42.1487 26.0514 41.938 25.8409C41.745 25.6302 41.6484 25.2967 41.6484 24.8404V9.59663C41.6484 9.14028 41.7537 8.80679 41.9643 8.59618C42.175 8.368 42.5259 8.25391 43.0175 8.25391H49.4678C51.925 8.25391 53.7328 8.7717 54.8914 9.80724C56.0497 10.8428 56.6289 12.3874 56.6289 14.4409C56.6289 16.4769 56.0497 18.0127 54.8914 19.0482C53.7504 20.0664 51.9426 20.5753 49.4678 20.5753H46.9666V24.8404C46.9666 25.2967 46.8614 25.6302 46.6507 25.8409C46.44 26.0514 46.0802 26.1568 45.5712 26.1568H43.0175ZM49.0466 16.7578C49.7662 16.7578 50.3191 16.5647 50.7053 16.1786C51.1088 15.7924 51.3108 15.2132 51.3108 14.4409C51.3108 13.6511 51.1088 13.0631 50.7053 12.677C50.3191 12.2908 49.7662 12.0978 49.0466 12.0978H46.9666V16.7578H49.0466Z" fill="white"/>
<path d="M62.8482 26.5521C61.1984 26.5521 59.8733 26.0255 58.8727 24.9726C57.8898 23.9018 57.3984 22.4012 57.3984 20.4704C57.3984 18.9961 57.7319 17.706 58.3988 16.6003C59.0834 15.4945 60.04 14.6432 61.2686 14.0465C62.5148 13.4322 63.9452 13.125 65.56 13.125C66.894 13.125 68.07 13.2742 69.0879 13.5726C70.1235 13.8534 71.0712 14.2659 71.9313 14.81V25.3411C71.9313 25.6746 71.87 25.894 71.7469 25.9992C71.6241 26.1046 71.3784 26.1573 71.0099 26.1573H68.3244C68.1313 26.1573 67.9822 26.131 67.8769 26.0782C67.7715 26.0081 67.6839 25.9027 67.6136 25.7623L67.2713 24.9726C66.7623 25.5166 66.1481 25.9116 65.4284 26.1573C64.7264 26.4206 63.8663 26.5521 62.8482 26.5521ZM64.8229 22.9715C65.5073 22.9715 66.0426 22.8048 66.4288 22.4714C66.8149 22.1379 67.008 21.664 67.008 21.0496V16.9425C66.6746 16.7846 66.2533 16.7056 65.7443 16.7056C64.814 16.7056 64.0681 17.0303 63.5065 17.6796C62.9623 18.3291 62.6903 19.2418 62.6903 20.4178C62.6903 22.1203 63.4011 22.9715 64.8229 22.9715Z" fill="white"/>
<path d="M75.5985 26.1573C75.0893 26.1573 74.7295 26.0519 74.519 25.8414C74.3084 25.6307 74.2031 25.2972 74.2031 24.8408V14.3361C74.2031 14.0202 74.2558 13.8095 74.361 13.7042C74.4838 13.5814 74.7295 13.5199 75.0982 13.5199H77.81C78.0205 13.5199 78.1786 13.555 78.2838 13.6252C78.4067 13.6779 78.4769 13.7832 78.4945 13.9412L78.626 14.731C79.1176 14.2395 79.7583 13.8534 80.548 13.5726C81.3554 13.2742 82.2505 13.125 83.2335 13.125C84.6551 13.125 85.8048 13.5287 86.6823 14.3361C87.56 15.1259 87.9988 16.3019 87.9988 17.864V24.8408C87.9988 25.2972 87.8935 25.6307 87.6828 25.8414C87.4898 26.0519 87.1387 26.1573 86.6297 26.1573H84.0759C83.567 26.1573 83.1984 26.0519 82.9702 25.8414C82.7595 25.6307 82.6543 25.2972 82.6543 24.8408V18.2062C82.6543 17.6796 82.5401 17.3024 82.312 17.0742C82.0838 16.846 81.724 16.7319 81.2326 16.7319C80.706 16.7319 80.2847 16.8723 79.9688 17.1531C79.6705 17.434 79.5213 17.8201 79.5213 18.3116V24.8408C79.5213 25.2972 79.4159 25.6307 79.2054 25.8414C79.0123 26.0519 78.6612 26.1573 78.1523 26.1573H75.5985Z" fill="white"/>
<path d="M97.3049 26.5521C94.8477 26.5521 92.9521 25.9816 91.6181 24.8408C90.2842 23.7 89.6172 22.0414 89.6172 19.8649C89.6172 18.531 89.9244 17.355 90.5386 16.337C91.153 15.319 92.0394 14.5291 93.1978 13.9675C94.3738 13.4058 95.7604 13.125 97.3576 13.125C98.5686 13.125 99.5867 13.2391 100.412 13.4673C101.254 13.6954 102 14.0465 102.649 14.5204C102.842 14.6432 102.939 14.8012 102.939 14.9943C102.939 15.1347 102.869 15.319 102.728 15.5471L101.649 17.4164C101.526 17.6622 101.377 17.7851 101.201 17.7851C101.096 17.7851 100.929 17.7148 100.701 17.5744C100.227 17.2761 99.7798 17.0566 99.3584 16.9162C98.9547 16.7758 98.4457 16.7056 97.8315 16.7056C96.9538 16.7056 96.2431 16.9864 95.6989 17.5481C95.1723 18.1097 94.9091 18.882 94.9091 19.8649C94.9091 20.8654 95.1811 21.6377 95.7252 22.1817C96.2694 22.7082 97.0154 22.9715 97.9631 22.9715C98.5247 22.9715 99.0338 22.8926 99.4902 22.7345C99.9465 22.5767 100.412 22.3573 100.886 22.0764C101.131 21.936 101.307 21.8658 101.412 21.8658C101.57 21.8658 101.71 21.9886 101.833 22.2345L103.018 24.2616C103.106 24.4371 103.15 24.5775 103.15 24.6828C103.15 24.8408 103.044 24.99 102.834 25.1304C102.097 25.6044 101.289 25.9553 100.412 26.1836C99.5515 26.4293 98.516 26.5521 97.3049 26.5521Z" fill="white"/>
<path d="M109.825 26.5521C108.175 26.5521 106.85 26.0255 105.849 24.9726C104.867 23.9018 104.375 22.4012 104.375 20.4704C104.375 18.9961 104.709 17.706 105.376 16.6003C106.06 15.4945 107.017 14.6432 108.245 14.0465C109.491 13.4322 110.922 13.125 112.537 13.125C113.871 13.125 115.047 13.2742 116.065 13.5726C117.1 13.8534 118.048 14.2659 118.908 14.81V25.3411C118.908 25.6746 118.847 25.894 118.724 25.9992C118.601 26.1046 118.355 26.1573 117.986 26.1573H115.301C115.108 26.1573 114.959 26.131 114.853 26.0782C114.748 26.0081 114.66 25.9027 114.59 25.7623L114.248 24.9726C113.739 25.5166 113.125 25.9116 112.405 26.1573C111.703 26.4206 110.843 26.5521 109.825 26.5521ZM111.799 22.9715C112.484 22.9715 113.019 22.8048 113.405 22.4714C113.792 22.1379 113.985 21.664 113.985 21.0496V16.9425C113.651 16.7846 113.23 16.7056 112.721 16.7056C111.791 16.7056 111.045 17.0303 110.483 17.6796C109.939 18.3291 109.667 19.2418 109.667 20.4178C109.667 22.1203 110.378 22.9715 111.799 22.9715Z" fill="white"/>
<path d="M135.441 25.1563C135.564 25.2967 135.626 25.4548 135.626 25.6302C135.626 25.7881 135.573 25.9198 135.468 26.0251C135.363 26.1129 135.222 26.1568 135.047 26.1568H130.966C130.72 26.1568 130.536 26.1392 130.413 26.1042C130.308 26.0514 130.193 25.9549 130.071 25.8146L126.49 20.9439V24.8404C126.49 25.2967 126.385 25.6302 126.174 25.8409C125.963 26.0514 125.604 26.1568 125.095 26.1568H122.541C122.032 26.1568 121.672 26.0514 121.461 25.8409C121.268 25.6302 121.172 25.2967 121.172 24.8404V9.59663C121.172 9.14028 121.277 8.80679 121.488 8.59618C121.698 8.368 122.05 8.25391 122.541 8.25391H125.095C125.604 8.25391 125.963 8.368 126.174 8.59618C126.385 8.80679 126.49 9.14028 126.49 9.59663V18.4164L129.965 13.888C130.071 13.7476 130.185 13.6511 130.308 13.5984C130.43 13.5458 130.615 13.5195 130.861 13.5195H134.941C135.117 13.5195 135.248 13.5721 135.336 13.6774C135.441 13.7652 135.494 13.888 135.494 14.046C135.494 14.2215 135.433 14.3795 135.31 14.5199L130.808 19.6802L135.441 25.1563Z" fill="white"/>
<path d="M143.989 26.5521C142.515 26.5521 141.199 26.3064 140.04 25.815C138.899 25.3235 137.995 24.5863 137.328 23.6035C136.662 22.6206 136.328 21.4183 136.328 19.9966C136.328 17.7675 136.96 16.0649 138.224 14.889C139.487 13.713 141.304 13.125 143.673 13.125C145.99 13.125 147.746 13.7042 148.939 14.8626C150.15 16.0035 150.756 17.592 150.756 19.6279C150.756 20.5056 150.37 20.9443 149.597 20.9443H141.33C141.33 21.699 141.611 22.2784 142.173 22.6819C142.752 23.0857 143.621 23.2874 144.779 23.2874C145.499 23.2874 146.096 23.2261 146.57 23.1032C147.061 22.9628 147.553 22.761 148.044 22.4977C148.255 22.4099 148.395 22.366 148.465 22.366C148.623 22.366 148.755 22.4714 148.86 22.6819L149.755 24.3669C149.843 24.5425 149.887 24.6741 149.887 24.7619C149.887 24.9198 149.782 25.0691 149.571 25.2094C148.851 25.6833 148.035 26.0255 147.123 26.2362C146.21 26.4469 145.165 26.5521 143.989 26.5521ZM146.017 18.338C146.017 17.6709 145.824 17.1531 145.438 16.7846C145.051 16.416 144.472 16.2317 143.7 16.2317C142.928 16.2317 142.34 16.4247 141.936 16.8109C141.532 17.1796 141.33 17.6885 141.33 18.338H146.017Z" fill="white"/>
<path d="M159.78 26.552C158.306 26.552 156.91 26.4029 155.594 26.1046C154.278 25.7885 153.216 25.3497 152.408 24.7881C152.11 24.5951 151.961 24.3931 151.961 24.1826C151.961 24.0422 152.014 23.893 152.119 23.735L153.409 21.6815C153.549 21.4708 153.69 21.3656 153.83 21.3656C153.918 21.3656 154.067 21.4269 154.278 21.5498C154.927 21.9185 155.664 22.2168 156.489 22.4449C157.314 22.6731 158.13 22.7873 158.938 22.7873C159.763 22.7873 160.368 22.6644 160.754 22.4186C161.158 22.1729 161.36 21.778 161.36 21.2338C161.36 20.7073 161.14 20.2948 160.702 19.9965C160.28 19.698 159.482 19.3208 158.306 18.8644C156.533 18.1974 155.147 17.4515 154.146 16.6265C153.163 15.784 152.672 14.6432 152.672 13.2039C152.672 11.4663 153.295 10.1411 154.541 9.22841C155.787 8.31573 157.446 7.85938 159.517 7.85938C160.956 7.85938 162.185 7.99102 163.203 8.25429C164.238 8.50001 165.116 8.88616 165.835 9.41271C166.134 9.64089 166.283 9.8515 166.283 10.0446C166.283 10.1674 166.231 10.3079 166.125 10.4658L164.835 12.5194C164.677 12.73 164.537 12.8353 164.414 12.8353C164.326 12.8353 164.177 12.7739 163.966 12.651C162.948 11.9841 161.737 11.6506 160.333 11.6506C159.578 11.6506 158.999 11.7734 158.595 12.0192C158.192 12.2649 157.99 12.6686 157.99 13.2302C157.99 13.6164 158.095 13.9323 158.306 14.178C158.516 14.4237 158.797 14.6432 159.148 14.8362C159.517 15.0117 160.079 15.2399 160.833 15.5207L161.333 15.705C162.632 16.214 163.65 16.7055 164.388 17.1795C165.142 17.6357 165.713 18.2061 166.099 18.8908C166.485 19.5576 166.678 20.4001 166.678 21.4182C166.678 22.9803 166.09 24.2265 164.914 25.1567C163.756 26.087 162.044 26.552 159.78 26.552Z" fill="white"/>
<path d="M172.277 26.1569C172.014 26.1569 171.812 26.113 171.671 26.0251C171.531 25.9375 171.425 25.7619 171.355 25.4986L167.959 14.1251C167.924 14.0198 167.906 13.9408 167.906 13.8881C167.906 13.6424 168.082 13.5195 168.433 13.5195H171.908C172.137 13.5195 172.302 13.5634 172.408 13.6512C172.514 13.7214 172.584 13.8442 172.618 14.0197L174.04 19.9962L175.83 15.1782C175.919 14.9676 176.006 14.8271 176.094 14.7569C176.2 14.6692 176.375 14.6253 176.622 14.6253H178.279C178.525 14.6253 178.692 14.6692 178.779 14.7569C178.885 14.8271 178.981 14.9676 179.07 15.1782L180.833 19.9962L182.282 14.0197C182.333 13.8442 182.403 13.7214 182.492 13.6512C182.579 13.5634 182.738 13.5195 182.965 13.5195H186.468C186.818 13.5195 186.994 13.6424 186.994 13.8881C186.994 13.9408 186.977 14.0198 186.941 14.1251L183.519 25.4986C183.449 25.7619 183.343 25.9375 183.203 26.0251C183.08 26.113 182.887 26.1569 182.624 26.1569H180.044C179.798 26.1569 179.613 26.113 179.49 26.0251C179.367 25.9199 179.263 25.7444 179.174 25.4986L177.436 20.7333L175.699 25.4986C175.629 25.7444 175.523 25.9199 175.383 26.0251C175.26 26.113 175.077 26.1569 174.831 26.1569H172.277Z" fill="white"/>
<path d="M193.665 26.5521C192.015 26.5521 190.691 26.0255 189.689 24.9726C188.707 23.9018 188.215 22.4012 188.215 20.4704C188.215 18.9961 188.548 17.706 189.216 16.6003C189.899 15.4945 190.856 14.6432 192.085 14.0465C193.332 13.4322 194.762 13.125 196.377 13.125C197.711 13.125 198.886 13.2742 199.905 13.5726C200.94 13.8534 201.888 14.2659 202.748 14.81V25.3411C202.748 25.6746 202.686 25.894 202.563 25.9992C202.44 26.1046 202.196 26.1573 201.827 26.1573H199.141C198.948 26.1573 198.799 26.131 198.693 26.0782C198.587 26.0081 198.5 25.9027 198.43 25.7623L198.089 24.9726C197.579 25.5166 196.964 25.9116 196.245 26.1573C195.543 26.4206 194.683 26.5521 193.665 26.5521ZM195.64 22.9715C196.324 22.9715 196.86 22.8048 197.246 22.4714C197.632 22.1379 197.825 21.664 197.825 21.0496V16.9425C197.491 16.7846 197.07 16.7056 196.561 16.7056C195.63 16.7056 194.885 17.0303 194.323 17.6796C193.78 18.3291 193.506 19.2418 193.506 20.4178C193.506 22.1203 194.219 22.9715 195.64 22.9715Z" fill="white"/>
<path d="M206.384 31.4754C205.875 31.4754 205.516 31.3702 205.304 31.1595C205.111 30.9489 205.016 30.6154 205.016 30.159V15.0733C205.805 14.5116 206.798 14.0465 207.99 13.6779C209.184 13.3093 210.43 13.125 211.728 13.125C217.03 13.125 219.68 15.3716 219.68 19.8649C219.68 21.9009 219.118 23.5244 217.995 24.7356C216.871 25.9466 215.284 26.5521 213.23 26.5521C212.651 26.5521 212.089 26.4819 211.544 26.3414C211.018 26.2012 210.579 26.0081 210.228 25.7623V30.159C210.228 30.6154 210.122 30.9489 209.912 31.1595C209.702 31.3702 209.342 31.4754 208.833 31.4754H206.384ZM212.098 22.9978C212.853 22.9978 213.415 22.7171 213.782 22.1553C214.168 21.5762 214.361 20.8039 214.361 19.8386C214.361 18.6978 214.134 17.899 213.678 17.4427C213.239 16.9689 212.554 16.7319 211.624 16.7319C211.026 16.7319 210.553 16.8109 210.203 16.9689V21.155C210.203 21.7518 210.368 22.2081 210.702 22.524C211.037 22.84 211.501 22.9978 212.098 22.9978Z" fill="white"/>
<path fill-rule="evenodd" clip-rule="evenodd" d="M17.4848 33.9328C12.4971 33.9291 8.47937 32.7323 5.67216 30.5826C2.83128 28.4071 1.32422 25.3197 1.32422 21.8263C1.32422 18.4603 2.82799 16.0332 4.52949 14.3925C5.86294 13.1068 7.33442 12.2833 8.35904 11.8097C8.12732 11.0986 7.83825 10.1677 7.57962 9.20617C7.23355 7.91956 6.89405 6.41001 6.89405 5.30381C6.89405 3.99449 7.17951 2.67956 7.94921 1.65781C8.76242 0.578301 9.98668 0 11.4595 0C12.6105 0 13.5878 0.42697 14.3528 1.16354C15.0842 1.86759 15.5709 2.80259 15.9069 3.77728C16.4975 5.48997 16.7274 7.6417 16.7919 9.78901H18.2026C18.2672 7.6417 18.497 5.48997 19.0876 3.77728C19.4237 2.80259 19.9103 1.86759 20.6417 1.16354C21.4068 0.42697 22.3839 0 23.535 0C25.0079 0 26.2321 0.578301 27.0454 1.65781C27.8151 2.67956 28.1005 3.99449 28.1005 5.30381C28.1005 6.41001 27.7609 7.91956 27.4149 9.20617C27.1562 10.1677 26.8672 11.0986 26.6355 11.8097C27.6601 12.2833 29.1317 13.1068 30.465 14.3925C32.1665 16.0332 33.6702 18.4603 33.6702 21.8263C33.6702 25.3197 32.1633 28.4071 29.3223 30.5826C26.5152 32.7323 22.4974 33.9291 17.5097 33.9328H17.4848Z" fill="#633001"/>
<path d="M11.4622 1.24609C9.30501 1.24609 8.31202 2.87184 8.31202 5.12019C8.31202 6.90731 9.46578 10.4864 9.93917 11.8797C10.0456 12.1931 9.87834 12.5364 9.57322 12.658C7.84432 13.3466 2.74219 15.8681 2.74219 21.6428C2.74219 27.7257 7.92712 32.3123 17.4885 32.3196C17.4923 32.3196 17.4961 32.3195 17.4999 32.3195C17.5038 32.3195 17.5076 32.3196 17.5114 32.3196C27.0727 32.3123 32.2576 27.7257 32.2576 21.6428C32.2576 15.8681 27.1556 13.3466 25.4267 12.658C25.1216 12.5364 24.9543 12.1931 25.0607 11.8797C25.5342 10.4864 26.6879 6.90731 26.6879 5.12019C26.6879 2.87184 25.6949 1.24609 23.5377 1.24609C20.4326 1.24609 19.6585 5.68953 19.6033 10.4584C19.5997 10.7768 19.3448 11.0351 19.0297 11.0351H15.9702C15.655 11.0351 15.4003 10.7768 15.3966 10.4584C15.3414 5.68953 14.5673 1.24609 11.4622 1.24609Z" fill="#D1884F"/>
<path d="M17.5114 30.369C10.4861 30.369 2.75434 26.57 2.74222 21.6523C2.7422 21.6599 2.74219 21.6676 2.74219 21.6752C2.74219 27.7631 7.93537 32.3521 17.5114 32.3521C27.0874 32.3521 32.2805 27.7631 32.2805 21.6752C32.2805 21.6676 32.2805 21.6599 32.2805 21.6523C32.2684 26.57 24.5365 30.369 17.5114 30.369Z" fill="#FEDC90"/>
<path d="M13.6025 20.1422C13.6025 21.8026 12.8258 22.6673 11.8677 22.6673C10.9095 22.6673 10.1328 21.8026 10.1328 20.1422C10.1328 18.4819 10.9095 17.6172 11.8677 17.6172C12.8258 17.6172 13.6025 18.4819 13.6025 20.1422Z" fill="#633001"/>
<path d="M24.8838 20.1422C24.8838 21.8026 24.1071 22.6673 23.1489 22.6673C22.1908 22.6673 21.4141 21.8026 21.4141 20.1422C21.4141 18.4819 22.1908 17.6172 23.1489 17.6172C24.1071 17.6172 24.8838 18.4819 24.8838 20.1422Z" fill="#633001"/>
</g>
<defs>
<clipPath id="clip0_1048_29847">
<rect width="218.864" height="34" fill="white" transform="translate(0.816406)"/>
</clipPath>
</defs>
</svg>
