<svg width="152" height="46" viewBox="0 0 152 46" fill="none" xmlns="http://www.w3.org/2000/svg">
<g id="svgexport-1 (2) 1" clip-path="url(#clip0_4857_39353)">
<g id="Clip path group">
<mask id="mask0_4857_39353" style="mask-type:luminance" maskUnits="userSpaceOnUse" x="0" y="0" width="152" height="46">
<g id="portal-white_svg__a">
<path id="Vector" d="M0.40625 0.386719H151.639V45.7566H0.40625V0.386719Z" fill="white"/>
</g>
</mask>
<g mask="url(#mask0_4857_39353)">
<g id="Group">
<path id="Vector_2" d="M90.4136 18.9635C89.767 18.6837 89.0487 18.5439 88.266 18.5439H77.6155C76.9236 18.5439 76.2657 18.6762 75.6494 18.9408C75.0294 19.2055 74.4925 19.5647 74.0312 20.0259C73.5703 20.4874 73.2019 21.0328 72.9462 21.6328C72.6815 22.2415 72.5492 22.9031 72.5492 23.6102V27.0469C72.5492 27.7388 72.6815 28.3967 72.9462 29.013C73.2108 29.633 73.57 30.1699 74.0312 30.6311C74.4925 31.0924 75.0294 31.4516 75.6494 31.7162C76.2657 31.9809 76.9236 32.1132 77.6155 32.1132H88.266C89.0487 32.1132 89.767 31.9847 90.4136 31.7276C91.0601 31.4705 91.6159 31.1189 92.0771 30.6652C92.5384 30.2115 92.8938 29.6822 93.1509 29.0697C93.408 28.461 93.5365 27.7993 93.5365 27.0923V23.1338C93.3361 21.9088 92.8522 20.8955 92.0771 20.094C91.6159 19.6176 91.0639 19.2433 90.4136 18.9635ZM89.8048 25.6669C89.8048 26.0753 89.7368 26.4458 89.6007 26.786C89.4646 27.1263 89.2831 27.4137 89.0562 27.6556C88.8294 27.8976 88.561 28.0791 88.2547 28.2001C87.9447 28.3211 87.612 28.3816 87.249 28.3816H78.9955C78.6023 28.3816 78.2469 28.3173 77.9217 28.1887C77.6014 28.0625 77.3096 27.8736 77.0635 27.6329C76.8146 27.3941 76.6188 27.1056 76.4888 26.786C76.3527 26.4609 76.2846 26.1131 76.2846 25.735V24.9448C76.2846 24.5516 76.3565 24.1962 76.5001 23.871C76.6438 23.5459 76.8404 23.2661 77.0862 23.0241C77.3357 22.7822 77.6193 22.5969 77.9331 22.4683C78.2506 22.3398 78.5871 22.2755 78.9501 22.2755H87.249C87.6573 22.2755 88.0127 22.3436 88.3228 22.4797C88.6328 22.6158 88.8899 22.8048 89.1016 23.043C89.3133 23.285 89.4797 23.5572 89.6007 23.8559C89.7217 24.1584 89.7897 24.4797 89.8048 24.8276V25.6669ZM108.747 18.5476H101.015C97.9752 18.5476 95.5101 21.0127 95.5101 24.0525V31.6747C95.5101 31.9166 95.7067 32.1132 95.9487 32.1132H98.8032C99.0452 32.1132 99.2418 31.9166 99.2418 31.6747V24.8276C99.2418 23.4211 100.384 22.2793 101.79 22.2793H108.747C108.989 22.2793 109.185 22.0827 109.185 21.8407V18.9862C109.185 18.7442 108.989 18.5476 108.747 18.5476ZM122.993 18.5439H117.541C117.299 18.5439 117.102 18.3472 117.102 18.1053V13.6552C117.102 13.4133 116.906 13.2167 116.664 13.2167H113.809C113.567 13.2167 113.371 13.4133 113.371 13.6552V18.1053C113.371 18.3472 113.174 18.5439 112.932 18.5439H111.598C111.356 18.5439 111.159 18.7405 111.159 18.9824V21.8369C111.159 22.0789 111.356 22.2755 111.598 22.2755H112.932C113.174 22.2755 113.371 22.4721 113.371 22.7141V31.6784C113.371 31.9204 113.567 32.117 113.809 32.117H116.664C116.906 32.117 117.102 31.9204 117.102 31.6784V22.7141C117.102 22.4721 117.299 22.2755 117.541 22.2755H122.993C123.235 22.2755 123.431 22.0789 123.431 21.8369V18.9824C123.431 18.7405 123.235 18.5439 122.993 18.5439ZM151.198 13.2129H148.351C148.109 13.2129 147.909 13.4208 147.909 13.6742V31.6557C147.909 31.9091 148.105 32.117 148.351 32.117H151.198C151.44 32.117 151.64 31.9091 151.64 31.6557V13.6742C151.64 13.4208 151.444 13.2129 151.198 13.2129ZM69.0973 20.0826C68.636 19.6205 68.0906 19.2509 67.4904 18.9938C66.8817 18.7291 66.2201 18.5968 65.5131 18.5968H51.5089C51.2669 18.5968 51.0703 18.7934 51.0703 19.0391V21.9012C51.0703 22.1432 51.2669 22.3436 51.5089 22.3436H64.1784C64.6019 22.3436 64.9762 22.3927 65.3089 22.491C65.6416 22.5893 65.9214 22.7443 66.1558 22.9561C66.3902 23.1678 66.5641 23.4249 66.6775 23.7274C66.791 24.0298 66.8477 24.3852 66.8477 24.7936V26.0185C66.8477 26.4571 66.791 26.8314 66.6775 27.1414C66.5641 27.4515 66.394 27.7048 66.1671 27.9014C65.9403 28.098 65.6567 28.2417 65.3202 28.3324C64.98 28.4231 64.6019 28.4685 64.1784 28.4685H51.5089C51.2669 28.4685 51.0703 28.6651 51.0703 28.9109V36.3099C51.0703 36.5519 51.2669 36.7523 51.5089 36.7523H54.3596C54.6016 36.7523 54.7982 36.5557 54.7982 36.3099V32.6539C54.7982 32.4119 54.9948 32.2115 55.2368 32.2115H65.5093C66.2163 32.2115 66.8779 32.0792 67.4866 31.8145C68.0954 31.5499 68.6322 31.1869 69.0935 30.7257C69.5548 30.2644 69.9139 29.7237 70.1786 29.1037C70.4432 28.4836 70.5756 27.8258 70.5756 27.1301V23.682C70.5756 22.9712 70.4432 22.3096 70.1786 21.6971C69.9139 21.0846 69.5548 20.5477 69.0935 20.0864L69.0973 20.0826ZM144.313 19.8785C143.923 19.4575 143.449 19.1227 142.922 18.8955C142.385 18.6611 141.802 18.5439 141.171 18.5439H125.844C125.602 18.5439 125.401 18.7405 125.401 18.9862V21.8332C125.401 22.0751 125.598 22.2755 125.844 22.2755H140.581C141.243 22.2755 141.485 22.8124 141.572 23.2472C141.629 23.5194 141.424 23.7765 141.145 23.7765H129.515C128.762 23.7765 128.12 23.8597 127.594 24.026C127.065 24.1924 126.641 24.4192 126.316 24.7028C125.991 24.9902 125.757 25.3229 125.617 25.6972C125.473 26.0753 125.401 26.4722 125.401 26.8957L125.424 28.5593C125.424 29.1906 125.571 29.7351 125.866 30.1888C126.161 30.6425 126.52 31.0092 126.951 31.2966C127.382 31.5839 127.836 31.7919 128.32 31.9166C128.804 32.0452 129.224 32.1094 129.587 32.1094H145.114C145.356 32.1094 145.557 31.9128 145.557 31.6671V23.2472C145.557 22.5704 145.447 21.9428 145.228 21.3719C145.009 20.801 144.702 20.3019 144.313 19.8785ZM141.689 28.3248C141.689 28.5668 141.492 28.7634 141.25 28.7634H130.558C130.271 28.7634 130.037 28.7332 129.859 28.6727C129.677 28.6122 129.53 28.529 129.417 28.4231C129.303 28.3173 129.227 28.1925 129.19 28.0488C129.152 27.9052 129.148 27.5687 129.19 27.4137C129.22 27.2965 129.33 27.1603 129.417 27.0847C129.538 26.9751 129.704 26.9033 129.859 26.8654C130.101 26.8012 130.358 26.7785 130.558 26.7785H141.25C141.492 26.7785 141.689 26.9751 141.689 27.2171V28.3248Z" fill="white"/>
<path id="Vector_3" fill-rule="evenodd" clip-rule="evenodd" d="M23.0912 45.7566C35.6197 45.7566 45.7761 35.6002 45.7761 23.0717C45.7761 10.5431 35.6197 0.386719 23.0912 0.386719C14.1594 0.386719 6.43289 5.54868 2.73297 13.0525H34.6227C37.7419 13.0525 40.8138 15.8881 40.8138 18.5347L40.8611 24.1586C40.8138 28.7429 38.6871 30.7751 34.5282 30.7751H15.7186C15.1515 30.7751 15.1042 31.0114 15.1042 31.484L15.1515 36.3518C15.1515 36.6826 15.0097 36.8244 14.6789 36.8244H10.7563C10.422 36.8161 10.2364 36.7299 10.2364 36.3518V26.5689C10.2364 26.0963 10.3309 25.9073 10.898 25.9073H32.9213C34.9063 25.9073 35.9933 24.773 35.9933 23.0717V20.7086C35.9933 18.5347 34.6227 17.8258 33.0631 17.8258L0.98283 17.9672C0.598591 19.6414 0.405167 21.3539 0.406255 23.0717C0.406255 35.6002 10.5627 45.7566 23.0912 45.7566Z" fill="white"/>
</g>
</g>
</g>
</g>
<defs>
<clipPath id="clip0_4857_39353">
<rect width="151.233" height="45.3699" fill="white" transform="translate(0.402344 0.384766)"/>
</clipPath>
</defs>
</svg>
