<svg width="197" height="54" viewBox="0 0 197 54" fill="none" xmlns="http://www.w3.org/2000/svg">
<g clip-path="url(#clip0_1048_29891)">
<path fill-rule="evenodd" clip-rule="evenodd" d="M68.0577 33.0462L65.6371 28.8646H62.0927V33.0462H60.0078V20.4904H66.2856C67.0509 20.4843 67.8031 20.6884 68.4604 21.0803C69.1178 21.4723 69.6548 22.0372 70.0134 22.7134C70.3717 23.3895 70.5376 24.1511 70.4931 24.9151C70.4485 25.6791 70.1952 26.4163 69.7605 27.0461C69.3066 27.7143 68.6661 28.234 67.9188 28.5405L70.5018 33.0462H68.0577ZM66.2856 22.6216H62.0927V26.7913H66.2856C66.5596 26.7912 66.8306 26.7346 67.0818 26.6249C67.3328 26.5155 67.5586 26.3551 67.745 26.1543C68.0337 25.8612 68.2297 25.4898 68.3088 25.0861C68.3878 24.6824 68.3464 24.2643 68.1896 23.884C68.0327 23.5037 67.7676 23.1779 67.4269 22.9472C67.0864 22.7166 66.6853 22.5913 66.2741 22.5869L66.2856 22.6216ZM88.6059 20.4904L82.3164 33.0462H84.6562L88.6059 25.1813L92.5441 33.0462H94.8838L88.6059 20.4904ZM115.107 20.4904H112.443L108.864 25.1234L105.297 20.4904H102.621L107.868 27.1852V33.0462H109.953V27.081L115.107 20.4904ZM125.787 20.4904H129.968C131.629 20.5025 133.219 21.1678 134.394 22.3426C135.568 23.5171 136.234 25.107 136.246 26.7683C136.237 28.4305 135.572 30.0219 134.397 31.1973C133.222 32.3727 131.63 33.037 129.968 33.0462H125.787V20.4904ZM129.968 30.9148C131.076 30.9119 132.138 30.4702 132.921 29.6867C133.705 28.9032 134.146 27.8416 134.149 26.7334C134.137 25.6282 133.693 24.5716 132.911 23.7901C132.13 23.0086 131.073 22.5641 129.968 22.552H127.86V30.9148H129.968ZM150.18 20.4904H148.095V33.0462H150.18V20.4904ZM172.489 27.799C172.501 28.4897 172.37 29.1754 172.105 29.8132C171.84 30.4509 171.447 31.0272 170.948 31.5055C170.216 32.2373 169.285 32.7354 168.271 32.9369C167.254 33.1381 166.204 33.0337 165.248 32.6368C164.293 32.2398 163.477 31.5681 162.904 30.7068C162.331 29.8456 162.026 28.8335 162.029 27.799V20.4904H164.114V27.799C164.114 28.6316 164.445 29.43 165.034 30.0187C165.621 30.6073 166.42 30.9381 167.253 30.9381C168.086 30.9381 168.884 30.6073 169.473 30.0187C170.061 29.43 170.391 28.6316 170.391 27.799V20.4904H172.489V27.799ZM186.423 33.0462V25.5405L190.627 29.7334L194.809 25.5405V33.0462H196.928V20.4904L190.627 26.7683L184.35 20.4904V33.0462H186.423Z" fill="#F1F1F2"/>
<path d="M44.5232 20.0962V38.7677L23.7551 50.7559L2.97564 38.7677V14.7797L23.7551 2.77987L39.7164 11.9998L42.1256 10.6099L23.7551 0L0.566406 13.3897V40.1577L23.7551 53.5474L46.9441 40.1577V18.7063L44.5232 20.0962Z" fill="url(#paint0_linear_1048_29891)"/>
<path d="M17.9397 38.7792H14.4648V27.1269H26.0477C27.1436 27.1148 28.1905 26.6716 28.9623 25.8934C29.734 25.1153 30.1683 24.0646 30.1712 22.9685C30.1774 22.4267 30.0729 21.8892 29.8637 21.3893C29.6544 20.8892 29.3453 20.4374 28.9549 20.0614C28.5772 19.6732 28.1251 19.3654 27.6255 19.1565C27.1259 18.9473 26.5892 18.8415 26.0477 18.8451H14.4648V15.3008H26.0592C28.0891 15.3129 30.0324 16.1247 31.4679 17.56C32.9031 18.9954 33.7149 20.9388 33.727 22.9685C33.7395 24.5224 33.2657 26.0411 32.3719 27.3121C31.5493 28.5282 30.3901 29.4782 29.0361 30.0456C27.6952 30.4709 26.296 30.682 24.8893 30.6712H17.9397V38.7792Z" fill="url(#paint1_linear_1048_29891)"/>
<path d="M33.6462 38.4897H29.5921L26.4648 33.0342C27.7021 32.9585 28.9225 32.7089 30.0902 32.293L33.6462 38.4897Z" fill="url(#paint2_linear_1048_29891)"/>
<path d="M42.1016 16.2163L44.4992 17.5484L46.8969 16.2163V13.4017L44.4992 12.0117L42.1016 13.4017V16.2163Z" fill="url(#paint3_linear_1048_29891)"/>
</g>
<defs>
<linearGradient id="paint0_linear_1048_29891" x1="46.903" y1="13.4045" x2="-2.27" y2="33.0686" gradientUnits="userSpaceOnUse">
<stop stop-color="#C200FB"/>
<stop offset="0.489658" stop-color="#3772FF"/>
<stop offset="0.489758" stop-color="#3773FE"/>
<stop offset="1" stop-color="#5AC4BE"/>
</linearGradient>
<linearGradient id="paint1_linear_1048_29891" x1="46.902" y1="13.4044" x2="-2.27095" y2="33.0685" gradientUnits="userSpaceOnUse">
<stop stop-color="#C200FB"/>
<stop offset="0.489658" stop-color="#3772FF"/>
<stop offset="0.489758" stop-color="#3773FE"/>
<stop offset="1" stop-color="#5AC4BE"/>
</linearGradient>
<linearGradient id="paint2_linear_1048_29891" x1="46.9022" y1="13.4045" x2="-2.27078" y2="33.0686" gradientUnits="userSpaceOnUse">
<stop stop-color="#C200FB"/>
<stop offset="0.489658" stop-color="#3772FF"/>
<stop offset="0.489758" stop-color="#3773FE"/>
<stop offset="1" stop-color="#5AC4BE"/>
</linearGradient>
<linearGradient id="paint3_linear_1048_29891" x1="46.9022" y1="13.4048" x2="-2.27083" y2="33.069" gradientUnits="userSpaceOnUse">
<stop stop-color="#C200FB"/>
<stop offset="0.489658" stop-color="#3772FF"/>
<stop offset="0.489758" stop-color="#3773FE"/>
<stop offset="1" stop-color="#5AC4BE"/>
</linearGradient>
<clipPath id="clip0_1048_29891">
<rect width="196.364" height="54" fill="white" transform="translate(0.566406)"/>
</clipPath>
</defs>
</svg>
