<svg width="21" height="22" viewBox="0 0 21 22" fill="none" xmlns="http://www.w3.org/2000/svg">
<g id="fluent:send-24-filled">
<path id="Vector" d="M11.2119 11.2051L4.62135 12.3033C4.54558 12.3159 4.47448 12.3483 4.41519 12.3971C4.3559 12.446 4.31052 12.5096 4.2836 12.5815L2.01123 18.6698C1.79423 19.2298 2.3796 19.7635 2.91685 19.494L18.6669 11.619C18.7757 11.5645 18.8672 11.4807 18.9312 11.3771C18.9952 11.2735 19.0291 11.1541 19.0291 11.0323C19.0291 10.9106 18.9952 10.7912 18.9312 10.6876C18.8672 10.584 18.7757 10.5002 18.6669 10.4456L2.91685 2.57065C2.3796 2.30202 1.79423 2.83577 2.01123 3.3949L4.28448 9.48315C4.31139 9.5551 4.35677 9.61869 4.41606 9.66754C4.47535 9.71638 4.54646 9.74875 4.62223 9.7614L11.2127 10.8595C11.2538 10.8661 11.2913 10.8871 11.3183 10.9188C11.3453 10.9504 11.3601 10.9907 11.3601 11.0323C11.3601 11.074 11.3453 11.1142 11.3183 11.1459C11.2913 11.1776 11.2538 11.1986 11.2127 11.2051" fill="white"/>
</g>
</svg>
