<svg width="22" height="22" viewBox="0 0 22 22" fill="none" xmlns="http://www.w3.org/2000/svg">
<path id="Vector" d="M19.6681 4.835C18.6949 3.49189 17.4171 2.3987 15.9395 1.64514C14.4619 0.891575 12.8267 0.499128 11.1681 0.500001C5.74109 0.500001 1.27809 4.615 0.725094 9.896L0.621094 10.89L2.61109 11.099L2.71409 10.104C2.90035 8.34381 3.63139 6.68565 4.80523 5.36086C5.97907 4.03607 7.53715 3.11072 9.26212 2.71391C10.9871 2.3171 12.7929 2.46863 14.4276 3.14734C16.0623 3.82606 17.4444 4.99812 18.3811 6.5H14.6681V8.5H21.6681V1.5H19.6681V4.835ZM19.7251 10.901L19.6211 11.896C19.4346 13.6559 18.7035 15.3137 17.5297 16.6382C16.3559 17.9628 14.798 18.8879 13.0733 19.2847C11.3486 19.6815 9.54307 19.5301 7.90851 18.8516C6.27396 18.1732 4.8919 17.0015 3.95509 15.5H7.66809V13.5H0.668094V20.5H2.66809V17.165C3.6413 18.5081 4.91912 19.6013 6.39669 20.3549C7.87426 21.1084 9.50946 21.5009 11.1681 21.5C16.5941 21.5 21.0581 17.385 21.6101 12.104L21.7141 11.11L19.7251 10.901Z" fill="#98FFF9"/>
</svg>
