<svg width="210" height="48" viewBox="0 0 210 48" fill="none" xmlns="http://www.w3.org/2000/svg">
<g clip-path="url(#clip0_3301_29304)">
<path d="M75.972 39.9038C72.2707 39.9038 68.1903 38.651 63.731 36.1455V30.7264C67.928 33.5524 72.0229 34.9655 76.0158 34.9655C77.8519 34.9655 79.3091 34.6304 80.3876 33.9604C81.495 33.2611 82.0488 32.2997 82.0488 31.076C82.0488 29.9689 81.5388 29.0948 80.5187 28.4539C79.4987 27.7838 77.9248 27.1865 75.7971 26.6622C71.9791 25.6715 69.3853 24.8267 68.0154 24.1275C64.9843 22.5834 63.4688 20.2672 63.4688 17.1789C63.4688 14.5276 64.5908 12.4299 66.8351 10.8858C69.0792 9.3417 71.848 8.56963 75.1414 8.56963C79.1635 8.56963 82.792 9.73501 86.0272 12.0658V17.4848C82.3256 14.8044 78.6971 13.4642 75.1414 13.4642C73.2761 13.4642 71.7314 13.8138 70.5073 14.5131C69.2833 15.2123 68.6712 16.1883 68.6712 17.4411C68.6712 18.1985 69.021 18.8541 69.7205 19.4076C70.42 19.9321 71.1777 20.3399 71.9937 20.6313C72.839 20.8935 74.0922 21.2286 75.7535 21.6365C77.5022 22.0734 78.9448 22.4959 80.0815 22.9038C81.2473 23.3116 82.4277 23.8798 83.6226 24.6082C84.8176 25.3074 85.7065 26.196 86.2895 27.274C86.9014 28.352 87.2075 29.6339 87.2075 31.1198C87.2075 33.8875 86.1437 36.0434 84.0161 37.5876C81.9177 39.1317 79.2364 39.9038 75.972 39.9038Z" fill="white"/>
<path d="M97.7332 39.9038C96.7132 39.9038 95.7223 39.7872 94.7605 39.5542C93.8278 39.3211 92.9243 38.9569 92.0499 38.4617C91.1756 37.9372 90.4615 37.1942 89.9078 36.2328C89.354 35.2423 89.0771 34.0915 89.0771 32.7804C89.048 30.4205 89.864 28.6288 91.5253 27.4051C93.1866 26.1523 95.5619 25.5258 98.6513 25.5258H105.69V24.1275C105.69 22.8455 105.165 21.8841 104.116 21.2431C103.067 20.5731 101.712 20.238 100.05 20.238C96.8735 20.238 95.0228 21.2868 94.4982 23.3845L89.6892 23.4719C89.7475 21.1703 90.753 19.3494 92.7057 18.0092C94.6876 16.6691 97.1066 15.9989 99.9629 15.9989C102.848 15.9989 105.311 16.6982 107.351 18.0966C109.42 19.4951 110.455 21.3015 110.455 23.5157V39.5542H105.69V36.058C105.02 36.9903 103.999 37.8644 102.63 38.6801C101.289 39.4959 99.6568 39.9038 97.7332 39.9038ZM98.1267 35.7521C100.05 35.7521 101.784 35.0966 103.329 33.7856C104.903 32.4745 105.69 30.9303 105.69 29.1532H99.5257C97.6312 29.1532 96.2177 29.5173 95.2851 30.2457C94.3815 30.9449 93.9881 31.8335 94.1046 32.9115C94.1921 33.902 94.6293 34.6304 95.4162 35.0966C96.2031 35.5336 97.1066 35.7521 98.1267 35.7521Z" fill="white"/>
<path d="M114.301 39.5542L114.213 20.7187V15.6056C114.213 12.8378 115.35 10.7547 117.623 9.35627C119.897 7.95781 122.899 7.72474 126.629 8.65704L126.586 12.5028C124.167 11.8618 122.33 11.8618 121.077 12.5028C119.853 13.1146 119.241 14.1635 119.241 15.6493V16.3923H126.411V20.7187H119.241L119.285 39.5542H114.301Z" fill="white"/>
<path d="M139.628 39.9038C136.307 39.9038 133.494 38.7385 131.191 36.4076C128.889 34.0477 127.737 31.2217 127.737 27.9295C127.737 24.6082 128.903 21.7967 131.234 19.4951C133.566 17.1643 136.364 15.9989 139.628 15.9989C142.514 15.9989 145.049 16.9457 147.236 18.8396C149.45 20.7042 150.806 23.0495 151.301 25.8755C151.592 27.2449 151.607 28.5559 151.345 29.8087H132.721C133.012 31.5276 133.8 32.8969 135.083 33.9167C136.364 34.9072 137.879 35.4025 139.628 35.4025C142.31 35.4025 144.452 34.4556 146.055 32.5619H150.566C150.566 32.5619 150.044 35.6238 146.055 38.2431C144.015 39.3502 141.872 39.9038 139.628 39.9038ZM132.721 25.9192H146.405C146.114 24.3751 145.341 23.0786 144.088 22.0298C142.864 20.9809 141.363 20.4565 139.585 20.4565C137.807 20.4565 136.291 20.9954 135.038 22.0734C133.785 23.1223 133.012 24.4042 132.721 25.9192Z" fill="white"/>
<path d="M187.852 39.9038C186.832 39.9038 185.842 39.7872 184.879 39.5542C183.948 39.3211 183.044 38.9569 182.169 38.4617C181.295 37.9372 180.581 37.1942 180.028 36.2328C179.474 35.2423 179.197 34.0915 179.197 32.7804C179.167 30.4205 179.984 28.6288 181.645 27.4051C183.307 26.1523 185.682 25.5258 188.771 25.5258H195.81V24.1275C195.81 22.8455 195.285 21.8841 194.236 21.2431C193.186 20.5731 191.831 20.238 190.17 20.238C186.993 20.238 185.142 21.2868 184.618 23.3845L179.809 23.4719C179.867 21.1703 180.873 19.3494 182.825 18.0092C184.808 16.6691 187.227 15.9989 190.082 15.9989C192.968 15.9989 195.43 16.6982 197.47 18.0966C199.54 19.4951 200.575 21.3015 200.575 23.5157V39.5542H195.81V36.058C195.139 36.9903 194.119 37.8644 192.75 38.6801C191.408 39.4959 189.777 39.9038 187.852 39.9038ZM188.247 35.7521C190.17 35.7521 191.904 35.0966 193.448 33.7856C195.022 32.4745 195.81 30.9303 195.81 29.1532H189.646C187.751 29.1532 186.337 29.5173 185.405 30.2457C184.501 30.9449 184.107 31.8335 184.224 32.9115C184.311 33.902 184.749 34.6304 185.536 35.0966C186.323 35.5336 187.227 35.7521 188.247 35.7521Z" fill="white"/>
<path d="M204.225 39.5542V9.35627H209.253V39.5542H204.225Z" fill="white"/>
<path fill-rule="evenodd" clip-rule="evenodd" d="M154.266 9.35627H167.557C170.5 9.35627 172.948 10.3614 174.901 12.3717C176.854 14.3528 177.831 16.7564 177.831 19.5824C177.831 22.4377 176.854 24.8412 174.901 26.7933C172.978 28.7161 170.53 29.6921 167.557 29.7212L159.469 29.765V39.5542H154.266V9.35627ZM167.207 25.0451L159.469 25.0889V14.076L167.207 14.0324C168.926 14.0324 170.282 14.5422 171.274 15.562C172.292 16.5816 172.803 17.8635 172.803 19.4076C172.803 20.9809 172.292 22.3211 171.274 23.4282C170.253 24.5062 168.897 25.0451 167.207 25.0451Z" fill="white"/>
<path d="M20.611 0.791016C19.1975 0.791016 17.8419 1.35225 16.8424 2.35125L1.14199 18.0436C0.547322 18.638 0.249995 19.417 0.25 20.1959C0.250005 20.9749 0.547342 21.754 1.142 22.3484L11.431 32.6319V14.4263C11.431 13.0676 12.5243 11.9662 13.8837 11.9662C19.6268 11.9662 33.6063 11.9662 35.513 11.9662L46.694 0.791174L20.611 0.791016Z" fill="#B2B2B2"/>
<path d="M11.4314 36.0356H33.0522C34.4116 36.0356 35.5135 34.9341 35.5135 33.5754V15.3698L45.8025 25.6534C46.3972 26.2478 46.6945 27.0267 46.6945 27.8057C46.6945 28.5848 46.3972 29.3638 45.8025 29.9581L30.1021 45.6505C29.1026 46.6495 27.747 47.2107 26.3335 47.2107L0.250478 47.2106L11.4314 36.0356Z" fill="#B2B2B2"/>
</g>
<defs>
<clipPath id="clip0_3301_29304">
<rect width="209" height="47" fill="white" transform="translate(0.25 0.5)"/>
</clipPath>
</defs>
</svg>
