<svg width="130" height="29" viewBox="0 0 130 29" fill="none" xmlns="http://www.w3.org/2000/svg">
<g id="logo-light 1" clip-path="url(#clip0_4857_39789)">
<path id="Vector" d="M47.2041 24.1975C44.913 24.1975 42.3874 23.4294 39.6272 21.8932V18.5708C42.225 20.3035 44.7596 21.1698 47.2311 21.1698C48.3676 21.1698 49.2696 20.9644 49.9371 20.5535C50.6226 20.1248 50.9654 19.5354 50.9654 18.7851C50.9654 18.1063 50.6497 17.5705 50.0183 17.1775C49.3869 16.7667 48.4127 16.4005 47.0958 16.079C44.7325 15.4717 43.127 14.9536 42.2791 14.5249C40.4029 13.5782 39.4648 12.1582 39.4648 10.2647C39.4648 8.63924 40.1594 7.35312 41.5484 6.4064C42.9376 5.45969 44.6513 4.98633 46.6899 4.98633C49.1795 4.98633 51.4254 5.70083 53.4279 7.12983V10.4522C51.1368 8.80893 48.8908 7.98724 46.6899 7.98724C45.5353 7.98724 44.5792 8.20155 43.8215 8.63027C43.0639 9.05899 42.685 9.6574 42.685 10.4255C42.685 10.8899 42.9015 11.2918 43.3344 11.6312C43.7674 11.9528 44.2364 12.2028 44.7416 12.3814C45.2647 12.5422 46.0405 12.7476 47.0687 12.9977C48.1512 13.2656 49.0441 13.5246 49.7477 13.7747C50.4693 14.0248 51.1999 14.3731 51.9396 14.8196C52.6792 15.2483 53.2294 15.7931 53.5903 16.4541C53.9691 17.115 54.1585 17.9009 54.1585 18.8119C54.1585 20.5089 53.5 21.8307 52.1831 22.7774C50.8842 23.7241 49.2245 24.1975 47.2041 24.1975Z" fill="#F7F6FF"/>
<path id="Vector_2" d="M60.6748 24.1972C60.0433 24.1972 59.43 24.1258 58.8346 23.9829C58.2574 23.84 57.6982 23.6168 57.1569 23.3131C56.6157 22.9915 56.1738 22.536 55.831 21.9465C55.4882 21.3392 55.3169 20.6337 55.3169 19.8298C55.2988 18.383 55.8039 17.2844 56.8322 16.5342C57.8605 15.7662 59.3308 15.3821 61.243 15.3821H65.5997V14.5247C65.5997 13.7387 65.2749 13.1493 64.6255 12.7563C63.9761 12.3455 63.1373 12.1401 62.109 12.1401C60.1426 12.1401 58.997 12.7831 58.6723 14.0692L55.6957 14.1228C55.7318 12.7117 56.3541 11.5952 57.5628 10.7735C58.7896 9.95188 60.2869 9.54102 62.0548 9.54102C63.8408 9.54102 65.3652 9.96973 66.628 10.8272C67.9088 11.6845 68.5493 12.792 68.5493 14.1496V23.9829H65.5997V21.8394C65.1848 22.411 64.5534 22.9469 63.7055 23.4471C62.8756 23.9472 61.8654 24.1972 60.6748 24.1972ZM60.9183 21.6518C62.109 21.6518 63.1823 21.2499 64.1385 20.4461C65.1126 19.6423 65.5997 18.6956 65.5997 17.606H61.7843C60.6116 17.606 59.7366 17.8292 59.1594 18.2758C58.6002 18.7045 58.3566 19.2493 58.4288 19.9102C58.4829 20.5176 58.7535 20.9642 59.2406 21.2499C59.7277 21.5178 60.2869 21.6518 60.9183 21.6518Z" fill="#F7F6FF"/>
<path id="Vector_3" d="M70.9291 23.9834L70.875 12.4353V9.30047C70.875 7.6035 71.5786 6.32633 72.9857 5.46892C74.3929 4.61153 76.2509 4.46862 78.56 5.04023L78.533 7.39808C77.0357 7.0051 75.8992 7.0051 75.1234 7.39808C74.3658 7.77319 73.9869 8.41622 73.9869 9.32721V9.78274H78.4248V12.4353H73.9869L74.014 23.9834H70.9291Z" fill="#F7F6FF"/>
<path id="Vector_4" d="M86.6063 24.1972C84.5502 24.1972 82.8094 23.4828 81.3839 22.0537C79.9587 20.6068 79.2461 18.8742 79.2461 16.8557C79.2461 14.8194 79.9677 13.0957 81.4106 11.6845C82.8539 10.2556 84.5857 9.54102 86.6063 9.54102C88.3923 9.54102 89.9617 10.1216 91.3152 11.2826C92.6856 12.4258 93.5249 13.8637 93.8313 15.5965C94.0116 16.436 94.0213 17.2398 93.8588 18.0079H82.3307C82.511 19.0617 82.9986 19.9013 83.7926 20.5265C84.5857 21.1339 85.5244 21.4375 86.6063 21.4375C88.2662 21.4375 89.5922 20.857 90.5843 19.6959H93.3761C93.3761 19.6959 93.0535 21.5732 90.5843 23.1791C89.3213 23.8578 87.9953 24.1972 86.6063 24.1972ZM82.3307 15.6232H90.8009C90.6206 14.6765 90.142 13.8817 89.3666 13.2386C88.609 12.5955 87.68 12.274 86.5796 12.274C85.4792 12.274 84.5413 12.6045 83.7651 13.2654C82.9897 13.9084 82.511 14.6944 82.3307 15.6232Z" fill="#F7F6FF"/>
<path id="Vector_5" d="M116.456 24.1972C115.824 24.1972 115.211 24.1258 114.616 23.9829C114.039 23.84 113.479 23.6168 112.938 23.3131C112.397 22.9915 111.955 22.536 111.612 21.9465C111.27 21.3392 111.098 20.6337 111.098 19.8298C111.08 18.383 111.585 17.2844 112.613 16.5342C113.642 15.7662 115.112 15.3821 117.024 15.3821H121.381V14.5247C121.381 13.7387 121.056 13.1493 120.407 12.7563C119.757 12.3455 118.918 12.1401 117.89 12.1401C115.923 12.1401 114.778 12.7831 114.454 14.0692L111.477 14.1228C111.513 12.7117 112.136 11.5952 113.344 10.7735C114.571 9.95188 116.068 9.54102 117.836 9.54102C119.622 9.54102 121.147 9.96973 122.409 10.8272C123.69 11.6845 124.331 12.792 124.331 14.1496V23.9829H121.381V21.8394C120.966 22.411 120.334 22.9469 119.487 23.4471C118.656 23.9472 117.646 24.1972 116.456 24.1972ZM116.7 21.6518C117.89 21.6518 118.964 21.2499 119.919 20.4461C120.894 19.6423 121.381 18.6956 121.381 17.606H117.566C116.392 17.606 115.518 17.8292 114.94 18.2758C114.381 18.7045 114.137 19.2493 114.21 19.9102C114.264 20.5176 114.534 20.9642 115.022 21.2499C115.509 21.5178 116.068 21.6518 116.7 21.6518Z" fill="#F7F6FF"/>
<path id="Vector_6" d="M126.59 23.9833V5.46875H129.702V23.9833H126.59Z" fill="#F7F6FF"/>
<path id="Vector_7" fill-rule="evenodd" clip-rule="evenodd" d="M95.668 5.46875H103.894C105.716 5.46875 107.232 6.08501 108.44 7.31753C109.648 8.5322 110.253 10.0058 110.253 11.7385C110.253 13.489 109.648 14.9627 108.44 16.1595C107.249 17.3384 105.734 17.9368 103.894 17.9547L98.8876 17.9814V23.9833H95.668V5.46875ZM103.677 15.0878L98.8876 15.1145V8.3625L103.677 8.33569C104.741 8.33569 105.581 8.64826 106.194 9.27349C106.826 9.89863 107.141 10.6846 107.141 11.6314C107.141 12.5959 106.826 13.4175 106.194 14.0963C105.563 14.7573 104.724 15.0878 103.677 15.0878Z" fill="#F7F6FF"/>
<path id="Vector_8" d="M12.9389 0.216797C12.064 0.216797 11.2249 0.560893 10.6062 1.17339L0.888054 10.7945C0.519972 11.1589 0.335934 11.6364 0.335938 12.1141C0.335941 12.5917 0.519984 13.0693 0.888064 13.4337L7.25666 19.7386V8.57666C7.25666 7.74367 7.93341 7.06839 8.77485 7.06839C12.3297 7.06839 20.9826 7.06839 22.1628 7.06839L29.0835 0.216894L12.9389 0.216797Z" fill="#F7F6FF"/>
<path id="Vector_9" d="M7.25666 21.8245H20.6393C21.4807 21.8245 22.1628 21.1493 22.1628 20.3163V9.1543L28.5314 15.4592C28.8995 15.8236 29.0835 16.3012 29.0835 16.7789C29.0835 17.2564 28.8995 17.734 28.5314 18.0985L18.8133 27.7196C18.1946 28.332 17.3555 28.6761 16.4806 28.6761L0.335938 28.676L7.25666 21.8245Z" fill="#F7F6FF"/>
</g>
<defs>
<clipPath id="clip0_4857_39789">
<rect width="129.365" height="28.816" fill="white" transform="translate(0.335938 0.0390625)"/>
</clipPath>
</defs>
</svg>
