<svg width="105" height="15" viewBox="0 0 105 15" fill="none" xmlns="http://www.w3.org/2000/svg">
<g id="logo" clip-path="url(#clip0_4857_39772)">
<path id="Vector" fill-rule="evenodd" clip-rule="evenodd" d="M53.397 0.5H53.6979C54.4767 0.499875 55.2479 0.643123 55.9676 0.921564C56.6871 1.2 57.341 1.60818 57.8918 2.12279C58.4425 2.6374 58.8794 3.24835 59.1776 3.92077C59.4756 4.59317 59.629 5.31387 59.629 6.0417V8.65655C59.629 9.38426 59.4756 10.1048 59.1776 10.7771C58.8796 11.4494 58.4428 12.0602 57.8921 12.5748C57.3414 13.0893 56.6877 13.4974 55.9682 13.7758C55.2487 14.0542 54.4776 14.1975 53.6989 14.1973H50.9008C49.3282 14.1973 47.8202 13.6135 46.7083 12.5744C45.5963 11.5353 44.9717 10.1261 44.9717 8.65655V6.0417C44.9717 4.57293 45.5956 3.16425 46.7065 2.12514C47.8172 1.08604 49.324 0.501513 50.8956 0.5H51.1976C51.552 0.5 51.8392 0.768472 51.8392 1.09965V5.74873C51.8392 5.86225 51.8876 5.97113 51.9735 6.0514C52.0593 6.13167 52.1758 6.17677 52.2973 6.17677C52.4188 6.17677 52.5352 6.13167 52.6212 6.0514C52.7071 5.97113 52.7553 5.86225 52.7553 5.74873V1.09965C52.7553 0.768472 53.0426 0.5 53.397 0.5ZM38.1519 0.5H35.3528C33.7802 0.500252 32.2721 1.08422 31.1602 2.12346C30.0484 3.1627 29.4237 4.57211 29.4237 6.0417V8.65655C29.4237 10.1261 30.0484 11.5353 31.1603 12.5744C32.2722 13.6135 33.7803 14.1973 35.3528 14.1973H38.1519C39.3348 14.1992 40.4856 13.8692 41.4583 13.2574C41.7682 13.0625 41.7833 12.655 41.5191 12.4082L38.6496 9.72666C38.6044 9.68777 38.5679 9.64072 38.5427 9.58834C38.5173 9.53596 38.5036 9.47933 38.5023 9.42186C38.501 9.3644 38.5121 9.30728 38.5351 9.25394C38.558 9.20061 38.5922 9.15216 38.6357 9.11152C38.6793 9.07088 38.7311 9.03888 38.7881 9.01744C38.8452 8.996 38.9063 8.98559 38.9678 8.9868C39.0293 8.98802 39.0899 9.00085 39.146 9.02452C39.202 9.04819 39.2524 9.08221 39.294 9.12454L42.1635 11.8061C42.4276 12.0529 42.8636 12.0387 43.0722 11.7492C43.7268 10.8401 44.0801 9.76485 44.078 8.6594V6.0417C44.078 4.5726 43.4538 3.16363 42.3425 2.12447C41.2313 1.08531 39.724 0.501009 38.1519 0.5ZM68.6181 7.5126C68.6558 7.56035 68.7089 7.59557 68.7695 7.61308L75.117 9.44034C74.9146 10.7603 74.2099 11.9679 73.1318 12.8415C72.0538 13.7151 70.6749 14.1961 69.248 14.1964H66.4488C64.8763 14.1964 63.3682 13.6126 62.2563 12.5735C61.1443 11.5344 60.5197 10.1251 60.5197 8.6556V6.0417C60.5195 5.314 60.6728 4.5934 60.9708 3.92106C61.2686 3.24871 61.7054 2.63779 62.2559 2.12318C62.8065 1.60858 63.4601 1.20036 64.1796 0.921855C64.899 0.643347 65.6701 0.5 66.4488 0.5H69.248C70.6748 0.500461 72.0536 0.981583 73.1316 1.85514C74.2095 2.72868 74.9144 3.93612 75.117 5.256L68.7695 7.08231C68.7089 7.09982 68.6558 7.13504 68.6181 7.1828C68.5803 7.23056 68.56 7.28834 68.56 7.3477C68.56 7.40704 68.5803 7.46484 68.6181 7.5126ZM73.9729 6.92159H74.721C74.9728 6.92159 75.177 7.11216 75.177 7.34725C75.177 7.58233 74.9728 7.77291 74.721 7.77291H73.9729C73.721 7.77291 73.5169 7.58233 73.5169 7.34725C73.5169 7.11216 73.721 6.92159 73.9729 6.92159ZM22.606 0.5H19.8069C18.2342 0.500252 16.7262 1.08422 15.6142 2.12346C14.5023 3.16271 13.8777 4.57211 13.8777 6.0417V8.65655C13.8777 10.1261 14.5024 11.5353 15.6143 12.5744C16.7263 13.6135 18.2343 14.1973 19.8069 14.1973H22.606C24.1785 14.1973 25.6866 13.6135 26.7985 12.5744C27.9104 11.5353 28.5351 10.1261 28.5351 8.65655V6.0417C28.5351 4.57211 27.9104 3.16271 26.7986 2.12346C25.6867 1.08422 24.1785 0.500252 22.606 0.5ZM21.6624 9.17305C21.6624 9.28658 21.6141 9.39545 21.5283 9.47572C21.4424 9.556 21.3258 9.6011 21.2043 9.6011C21.0828 9.6011 20.9664 9.556 20.8805 9.47572C20.7946 9.39545 20.7463 9.28658 20.7463 9.17305V5.529C20.7463 5.41548 20.7946 5.3066 20.8805 5.22633C20.9664 5.14606 21.0828 5.10097 21.2043 5.10097C21.3258 5.10097 21.4424 5.14606 21.5283 5.22633C21.6141 5.3066 21.6624 5.41548 21.6624 5.529V9.17305ZM91.0955 1.06028H103.363C103.516 1.05975 103.667 1.09602 103.801 1.16561C103.935 1.2352 104.047 1.33579 104.128 1.45772C104.208 1.57965 104.254 1.71884 104.26 1.86194C104.267 2.00505 104.233 2.14727 104.164 2.27497L98.0303 13.7388C97.956 13.8779 97.8418 13.9948 97.7004 14.0765C97.559 14.1583 97.3961 14.2016 97.2298 14.2016C97.0635 14.2016 96.9005 14.1583 96.7591 14.0765C96.6177 13.9948 96.5034 13.8779 96.4292 13.7388L90.2955 2.27021C90.2273 2.14276 90.1952 2.00113 90.202 1.85878C90.2088 1.71644 90.2545 1.5781 90.3347 1.45688C90.4148 1.33566 90.5268 1.2356 90.6599 1.16619C90.7931 1.09678 90.943 1.06032 91.0955 1.06028ZM3.46232 1.62709L3.47065 1.62163C4.13208 1.18869 4.87828 0.881752 5.66665 0.718358C6.45503 0.554963 7.27013 0.538311 8.06538 0.669353C8.86065 0.800394 9.6205 1.07656 10.3015 1.48208C10.9826 1.8876 11.5714 2.41453 12.0345 3.03276C12.1352 3.16709 12.1746 3.33327 12.1441 3.49476C12.1137 3.65624 12.0158 3.79981 11.8721 3.89386L11.61 4.06531C11.3197 4.25526 11.2491 4.62917 11.4524 4.90045L11.5617 5.0463L11.5642 5.04469L12.1205 5.78724C12.5602 6.37466 12.8717 7.03725 13.0374 7.73718C13.2029 8.43711 13.2194 9.16067 13.0857 9.86653C12.952 10.5724 12.6709 11.2467 12.2584 11.8511C11.8458 12.4554 11.3098 12.9779 10.6812 13.3886C9.41229 14.2189 7.84244 14.5441 6.31696 14.2927C4.79149 14.0414 3.43534 13.234 2.54686 12.0482L2.37172 11.8145C2.27107 11.6802 2.23165 11.5139 2.26212 11.3525C2.29259 11.191 2.39045 11.0474 2.53419 10.9534L5.51938 9.00005C5.70763 8.87687 5.75337 8.63442 5.62156 8.4585C5.48975 8.28258 5.2303 8.23983 5.04205 8.363L2.87457 9.78128C2.7308 9.87444 2.55341 9.91059 2.38119 9.88182C2.20897 9.85306 2.05597 9.76173 1.95562 9.62781C1.02038 8.37964 0.654038 6.8354 0.937177 5.33482C1.22032 3.83423 2.12975 2.50021 3.4654 1.62623L3.46232 1.62709ZM79.9534 1.89376L79.9451 1.89918L79.9456 1.89996C78.6086 2.76849 77.6956 4.0978 77.4072 5.59545C77.119 7.0931 77.4792 8.6364 78.4087 9.88587C78.5087 10.0203 78.6617 10.1122 78.8342 10.1411C79.0067 10.1701 79.1844 10.1339 79.3283 10.0404L81.714 8.49072C81.8439 8.4063 82.0225 8.43601 82.1133 8.55717C82.2042 8.67862 82.1727 8.84602 82.0427 8.93106L78.9556 10.9511C78.8119 11.0451 78.714 11.1886 78.6835 11.3501C78.6531 11.5117 78.6925 11.6779 78.7932 11.8122L78.9683 12.0459C79.8568 13.2316 81.2129 14.0391 82.7384 14.2904C84.2639 14.5418 85.8338 14.2166 87.1026 13.3863L87.1044 13.3887C88.3732 12.5583 89.2372 11.291 89.5062 9.86545C89.7752 8.4399 89.4272 6.97287 88.5387 5.7871L87.9823 5.04455L87.9795 5.04636C87.8055 4.81417 87.8665 4.49408 88.1156 4.3323L88.3343 4.19027C88.4781 4.0968 88.5764 3.95375 88.6074 3.79257C88.6384 3.63141 88.5996 3.46531 88.4996 3.33085C88.0395 2.71204 87.4535 2.184 86.7749 1.77687C86.0963 1.36975 85.3387 1.09152 84.5451 0.958067C83.7514 0.824617 82.9374 0.838566 82.1497 0.999114C81.3618 1.15966 80.6155 1.46367 79.9534 1.89376Z" fill="white"/>
</g>
<defs>
<clipPath id="clip0_4857_39772">
<rect width="103.417" height="13.8919" fill="white" transform="translate(0.84375 0.5)"/>
</clipPath>
</defs>
</svg>
