<svg width="211" height="42" viewBox="0 0 211 42" fill="none" xmlns="http://www.w3.org/2000/svg">
<path d="M59.9087 24.2415C60.839 24.2415 61.4972 24.0853 61.8833 23.7728C62.287 23.443 62.4888 23.0525 62.4888 22.6012C62.4888 22.1846 62.3309 21.8548 62.0149 21.6118C61.7166 21.3514 61.2602 21.1257 60.6459 20.9348L59.3032 20.5182C58.566 20.2926 57.8991 20.0496 57.3023 19.7892C56.7055 19.5115 56.1965 19.1903 55.7753 18.8258C55.354 18.4439 55.0206 18.0013 54.7748 17.4979C54.5467 16.9772 54.4326 16.3523 54.4326 15.6233C54.4326 14.1652 54.9855 13.0109 56.0912 12.1604C57.2145 11.3099 58.7679 10.8846 60.7512 10.8846C61.5059 10.8846 62.1992 10.9367 62.8311 11.0408C63.4805 11.145 64.0334 11.3099 64.4897 11.5355C64.9461 11.7438 65.3059 12.0042 65.5692 12.3166C65.8324 12.6291 65.9641 12.9936 65.9641 13.4102C65.9641 13.8094 65.8588 14.1652 65.6482 14.4777C65.4551 14.7728 65.2269 15.0244 64.9636 15.2327C64.5599 14.955 64.0246 14.7207 63.3576 14.5297C62.6907 14.3388 61.9623 14.2433 61.1725 14.2433C60.33 14.2433 59.7069 14.3735 59.3032 14.6339C58.8995 14.8943 58.6977 15.2241 58.6977 15.6233C58.6977 15.9705 58.8293 16.2395 59.0926 16.4304C59.3558 16.604 59.7683 16.7863 60.33 16.9772L61.7517 17.4459C62.5766 17.7236 63.2962 18.0274 63.9105 18.3572C64.5424 18.6696 65.0689 19.0341 65.4902 19.4507C65.9114 19.8499 66.2274 20.3186 66.438 20.8567C66.6486 21.3774 66.7539 21.9763 66.7539 22.6532C66.7539 23.3823 66.6047 24.0505 66.3063 24.6581C66.0255 25.2482 65.5955 25.7603 65.0163 26.1942C64.4546 26.6282 63.7526 26.9667 62.9101 27.2097C62.0851 27.4527 61.1286 27.5742 60.0404 27.5742C59.233 27.5742 58.487 27.5048 57.8025 27.3659C57.118 27.2444 56.5212 27.0621 56.0122 26.8191C55.5208 26.5761 55.1259 26.281 54.8275 25.9339C54.5467 25.5694 54.4062 25.1614 54.4062 24.7101C54.4062 24.2415 54.5379 23.8509 54.8012 23.5385C55.082 23.226 55.3891 22.9744 55.7226 22.7834C56.1965 23.1653 56.7845 23.5038 57.4866 23.7989C58.2062 24.0939 59.0136 24.2415 59.9087 24.2415ZM76.0467 27.5221C75.5904 27.5221 75.1691 27.4787 74.783 27.3919C74.3968 27.3225 74.0458 27.227 73.7299 27.1055V31.7661C73.5543 31.8182 73.3086 31.8703 72.9927 31.9223C72.6768 31.9744 72.3257 32.0005 71.9396 32.0005C71.1498 32.0005 70.5793 31.8703 70.2283 31.6099C69.8773 31.3495 69.7017 30.8548 69.7017 30.1258V17.2376C69.7017 16.7863 69.7983 16.4218 69.9913 16.144C70.1844 15.8489 70.4565 15.5886 70.8075 15.3629C71.334 15.0331 72.0098 14.7641 72.8347 14.5558C73.6597 14.3301 74.5723 14.2173 75.5728 14.2173C76.5908 14.2173 77.521 14.3475 78.3635 14.6079C79.2236 14.8509 79.9607 15.2414 80.5751 15.7795C81.1894 16.3176 81.6633 17.0032 81.9967 17.8364C82.3478 18.6696 82.5233 19.659 82.5233 20.8046C82.5233 21.8982 82.3566 22.8702 82.0231 23.7207C81.7071 24.5539 81.2596 25.2569 80.6804 25.8297C80.1012 26.3852 79.4166 26.8104 78.6268 27.1055C77.837 27.3833 76.9769 27.5221 76.0467 27.5221ZM75.4412 24.3717C76.389 24.3717 77.1174 24.0766 77.6264 23.4864C78.1529 22.8962 78.4162 22.0023 78.4162 20.8046C78.4162 19.5722 78.1617 18.687 77.6527 18.1489C77.1612 17.6108 76.4679 17.3417 75.5728 17.3417C75.1691 17.3417 74.8181 17.3938 74.5197 17.4979C74.2213 17.5847 73.9493 17.6889 73.7035 17.8104V23.929C73.9493 24.0679 74.2125 24.1807 74.4934 24.2675C74.7742 24.337 75.0901 24.3717 75.4412 24.3717ZM98.4549 20.8567C98.4549 21.8808 98.2969 22.8095 97.981 23.6426C97.6651 24.4585 97.2087 25.1528 96.6119 25.7256C96.0327 26.2984 95.3307 26.741 94.5057 27.0535C93.6808 27.3659 92.7593 27.5221 91.7413 27.5221C90.7233 27.5221 89.7931 27.3746 88.9506 27.0795C88.1257 26.7671 87.4148 26.3244 86.8181 25.7516C86.2389 25.1788 85.7913 24.4845 85.4754 23.6687C85.1594 22.8355 85.0015 21.8982 85.0015 20.8567C85.0015 19.8499 85.1594 18.9386 85.4754 18.1228C85.8088 17.2896 86.2652 16.5867 86.8444 16.0138C87.4412 15.441 88.152 14.9984 88.9769 14.686C89.8194 14.3735 90.7409 14.2173 91.7413 14.2173C92.7418 14.2173 93.6545 14.3735 94.4794 14.686C95.3043 14.9984 96.0064 15.4497 96.5856 16.0399C97.1824 16.6127 97.6387 17.307 97.9547 18.1228C98.2881 18.9386 98.4549 19.8499 98.4549 20.8567ZM91.7413 17.3417C90.9164 17.3417 90.2758 17.6455 89.8194 18.253C89.3631 18.8605 89.1349 19.7284 89.1349 20.8567C89.1349 22.0197 89.3543 22.9049 89.7931 23.5125C90.2494 24.1026 90.8989 24.3977 91.7413 24.3977C92.5838 24.3977 93.2245 24.0939 93.6633 23.4864C94.1196 22.8789 94.3478 22.0023 94.3478 20.8567C94.3478 19.7458 94.1196 18.8866 93.6633 18.279C93.2069 17.6542 92.5663 17.3417 91.7413 17.3417ZM114.385 20.8567C114.385 21.8808 114.227 22.8095 113.911 23.6426C113.595 24.4585 113.139 25.1528 112.542 25.7256C111.963 26.2984 111.261 26.741 110.436 27.0535C109.611 27.3659 108.69 27.5221 107.672 27.5221C106.654 27.5221 105.723 27.3746 104.881 27.0795C104.056 26.7671 103.345 26.3244 102.748 25.7516C102.169 25.1788 101.722 24.4845 101.406 23.6687C101.09 22.8355 100.932 21.8982 100.932 20.8567C100.932 19.8499 101.09 18.9386 101.406 18.1228C101.739 17.2896 102.195 16.5867 102.775 16.0138C103.371 15.441 104.082 14.9984 104.907 14.686C105.75 14.3735 106.671 14.2173 107.672 14.2173C108.672 14.2173 109.585 14.3735 110.41 14.686C111.235 14.9984 111.937 15.4497 112.516 16.0399C113.113 16.6127 113.569 17.307 113.885 18.1228C114.218 18.9386 114.385 19.8499 114.385 20.8567ZM107.672 17.3417C106.847 17.3417 106.206 17.6455 105.75 18.253C105.293 18.8605 105.065 19.7284 105.065 20.8567C105.065 22.0197 105.285 22.9049 105.723 23.5125C106.18 24.1026 106.829 24.3977 107.672 24.3977C108.514 24.3977 109.155 24.0939 109.594 23.4864C110.05 22.8789 110.278 22.0023 110.278 20.8567C110.278 19.7458 110.05 18.8866 109.594 18.279C109.137 17.6542 108.497 17.3417 107.672 17.3417ZM124.945 20.7005L129.499 25.0747C129.412 25.8037 129.183 26.3678 128.815 26.7671C128.464 27.1489 127.955 27.3399 127.288 27.3399C126.779 27.3399 126.331 27.2184 125.945 26.9753C125.559 26.7323 125.129 26.3331 124.655 25.7777L121.522 22.1065V27.1055C121.346 27.1576 121.101 27.201 120.785 27.2357C120.469 27.2878 120.118 27.3138 119.732 27.3138C118.942 27.3138 118.371 27.1923 118.02 26.9493C117.669 26.6889 117.494 26.1942 117.494 25.4652V10.1816C117.687 10.1295 117.941 10.0774 118.257 10.0254C118.573 9.9733 118.924 9.94727 119.31 9.94727C120.1 9.94727 120.662 10.0774 120.995 10.3378C121.346 10.5982 121.522 11.0929 121.522 11.8219V19.1903L126.287 14.3996C127.112 14.3996 127.77 14.5818 128.262 14.9463C128.753 15.3109 128.999 15.7622 128.999 16.3003C128.999 16.7689 128.832 17.1855 128.499 17.55C128.183 17.8972 127.683 18.3658 126.998 18.956L124.945 20.7005ZM134.038 24.0072C133.634 23.1393 133.169 22.011 132.643 20.6224C132.134 19.2164 131.598 17.4025 131.037 15.1807C131.247 14.955 131.537 14.7641 131.905 14.6079C132.291 14.4343 132.704 14.3475 133.143 14.3475C133.704 14.3475 134.161 14.469 134.512 14.712C134.863 14.9377 135.135 15.3629 135.328 15.9878C135.714 17.2549 136.1 18.5047 136.486 19.7371C136.89 20.9695 137.294 22.2106 137.697 23.4604H137.803C138.013 22.8702 138.233 22.228 138.461 21.5337C138.689 20.822 138.908 20.0929 139.119 19.3466C139.33 18.5828 139.523 17.8191 139.698 17.0553C139.891 16.2742 140.058 15.5191 140.199 14.7901C140.743 14.495 141.313 14.3475 141.91 14.3475C142.471 14.3475 142.954 14.469 143.358 14.712C143.762 14.955 143.963 15.3542 143.963 15.9097C143.963 16.5346 143.849 17.333 143.621 18.3051C143.411 19.2598 143.121 20.2665 142.752 21.3254C142.401 22.3668 141.998 23.4083 141.541 24.4498C141.102 25.4739 140.646 26.3765 140.172 27.1576C139.189 28.8066 138.303 30.0303 137.513 30.8288C136.723 31.6446 135.925 32.0525 135.117 32.0525C134.468 32.0525 133.933 31.8529 133.511 31.4537C133.09 31.0718 132.836 30.5771 132.748 29.9696C133.309 29.4836 133.889 28.9108 134.485 28.2512C135.1 27.6089 135.618 26.958 136.039 26.2984C135.74 26.2116 135.424 26.0207 135.091 25.7256C134.775 25.4131 134.424 24.8403 134.038 24.0072ZM151.942 24.2415C152.873 24.2415 153.531 24.0853 153.917 23.7728C154.321 23.443 154.523 23.0525 154.523 22.6012C154.523 22.1846 154.365 21.8548 154.049 21.6118C153.75 21.3514 153.294 21.1257 152.68 20.9348L151.337 20.5182C150.6 20.2926 149.933 20.0496 149.336 19.7892C148.739 19.5115 148.23 19.1903 147.809 18.8258C147.388 18.4439 147.054 18.0013 146.809 17.4979C146.58 16.9772 146.466 16.3523 146.466 15.6233C146.466 14.1652 147.019 13.0109 148.125 12.1604C149.248 11.3099 150.802 10.8846 152.785 10.8846C153.54 10.8846 154.233 10.9367 154.865 11.0408C155.514 11.145 156.067 11.3099 156.523 11.5355C156.98 11.7438 157.34 12.0042 157.603 12.3166C157.866 12.6291 157.998 12.9936 157.998 13.4102C157.998 13.8094 157.892 14.1652 157.682 14.4777C157.489 14.7728 157.261 15.0244 156.997 15.2327C156.594 14.955 156.058 14.7207 155.391 14.5297C154.724 14.3388 153.996 14.2433 153.206 14.2433C152.364 14.2433 151.741 14.3735 151.337 14.6339C150.933 14.8943 150.731 15.2241 150.731 15.6233C150.731 15.9705 150.863 16.2395 151.126 16.4304C151.39 16.604 151.802 16.7863 152.364 16.9772L153.785 17.4459C154.61 17.7236 155.33 18.0274 155.944 18.3572C156.576 18.6696 157.103 19.0341 157.524 19.4507C157.945 19.8499 158.261 20.3186 158.472 20.8567C158.682 21.3774 158.788 21.9763 158.788 22.6532C158.788 23.3823 158.638 24.0505 158.34 24.6581C158.059 25.2482 157.629 25.7603 157.05 26.1942C156.488 26.6282 155.786 26.9667 154.944 27.2097C154.119 27.4527 153.162 27.5742 152.074 27.5742C151.267 27.5742 150.521 27.5048 149.836 27.3659C149.152 27.2444 148.555 27.0621 148.046 26.8191C147.554 26.5761 147.16 26.281 146.861 25.9339C146.58 25.5694 146.44 25.1614 146.44 24.7101C146.44 24.2415 146.572 23.8509 146.835 23.5385C147.116 23.226 147.423 22.9744 147.756 22.7834C148.23 23.1653 148.818 23.5038 149.52 23.7989C150.24 24.0939 151.047 24.2415 151.942 24.2415ZM170.454 19.685C170.296 20.3273 170.121 20.9869 169.928 21.6638C169.734 22.3408 169.541 23.0004 169.348 23.6426C169.155 24.2849 168.971 24.875 168.795 25.4131C168.62 25.9512 168.48 26.3939 168.374 26.741C167.9 27.1576 167.146 27.3659 166.11 27.3659C165.478 27.3659 164.925 27.2791 164.451 27.1055C163.978 26.932 163.662 26.6716 163.504 26.3244C163.311 25.9078 163.082 25.2482 162.819 24.3456C162.556 23.443 162.293 22.4536 162.029 21.3774C161.784 20.3012 161.547 19.2077 161.318 18.0968C161.09 16.9859 160.906 16.0138 160.766 15.1807C160.976 14.955 161.266 14.7641 161.634 14.6079C162.02 14.4343 162.433 14.3475 162.872 14.3475C163.433 14.3475 163.89 14.4777 164.241 14.738C164.592 14.9811 164.811 15.4063 164.899 16.0138C165.075 17.2289 165.224 18.2704 165.347 19.1383C165.487 20.0062 165.61 20.7439 165.715 21.3514C165.82 21.9589 165.908 22.4536 165.978 22.8355C166.066 23.2 166.128 23.4864 166.163 23.6947H166.268C166.338 23.417 166.444 23.0004 166.584 22.4449C166.724 21.8895 166.891 21.2646 167.084 20.5703C167.277 19.8586 167.479 19.1035 167.69 18.3051C167.918 17.4893 168.137 16.6734 168.348 15.8576C168.646 15.684 168.953 15.5539 169.269 15.4671C169.603 15.3629 169.998 15.3109 170.454 15.3109C171.016 15.3109 171.49 15.4063 171.876 15.5973C172.28 15.7708 172.534 16.0399 172.639 16.4044C172.867 17.1855 173.087 17.9579 173.298 18.7217C173.508 19.4681 173.701 20.1624 173.877 20.8046C174.052 21.4469 174.201 22.0197 174.324 22.5231C174.465 23.0264 174.57 23.417 174.64 23.6947H174.772C175.018 22.3234 175.255 20.8914 175.483 19.3986C175.711 17.8885 175.921 16.361 176.115 14.8162C176.395 14.6599 176.694 14.5471 177.01 14.4777C177.326 14.3909 177.642 14.3475 177.958 14.3475C178.502 14.3475 178.949 14.469 179.3 14.712C179.669 14.9377 179.853 15.3369 179.853 15.9097C179.853 16.1701 179.8 16.578 179.695 17.1334C179.607 17.6889 179.485 18.3138 179.327 19.0081C179.186 19.7024 179.019 20.4401 178.826 21.2212C178.633 21.985 178.44 22.7227 178.247 23.4343C178.054 24.146 177.861 24.7969 177.668 25.3871C177.492 25.9773 177.343 26.4286 177.22 26.741C177.027 26.932 176.703 27.0795 176.246 27.1836C175.79 27.3051 175.298 27.3659 174.772 27.3659C173.438 27.3659 172.657 27.0448 172.429 26.4025C172.306 26.0554 172.157 25.6301 171.981 25.1267C171.806 24.6234 171.621 24.0766 171.428 23.4864C171.253 22.8789 171.077 22.254 170.902 21.6118C170.726 20.9522 170.577 20.3099 170.454 19.685ZM187.945 24.606C188.331 24.606 188.708 24.5713 189.077 24.5019C189.463 24.4151 189.753 24.3109 189.946 24.1894V21.794L187.787 21.9763C187.225 22.0284 186.769 22.1585 186.418 22.3668C186.084 22.5578 185.918 22.8529 185.918 23.2521C185.918 23.6687 186.075 23.9985 186.391 24.2415C186.707 24.4845 187.225 24.606 187.945 24.606ZM187.787 14.2173C188.699 14.2173 189.524 14.3128 190.262 14.5037C191.016 14.6773 191.657 14.955 192.183 15.3369C192.71 15.7188 193.114 16.2048 193.395 16.795C193.693 17.3851 193.842 18.0794 193.842 18.8779V24.7622C193.842 25.2135 193.719 25.578 193.474 25.8558C193.245 26.1161 192.965 26.3418 192.631 26.5327C192.087 26.8625 191.42 27.1142 190.63 27.2878C189.84 27.4614 188.945 27.5482 187.945 27.5482C186.137 27.5482 184.698 27.2097 183.627 26.5327C182.556 25.8384 182.021 24.7883 182.021 23.3823C182.021 22.1846 182.381 21.2733 183.1 20.6484C183.82 20.0235 184.926 19.633 186.418 19.4767L189.919 19.1122V18.8258C189.919 18.2704 189.691 17.8625 189.235 17.6021C188.778 17.3417 188.12 17.2115 187.26 17.2115C186.593 17.2115 185.935 17.2896 185.286 17.4459C184.654 17.6021 184.083 17.7843 183.574 17.9926C183.364 17.8538 183.179 17.6455 183.021 17.3678C182.881 17.0727 182.811 16.7602 182.811 16.4304C182.811 15.6667 183.215 15.1199 184.022 14.7901C184.531 14.5992 185.119 14.4603 185.786 14.3735C186.47 14.2694 187.137 14.2173 187.787 14.2173ZM203.772 27.5221C203.315 27.5221 202.894 27.4787 202.508 27.3919C202.122 27.3225 201.771 27.227 201.455 27.1055V31.7661C201.279 31.8182 201.034 31.8703 200.718 31.9223C200.402 31.9744 200.051 32.0005 199.665 32.0005C198.875 32.0005 198.304 31.8703 197.953 31.6099C197.602 31.3495 197.427 30.8548 197.427 30.1258V17.2376C197.427 16.7863 197.523 16.4218 197.716 16.144C197.909 15.8489 198.182 15.5886 198.533 15.3629C199.059 15.0331 199.735 14.7641 200.56 14.5558C201.385 14.3301 202.297 14.2173 203.298 14.2173C204.316 14.2173 205.246 14.3475 206.089 14.6079C206.949 14.8509 207.686 15.2414 208.3 15.7795C208.914 16.3176 209.388 17.0032 209.722 17.8364C210.073 18.6696 210.248 19.659 210.248 20.8046C210.248 21.8982 210.082 22.8702 209.748 23.7207C209.432 24.5539 208.985 25.2569 208.405 25.8297C207.826 26.3852 207.142 26.8104 206.352 27.1055C205.562 27.3833 204.702 27.5221 203.772 27.5221ZM203.166 24.3717C204.114 24.3717 204.842 24.0766 205.351 23.4864C205.878 22.8962 206.141 22.0023 206.141 20.8046C206.141 19.5722 205.887 18.687 205.378 18.1489C204.886 17.6108 204.193 17.3417 203.298 17.3417C202.894 17.3417 202.543 17.3938 202.245 17.4979C201.946 17.5847 201.674 17.6889 201.429 17.8104V23.929C201.674 24.0679 201.938 24.1807 202.218 24.2675C202.499 24.337 202.815 24.3717 203.166 24.3717Z" fill="white"/>
<g clip-path="url(#clip0_1048_29899)">
<path d="M0.25 21C0.25 26.5695 2.46249 31.911 6.40076 35.8492C10.339 39.7875 15.6805 42 21.25 42C26.8195 42 32.161 39.7875 36.0992 35.8492C40.0375 31.911 42.25 26.5695 42.25 21C42.25 15.4305 40.0375 10.089 36.0992 6.15076C32.161 2.21249 26.8195 0 21.25 0C15.6805 0 10.339 2.21249 6.40076 6.15076C2.46249 10.089 0.25 15.4305 0.25 21Z" fill="#121122"/>
<path fill-rule="evenodd" clip-rule="evenodd" d="M6.58468 15.679C6.32809 17.3308 6.63062 19.0304 6.94431 20.6639C7.06506 20.925 7.33018 21.1003 7.65699 21.2131C6.9751 22.6403 6.62041 24.2016 6.6188 25.7833C6.6188 32.6188 13.2358 38.1647 21.3976 38.1647C29.56 38.1647 36.1822 32.6319 36.1822 25.7833C36.1805 24.1854 35.8187 22.6086 35.1237 21.1698C35.3967 21.0569 35.6146 20.8935 35.7209 20.6639C36.0352 19.0304 36.3358 17.3301 36.0792 15.679C35.839 13.4622 35.0784 12.7849 32.794 13.3532C31.6324 13.6236 30.1001 14.3094 28.9221 15.1159C26.7178 14.0219 24.1446 13.3946 21.3982 13.3946C18.619 13.3946 16.0196 14.0377 13.7988 15.1553C12.6143 14.3317 11.0511 13.6275 9.87118 13.3532C7.58546 12.7856 6.82618 13.4622 6.58468 15.679ZM15.1901 25.4519C13.4576 24.688 10.4966 24.8809 10.4966 24.8809C10.4966 24.8809 10.6357 27.6687 12.3354 28.615C14.3514 29.7359 18.0999 29.1807 18.0999 29.1807C18.0999 29.1807 17.781 26.5885 15.1901 25.4466V25.4519ZM24.816 29.1853C24.816 29.1853 28.5645 29.7404 30.5805 28.6196C32.2801 27.6733 32.4193 24.8855 32.4193 24.8855C32.4193 24.8855 29.4583 24.6926 27.7258 25.4564C25.1349 26.5885 24.816 29.1748 24.816 29.1748V29.1853ZM20.658 31.1501C20.658 31.3555 21.0399 31.5222 21.5098 31.5222C21.9803 31.5222 22.3616 31.3555 22.3616 31.1501C22.3616 30.9447 21.9803 30.7786 21.5098 30.7786C21.0399 30.7786 20.658 30.9388 20.658 31.1501Z" fill="#F2F4F8"/>
<path fill-rule="evenodd" clip-rule="evenodd" d="M38.2434 29.4336C36.8601 28.8995 35.3909 28.6226 33.9082 28.6166H33.9108C33.5348 28.6166 33.5348 28.0332 33.9108 28.0332C35.4462 28.0383 36.9678 28.3234 38.4009 28.8745C38.4734 28.8967 38.5347 28.9457 38.5723 29.0116C38.6099 29.0774 38.6209 29.1552 38.603 29.2289C38.5821 29.3035 38.5326 29.3669 38.4653 29.4053C38.3979 29.4436 38.3182 29.4538 38.2434 29.4336ZM4.49701 28.8876C5.9308 28.3366 7.45302 28.0515 8.98904 28.0463V28.0496C9.36442 28.0496 9.36311 28.633 8.98904 28.633C7.50592 28.6383 6.03592 28.9152 4.65254 29.4494C4.57807 29.4692 4.4988 29.459 4.43179 29.4209C4.36477 29.3829 4.31538 29.3201 4.29423 29.246C4.27543 29.1714 4.28608 29.0925 4.32397 29.0257C4.36187 28.9588 4.42408 28.9091 4.49767 28.887L4.49701 28.8876ZM7.47114 30.5591C8.1883 30.3308 8.93425 30.2056 9.68664 30.187C10.0607 30.189 10.0594 30.7704 9.68467 30.7704C8.99836 30.7883 8.31796 30.9025 7.66342 31.1097C7.05376 31.2882 6.35748 31.5402 5.91254 31.9523C5.63692 32.2083 5.22479 31.7961 5.50108 31.5402C6.04117 31.0415 6.78404 30.7658 7.46983 30.5591H7.47114ZM10.3527 31.6439C9.76801 31.8946 9.20495 32.1951 8.67142 32.541C8.13242 32.8734 7.65816 33.3007 7.27164 33.8023C7.23279 33.869 7.22189 33.9484 7.24132 34.0231C7.26074 34.0979 7.3089 34.1619 7.37532 34.2013C7.44261 34.2387 7.52169 34.2488 7.59621 34.2295C7.67073 34.2102 7.73497 34.163 7.77564 34.0976C8.10376 33.6448 8.57364 33.2937 9.03892 32.9938C9.54994 32.6696 10.0861 32.3867 10.6421 32.1479C10.7085 32.1085 10.7567 32.0446 10.7764 31.9699C10.796 31.8952 10.7855 31.8159 10.7471 31.7489C10.7067 31.6837 10.6428 31.6364 10.5686 31.6169C10.4943 31.5973 10.4154 31.607 10.3481 31.6439H10.3527ZM33.2099 30.7586C33.8964 30.7757 34.5775 30.8899 35.2318 31.0972C35.5705 31.193 35.9005 31.3151 36.2201 31.4621C36.4958 31.5829 36.7517 31.7443 36.9794 31.9405C37.255 32.1951 37.6685 31.7843 37.3929 31.5271C36.856 31.029 36.1171 30.7527 35.4267 30.546C34.7092 30.3176 33.9627 30.1928 33.2099 30.1752C32.8345 30.1752 32.8332 30.7593 33.2099 30.7593V30.7586ZM33.8537 32.9767C33.3492 32.6646 32.8216 32.3915 32.2754 32.1597V32.1538C32.2093 32.1142 32.1613 32.0502 32.1417 31.9757C32.1221 31.9011 32.1324 31.8219 32.1704 31.7548C32.2114 31.6898 32.2757 31.6429 32.35 31.6236C32.4244 31.6044 32.5033 31.6142 32.5707 31.6511C33.7074 32.1472 34.903 32.7838 35.6459 33.8095C35.6844 33.8763 35.6951 33.9556 35.6757 34.0302C35.6563 34.1049 35.6084 34.1689 35.5422 34.2085C35.475 34.2457 35.396 34.2556 35.3217 34.236C35.2474 34.2165 35.1834 34.169 35.1432 34.1035C34.8072 33.6402 34.3321 33.2812 33.8537 32.9767Z" fill="#F2F4F8"/>
<path d="M2.28095 22.1508C2.55002 21.7308 4.91908 20.4669 7.84924 19.7168C8.48167 17.9206 9.262 16.1799 10.1822 14.5127C10.171 14.5127 12.5263 10.2845 12.5158 10.2825C11.8403 9.97496 11.1916 9.61144 10.5766 9.1958C10.4726 9.11585 10.3784 9.024 10.2957 8.92214C10.2334 8.81909 10.2011 8.70066 10.2025 8.58023C10.2025 8.4818 10.341 8.30723 10.4027 8.2298C10.5602 8.04473 10.7348 7.87345 10.9231 7.71923C11.3722 7.35141 11.8441 7.01233 12.336 6.70402C12.5696 6.5498 12.8125 6.39952 13.0513 6.24792C14.7313 5.17823 15.652 4.37301 17.1903 3.48905C18.6603 2.64642 19.375 2.12733 21.0792 2.21461C23.2212 2.21461 28.546 8.99761 30.9466 12.4928C32.3864 14.5928 34.3184 18.3741 35.0298 19.7969C35.2004 19.8395 35.3546 19.8802 35.497 19.9222C37.681 20.5785 39.823 21.5392 40.3467 22.1508C40.8133 22.6942 38.7737 22.937 36.7636 23.2868C34.7535 23.6372 27.9344 23.8111 21.3811 23.8551C14.8278 23.8997 7.17986 23.6799 5.51495 23.418C3.85005 23.1555 1.94561 22.6745 2.28095 22.1508Z" fill="#6665DD"/>
<path d="M33.2019 16.2924C33.2019 16.2924 28.8851 15.2109 21.2791 15.2109C13.1127 15.2109 9.17984 16.4709 9.17984 16.4709C9.17984 16.4709 8.71325 17.3575 8.51047 17.8707C8.30703 18.3839 7.84766 19.7174 7.84766 19.7174C7.84766 19.7174 13.7893 18.6543 21.394 18.6543C25.9726 18.6727 30.5427 19.0592 35.0604 19.8093C35.0604 19.8093 34.3707 18.1949 33.9579 17.5072C33.7126 17.0981 33.4606 16.6931 33.2019 16.2924Z" fill="#FF99A5"/>
<path d="M7.51103 7.16656C8.00584 7.09438 8.67784 8.609 8.67784 8.609C8.67784 8.609 10.2338 8.19031 10.4766 8.609C10.7194 9.02769 9.38266 10.0331 9.38266 10.0331C9.38266 10.0331 10.1898 11.4532 9.93391 11.7485C9.67862 12.0438 8.23881 11.148 8.23881 11.148C8.23881 11.148 7.14091 12.3844 6.78325 12.198C6.42494 12.011 6.83116 10.3999 6.83116 10.3999C6.83116 10.3999 5.27781 9.73972 5.38412 9.34728C5.49044 8.9555 7.10875 8.83672 7.10875 8.83672C7.10875 8.83672 7.01753 7.23875 7.51103 7.16656Z" fill="#FFE600"/>
</g>
<defs>
<clipPath id="clip0_1048_29899">
<rect width="42" height="42" fill="white" transform="translate(0.25)"/>
</clipPath>
</defs>
</svg>
