<svg width="236" height="48" viewBox="0 0 236 48" fill="none" xmlns="http://www.w3.org/2000/svg">
<path d="M67.013 27.6277C68.054 27.6277 68.7905 27.4529 69.2226 27.1033C69.6744 26.7342 69.9003 26.2972 69.9003 25.7921C69.9003 25.326 69.7235 24.9569 69.37 24.685C69.0361 24.3936 68.5254 24.1411 67.8379 23.9274L66.3354 23.4612C65.5104 23.2087 64.7641 22.9368 64.0963 22.6454C63.4285 22.3346 62.8589 21.9753 62.3875 21.5674C61.9161 21.14 61.5429 20.6447 61.2679 20.0814C61.0126 19.4987 60.8849 18.7994 60.8849 17.9836C60.8849 16.3519 61.5036 15.0602 62.741 14.1084C63.9981 13.1566 65.7363 12.6807 67.9558 12.6807C68.8004 12.6807 69.5762 12.739 70.2833 12.8556C71.01 12.9721 71.6287 13.1566 72.1394 13.4092C72.65 13.6423 73.0527 13.9336 73.3473 14.2833C73.6419 14.6329 73.7892 15.0408 73.7892 15.507C73.7892 15.9537 73.6714 16.3519 73.4357 16.7016C73.2196 17.0318 72.9643 17.3134 72.6697 17.5465C72.2179 17.2357 71.6189 16.9735 70.8725 16.7599C70.1261 16.5462 69.311 16.4393 68.4272 16.4393C67.4844 16.4393 66.7871 16.585 66.3354 16.8764C65.8836 17.1678 65.6578 17.5368 65.6578 17.9836C65.6578 18.3721 65.8051 18.6731 66.0997 18.8868C66.3943 19.0811 66.8559 19.285 67.4844 19.4987L69.0753 20.0231C69.9985 20.3339 70.8038 20.6738 71.4912 21.0429C72.1983 21.3925 72.7875 21.8005 73.2589 22.2666C73.7303 22.7134 74.0839 23.2379 74.3196 23.84C74.5552 24.4227 74.6731 25.0929 74.6731 25.8504C74.6731 26.6662 74.5061 27.4141 74.1722 28.0939C73.858 28.7544 73.3768 29.3274 72.7286 29.813C72.1001 30.2986 71.3144 30.6774 70.3717 30.9493C69.4485 31.2212 68.3781 31.3572 67.1603 31.3572C66.2568 31.3572 65.4221 31.2795 64.6561 31.1241C63.89 30.9881 63.2222 30.7842 62.6526 30.5123C62.1027 30.2403 61.6608 29.9101 61.3269 29.5216C61.0126 29.1137 60.8555 28.6572 60.8555 28.1522C60.8555 27.6277 61.0028 27.1907 61.2974 26.8411C61.6117 26.4914 61.9554 26.2098 62.3286 25.9961C62.8589 26.4234 63.5169 26.8022 64.3025 27.1324C65.1078 27.4626 66.0113 27.6277 67.013 27.6277ZM85.0722 31.2989C84.5615 31.2989 84.0901 31.2504 83.658 31.1533C83.2259 31.0756 82.8331 30.9687 82.4795 30.8328V36.0482C82.2831 36.1064 82.0081 36.1647 81.6546 36.223C81.301 36.2813 80.9082 36.3104 80.4761 36.3104C79.5922 36.3104 78.9539 36.1647 78.5611 35.8734C78.1683 35.582 77.9718 35.0284 77.9718 34.2126V19.79C77.9718 19.285 78.0799 18.8771 78.2959 18.5663C78.512 18.2361 78.8164 17.9447 79.2092 17.6922C79.7985 17.3232 80.5547 17.0221 81.4778 16.789C82.4009 16.5365 83.4223 16.4102 84.5418 16.4102C85.681 16.4102 86.722 16.5559 87.6648 16.8473C88.6272 17.1192 89.4522 17.5562 90.1396 18.1584C90.827 18.7606 91.3574 19.5278 91.7305 20.4602C92.1234 21.3925 92.3198 22.4997 92.3198 23.7817C92.3198 25.0055 92.1332 26.0932 91.76 27.045C91.4065 27.9774 90.9056 28.7641 90.2575 29.4051C89.6093 30.0266 88.8433 30.5025 87.9594 30.8328C87.0756 31.1435 86.1131 31.2989 85.0722 31.2989ZM84.3945 27.7734C85.4552 27.7734 86.2703 27.4432 86.8399 26.7828C87.4291 26.1224 87.7237 25.122 87.7237 23.7817C87.7237 22.4026 87.4389 21.412 86.8693 20.8098C86.3194 20.2077 85.5435 19.9066 84.5418 19.9066C84.0901 19.9066 83.6973 19.9649 83.3634 20.0814C83.0295 20.1785 82.725 20.2951 82.4501 20.431V27.2781C82.725 27.4335 83.0196 27.5598 83.3339 27.6569C83.6482 27.7346 84.0017 27.7734 84.3945 27.7734ZM110.148 23.84C110.148 24.986 109.971 26.0252 109.618 26.9576C109.264 27.8705 108.753 28.6475 108.086 29.2885C107.437 29.9295 106.652 30.4248 105.729 30.7745C104.806 31.1241 103.774 31.2989 102.635 31.2989C101.496 31.2989 100.455 31.1338 99.5122 30.8036C98.5891 30.454 97.7936 29.9587 97.1258 29.3177C96.4777 28.6767 95.9768 27.8997 95.6233 26.9867C95.2697 26.0544 95.093 25.0055 95.093 23.84C95.093 22.7134 95.2697 21.6936 95.6233 20.7807C95.9965 19.8483 96.5071 19.0616 97.1553 18.4206C97.8231 17.7796 98.6186 17.2843 99.5417 16.9347C100.484 16.585 101.516 16.4102 102.635 16.4102C103.755 16.4102 104.776 16.585 105.699 16.9347C106.622 17.2843 107.408 17.7893 108.056 18.4498C108.724 19.0908 109.235 19.8677 109.588 20.7807C109.961 21.6936 110.148 22.7134 110.148 23.84ZM102.635 19.9066C101.712 19.9066 100.995 20.2465 100.484 20.9264C99.9738 21.6062 99.7185 22.5774 99.7185 23.84C99.7185 25.1414 99.964 26.1321 100.455 26.8119C100.966 27.4724 101.692 27.8026 102.635 27.8026C103.578 27.8026 104.295 27.4626 104.786 26.7828C105.297 26.1029 105.552 25.122 105.552 23.84C105.552 22.5969 105.297 21.6353 104.786 20.9555C104.275 20.2562 103.558 19.9066 102.635 19.9066ZM127.975 23.84C127.975 24.986 127.798 26.0252 127.444 26.9576C127.091 27.8705 126.58 28.6475 125.912 29.2885C125.264 29.9295 124.479 30.4248 123.555 30.7745C122.632 31.1241 121.601 31.2989 120.462 31.2989C119.323 31.2989 118.282 31.1338 117.339 30.8036C116.416 30.454 115.62 29.9587 114.953 29.3177C114.304 28.6767 113.804 27.8997 113.45 26.9867C113.096 26.0544 112.92 25.0055 112.92 23.84C112.92 22.7134 113.096 21.6936 113.45 20.7807C113.823 19.8483 114.334 19.0616 114.982 18.4206C115.65 17.7796 116.445 17.2843 117.368 16.9347C118.311 16.585 119.342 16.4102 120.462 16.4102C121.581 16.4102 122.603 16.585 123.526 16.9347C124.449 17.2843 125.235 17.7893 125.883 18.4498C126.551 19.0908 127.061 19.8677 127.415 20.7807C127.788 21.6936 127.975 22.7134 127.975 23.84ZM120.462 19.9066C119.539 19.9066 118.822 20.2465 118.311 20.9264C117.801 21.6062 117.545 22.5774 117.545 23.84C117.545 25.1414 117.791 26.1321 118.282 26.8119C118.792 27.4724 119.519 27.8026 120.462 27.8026C121.405 27.8026 122.122 27.4626 122.613 26.7828C123.123 26.1029 123.379 25.122 123.379 23.84C123.379 22.5969 123.123 21.6353 122.613 20.9555C122.102 20.2562 121.385 19.9066 120.462 19.9066ZM139.791 23.6652L144.888 28.5601C144.79 29.3759 144.535 30.0072 144.122 30.454C143.729 30.8813 143.16 31.095 142.413 31.095C141.844 31.095 141.343 30.959 140.911 30.6871C140.479 30.4151 139.997 29.9684 139.467 29.3468L135.961 25.2386V30.8328C135.765 30.891 135.49 30.9396 135.136 30.9784C134.783 31.0367 134.39 31.0658 133.958 31.0658C133.074 31.0658 132.436 30.9299 132.043 30.6579C131.65 30.3666 131.454 29.813 131.454 28.9972V11.8941C131.67 11.8358 131.954 11.7775 132.308 11.7192C132.661 11.661 133.054 11.6318 133.486 11.6318C134.37 11.6318 134.999 11.7775 135.372 12.0689C135.765 12.3602 135.961 12.9138 135.961 13.7297V21.9753L141.294 16.6142C142.217 16.6142 142.953 16.8181 143.503 17.226C144.053 17.6339 144.328 18.139 144.328 18.7411C144.328 19.2656 144.142 19.7318 143.769 20.1397C143.415 20.5282 142.855 21.0526 142.089 21.713L139.791 23.6652ZM149.967 27.3655C149.515 26.3943 148.995 25.1317 148.406 23.5778C147.836 22.0044 147.237 19.9746 146.608 17.4883C146.844 17.2357 147.168 17.0221 147.581 16.8473C148.013 16.653 148.474 16.5559 148.965 16.5559C149.594 16.5559 150.105 16.6919 150.497 16.9638C150.89 17.2163 151.195 17.6922 151.411 18.3915C151.843 19.8095 152.275 21.208 152.707 22.5871C153.159 23.9663 153.61 25.3551 154.062 26.7537H154.18C154.416 26.0932 154.661 25.3745 154.917 24.5976C155.172 23.8012 155.417 22.9853 155.653 22.1501C155.889 21.2954 156.105 20.4408 156.301 19.5861C156.517 18.712 156.704 17.867 156.861 17.0512C157.47 16.721 158.108 16.5559 158.776 16.5559C159.405 16.5559 159.945 16.6919 160.397 16.9638C160.848 17.2357 161.074 17.6825 161.074 18.3041C161.074 19.0034 160.947 19.8969 160.691 20.9846C160.455 22.053 160.131 23.1796 159.719 24.3645C159.326 25.5299 158.874 26.6954 158.364 27.8608C157.873 29.0069 157.362 30.0169 156.832 30.891C155.732 32.7363 154.74 34.1057 153.856 34.9993C152.972 35.9122 152.078 36.3687 151.175 36.3687C150.448 36.3687 149.849 36.1453 149.378 35.6985C148.906 35.2712 148.622 34.7176 148.523 34.0378C149.152 33.4939 149.8 32.8529 150.468 32.1148C151.155 31.3961 151.735 30.6676 152.206 29.9295C151.872 29.8324 151.519 29.6187 151.146 29.2885C150.792 28.9389 150.399 28.2979 149.967 27.3655ZM170.003 27.6277C171.044 27.6277 171.781 27.4529 172.213 27.1033C172.664 26.7342 172.89 26.2972 172.89 25.7921C172.89 25.326 172.714 24.9569 172.36 24.685C172.026 24.3936 171.515 24.1411 170.828 23.9274L169.325 23.4612C168.501 23.2087 167.754 22.9368 167.086 22.6454C166.419 22.3346 165.849 21.9753 165.378 21.5674C164.906 21.14 164.533 20.6447 164.258 20.0814C164.003 19.4987 163.875 18.7994 163.875 17.9836C163.875 16.3519 164.494 15.0602 165.731 14.1084C166.988 13.1566 168.726 12.6807 170.946 12.6807C171.79 12.6807 172.566 12.739 173.273 12.8556C174 12.9721 174.619 13.1566 175.129 13.4092C175.64 13.6423 176.043 13.9336 176.337 14.2833C176.632 14.6329 176.779 15.0408 176.779 15.507C176.779 15.9537 176.661 16.3519 176.426 16.7016C176.21 17.0318 175.954 17.3134 175.66 17.5465C175.208 17.2357 174.609 16.9735 173.863 16.7599C173.116 16.5462 172.301 16.4393 171.417 16.4393C170.474 16.4393 169.777 16.585 169.325 16.8764C168.874 17.1678 168.648 17.5368 168.648 17.9836C168.648 18.3721 168.795 18.6731 169.09 18.8868C169.384 19.0811 169.846 19.285 170.474 19.4987L172.065 20.0231C172.989 20.3339 173.794 20.6738 174.481 21.0429C175.188 21.3925 175.778 21.8005 176.249 22.2666C176.72 22.7134 177.074 23.2379 177.31 23.84C177.545 24.4227 177.663 25.0929 177.663 25.8504C177.663 26.6662 177.496 27.4141 177.162 28.0939C176.848 28.7544 176.367 29.3274 175.719 29.813C175.09 30.2986 174.305 30.6774 173.362 30.9493C172.439 31.2212 171.368 31.3572 170.15 31.3572C169.247 31.3572 168.412 31.2795 167.646 31.1241C166.88 30.9881 166.212 30.7842 165.643 30.5123C165.093 30.2403 164.651 29.9101 164.317 29.5216C164.003 29.1137 163.846 28.6572 163.846 28.1522C163.846 27.6277 163.993 27.1907 164.287 26.8411C164.602 26.4914 164.945 26.2098 165.319 25.9961C165.849 26.4234 166.507 26.8022 167.293 27.1324C168.098 27.4626 169.001 27.6277 170.003 27.6277ZM190.719 22.5289C190.542 23.2476 190.345 23.9857 190.129 24.7432C189.913 25.5008 189.697 26.2389 189.481 26.9576C189.265 27.6763 189.059 28.3367 188.862 28.9389C188.666 29.541 188.509 30.0364 188.391 30.4248C187.861 30.891 187.016 31.1241 185.857 31.1241C185.15 31.1241 184.532 31.027 184.001 30.8328C183.471 30.6385 183.117 30.3471 182.941 29.9587C182.725 29.4925 182.469 28.7544 182.175 27.7443C181.88 26.7342 181.585 25.627 181.291 24.4227C181.016 23.2184 180.751 21.9947 180.495 20.7515C180.24 19.5084 180.034 18.4206 179.877 17.4883C180.112 17.2357 180.436 17.0221 180.849 16.8473C181.281 16.653 181.743 16.5559 182.234 16.5559C182.862 16.5559 183.373 16.7016 183.766 16.9929C184.158 17.2649 184.404 17.7408 184.502 18.4206C184.699 19.7803 184.865 20.9458 185.003 21.917C185.16 22.8882 185.298 23.7137 185.415 24.3936C185.533 25.0734 185.631 25.627 185.71 26.0544C185.808 26.4623 185.877 26.7828 185.916 27.0159H186.034C186.113 26.7051 186.231 26.2389 186.388 25.6173C186.545 24.9958 186.731 24.2965 186.947 23.5195C187.163 22.7231 187.389 21.8782 187.625 20.9846C187.88 20.0717 188.126 19.1588 188.362 18.2458C188.696 18.0516 189.039 17.9059 189.393 17.8088C189.766 17.6922 190.208 17.6339 190.719 17.6339C191.347 17.6339 191.877 17.7408 192.309 17.9544C192.761 18.1487 193.046 18.4498 193.164 18.8577C193.419 19.7318 193.665 20.5961 193.9 21.4508C194.136 22.2861 194.352 23.063 194.549 23.7817C194.745 24.5004 194.912 25.1414 195.049 25.7047C195.207 26.268 195.324 26.7051 195.403 27.0159H195.55C195.825 25.4814 196.09 23.8789 196.346 22.2084C196.601 20.5185 196.837 18.8091 197.053 17.0804C197.367 16.9055 197.701 16.7793 198.055 16.7016C198.408 16.6045 198.762 16.5559 199.115 16.5559C199.724 16.5559 200.225 16.6919 200.618 16.9638C201.03 17.2163 201.236 17.6631 201.236 18.3041C201.236 18.5954 201.178 19.0519 201.06 19.6735C200.961 20.2951 200.824 20.9943 200.647 21.7713C200.49 22.5483 200.303 23.3738 200.087 24.2479C199.871 25.1026 199.655 25.9281 199.439 26.7245C199.223 27.5209 199.007 28.2493 198.791 28.9097C198.595 29.5702 198.428 30.0752 198.29 30.4248C198.074 30.6385 197.711 30.8036 197.2 30.9202C196.689 31.0561 196.14 31.1241 195.55 31.1241C194.058 31.1241 193.184 30.7648 192.928 30.0461C192.791 29.6576 192.624 29.1817 192.427 28.6184C192.231 28.0551 192.025 27.4432 191.809 26.7828C191.612 26.1029 191.416 25.4037 191.219 24.685C191.023 23.9468 190.856 23.2281 190.719 22.5289ZM210.291 28.0357C210.723 28.0357 211.146 27.9968 211.558 27.9191C211.99 27.822 212.314 27.7054 212.531 27.5695V24.8889L210.115 25.0929C209.486 25.1511 208.975 25.2968 208.583 25.5299C208.209 25.7436 208.023 26.0738 208.023 26.5206C208.023 26.9867 208.2 27.3558 208.553 27.6277C208.907 27.8997 209.486 28.0357 210.291 28.0357ZM210.115 16.4102C211.136 16.4102 212.059 16.517 212.884 16.7307C213.729 16.925 214.446 17.2357 215.035 17.6631C215.624 18.0904 216.076 18.6343 216.39 19.2947C216.724 19.9551 216.891 20.7321 216.891 21.6256V28.2105C216.891 28.7155 216.753 29.1234 216.478 29.4342C216.223 29.7256 215.909 29.9781 215.536 30.1918C214.927 30.5608 214.18 30.8425 213.297 31.0367C212.413 31.231 211.411 31.3281 210.291 31.3281C208.268 31.3281 206.658 30.9493 205.46 30.1918C204.262 29.4148 203.662 28.2396 203.662 26.6662C203.662 25.326 204.065 24.3062 204.87 23.6069C205.676 22.9076 206.913 22.4706 208.583 22.2958L212.501 21.8879V21.5674C212.501 20.9458 212.246 20.4893 211.735 20.198C211.224 19.9066 210.488 19.7609 209.525 19.7609C208.779 19.7609 208.042 19.8483 207.316 20.0231C206.609 20.198 205.97 20.4019 205.401 20.635C205.165 20.4796 204.959 20.2465 204.782 19.9357C204.625 19.6055 204.546 19.2559 204.546 18.8868C204.546 18.0321 204.998 17.4203 205.902 17.0512C206.471 16.8375 207.129 16.6822 207.876 16.585C208.642 16.4685 209.388 16.4102 210.115 16.4102ZM228.003 31.2989C227.492 31.2989 227.021 31.2504 226.588 31.1533C226.156 31.0756 225.763 30.9687 225.41 30.8328V36.0482C225.214 36.1064 224.939 36.1647 224.585 36.223C224.231 36.2813 223.839 36.3104 223.407 36.3104C222.523 36.3104 221.884 36.1647 221.492 35.8734C221.099 35.582 220.902 35.0284 220.902 34.2126V19.79C220.902 19.285 221.01 18.8771 221.226 18.5663C221.442 18.2361 221.747 17.9447 222.14 17.6922C222.729 17.3232 223.485 17.0221 224.408 16.789C225.331 16.5365 226.353 16.4102 227.472 16.4102C228.611 16.4102 229.652 16.5559 230.595 16.8473C231.558 17.1192 232.383 17.5562 233.07 18.1584C233.757 18.7606 234.288 19.5278 234.661 20.4602C235.054 21.3925 235.25 22.4997 235.25 23.7817C235.25 25.0055 235.064 26.0932 234.69 27.045C234.337 27.9774 233.836 28.7641 233.188 29.4051C232.54 30.0266 231.774 30.5025 230.89 30.8328C230.006 31.1435 229.044 31.2989 228.003 31.2989ZM227.325 27.7734C228.386 27.7734 229.201 27.4432 229.77 26.7828C230.36 26.1224 230.654 25.122 230.654 23.7817C230.654 22.4026 230.369 21.412 229.8 20.8098C229.25 20.2077 228.474 19.9066 227.472 19.9066C227.021 19.9066 226.628 19.9649 226.294 20.0814C225.96 20.1785 225.655 20.2951 225.38 20.431V27.2781C225.655 27.4335 225.95 27.5598 226.264 27.6569C226.579 27.7346 226.932 27.7734 227.325 27.7734Z" fill="white"/>
<g clip-path="url(#clip0_3301_28883)">
<path d="M0.25 24C0.25 30.2326 2.72589 36.2099 7.13299 40.617C11.5401 45.0241 17.5174 47.5 23.75 47.5C29.9826 47.5 35.9599 45.0241 40.367 40.617C44.7741 36.2099 47.25 30.2326 47.25 24C47.25 17.7674 44.7741 11.7901 40.367 7.38299C35.9599 2.97589 29.9826 0.5 23.75 0.5C17.5174 0.5 11.5401 2.97589 7.13299 7.38299C2.72589 11.7901 0.25 17.7674 0.25 24Z" fill="#212020"/>
<path fill-rule="evenodd" clip-rule="evenodd" d="M7.34169 18.047C7.05455 19.8954 7.39309 21.7974 7.74412 23.6253C7.87925 23.9176 8.17594 24.1136 8.54165 24.24C7.77858 25.837 7.38167 27.5842 7.37987 29.3541C7.37987 37.0034 14.7846 43.2096 23.918 43.2096C33.0522 43.2096 40.4627 37.0181 40.4627 29.3541C40.4609 27.5661 40.056 25.8015 39.2782 24.1915C39.5837 24.0652 39.8275 23.8823 39.9465 23.6253C40.2982 21.7974 40.6346 19.8947 40.3474 18.047C40.0786 15.5662 39.2275 14.8084 36.6712 15.4443C35.3713 15.7469 33.6565 16.5143 32.3383 17.4169C29.8716 16.1927 26.9921 15.4906 23.9187 15.4906C20.8087 15.4906 17.8998 16.2103 15.4147 17.4609C14.0891 16.5393 12.3398 15.7513 11.0194 15.4443C8.46161 14.8091 7.61194 15.5662 7.34169 18.047ZM16.9715 28.9833C15.0328 28.1285 11.7193 28.3444 11.7193 28.3444C11.7193 28.3444 11.875 31.464 13.777 32.523C16.033 33.7773 20.2278 33.156 20.2278 33.156C20.2278 33.156 19.8709 30.2552 16.9715 28.9774V28.9833ZM27.7434 33.1611C27.7434 33.1611 31.9381 33.7824 34.1941 32.5281C36.0961 31.4691 36.2518 28.3495 36.2518 28.3495C36.2518 28.3495 32.9383 28.1336 30.9996 28.9884C28.1003 30.2552 27.7434 33.1494 27.7434 33.1494V33.1611ZM23.0904 35.3599C23.0904 35.5897 23.5178 35.7762 24.0436 35.7762C24.5701 35.7762 24.9968 35.5897 24.9968 35.3599C24.9968 35.13 24.5701 34.9442 24.0436 34.9442C23.5178 34.9442 23.0904 35.1234 23.0904 35.3599Z" fill="#B2B2B2"/>
<path fill-rule="evenodd" clip-rule="evenodd" d="M42.7665 33.4395C41.2186 32.8417 39.5745 32.5318 37.9152 32.5252H37.9181C37.4973 32.5252 37.4973 31.8723 37.9181 31.8723C39.6363 31.878 41.339 32.1971 42.9427 32.8138C43.0239 32.8386 43.0925 32.8934 43.1346 32.9671C43.1766 33.0409 43.1889 33.1279 43.1689 33.2103C43.1456 33.2939 43.0902 33.3648 43.0148 33.4077C42.9395 33.4506 42.8502 33.462 42.7665 33.4395ZM5.0027 32.8285C6.60717 32.2118 8.31061 31.8928 10.0295 31.887V31.8907C10.4496 31.8907 10.4481 32.5435 10.0295 32.5435C8.36981 32.5494 6.72481 32.8593 5.17675 33.4571C5.09341 33.4793 5.0047 33.4678 4.92971 33.4253C4.85472 33.3827 4.79944 33.3124 4.77578 33.2294C4.75474 33.146 4.76666 33.0578 4.80906 32.9829C4.85147 32.9081 4.92035 32.8533 5.0027 32.8285ZM8.33089 34.6989C9.13343 34.4435 9.96818 34.3033 10.8101 34.2825C11.2287 34.2847 11.2273 34.9354 10.8079 34.9354C10.0399 34.9554 9.27853 35.0832 8.54606 35.3151C7.86383 35.5148 7.08466 35.7968 6.58675 36.258C6.27831 36.5444 5.81712 36.0832 6.1263 35.7968C6.73069 35.2387 7.562 34.9303 8.32942 34.6989H8.33089ZM11.5555 35.9128C10.9012 36.1934 10.2711 36.5297 9.67406 36.9167C9.0709 37.2887 8.54017 37.7669 8.10764 38.3282C8.06417 38.4029 8.05197 38.4917 8.07371 38.5753C8.09544 38.659 8.14934 38.7306 8.22367 38.7747C8.29896 38.8165 8.38746 38.8278 8.47085 38.8062C8.55424 38.7846 8.62613 38.7318 8.67164 38.6587C9.03883 38.152 9.56464 37.7591 10.0853 37.4235C10.6572 37.0606 11.2571 36.7441 11.8794 36.4768C11.9537 36.4327 12.0076 36.3612 12.0296 36.2777C12.0516 36.1941 12.0398 36.1053 11.9969 36.0303C11.9516 35.9573 11.8801 35.9045 11.7971 35.8826C11.714 35.8608 11.6257 35.8716 11.5504 35.9128H11.5555ZM37.1338 34.9222C37.902 34.9413 38.6642 35.069 39.3964 35.3011C39.7754 35.4083 40.1447 35.5449 40.5024 35.7094C40.8108 35.8445 41.0972 36.0252 41.3521 36.2448C41.6605 36.5297 42.1232 36.07 41.8147 35.7821C41.214 35.2247 40.3871 34.9156 39.6145 34.6842C38.8116 34.4287 37.9762 34.289 37.1338 34.2693C36.7137 34.2693 36.7123 34.9222 37.1338 34.9222ZM37.8542 37.4044C37.2896 37.0551 36.6992 36.7494 36.0881 36.4901V36.4835C36.0141 36.4391 35.9604 36.3676 35.9384 36.2841C35.9164 36.2007 35.928 36.112 35.9706 36.037C36.0164 35.9642 36.0883 35.9117 36.1716 35.8902C36.2548 35.8686 36.3431 35.8796 36.4185 35.9209C37.6905 36.4761 39.0285 37.1885 39.8598 38.3363C39.9029 38.4111 39.9149 38.4998 39.8932 38.5833C39.8715 38.6668 39.8178 38.7384 39.7438 38.7828C39.6685 38.8244 39.5801 38.8354 39.497 38.8135C39.4138 38.7917 39.3423 38.7386 39.2973 38.6653C38.9213 38.1468 38.3896 37.7451 37.8542 37.4044Z" fill="#B2B2B2"/>
<path d="M2.51994 25.287C2.82104 24.817 5.47213 23.4026 8.75112 22.5632C9.45884 20.5532 10.3321 18.6053 11.3618 16.7397C11.3493 16.7397 13.985 12.0081 13.9733 12.0059C13.2173 11.6617 12.4914 11.2549 11.8032 10.7897C11.6868 10.7003 11.5813 10.5975 11.4889 10.4835C11.4191 10.3682 11.383 10.2357 11.3846 10.1009C11.3846 9.99074 11.5395 9.7954 11.6086 9.70874C11.7848 9.50165 11.9802 9.30998 12.1909 9.1374C12.6935 8.72579 13.2216 8.34634 13.772 8.00132C14.0335 7.82874 14.3052 7.66057 14.5725 7.49093C16.4525 6.2939 17.4828 5.39282 19.2042 4.40362C20.8492 3.46068 21.6489 2.87979 23.5561 2.97746C25.9531 2.97746 31.9118 10.568 34.5982 14.4792C36.2094 16.8292 38.3714 21.0607 39.1675 22.6528C39.3584 22.7006 39.531 22.7461 39.6903 22.7931C42.1343 23.5275 44.5313 24.6026 45.1174 25.287C45.6395 25.8951 43.3571 26.1668 41.1077 26.5582C38.8583 26.9504 31.2274 27.145 23.8939 27.1942C16.5605 27.2442 8.00205 26.9981 6.13894 26.7051C4.27584 26.4114 2.14468 25.8731 2.51994 25.287Z" fill="white"/>
<path d="M37.1226 18.7317C37.1226 18.7317 32.2919 17.5215 23.7805 17.5215C14.6419 17.5215 10.2408 18.9315 10.2408 18.9315C10.2408 18.9315 9.71864 19.9236 9.49172 20.4979C9.26406 21.0722 8.75 22.5644 8.75 22.5644C8.75 22.5644 15.399 21.3747 23.909 21.3747C29.0327 21.3953 34.1469 21.8279 39.2023 22.6672C39.2023 22.6672 38.4305 20.8607 37.9686 20.0911C37.6942 19.6333 37.4121 19.1801 37.1226 18.7317Z" fill="#B2B2B2"/>
<path d="M8.37423 8.51842C8.92795 8.43764 9.67995 10.1326 9.67995 10.1326C9.67995 10.1326 11.4212 9.66405 11.6929 10.1326C11.9646 10.6011 10.4687 11.7262 10.4687 11.7262C10.4687 11.7262 11.3719 13.3154 11.0855 13.6458C10.7999 13.9763 9.18865 12.9739 9.18865 12.9739C9.18865 12.9739 7.96004 14.3574 7.55981 14.1489C7.15884 13.9396 7.61342 12.1367 7.61342 12.1367C7.61342 12.1367 5.87515 11.3979 5.99412 10.9588C6.11309 10.5203 7.92406 10.3874 7.92406 10.3874C7.92406 10.3874 7.82198 8.5992 8.37423 8.51842Z" fill="#B2B2B2"/>
</g>
<defs>
<clipPath id="clip0_3301_28883">
<rect width="47" height="47" fill="white" transform="translate(0.25 0.5)"/>
</clipPath>
</defs>
</svg>
