<svg width="180" height="33" viewBox="0 0 180 33" fill="none" xmlns="http://www.w3.org/2000/svg">
<g id="stepn-logo 1" clip-path="url(#clip0_4857_39367)">
<g id="Vector">
<path d="M0.769531 32.2468L2.21869 26.0879H16.9691L17.7972 25.415L18.1595 23.9659L17.6937 23.3966H7.49778L3.51259 18.221L4.85823 12.3726L9.87854 8.28388H28.0966L26.6474 14.4428H12.6216L11.7417 15.1156L11.4312 16.5648L11.897 17.1341H22.0929L26.0781 22.3097L24.7324 28.1581L19.6604 32.2468H0.769531Z" fill="#56FF97"/>
<path d="M33.1686 32.2468L37.2573 14.4428H28.5106L29.9598 8.28388H54.9578L53.5604 14.4428H44.8137L40.6732 32.2468H33.1686Z" fill="#56FF97"/>
<path d="M51.4902 32.2468L57.028 8.28388H78.9725L77.5233 14.4428H63.1352L62.4624 17.3411H73.0723L71.7784 22.8272H61.1685L60.4439 26.0879H75.1943L73.7451 32.2468H51.4902Z" fill="#56FF97"/>
<path d="M99.623 8.28388H81.1462L75.6083 32.2468H83.1647L84.5103 26.2431H96.2071L101.434 21.9991L103.453 13.2524L99.623 8.28388ZM94.6027 19.0491L93.3606 20.0842H86.0112L87.3051 14.4428H94.758L95.4825 15.3744L94.6027 19.0491Z" fill="#56FF97"/>
<path d="M109.612 32.2468L115.15 8.28388H125.811L129.486 24.0694H130.521L134.196 8.28388H141.235L135.645 32.2468H124.983L121.309 16.4613H120.222L116.599 32.2468H109.612Z" fill="#56FF97"/>
<path fill-rule="evenodd" clip-rule="evenodd" d="M110.388 0.675781L104.178 12.2173L108.473 12.1656L108.111 19.5149L113.649 8.28388H109.508L110.388 0.675781Z" fill="#56FF97"/>
<path fill-rule="evenodd" clip-rule="evenodd" d="M149.412 17.5999C149.412 17.2376 149.102 16.9788 148.791 16.9788H143.822C143.46 16.9788 143.201 17.2894 143.201 17.5999C143.201 17.9622 143.512 18.221 143.822 18.221H148.791C149.153 18.221 149.412 17.9104 149.412 17.5999Z" fill="#56FF97"/>
<path fill-rule="evenodd" clip-rule="evenodd" d="M153.604 23.0343C153.604 22.672 153.294 22.4132 152.983 22.4132H148.015C147.652 22.4132 147.394 22.7237 147.394 23.0343C147.394 23.3966 147.704 23.6553 148.015 23.6553H152.983C153.294 23.6553 153.604 23.3966 153.604 23.0343Z" fill="#56FF97"/>
<path fill-rule="evenodd" clip-rule="evenodd" d="M152.155 20.343C152.155 20.7053 151.845 20.964 151.534 20.964H146.048C145.686 20.964 145.427 20.6535 145.427 20.343C145.427 19.9807 145.737 19.7219 146.048 19.7219H151.534C151.896 19.6701 152.155 19.9807 152.155 20.343Z" fill="#56FF97"/>
<path fill-rule="evenodd" clip-rule="evenodd" d="M144.133 19.6701C143.771 19.6701 143.512 19.9807 143.512 20.2912C143.512 20.6535 143.822 20.9123 144.133 20.9123H144.392C144.754 20.9123 145.013 20.6017 145.013 20.2912C145.013 19.9289 144.702 19.6701 144.392 19.6701H144.133Z" fill="#56FF97"/>
<path fill-rule="evenodd" clip-rule="evenodd" d="M155.726 25.7773C155.726 25.415 155.416 25.1562 155.105 25.1562H144.443C144.081 25.1562 143.822 25.4668 143.822 25.7773C143.822 26.1396 144.133 26.3984 144.443 26.3984H155.105C155.467 26.3984 155.726 26.1396 155.726 25.7773Z" fill="#56FF97"/>
<path fill-rule="evenodd" clip-rule="evenodd" d="M175.393 25.0527C173.427 24.2764 172.495 23.8106 171.667 24.5352C172.081 23.7071 171.926 23.6553 171.563 23.086C170.891 21.8956 169.079 19.9289 168.458 16.1507C168.458 16.1507 169.441 13.4594 169.545 11.7515C169.545 11.7515 169.907 10.6646 168.251 11.1822C168.251 11.1822 166.129 12.4761 164.99 12.7866C162.92 12.5278 159.867 11.0269 158.728 8.74968C158.728 8.74968 159.66 6.78296 158.832 6.31716C158.262 6.00662 156.554 7.76632 156.554 7.76632L151.016 14.184L150.602 14.9604C150.447 15.2709 150.447 15.6849 150.706 16.0472C152.155 18.014 157.9 25.622 161.212 29.7108C151.845 29.7625 146.772 31.2117 150.395 31.7292C153.345 32.1433 159.97 32.0398 164.99 31.988C165.612 32.195 166.233 32.3503 166.905 32.4021L175.393 32.4538C176.48 32.4021 177.464 32.2985 178.292 32.2468C178.809 32.195 179.275 31.8327 179.43 31.3669C180.362 28.9862 178.913 26.4501 175.393 25.0527ZM160.332 24.1729L160.54 20.3947H158.314L161.471 14.4428L161.005 18.3245H163.127L160.332 24.1729Z" fill="#56FF97"/>
</g>
</g>
<defs>
<clipPath id="clip0_4857_39367">
<rect width="178.971" height="31.8815" fill="white" transform="translate(0.769531 0.675781)"/>
</clipPath>
</defs>
</svg>
