<svg width="38" height="48" viewBox="0 0 38 48" fill="none" xmlns="http://www.w3.org/2000/svg">
<g id="Union">
<path d="M19.8676 1.4043C15.0652 1.4043 11.6931 3.16549 9.63062 6.11933C7.67332 8.9226 7.13023 12.4731 7.13023 15.676H11.7027C11.7027 12.8583 12.2048 10.4132 13.3828 8.72601C14.4557 7.1894 16.3091 5.9653 19.8676 5.9653C23.4241 5.9653 25.1642 7.18382 26.1356 8.66886C27.2246 10.3336 27.6331 12.7673 27.5581 15.6162L32.1291 15.7359C32.2125 12.5642 31.8134 9.0022 29.965 6.17648C27.999 3.17106 24.672 1.4043 19.8676 1.4043Z" fill="url(#paint0_linear_4235_30079)"/>
<path fill-rule="evenodd" clip-rule="evenodd" d="M1 21.7447C1 20.0654 2.36479 18.704 4.04834 18.704H34.5318C36.2153 18.704 37.5801 20.0654 37.5801 21.7447V44.4115C37.5801 46.0908 36.2153 47.4522 34.5318 47.4522H4.04834C2.36479 47.4522 1 46.0908 1 44.4115V21.7447ZM20.6689 35.7442V45.4102C21.809 44.273 22.9491 41.9987 23.5191 40.7478C24.0663 38.1095 26.7112 37.1467 27.9653 36.9951C29.5614 35.1756 29.7894 33.5835 29.7894 30.7405C29.7894 23.3641 23.1013 20.8651 19.645 20.5169V20.5062L19.5885 20.5114L19.5289 20.5059V20.5172C16.0726 20.8654 9.38454 23.3644 9.38454 30.7408C9.38454 33.5838 9.61255 35.1758 11.2086 36.9953C12.4627 37.147 15.1076 38.1098 15.6548 40.748C16.2249 41.999 17.3649 44.2733 18.505 45.4105V35.7444C16.9469 35.3275 13.8307 33.4246 13.8307 29.1488C13.8307 24.9138 17.6333 23.6016 19.589 23.4664C21.5459 23.6031 25.3432 24.9164 25.3432 29.1485C25.3432 33.4243 22.227 35.3272 20.6689 35.7442ZM19.643 30.5138C20.3986 30.5138 21.0111 29.9029 21.0111 29.1492C21.0111 28.3955 20.3986 27.7846 19.643 27.7846C18.8875 27.7846 18.275 28.3955 18.275 29.1492C18.275 29.9029 18.8875 30.5138 19.643 30.5138Z" fill="url(#paint1_linear_4235_30079)"/>
<path d="M19.8676 1.4043C15.0652 1.4043 11.6931 3.16549 9.63062 6.11933C7.67332 8.9226 7.13023 12.4731 7.13023 15.676H11.7027C11.7027 12.8583 12.2048 10.4132 13.3828 8.72601C14.4557 7.1894 16.3091 5.9653 19.8676 5.9653C23.4241 5.9653 25.1642 7.18382 26.1356 8.66886C27.2246 10.3336 27.6331 12.7673 27.5581 15.6162L32.1291 15.7359C32.2125 12.5642 31.8134 9.0022 29.965 6.17648C27.999 3.17106 24.672 1.4043 19.8676 1.4043Z" stroke="url(#paint2_linear_4235_30079)" stroke-width="0.860708"/>
<path fill-rule="evenodd" clip-rule="evenodd" d="M1 21.7447C1 20.0654 2.36479 18.704 4.04834 18.704H34.5318C36.2153 18.704 37.5801 20.0654 37.5801 21.7447V44.4115C37.5801 46.0908 36.2153 47.4522 34.5318 47.4522H4.04834C2.36479 47.4522 1 46.0908 1 44.4115V21.7447ZM20.6689 35.7442V45.4102C21.809 44.273 22.9491 41.9987 23.5191 40.7478C24.0663 38.1095 26.7112 37.1467 27.9653 36.9951C29.5614 35.1756 29.7894 33.5835 29.7894 30.7405C29.7894 23.3641 23.1013 20.8651 19.645 20.5169V20.5062L19.5885 20.5114L19.5289 20.5059V20.5172C16.0726 20.8654 9.38454 23.3644 9.38454 30.7408C9.38454 33.5838 9.61255 35.1758 11.2086 36.9953C12.4627 37.147 15.1076 38.1098 15.6548 40.748C16.2249 41.999 17.3649 44.2733 18.505 45.4105V35.7444C16.9469 35.3275 13.8307 33.4246 13.8307 29.1488C13.8307 24.9138 17.6333 23.6016 19.589 23.4664C21.5459 23.6031 25.3432 24.9164 25.3432 29.1485C25.3432 33.4243 22.227 35.3272 20.6689 35.7442ZM19.643 30.5138C20.3986 30.5138 21.0111 29.9029 21.0111 29.1492C21.0111 28.3955 20.3986 27.7846 19.643 27.7846C18.8875 27.7846 18.275 28.3955 18.275 29.1492C18.275 29.9029 18.8875 30.5138 19.643 30.5138Z" stroke="url(#paint3_linear_4235_30079)" stroke-width="0.860708"/>
</g>
<defs>
<linearGradient id="paint0_linear_4235_30079" x1="19.29" y1="1.4043" x2="19.29" y2="47.4522" gradientUnits="userSpaceOnUse">
<stop stop-color="white"/>
<stop offset="1" stop-color="#CECECE"/>
</linearGradient>
<linearGradient id="paint1_linear_4235_30079" x1="19.29" y1="1.4043" x2="19.29" y2="47.4522" gradientUnits="userSpaceOnUse">
<stop stop-color="white"/>
<stop offset="1" stop-color="#CECECE"/>
</linearGradient>
<linearGradient id="paint2_linear_4235_30079" x1="1" y1="1.4043" x2="1" y2="47.4522" gradientUnits="userSpaceOnUse">
<stop stop-color="#556DE0" stop-opacity="0.2"/>
<stop offset="0.500188" stop-color="#556DE0"/>
<stop offset="1" stop-color="#556DE0" stop-opacity="0.2"/>
</linearGradient>
<linearGradient id="paint3_linear_4235_30079" x1="1" y1="1.4043" x2="1" y2="47.4522" gradientUnits="userSpaceOnUse">
<stop stop-color="#556DE0" stop-opacity="0.2"/>
<stop offset="0.500188" stop-color="#556DE0"/>
<stop offset="1" stop-color="#556DE0" stop-opacity="0.2"/>
</linearGradient>
</defs>
</svg>
