<svg width="209" height="46" viewBox="0 0 209 46" fill="none" xmlns="http://www.w3.org/2000/svg">
<path fill-rule="evenodd" clip-rule="evenodd" d="M1.06761 1.01978C6.2627 7.38865 11.9668 15.3899 12.8894 16.684C12.9386 16.753 12.9742 16.803 12.9954 16.8326C13.4872 17.5192 13.8932 18.0296 14.2016 18.4172C14.886 19.2777 15.0892 19.5331 14.6807 19.7676C14.3513 19.9568 14.0114 20.0191 13.6723 20.0191C13.2888 20.0191 12.8566 19.8326 12.542 19.5311C12.3196 19.318 10.7977 17.0855 8.72542 13.8377C7.13984 11.3525 5.81288 9.29101 5.77668 9.2565C5.69299 9.17667 5.69442 9.17938 8.56376 14.3651C10.3654 17.6214 11.5979 20.0277 11.5979 20.1816C11.5979 20.4948 11.5133 20.6594 11.1308 21.0903C10.4933 21.8088 10.2083 22.616 10.0025 24.2865C9.7719 26.1592 9.12335 27.4823 7.32602 29.7462C6.27393 31.0716 6.10178 31.3145 5.8363 31.8488C5.50193 32.5214 5.40997 32.8982 5.37271 33.7476C5.33332 34.6459 5.41003 35.226 5.68168 36.0846C5.91952 36.8364 6.16775 37.3329 6.80237 38.3258C7.35005 39.1824 7.66539 39.8191 7.66539 40.0683C7.66539 40.2665 7.70285 40.2667 8.55152 40.0732C10.5825 39.6098 12.2316 38.7953 13.1591 37.7967C13.7331 37.1787 13.8679 36.8374 13.8722 35.9906C13.8751 35.4366 13.8558 35.3207 13.7076 35.002C13.4663 34.4832 13.027 34.052 12.0587 33.3835C10.79 32.5074 10.2481 31.8022 10.0985 30.8323C9.9757 30.0365 10.1181 29.475 10.82 27.9892C11.5464 26.4513 11.7264 25.7959 11.8482 24.2456C11.9269 23.2441 12.0358 22.8491 12.3207 22.5322C12.6178 22.2016 12.8853 22.0896 13.6206 21.9879C14.8194 21.8226 15.5827 21.5094 16.2101 20.9253C16.7544 20.4187 16.9822 19.9305 17.0172 19.1957L17.0437 18.6386L16.7395 18.2804C15.638 16.9831 0.329926 0 0.262138 0C0.247657 0 0.610133 0.458934 1.06761 1.01978ZM8.28374 34.7639C8.5328 34.3183 8.40047 33.7457 7.98386 33.4658C7.59024 33.2015 6.97878 33.3261 6.97878 33.6705C6.97878 33.7756 7.03632 33.8521 7.16605 33.9197C7.38445 34.0332 7.40031 34.1608 7.22846 34.4216C7.05443 34.6859 7.06847 34.9182 7.26809 35.0759C7.58981 35.3305 8.04522 35.1905 8.28374 34.7639ZM15.78 10.4693C15.2886 10.3923 15.2679 10.3832 15.4991 10.3473C15.9423 10.2785 16.9888 10.3723 17.7099 10.5455C19.3934 10.9497 20.9253 11.9852 22.5605 13.8242L22.9949 14.3128L23.6165 14.2118C26.2346 13.7868 28.8981 14.1246 31.1258 15.1641C31.7387 15.4501 32.7049 16.0193 32.8256 16.1656C32.8639 16.2122 32.9348 16.5124 32.9825 16.8326C33.148 17.9405 33.0652 18.7897 32.7296 19.424C32.5472 19.7691 32.537 19.8785 32.6597 20.1739C32.7576 20.4096 33.0308 20.5841 33.3014 20.5837C33.8549 20.5829 34.4507 19.679 34.7269 18.4213L34.8365 17.9216L35.0538 18.1702C36.2453 19.534 37.1815 21.3938 37.3422 22.7176L37.384 23.0627L37.1838 22.749C36.839 22.2091 36.4928 21.8415 36.0491 21.5451C35.2496 21.0107 34.4041 20.8288 32.1653 20.7097C30.1431 20.602 28.9988 20.4276 27.864 20.0538C25.933 19.4179 24.9599 18.5711 22.6663 15.5317C21.6476 14.1817 21.018 13.4348 20.3917 12.8333C18.9685 11.4665 17.5701 10.7497 15.78 10.4693ZM33.2816 13.4835C33.3326 12.5789 33.4541 11.9822 33.6982 11.4373C33.7949 11.2216 33.8854 11.045 33.8993 11.045C33.9134 11.045 33.8713 11.2042 33.8059 11.3988C33.6285 11.9276 33.5992 12.651 33.7216 13.4925C33.8768 14.5603 33.9652 14.7144 35.0824 15.8678C35.6065 16.4089 36.2161 17.0912 36.4371 17.3842L36.839 17.9168L36.4371 17.5361C35.9457 17.0706 34.8157 16.1627 34.5661 16.0329C34.3987 15.9459 34.3737 15.9474 34.2706 16.0512C34.1755 16.1468 34.1554 16.2906 34.1422 16.9699C34.1216 18.0288 33.9788 18.7085 33.6339 19.3881C33.4474 19.7556 33.4179 19.6772 33.5867 19.2623C33.7128 18.9526 33.7255 18.8164 33.7247 17.7913C33.7227 15.7317 33.4805 15.2366 32.0608 14.3884C31.7014 14.1735 31.1087 13.8636 30.7441 13.6997C30.3797 13.5358 30.09 13.393 30.1004 13.3823C30.1407 13.3419 31.5253 13.7501 32.0825 13.9666C32.9114 14.2886 33.0481 14.3304 33.1488 14.2915C33.2162 14.2655 33.2489 14.067 33.2816 13.4835ZM15.2533 11.9023C15.1197 13.4924 15.7369 15.6195 16.7346 17.0069C17.508 18.0823 18.7068 18.918 19.5919 18.9987C20.1714 19.0516 20.3455 18.8683 20.0834 18.4816C19.7194 17.9447 19.2717 17.1179 19.1532 16.764C19.0797 16.5441 18.9197 15.8946 18.7978 15.3206C18.3817 13.3611 17.9726 12.5979 17.0278 12.0183C16.6835 11.8071 15.9482 11.5306 15.5217 11.4521L15.2946 11.4102L15.2533 11.9023ZM32.0717 27.3321C27.4093 25.4361 25.7671 23.7902 25.7671 21.0132C25.7671 20.6045 25.7812 20.2702 25.7981 20.2702C25.8152 20.2702 25.9954 20.405 26.1989 20.5699C27.1443 21.3358 28.2031 21.663 31.134 22.0947C32.8585 22.3491 33.8291 22.5543 34.7245 22.8543C37.5701 23.8075 39.3308 25.742 39.7507 28.377C39.8726 29.1426 39.8011 30.5783 39.6033 31.3351C39.4471 31.9328 38.9705 33.01 38.8442 33.0513C38.8091 33.0628 38.7747 32.9272 38.7658 32.7426C38.7179 31.7532 38.2229 30.79 37.3916 30.0684C36.4464 29.2479 35.1764 28.595 32.0717 27.3321ZM28.5733 27.1235C28.6387 27.3204 28.7401 27.7687 28.7984 28.1199C29.1719 30.3647 28.0053 32.1785 25.7359 32.8813C25.4956 32.9556 24.5493 33.1428 23.6329 33.2968C21.7779 33.6088 20.9499 33.8298 20.1182 34.2344C19.5283 34.5215 18.8142 34.9513 18.8566 34.994C18.8703 35.0079 19.0049 34.9754 19.1557 34.9219C20.2047 34.5499 21.372 34.3573 23.1455 34.2641C23.8494 34.2273 24.6499 34.1684 24.9246 34.1335C26.5046 33.9324 27.5997 33.4476 28.4513 32.5721C28.9251 32.0849 29.2076 31.631 29.4353 30.9911C29.5796 30.5851 29.5991 30.4343 29.6002 29.715C29.6015 28.9821 29.5839 28.848 29.4275 28.3972C29.2228 27.8062 28.9812 27.3627 28.6753 27.0158L28.4544 26.7654L28.5733 27.1235ZM30.9358 31.9538C30.3162 30.6087 30.1741 29.3101 30.5134 28.0991C30.5497 27.9695 30.608 27.8636 30.6433 27.8636C30.6784 27.8636 30.8245 27.9435 30.9681 28.041C31.2534 28.2351 31.826 28.562 33.3512 29.402C35.2546 30.4501 36.3398 31.2616 37.0777 32.1891C37.7239 33.0011 38.1239 33.9259 38.3163 35.0538C38.4254 35.6927 38.3615 37.23 38.1993 37.8732C37.6875 39.9017 36.4982 41.4949 34.8018 42.4247C34.5533 42.5608 34.3302 42.6726 34.3059 42.6732C34.2819 42.6736 34.3724 42.4412 34.5072 42.1563C35.0778 40.9513 35.1428 39.7793 34.7115 38.4748C34.4472 37.6761 33.9086 36.7014 32.8211 35.054C31.5567 33.1389 31.2467 32.6291 30.9358 31.9538ZM19.2674 36.3656C17.3065 36.6873 15.1537 37.7354 13.4236 39.211L12.9085 39.6504L13.3612 39.7218C15.7235 40.0943 16.3596 40.4246 17.9982 42.1296C18.9411 43.1106 19.2596 43.329 20.0417 43.5307C21.1905 43.8268 22.3229 43.2826 22.7113 42.2475C22.8849 41.785 22.8617 41.0191 22.6626 40.6346C22.189 39.7188 20.8092 39.4229 20.142 40.0936C19.5863 40.6523 19.7482 41.494 20.4394 41.6387C20.5976 41.6721 20.5931 41.6649 20.3991 41.5763C20.0966 41.4381 19.9652 41.2466 19.9635 40.9418C19.9596 40.2271 20.7694 39.8258 21.5226 40.169C22.0742 40.4205 22.2932 40.749 22.2932 41.3248C22.2932 42.2115 21.5461 42.8797 20.6765 42.7705C20.2118 42.712 19.6434 42.4117 19.3386 42.0638C18.5717 41.1879 18.8704 39.8057 19.9412 39.2753C20.7563 38.8717 21.8399 38.9712 22.6801 39.5269C23.6455 40.1655 24.056 40.7492 24.8875 42.6648C25.1583 43.2885 25.5067 43.9906 25.6616 44.225C26.4493 45.4159 27.393 46 28.5298 46C29.1567 46 29.6284 45.8843 30.2218 45.5851C30.6626 45.3626 31.2876 44.94 31.2426 44.8947C31.2298 44.8819 31.0469 44.9393 30.8362 45.0223C29.595 45.5112 28.3333 45.4777 27.6006 44.9358C27.1391 44.5948 26.7669 43.9154 26.5756 43.0658C26.5425 42.9187 26.4333 42.2692 26.3328 41.6223C26.078 39.9827 25.8334 39.2457 25.263 38.3999C24.6793 37.5346 23.5573 36.8084 22.3029 36.4841C21.5203 36.2817 20.1125 36.2267 19.2674 36.3656ZM16.521 23.689C16.6904 23.0573 17.2374 22.4548 17.8002 22.2802C18.1581 22.1693 18.8978 22.2401 19.2456 22.4186C19.9196 22.7648 20.4089 23.5532 20.3027 24.1223C20.1732 24.8162 19.0591 25.3715 17.7774 25.3806C17.1228 25.3852 16.8811 25.2963 16.6311 24.9592C16.4764 24.7504 16.4177 24.0745 16.521 23.689ZM19.0735 22.666C19.4096 22.8734 19.496 23.1799 19.2984 23.4635C19.1623 23.6589 18.7408 23.8446 18.4328 23.8446C17.9701 23.8446 17.4653 23.5127 17.4653 23.2087C17.4653 22.598 18.4333 22.2711 19.0735 22.666ZM119.532 24.4148C118.486 20.9371 120.21 18.0525 123.889 17.1255C124.945 16.8595 129.722 16.9795 130.541 17.2927C130.841 17.4074 130.972 17.8479 130.975 18.753C130.977 19.4659 131.055 20.3317 131.148 20.677C131.288 21.2003 131.206 21.3033 130.654 21.2949C130.154 21.2871 129.852 20.9944 129.43 20.1087C128.757 18.6942 127.941 18.2442 126.041 18.2389C123.614 18.2319 121.839 19.8656 122.128 21.8395C122.316 23.124 123.599 24.3879 126.479 26.1254C129.22 27.7782 130.819 29.1374 131.456 30.3552C133.161 33.6109 131.705 37.095 127.909 38.8505C125.96 39.7515 122.693 39.8447 120.397 39.0648L118.926 38.5652V36.2154C118.926 34.0873 118.977 33.8653 119.462 33.8653C119.868 33.8653 120.043 34.1335 120.186 34.9736C120.54 37.0627 122.128 38.331 124.389 38.331C126.604 38.331 128.152 37.1208 128.745 34.9264C128.998 33.9916 128.954 33.6469 128.453 32.6157C127.853 31.3793 126.819 30.5589 123.306 28.5328C121.358 27.4084 119.98 25.9051 119.532 24.4148ZM50.6862 18.5138C50.207 18.5138 50.0201 18.3573 50.0201 17.9556C50.0201 17.4239 50.207 17.3974 53.9621 17.3974C57.4475 17.3974 57.8936 17.4498 57.8136 17.8498C57.7636 18.0988 57.282 18.4441 56.7428 18.6174L55.7622 18.9325L55.6786 26.05C55.6225 30.7993 55.7014 33.539 55.9152 34.2838C56.551 36.499 58.4907 37.7729 61.2273 37.7729C63.1325 37.7729 64.2454 37.3275 65.6436 36.0047C67.1476 34.5826 67.3874 33.2314 67.3826 26.2086C67.3781 19.2815 67.2574 18.7098 65.7697 18.566C65.0927 18.5004 64.8659 18.3427 64.8659 17.938C64.8659 17.4334 65.0892 17.3974 68.2271 17.3974C71.4016 17.3974 71.5884 17.4283 71.5884 17.9556C71.5884 18.2995 71.4001 18.5155 71.0981 18.518C69.8008 18.5294 69.777 18.6529 69.6024 26.2487C69.4213 34.1367 69.2521 35.0707 67.6534 37.003C67.1924 37.5604 66.0929 38.3698 65.2103 38.8018C63.772 39.5056 63.3145 39.5864 60.8042 39.5819C58.4902 39.5771 57.7597 39.4653 56.6026 38.9387C54.9136 38.1698 53.8153 37.1748 53.0054 35.6795C52.4402 34.6357 52.3919 34.0709 52.261 26.9989C52.1111 18.9041 52.0385 18.5138 50.6862 18.5138ZM76.8972 18.5138C76.2569 18.5138 76.0701 18.3877 76.0701 17.9556C76.0701 17.4323 76.249 17.3988 78.9411 17.4203L81.8123 17.4431L83.186 19.0252C83.941 19.8952 86.403 22.6169 88.6563 25.073C90.9098 27.5293 93.497 30.3866 94.4054 31.4228C95.314 32.4593 96.1691 33.307 96.3058 33.307C96.4462 33.307 96.5162 30.3797 96.4661 26.5836L96.3777 19.8603L95.5918 19.1871C95.1595 18.8167 94.4981 18.5138 94.1214 18.5138C93.6203 18.5138 93.4368 18.362 93.4368 17.9478C93.4368 17.4027 93.5798 17.3845 97.2881 17.4593C100.441 17.523 101.14 17.6109 101.14 17.9442C101.14 18.1817 100.75 18.431 100.203 18.5423C99.6885 18.6473 99.1211 18.8784 98.9428 19.0559C98.7127 19.285 98.5955 22.2479 98.5386 29.2735L98.4582 39.1683H97.6464C96.9475 39.1683 96.1156 38.3819 91.6679 33.5163C88.8261 30.4074 85.5091 26.7128 84.2968 25.3059C83.0842 23.8988 81.9977 22.7369 81.8822 22.7241C81.5571 22.6877 81.6357 35.2587 81.9683 36.452C82.2276 37.3819 82.4059 37.542 83.5075 37.8357C84.3947 38.0721 84.7534 38.3119 84.7534 38.6681C84.7534 39.1254 84.4153 39.1683 80.832 39.1683C77.1843 39.1683 76.9105 39.1319 76.9105 38.6451C76.9105 38.2887 77.1743 38.0693 77.738 37.9568C79.4485 37.6161 79.562 37.0751 79.658 28.8058C79.7117 24.1743 79.6328 20.9338 79.4493 20.2553C79.127 19.062 78.3236 18.5138 76.8972 18.5138ZM106.268 18.5138C105.668 18.5138 105.481 18.3813 105.481 17.9556C105.481 17.4222 105.668 17.3974 109.683 17.3974C113.698 17.3974 113.885 17.4222 113.885 17.9556C113.885 18.3651 113.698 18.5138 113.184 18.5138C112.799 18.5138 112.227 18.7701 111.912 19.0833C111.358 19.6362 111.343 19.9111 111.422 28.4565C111.499 36.7984 111.532 37.2811 112.047 37.6561C112.346 37.8739 112.882 38.0519 113.238 38.0519C113.698 38.0519 113.885 38.2129 113.885 38.6102C113.885 39.1436 113.698 39.1683 109.683 39.1683C105.764 39.1683 105.481 39.1332 105.481 38.646C105.481 38.253 105.756 38.0795 106.591 37.9464C108.249 37.6824 108.333 37.1416 108.23 27.4925C108.147 19.7651 108.112 19.2833 107.599 18.9096C107.299 18.6919 106.701 18.5138 106.268 18.5138ZM135.577 18.5138C135.193 18.5138 134.902 18.3014 134.811 17.9556C134.67 17.4158 134.803 17.3974 138.84 17.3974C142.829 17.3974 143.016 17.4222 143.016 17.9556C143.016 18.3846 142.829 18.5138 142.209 18.5138C140.446 18.5138 140.486 18.8331 143.155 26.1326C144.513 29.8483 145.832 33.3778 146.085 33.976L146.546 35.0638L148.686 29.3706C151.204 22.6691 151.531 21.4298 151.104 20.2075C150.805 19.3556 149.646 18.5138 148.772 18.5138C148.525 18.5138 148.338 18.2738 148.338 17.9556C148.338 17.4214 148.525 17.3974 152.679 17.3974C156.834 17.3974 157.021 17.4214 157.021 17.9556C157.021 18.3528 156.834 18.5138 156.374 18.5138C155.197 18.5138 154.677 19.1396 154.847 20.3555C155.021 21.607 159.838 35.0583 160.04 34.8571C160.369 34.5297 165.704 20.0493 165.704 19.4849C165.704 18.8086 165.229 18.5138 164.141 18.5138C163.65 18.5138 163.463 18.3601 163.463 17.9556C163.463 17.4283 163.65 17.3974 166.825 17.3974C169.676 17.3974 170.186 17.4633 170.186 17.8306C170.186 18.0689 169.837 18.3852 169.41 18.5334C168.45 18.8669 168.209 19.2476 167.004 22.3315C166.475 23.6858 164.82 27.9242 163.325 31.7497C161.831 35.5757 160.544 38.8728 160.465 39.0767C160.387 39.2808 159.923 39.4476 159.436 39.4476H158.549L156.537 34.2141C155.43 31.336 154.123 27.926 153.632 26.6365C152.79 24.4269 152.719 24.331 152.403 24.9616C152.218 25.3301 150.888 28.7462 149.448 32.5531L146.83 39.4749L145.852 39.3915L144.875 39.3081L141.148 29.5608C139.065 24.115 137.15 19.5265 136.808 19.1636C136.471 18.8061 135.917 18.5138 135.577 18.5138ZM191.585 18.6322C191.538 18.5262 191.538 18.1451 191.538 18.1451C191.538 18.1451 191.527 18.0077 191.585 17.9344C191.642 17.8613 191.663 17.8594 191.869 17.8398L191.871 17.8396C192.627 17.7677 194.144 17.6466 195.411 17.5914C195.527 17.5863 195.656 17.5804 195.796 17.5741L195.798 17.574L195.8 17.5739L195.801 17.5738C197.195 17.5106 199.689 17.426 201.403 17.5117C204.692 17.676 207.031 19.2657 207.828 21.8926C208.625 24.5194 208.203 26.9853 207.117 28.5549C206.03 30.1245 204.203 31.4759 201.166 31.388C198.659 31.3154 197.988 30.8459 197.452 30.4709C197.339 30.3916 197.232 30.3164 197.115 30.2503V33.6003C197.141 35.8851 197.16 36.9824 197.337 37.3886C197.575 37.9354 198.114 38.2723 199.164 38.5305C199.164 38.5305 199.639 38.6419 199.762 38.7606C199.884 38.8793 199.884 39.143 199.884 39.143C199.884 39.143 199.909 39.3895 199.811 39.5152C199.712 39.6408 199.522 39.6157 199.522 39.6157L194.873 39.5782L192.07 39.5708C192.07 39.5708 191.776 39.6272 191.665 39.5089C191.555 39.3904 191.565 39.1436 191.565 39.1436C191.565 39.1436 191.59 38.8778 191.718 38.7589C191.847 38.6397 192.325 38.5067 192.325 38.5067C193.407 38.2032 193.875 37.8821 194.12 37.2772C194.318 36.7896 194.319 35.8853 194.317 28.5057C194.315 21.5074 194.305 20.202 194.144 19.8265C193.907 19.2708 193.312 19.1235 192.466 18.9139L192.465 18.9138C192.298 18.8722 192.12 18.8282 191.933 18.778C191.933 18.778 191.632 18.7382 191.585 18.6322ZM205.122 24.3427C205.122 25.4902 205.102 27.2869 203.88 28.4353C202.658 29.5837 200.253 29.8981 198.62 29.5783C198.105 29.4776 197.811 29.3222 197.584 29.2024L197.562 29.1905L197.144 28.9704L197.119 24.9384C197.104 22.4121 197.131 20.7662 197.19 20.5309C197.245 19.1988 199.209 19.0331 200.17 19.0824C204.277 19.0824 205.002 22.5432 205.122 24.3427ZM178.687 17.5537C178.687 17.5537 178.486 17.6307 178.182 17.746L177.085 18.3125L176.295 20.2841C175.861 21.3685 175.066 23.3591 174.53 24.7077C173.552 27.164 172.907 28.7778 172.227 30.4622C172.028 30.9577 171.424 32.4664 170.886 33.815C170.349 35.1634 169.812 36.4468 169.693 36.6669C169.673 36.7035 169.652 36.743 169.63 36.7846C169.329 37.3496 168.807 38.331 167.884 38.4794C167.884 38.4794 167.377 38.5292 167.19 38.7147C167.002 38.9003 167.02 39.052 167.02 39.052V39.2857C167.02 39.2857 167.037 39.399 167.144 39.4554C167.25 39.5119 167.394 39.5152 167.394 39.5152L170.767 39.4768H174.254C174.254 39.4768 174.501 39.5056 174.596 39.4268C174.691 39.3479 174.717 39.2309 174.717 39.2309V38.9848C174.717 38.9848 174.668 38.7179 174.53 38.6137C174.392 38.5097 173.875 38.4384 173.875 38.4384C172.479 38.2549 172.239 37.1992 172.411 36.2499C172.496 35.7835 173.057 34.0581 173.688 32.321L173.907 31.7207L177.56 31.6928C179.57 31.6774 181.305 31.6878 181.415 31.716C181.574 31.756 181.796 32.2069 182.448 33.8126C183.436 36.2456 183.514 36.5419 183.296 36.9971C183.282 37.0248 183.268 37.0554 183.253 37.0883C183.048 37.5285 182.649 38.3839 181.646 38.4709C181.646 38.4709 181.113 38.4894 180.98 38.6486C180.848 38.808 180.877 38.9913 180.877 38.9913V39.2348C180.877 39.2348 180.912 39.3776 180.98 39.4341C181.049 39.4907 181.165 39.4764 181.165 39.4764L184.481 39.4526L189.142 39.4523C189.142 39.4523 189.325 39.4718 189.375 39.4016C189.425 39.3312 189.435 39.2485 189.435 39.2485V38.925C189.435 38.925 189.415 38.753 189.325 38.6581C189.235 38.5634 188.631 38.4634 188.631 38.4634C187.859 38.3388 187.474 37.7014 187.188 37.2267C187.115 37.1056 187.048 36.9952 186.983 36.9065C186.85 36.7256 186.376 35.7343 186.005 34.7808C185.634 33.8274 184.796 31.6735 184.144 29.9947C183.491 28.3159 182.581 25.974 182.12 24.7907C181.66 23.6071 180.785 21.3553 180.176 19.7866C180.076 19.5291 179.987 19.2978 179.906 19.0908L179.906 19.0899C179.498 18.0364 179.333 17.6112 179.288 17.5537C179.141 17.3669 178.687 17.5537 178.687 17.5537ZM178.469 23.9644C178.322 23.6067 178.063 22.965 177.894 22.5384C177.586 21.7631 177.47 21.5845 177.374 21.7447C177.347 21.7914 177.153 22.3214 176.944 22.9223C175.592 26.8133 174.98 28.5653 174.857 28.8955C174.78 29.103 174.717 29.3168 174.717 29.3708C174.717 29.4327 175.817 29.4689 177.701 29.4689C179.341 29.4689 180.684 29.4485 180.684 29.4236C180.684 29.3987 180.538 29.0274 180.359 28.598C180.18 28.1686 179.742 27.0969 179.385 26.2162C179.029 25.3355 178.617 24.3223 178.469 23.9644Z" fill="#FF007A"/>
</svg>
