<svg width="132" height="50" viewBox="0 0 132 50" fill="none" xmlns="http://www.w3.org/2000/svg">
<g id="svgexport-1 1" clip-path="url(#clip0_4857_39256)">
<g id="Layer_1-2">
<g id="Group">
<g id="Group_2">
<g id="Group_3">
<path id="Vector" d="M69.3864 7.24805V16.03C69.3864 18.0408 68.3027 19.4948 66.2618 19.4948C64.5611 19.4948 63.6958 18.566 63.6958 16.6502V7.24805H59.6758V17.2688C59.6758 20.6085 61.81 22.8645 64.8396 22.8645C66.9421 22.8645 68.5178 22.0625 69.5699 20.3284V22.4626H73.3747V7.24805H69.3864Z" fill="white"/>
<path id="Vector_2" d="M84.1995 6.84961C81.7551 6.84961 80.2112 7.77666 79.2825 9.47736V7.24977H75.4492V22.4644H79.4692V13.7458C79.4692 11.4248 80.488 10.2493 82.5922 10.2493C84.508 10.2493 85.1899 10.8996 85.1899 13.2506V22.4644H89.2416V11.92C89.2416 8.61033 87.1074 6.84961 84.2012 6.84961H84.1995Z" fill="white"/>
<path id="Vector_3" d="M95.4262 3.01339C95.4262 4.31225 94.6843 5.43105 93.6572 5.67782L91.4062 6.22137V4.83914C91.4062 3.83039 92.0649 3.01172 92.8769 3.01172H95.4262V3.01339Z" fill="white"/>
<path id="Vector_4" d="M106.648 14.7011L111.688 7.24805H107.018L104.422 11.6715L101.854 7.24805H96.9988L101.948 14.7011L96.8438 22.4626H101.669L104.267 17.8874L106.926 22.4626H111.843L106.648 14.7011Z" fill="white"/>
<path id="Vector_5" d="M95.4346 7.12109V22.4641H91.4062V8.64005L95.4346 7.12109Z" fill="white"/>
</g>
<g id="Group_4">
<path id="Vector_6" d="M67.5477 29.343V30.807C66.8041 29.6065 65.722 29.0312 64.2347 29.0312C61.3802 29.0312 59.0742 31.5039 59.0742 35.1771C59.0742 38.2734 60.4181 41.2496 64.308 41.2496C65.8437 41.2496 67.1159 40.626 67.5477 39.5706V41.5147C67.5477 43.0737 66.2272 44.0591 64.5698 44.0591C63.0108 44.0591 61.9787 43.2188 61.9787 41.8032H59.0742C59.0742 44.8528 61.5002 46.7469 64.7866 46.7469C68.0729 46.7469 70.6673 44.8261 70.6673 41.2746V29.3464H67.5477V29.343ZM64.9783 38.8019C63.4427 38.8019 62.3139 37.4547 62.3139 35.3438C62.3139 32.9212 63.2259 31.744 64.9783 31.744C66.7307 31.744 67.6427 32.9679 67.6427 35.5339C67.6427 37.5281 66.4906 38.8003 64.9783 38.8003V38.8019Z" fill="white"/>
<path id="Vector_7" d="M77.5316 29.0312C73.7383 29.0312 72.3945 30.737 72.3478 33.183H75.2523C75.3957 32.1275 75.9726 31.4339 77.3865 31.4339C78.612 31.4339 79.3807 31.8891 79.3807 32.6577C79.3807 33.4714 78.9488 33.7849 77.3865 34.0016C74.2435 34.4335 71.9609 34.817 71.9609 38.2267C71.9609 40.1475 73.2098 41.4664 75.8976 41.4664C77.4815 41.4664 78.7287 40.9128 79.4724 40.0958C79.499 40.4576 79.5691 40.8628 79.6658 41.1512H82.5686V33.6882C82.5686 30.7119 81.2748 29.0312 77.5282 29.0312H77.5316ZM79.4273 36.6644C79.404 38.055 78.2035 39.2321 76.5962 39.2321C75.6108 39.2321 75.0856 38.8019 75.0856 37.9116C75.0856 36.9062 75.6591 36.4009 77.4382 36.0641C78.5887 35.8491 79.1406 35.679 79.4524 35.3672L79.429 36.6644H79.4273Z" fill="white"/>
<path id="Vector_8" d="M97.0433 29.0312C95.556 29.0312 94.5006 29.6082 93.8537 30.9037C92.9416 29.5365 92.1713 29.0312 90.5656 29.0312C88.96 29.0312 87.8996 29.5131 87.1076 31.0721V29.343H84.1797V41.1512H87.2993V33.9766C87.2993 32.4393 87.9496 31.6707 89.1951 31.6707C90.5656 31.6707 91.0675 32.1509 91.0675 34.0466V41.1512H94.1871V34.0967C94.1871 32.6561 95.0275 31.574 96.1813 31.574C97.3351 31.574 98.0287 32.5827 98.0287 34V41.1512H101.078V32.9679C101.078 30.7603 99.4226 29.0312 97.045 29.0312H97.0433Z" fill="white"/>
<path id="Vector_9" d="M105.707 29.2656V41.1522H102.586V30.4428L105.707 29.2656Z" fill="white"/>
<path id="Vector_10" d="M105.706 26.375C105.706 27.3704 105.089 28.2624 104.158 28.6126L102.586 29.2062V27.7406C102.586 26.9869 103.198 26.375 103.951 26.375H105.706Z" fill="white"/>
<path id="Vector_11" d="M114.156 29.0312C112.26 29.0312 111.06 29.7515 110.34 31.0721V29.343H107.363V41.1512H110.483V34.3851C110.483 32.5827 111.277 31.6707 112.909 31.6707C114.396 31.6707 114.923 32.1759 114.923 34V41.1512H118.069V32.9679C118.069 30.4001 116.414 29.0312 114.156 29.0312Z" fill="white"/>
<path id="Vector_12" d="M127.907 29.343V30.807C127.163 29.6065 126.085 29.0312 124.596 29.0312C121.738 29.0312 119.435 31.5039 119.435 35.1771C119.435 38.2734 120.779 41.2496 124.666 41.2496C126.203 41.2496 127.474 40.626 127.905 39.5706V41.5147C127.905 43.0737 126.585 44.0591 124.929 44.0591C123.37 44.0591 122.338 43.2188 122.338 41.8032H119.434C119.434 44.8528 121.856 46.7469 125.146 46.7469C128.436 46.7469 131.023 44.8261 131.023 41.2746V29.3464H127.904L127.907 29.343ZM125.339 38.8019C123.802 38.8019 122.675 37.4547 122.675 35.3438C122.675 32.9212 123.587 31.744 125.339 31.744C127.092 31.744 128.004 32.9679 128.004 35.5339C128.004 37.5281 126.852 38.8003 125.339 38.8003V38.8019Z" fill="white"/>
</g>
</g>
<g id="Group_5">
<g id="Clip path group">
<mask id="mask0_4857_39256" style="mask-type:luminance" maskUnits="userSpaceOnUse" x="0" y="0" width="50" height="50">
<g id="clippath">
<path id="Vector_13" d="M24.6086 23.1468C24.7404 23.1468 24.8788 23.1535 25.0105 23.1685C25.0522 23.1735 25.0955 23.1785 25.1372 23.1851C25.1622 23.1868 25.1839 23.1918 25.2072 23.1968C25.2239 23.2018 25.2422 23.2018 25.2589 23.2035C25.2739 23.2052 25.2873 23.2052 25.3023 23.2102C25.3656 23.2202 25.4307 23.2318 25.4973 23.2485C25.5307 23.2535 25.5624 23.2635 25.5941 23.2735C25.6057 23.2752 25.6157 23.2785 25.6274 23.2802C25.6758 23.2919 25.7274 23.3052 25.7775 23.3235C25.8091 23.3335 25.8408 23.3435 25.8725 23.3552C25.8892 23.3619 25.9042 23.3669 25.9209 23.3752C25.9225 23.3752 25.9275 23.3752 25.9309 23.3786C25.9325 23.3752 25.9359 23.3752 25.9375 23.3786C25.9442 23.3786 25.9492 23.3802 25.9575 23.3836C26.0159 23.4052 26.0809 23.4269 26.1393 23.4569C26.2126 23.4869 26.2777 23.5153 26.351 23.552C26.3794 23.567 26.4061 23.582 26.4427 23.6036C26.4577 23.6103 26.4794 23.6187 26.4944 23.632C26.4994 23.632 26.5044 23.6353 26.5061 23.637C26.5228 23.642 26.5378 23.6487 26.5494 23.662C26.5544 23.667 26.5611 23.672 26.5661 23.677C26.5811 23.6837 26.5945 23.692 26.6095 23.6987C26.6211 23.7054 26.6361 23.7137 26.6462 23.7204C26.6578 23.7254 26.6678 23.732 26.6778 23.7404C26.7145 23.757 26.7462 23.7787 26.7779 23.8004C26.7879 23.8071 26.7979 23.8154 26.8079 23.8221C26.9163 23.8954 27.0113 23.9671 27.113 24.0472C27.1647 24.0905 27.208 24.1272 27.2597 24.1706L27.3915 24.3023C27.3915 24.3023 27.4081 24.3173 27.4165 24.3239C27.4465 24.349 27.4698 24.3756 27.4948 24.404C27.5048 24.4157 27.5148 24.429 27.5248 24.4407C27.5449 24.4607 27.5615 24.4773 27.5782 24.4974C27.5999 24.5224 27.6216 24.5457 27.6416 24.5707C27.6532 24.5857 27.6666 24.6024 27.6782 24.6174C27.6933 24.6374 27.7049 24.6507 27.7166 24.6691C27.7283 24.6858 27.7383 24.7008 27.7499 24.7208H27.7583C27.7583 24.7208 27.7649 24.7308 27.7683 24.7358C27.81 24.7891 27.8433 24.8358 27.8833 24.8892C27.9484 24.9992 28.015 25.0976 28.0801 25.2143C28.1118 25.2727 28.1384 25.3227 28.1634 25.3844C28.1684 25.3944 28.1734 25.4011 28.1751 25.4111C28.2018 25.4527 28.2235 25.4978 28.2351 25.5444C28.2351 25.5494 28.2385 25.5511 28.2385 25.5561C28.2435 25.5661 28.2485 25.5778 28.2535 25.5878C28.2735 25.6295 28.2868 25.6695 28.3018 25.7145C28.3068 25.7212 28.3085 25.7312 28.3118 25.7379C28.3235 25.7679 28.3335 25.7962 28.3435 25.8262C28.3552 25.8579 28.3685 25.8863 28.3769 25.9213C28.3835 25.9513 28.3935 25.9813 28.4019 26.013C28.4119 26.0447 28.4219 26.0763 28.4286 26.1097C28.4436 26.168 28.4586 26.2331 28.4719 26.2998C28.4719 26.3031 28.4752 26.3081 28.4752 26.3098C28.4869 26.3581 28.4952 26.4065 28.5019 26.4598C28.5086 26.4748 28.5086 26.4965 28.5086 26.5115V26.5198C28.5153 26.5449 28.5203 26.5732 28.5203 26.5999C28.5219 26.6099 28.5219 26.6199 28.5219 26.6299C28.5269 26.6416 28.5269 26.6499 28.5269 26.6599C28.5303 26.6699 28.5303 26.6766 28.5303 26.6899C28.5303 26.7033 28.5353 26.7199 28.5353 26.7316C28.5386 26.7333 28.5386 26.7383 28.5386 26.7416C28.5436 26.7666 28.5436 26.7933 28.5436 26.82C28.5469 26.825 28.5469 26.83 28.5436 26.835C28.5469 26.855 28.5469 26.8767 28.5469 26.8967C28.5503 26.9284 28.5519 26.96 28.5519 26.9917C28.5553 27.0234 28.5553 27.0567 28.5553 27.0918V27.1001C28.5553 27.1251 28.5553 27.1518 28.5519 27.1785C28.5519 27.2035 28.5503 27.2268 28.5469 27.2535V27.3552C28.5469 27.3769 28.5469 27.3985 28.5403 27.4202C28.5403 27.4319 28.5403 27.4452 28.5369 27.4569C28.5369 27.4669 28.5353 27.4769 28.5319 27.4869C28.5319 27.4986 28.5319 27.5119 28.5286 27.5236C28.5286 27.5669 28.5219 27.6086 28.5169 27.6553C28.5169 27.6603 28.5136 27.6603 28.5136 27.662C28.5119 27.662 28.5119 27.6637 28.5119 27.6637C28.5086 27.6637 28.5086 27.667 28.5086 27.6687V27.6753C28.5036 27.6953 28.5019 27.717 28.4986 27.7353C28.4886 27.7937 28.4819 27.8537 28.4652 27.9154C28.4552 27.9671 28.4436 28.0171 28.4319 28.0688C28.4202 28.1205 28.4069 28.1705 28.3935 28.2222C28.3769 28.2806 28.3552 28.3356 28.3352 28.394C28.3135 28.4523 28.2918 28.5073 28.2702 28.564C28.2635 28.5857 28.2551 28.6057 28.2435 28.624C28.2101 28.7191 28.1651 28.8058 28.1201 28.8958C28.1134 28.9108 28.1051 28.9258 28.0984 28.9392C28.0767 28.9809 28.0551 29.0192 28.0334 29.0559C28.0234 29.0776 28.0117 29.0992 27.9967 29.1209C27.99 29.1359 27.9817 29.1426 27.975 29.1576C27.9667 29.1643 27.9634 29.1743 27.9584 29.1826C27.9517 29.1926 27.9467 29.201 27.9384 29.2093C27.9317 29.2243 27.9217 29.2393 27.9117 29.251C27.9017 29.2626 27.895 29.2726 27.8867 29.2827C27.87 29.3093 27.8517 29.336 27.835 29.3627C27.8166 29.3927 27.7933 29.4227 27.7699 29.4494C27.7583 29.4694 27.7433 29.4911 27.7283 29.5077C27.7016 29.5444 27.6749 29.5761 27.6466 29.6095C27.6366 29.6211 27.6249 29.6345 27.6149 29.6461C27.5815 29.6845 27.5499 29.7245 27.5148 29.7628C27.5065 29.7695 27.5032 29.7745 27.4948 29.7829C27.4515 29.8262 27.4115 29.8696 27.3681 29.9096C27.3464 29.9313 27.3214 29.9563 27.2948 29.9796C27.2781 29.9963 27.2614 30.0113 27.2431 30.0263C27.2431 30.0296 27.2431 30.0313 27.2397 30.0313V30.0346C27.2397 30.0346 27.2347 30.0396 27.2347 30.0413C27.2014 30.068 27.1714 30.093 27.1397 30.1163C27.108 30.143 27.078 30.1697 27.0447 30.1947C27.033 30.2047 27.0196 30.2147 27.008 30.2214C26.9863 30.238 26.9646 30.2547 26.9429 30.2697C26.8696 30.3247 26.7979 30.3764 26.7195 30.4231L26.7028 30.4348C26.7028 30.4348 26.6928 30.4398 26.6878 30.4448C26.6495 30.4698 26.6095 30.4915 26.5711 30.5148C26.5661 30.5182 26.5611 30.5198 26.5561 30.5215C26.5044 30.5515 26.4544 30.5799 26.4061 30.6015C26.3794 30.6165 26.3544 30.6282 26.331 30.6399C26.3043 30.6549 26.2777 30.6649 26.2527 30.6782C26.2226 30.6899 26.1943 30.7032 26.166 30.7149C26.1509 30.7216 26.1359 30.7266 26.1226 30.7349C26.0859 30.7466 26.0492 30.7599 26.0142 30.7733C26.0142 30.7733 26.0092 30.7783 26.0042 30.7833C26.0042 30.7833 26.0026 30.7849 25.9992 30.7883C25.9775 30.7949 25.9559 30.7999 25.9342 30.8083C25.8825 30.8233 25.8325 30.84 25.7841 30.86C25.7808 30.86 25.7775 30.86 25.7741 30.8633C25.7308 30.8783 25.6874 30.885 25.6424 30.9C25.6324 30.905 25.6207 30.9067 25.6091 30.91C25.5974 30.915 25.584 30.92 25.5707 30.9217C25.5657 30.9217 25.5607 30.925 25.5557 30.925C25.5507 30.9283 25.5457 30.93 25.5407 30.93C25.534 30.93 25.5257 30.93 25.519 30.9383C25.509 30.9383 25.499 30.94 25.4923 30.94C25.4823 30.9433 25.4757 30.945 25.4673 30.945C25.4307 30.9517 25.3873 30.96 25.344 30.9667C25.3339 30.9683 25.3239 30.9717 25.3139 30.9733C25.3089 30.975 25.3039 30.975 25.2989 30.975C25.2873 30.9784 25.2739 30.98 25.2622 30.98C25.2556 30.98 25.2422 30.98 25.2356 30.9884H25.2339C25.1822 30.995 25.1389 31.0034 25.0872 31.01H25.0805C25.0222 31.01 24.9638 31.0184 24.8988 31.025C24.8037 31.0317 24.712 31.04 24.617 31.04H24.6136C24.5453 31.04 24.4769 31.0384 24.4102 31.035C24.2785 31.0284 24.1451 31.0134 24.0167 30.9934C23.9517 30.9834 23.885 30.9717 23.8233 30.96H23.8217C23.6899 30.93 23.5649 30.8967 23.4432 30.86C23.3164 30.8216 23.1981 30.7783 23.0814 30.7266C23.023 30.7049 22.9646 30.6782 22.9063 30.6482C22.8696 30.6299 22.8329 30.6115 22.7962 30.5932C22.7596 30.5732 22.7229 30.5548 22.6895 30.5332C22.6528 30.5132 22.6162 30.4948 22.5811 30.4715C22.5445 30.4498 22.5078 30.4248 22.4711 30.4014C22.4511 30.3914 22.4328 30.3798 22.4144 30.3648C22.4094 30.3598 22.4044 30.3581 22.3977 30.3531C22.3877 30.3481 22.3794 30.3414 22.3694 30.3364C22.3694 30.3364 22.3644 30.3336 22.3544 30.3281C22.3327 30.3114 22.311 30.2947 22.2894 30.2764C22.2744 30.2647 22.261 30.2514 22.246 30.2397C22.221 30.223 22.1977 30.2064 22.1726 30.1864C22.136 30.1563 22.0993 30.1247 22.0626 30.093C22.0192 30.0563 21.9826 30.028 21.9459 29.9913C21.9442 29.9896 21.9392 29.9863 21.9359 29.9846C21.8975 29.9513 21.8625 29.9162 21.8292 29.8829C21.6057 29.6595 21.4107 29.411 21.2456 29.1393C21.1139 28.9225 21.0055 28.6924 20.9155 28.4523C20.7621 28.0288 20.6804 27.5736 20.6804 27.0934C20.6804 26.7166 20.7337 26.3531 20.8338 26.0046C20.9021 25.7645 20.9938 25.5311 21.1089 25.3094C21.1205 25.2893 21.1305 25.271 21.1406 25.251C21.1672 25.2026 21.1922 25.156 21.2206 25.1076C21.2373 25.0776 21.2556 25.0509 21.2739 25.0226C21.2773 25.0159 21.2823 25.0076 21.2889 25.0009C21.3106 24.9625 21.3356 24.9209 21.3673 24.8825C21.3873 24.8508 21.409 24.8191 21.4307 24.7891C21.4507 24.7625 21.469 24.7358 21.489 24.7108C21.509 24.6858 21.5274 24.6624 21.5474 24.6407V24.6341C21.5891 24.5824 21.6291 24.534 21.6708 24.4907C21.6874 24.4723 21.7041 24.454 21.7225 24.4373C21.7341 24.4223 21.7441 24.4073 21.7591 24.3956C21.7591 24.3906 21.7641 24.389 21.7658 24.3856C21.8042 24.3423 21.8442 24.3039 21.8859 24.2639C21.8925 24.2589 21.8975 24.2523 21.9042 24.2472C21.9259 24.2256 21.9476 24.2056 21.9692 24.1872C21.9842 24.1756 21.9992 24.1655 22.0126 24.1539C22.0376 24.1289 22.0609 24.1072 22.0859 24.0855C22.0959 24.0755 22.1076 24.0638 22.1193 24.0555C22.1826 24.0005 22.246 23.9521 22.311 23.9054C22.3327 23.8888 22.3544 23.8721 22.3811 23.8588C22.3877 23.8538 22.3961 23.8488 22.4061 23.8471C22.4277 23.8304 22.4478 23.8154 22.4694 23.7987C22.4728 23.8004 22.4728 23.7987 22.4744 23.7954C22.4961 23.7804 22.5178 23.7687 22.5395 23.7537C22.5611 23.7387 22.5861 23.7237 22.6095 23.7104C22.6312 23.6987 22.6562 23.6837 22.6829 23.672C22.6895 23.667 22.6979 23.662 22.7029 23.657C22.7229 23.642 22.7395 23.6303 22.7612 23.6203C22.7812 23.6103 22.7996 23.6003 22.8196 23.5936C22.8296 23.5886 22.8396 23.587 22.8496 23.5836C22.9129 23.5503 22.9763 23.5203 23.0413 23.4919C23.0747 23.4769 23.1064 23.4619 23.1414 23.4486C23.1781 23.4336 23.2114 23.4202 23.2481 23.4069C23.2814 23.3952 23.3164 23.3819 23.3498 23.3702C23.3831 23.3585 23.4198 23.3452 23.4548 23.3369C23.4698 23.3319 23.4849 23.3252 23.4982 23.3202C23.5232 23.3135 23.5499 23.3052 23.5716 23.3002C23.5966 23.2935 23.6232 23.2852 23.6466 23.2802C23.6933 23.2652 23.7366 23.2552 23.7833 23.2485C23.8267 23.2385 23.8733 23.2285 23.9167 23.2218C23.95 23.2168 23.9817 23.2118 24.0167 23.2068C24.0234 23.2068 24.0284 23.2035 24.0334 23.2018C24.0468 23.2001 24.0618 23.1985 24.0751 23.1968C24.0801 23.1968 24.0834 23.1968 24.0884 23.1985C24.1751 23.1835 24.2635 23.1718 24.3502 23.1668C24.3669 23.1635 24.3819 23.1618 24.3986 23.1635C24.4719 23.1568 24.5436 23.1535 24.617 23.1535M0.183594 22.6633V22.6666L4.03685 19.1835L12.1552 11.8438H19.725V27.782C19.725 29.1276 20.2719 30.3514 21.1589 31.2318C22.0409 32.1205 23.2631 32.6657 24.6086 32.6657C24.8271 32.6657 25.0438 32.6507 25.2572 32.624C25.374 32.6074 25.4873 32.5873 25.6024 32.5657C25.6974 32.5457 25.7925 32.524 25.8842 32.5006C26.7279 32.2739 27.4798 31.822 28.0784 31.2184C28.3552 30.9383 28.5986 30.6249 28.8004 30.2881C28.8687 30.1764 28.9321 30.0613 28.9888 29.9429C29.0271 29.8646 29.0638 29.7879 29.0955 29.7078C29.3523 29.1176 29.494 28.4673 29.494 27.7837V11.8455H37.0571V27.7837C37.0571 27.8737 37.0571 27.9604 37.0521 28.0488C37.0521 28.1305 37.0504 28.2139 37.0454 28.2939V28.3156C37.0304 28.6574 37.0037 28.9975 36.9604 29.3343C36.9554 29.356 36.9537 29.376 36.9537 29.3944C36.9154 29.7128 36.8604 30.028 36.7937 30.3364C36.6736 30.915 36.5135 31.4752 36.3151 32.0204C36.2051 32.3322 36.08 32.6374 35.9416 32.9358C35.91 33.0109 35.8733 33.0859 35.8366 33.1592C35.6615 33.5294 35.4648 33.8879 35.2514 34.238C35.213 34.3064 35.168 34.3764 35.123 34.4448C35.0813 34.5131 35.0379 34.5832 34.9896 34.6515C34.9046 34.7832 34.8145 34.9116 34.7228 35.0384C34.6711 35.1084 34.6211 35.1801 34.5677 35.2501C34.471 35.3818 34.371 35.5069 34.2676 35.6336C34.1709 35.7553 34.0709 35.8737 33.9658 35.9904C33.9492 36.0104 33.9342 36.0271 33.9175 36.0454C33.8274 36.1455 33.7374 36.2455 33.6424 36.3422C33.6307 36.3589 33.6124 36.3739 33.5957 36.3906C33.5257 36.4656 33.4523 36.539 33.3773 36.6123C33.3472 36.644 33.3172 36.6757 33.2822 36.7074C33.1655 36.8191 33.0471 36.9308 32.9271 37.0408C32.9204 37.0508 32.9104 37.0575 32.9004 37.0625C32.7887 37.1676 32.6736 37.2659 32.5603 37.3643C32.4369 37.466 32.3068 37.5677 32.1784 37.6661C32.1751 37.6678 32.1734 37.6678 32.1734 37.6711C32.045 37.7678 31.9167 37.8662 31.7816 37.9579C31.6866 38.0229 31.5915 38.0896 31.4948 38.153C31.4398 38.1913 31.3831 38.228 31.3297 38.2613C31.2447 38.3197 31.1563 38.3731 31.0696 38.4247C30.9829 38.4781 30.8946 38.5298 30.8045 38.5798C30.6178 38.6915 30.426 38.7932 30.231 38.8916C30.1509 38.9333 30.0709 38.9716 29.9909 39.01C29.8992 39.0567 29.8058 39.1 29.7124 39.1417C29.6424 39.1734 29.569 39.2051 29.499 39.2367C29.2756 39.3335 29.0471 39.4235 28.817 39.5035C28.7487 39.5302 28.6787 39.5552 28.6103 39.5769C28.5586 39.5969 28.5086 39.6136 28.4569 39.6286C28.3935 39.6502 28.3285 39.6703 28.2652 39.6886L28.2618 39.6919C28.2618 39.6919 28.2518 39.6953 28.2468 39.6969L28.2085 39.7119L18.8413 43.4852L12.3169 46.1146H12.3119C12.5303 46.243 12.7521 46.3647 12.9722 46.4831C13.6375 46.8432 14.3227 47.1717 15.0197 47.4701C17.9659 48.724 21.2056 49.4143 24.6103 49.4143C38.1559 49.4143 49.1321 38.4381 49.1321 24.8942C49.1321 11.3503 38.1542 0.357422 24.6086 0.357422C11.8117 0.357422 1.30572 10.1581 0.183594 22.6633Z" fill="white"/>
</g>
</mask>
<g mask="url(#mask0_4857_39256)">
<g id="Group_6">
<path id="Vector_14" d="M49.1304 0.357422H0.183594V49.4059H49.1304V0.357422Z" fill="url(#paint0_linear_4857_39256)"/>
</g>
</g>
</g>
<g id="Group_7">
<path id="Vector_15" d="M37.0532 11.8457V27.7839C37.0532 33.3779 33.3466 38.1232 28.2595 39.6888C27.1041 40.0423 25.8769 40.2341 24.6047 40.2341C17.7419 40.2341 12.1562 34.6501 12.1562 27.7839V11.8457H19.721V27.7839C19.721 30.4784 21.9136 32.6693 24.6047 32.6693C24.7148 32.6693 24.8248 32.6659 24.9332 32.6559C25.0315 32.6509 25.1283 32.6426 25.2233 32.6276C25.235 32.6276 25.245 32.6259 25.2566 32.6243C25.2633 32.6226 25.2683 32.6226 25.275 32.6209C25.3267 32.6159 25.3784 32.6076 25.4284 32.5976C25.4867 32.5876 25.5434 32.5776 25.6001 32.5659C25.6468 32.5559 25.6952 32.5459 25.7418 32.5359C25.7885 32.5242 25.8352 32.5125 25.8819 32.4992C26.012 32.4642 26.1387 32.4242 26.2654 32.3792C26.4521 32.3108 26.6355 32.2308 26.8123 32.1424C27.1641 31.9623 27.4926 31.7406 27.7893 31.4854C27.8877 31.4004 27.9828 31.3104 28.0761 31.217C28.1228 31.1703 28.1678 31.1236 28.2112 31.0753C28.2545 31.0269 28.2979 30.9786 28.3396 30.9286C28.3696 30.8935 28.3979 30.8585 28.4263 30.8235C28.4596 30.7818 28.493 30.7401 28.523 30.6968C28.5813 30.6184 28.638 30.5384 28.6914 30.455C28.8348 30.2366 28.9615 30.0048 29.0699 29.7631C29.0932 29.7081 29.1166 29.653 29.1382 29.598C29.1416 29.5963 29.1416 29.5947 29.1399 29.593C29.1466 29.5847 29.1499 29.5763 29.1516 29.568C29.1549 29.5613 29.1582 29.5547 29.1599 29.548C29.1783 29.4963 29.1966 29.4446 29.2166 29.3913C29.3917 28.8877 29.4884 28.3475 29.4884 27.7839V11.8457H37.0532Z" fill="black"/>
<path id="Vector_16" d="M37.0532 11.8457V27.7839C37.0532 33.3779 33.3466 38.1232 28.2595 39.6888C27.1041 40.0423 25.8769 40.2341 24.6047 40.2341C17.7419 40.2341 12.1562 34.6501 12.1562 27.7839V11.8457H19.721V27.7839C19.721 30.4784 21.9136 32.6693 24.6047 32.6693C24.7148 32.6693 24.8248 32.6659 24.9332 32.6559C25.0315 32.6509 25.1283 32.6426 25.2233 32.6276C25.235 32.6276 25.245 32.6259 25.2566 32.6243C25.2633 32.6226 25.2683 32.6226 25.275 32.6209C25.3267 32.6159 25.3784 32.6076 25.4284 32.5976C25.4867 32.5876 25.5434 32.5776 25.6001 32.5659C25.6468 32.5559 25.6952 32.5459 25.7418 32.5359C25.7885 32.5242 25.8352 32.5125 25.8819 32.4992C26.012 32.4642 26.1387 32.4242 26.2654 32.3792C26.4521 32.3108 26.6355 32.2308 26.8123 32.1424C27.1641 31.9623 27.4926 31.7406 27.7893 31.4854C27.8877 31.4004 27.9828 31.3104 28.0761 31.217C28.1228 31.1703 28.1678 31.1236 28.2112 31.0753C28.2545 31.0269 28.2979 30.9786 28.3396 30.9286C28.3696 30.8935 28.3979 30.8585 28.4263 30.8235C28.4596 30.7818 28.493 30.7401 28.523 30.6968C28.5813 30.6184 28.638 30.5384 28.6914 30.455C28.8348 30.2366 28.9615 30.0048 29.0699 29.7631C29.0932 29.7081 29.1166 29.653 29.1382 29.598C29.1416 29.5963 29.1416 29.5947 29.1399 29.593C29.1466 29.5847 29.1499 29.5763 29.1516 29.568C29.1549 29.5613 29.1582 29.5547 29.1599 29.548C29.1783 29.4963 29.1966 29.4446 29.2166 29.3913C29.3917 28.8877 29.4884 28.3475 29.4884 27.7839V11.8457H37.0532Z" fill="white"/>
<path id="Vector_17" d="M29.491 11.8457L29.4877 11.849V27.7839C29.4877 28.3475 29.391 28.8877 29.2159 29.3913C29.396 28.8877 29.4927 28.3458 29.4927 27.7839V11.8457H29.491ZM29.0942 29.7081C29.1092 29.6714 29.1259 29.6347 29.1376 29.598C29.1159 29.653 29.0925 29.7081 29.0692 29.7631C29.0792 29.7447 29.0875 29.7264 29.0942 29.7081ZM28.7974 30.2883C28.8658 30.1766 28.9275 30.0615 28.9858 29.9431C29.0158 29.8831 29.0458 29.8231 29.0692 29.7631C28.9608 30.0048 28.8341 30.2366 28.6907 30.455C28.729 30.4 28.7641 30.345 28.7974 30.2883ZM28.544 27.0903C28.544 27.1153 28.544 27.142 28.5423 27.1687C28.5423 27.1937 28.539 27.217 28.5373 27.2437V27.3321C28.544 27.252 28.5456 27.172 28.5456 27.0903C28.5456 27.0553 28.5456 27.0186 28.5423 26.9836C28.544 27.0153 28.544 27.0503 28.544 27.0836V27.0903ZM28.534 26.8285C28.5373 26.8485 28.5373 26.8702 28.5373 26.8886C28.539 26.9202 28.5423 26.9519 28.5423 26.9836C28.5423 26.9302 28.5406 26.8769 28.5356 26.8235C28.5356 26.8252 28.5356 26.8269 28.5356 26.8285H28.534ZM28.534 26.8169C28.534 26.8052 28.534 26.7919 28.5306 26.7802C28.5323 26.7919 28.5323 26.8019 28.5323 26.8135C28.5323 26.8152 28.5323 26.8169 28.5323 26.8169H28.534ZM28.529 27.4121C28.529 27.4238 28.529 27.4354 28.5256 27.4471C28.5256 27.4571 28.524 27.4671 28.5206 27.4771C28.5206 27.4888 28.5206 27.5021 28.519 27.5138C28.519 27.5255 28.519 27.5388 28.5156 27.5505C28.5223 27.5005 28.5273 27.4505 28.5306 27.4004C28.5306 27.4038 28.5306 27.4088 28.529 27.4121ZM28.5256 26.7268C28.5256 26.7268 28.529 26.7302 28.5273 26.7318C28.5256 26.7051 28.5223 26.6801 28.519 26.6551C28.5206 26.6651 28.5206 26.6735 28.5206 26.6851C28.5206 26.6968 28.5256 26.7152 28.5256 26.7268ZM28.5073 26.5568C28.509 26.5701 28.5106 26.5834 28.5106 26.5984C28.514 26.6068 28.514 26.6168 28.514 26.6268C28.5156 26.6335 28.5173 26.6368 28.5173 26.6418C28.5156 26.6134 28.5123 26.5851 28.5073 26.5568ZM28.499 26.5101V26.5167C28.5023 26.5301 28.5056 26.5434 28.5073 26.5568C28.504 26.5317 28.5006 26.5084 28.4973 26.4834C28.499 26.4934 28.499 26.5034 28.499 26.5101ZM28.499 27.6589V27.6672C28.494 27.6856 28.4923 27.7072 28.4889 27.7272C28.4839 27.7572 28.4789 27.7856 28.4756 27.8156C28.4873 27.7622 28.4956 27.7072 28.504 27.6522C28.5023 27.6522 28.5023 27.6539 28.5023 27.6539C28.499 27.6539 28.499 27.6572 28.499 27.6589ZM28.4206 28.0607C28.4339 28.009 28.4456 27.9573 28.4556 27.9073C28.4639 27.8773 28.4689 27.8456 28.4756 27.8156C28.4573 27.9206 28.4339 28.0257 28.4056 28.1274C28.4106 28.1041 28.4156 28.0824 28.4206 28.0607ZM28.4656 26.3083C28.4589 26.2716 28.4506 26.2366 28.4406 26.2016C28.4489 26.2333 28.4556 26.2666 28.4623 26.2983C28.4623 26.3017 28.4656 26.3067 28.4656 26.3083ZM28.3239 28.3858C28.3322 28.3608 28.3422 28.3358 28.3489 28.3108C28.3189 28.4042 28.2855 28.4976 28.2472 28.5876C28.2522 28.5776 28.2555 28.5676 28.2589 28.5559C28.2805 28.4992 28.3022 28.4442 28.3239 28.3858ZM28.3022 25.7381C28.3139 25.7664 28.3239 25.7964 28.3339 25.8248C28.3172 25.7681 28.2955 25.7131 28.2739 25.6581C28.2805 25.6764 28.2872 25.6947 28.2922 25.7131C28.2972 25.7214 28.3005 25.7297 28.3022 25.7381ZM28.2438 25.5864C28.2522 25.603 28.2589 25.6197 28.2655 25.638C28.2539 25.6064 28.2422 25.5747 28.2272 25.543C28.2272 25.548 28.2288 25.5513 28.2288 25.5547C28.2338 25.5647 28.2388 25.578 28.2438 25.5864ZM28.2322 28.6159C28.2155 28.661 28.1972 28.7043 28.1772 28.746C28.2022 28.6943 28.2255 28.6409 28.2472 28.5876C28.2422 28.5976 28.2388 28.6076 28.2322 28.6159ZM28.1655 25.4096C28.1655 25.4096 28.1705 25.418 28.1722 25.4213C28.1688 25.413 28.1655 25.4046 28.1605 25.3963C28.1621 25.3996 28.1655 25.4046 28.1655 25.4096ZM28.1538 25.3829C28.1538 25.3829 28.1588 25.3929 28.1605 25.3963C28.1555 25.3829 28.1488 25.3696 28.1421 25.3579C28.1471 25.3663 28.1505 25.3746 28.1538 25.3829ZM28.0738 31.2187C27.9804 31.3104 27.8854 31.4004 27.787 31.4854C27.8854 31.4021 27.9821 31.312 28.0738 31.2187ZM27.9254 29.2012C27.9254 29.2012 27.9187 29.2162 27.9137 29.2229C27.9221 29.2128 27.9287 29.2012 27.9354 29.1895C27.9321 29.1945 27.9287 29.1978 27.9254 29.2012ZM27.8987 29.2429C27.8887 29.2562 27.882 29.2645 27.8754 29.2745C27.8604 29.2962 27.847 29.3179 27.8337 29.3396C27.8604 29.3012 27.8887 29.2629 27.9137 29.2229C27.9087 29.2312 27.9037 29.2379 27.8987 29.2429ZM27.8337 29.3396C27.8187 29.3596 27.807 29.3796 27.792 29.3996C27.8037 29.3846 27.8137 29.3696 27.8237 29.3546C27.827 29.3496 27.8303 29.3446 27.8337 29.3396ZM27.792 29.3996C27.782 29.4146 27.7703 29.4296 27.7586 29.4429C27.752 29.4513 27.7453 29.4613 27.7386 29.4713C27.7586 29.4479 27.777 29.4229 27.792 29.3996ZM27.7486 24.7193C27.737 24.7027 27.7236 24.686 27.7103 24.6693C27.722 24.686 27.732 24.701 27.7436 24.7193H27.7486ZM27.6019 29.6397C27.5819 29.6614 27.5636 29.6847 27.5436 29.7081C27.5702 29.6797 27.5952 29.6514 27.6186 29.6213C27.6119 29.6264 27.6069 29.633 27.6019 29.6397ZM27.5419 24.4676C27.5302 24.4526 27.5169 24.4375 27.5035 24.4242C27.5085 24.4309 27.5119 24.4359 27.5169 24.4426C27.5252 24.4509 27.5336 24.4592 27.5419 24.4676ZM27.3568 29.9015C27.3468 29.9115 27.3368 29.9215 27.3268 29.9331C27.3551 29.9081 27.3835 29.8798 27.4068 29.8531C27.3902 29.8698 27.3735 29.8865 27.3568 29.9015ZM27.2334 30.0182L27.2318 30.0215C27.2501 30.0065 27.2684 29.9898 27.2851 29.9715C27.2668 29.9882 27.2501 30.0032 27.2334 30.0182ZM27.787 31.4854C27.4902 31.7406 27.1617 31.9623 26.8099 32.1424C27.1634 31.9656 27.4902 31.7439 27.787 31.4854ZM26.8699 23.869C26.8416 23.8473 26.8116 23.8273 26.7816 23.8073C26.7882 23.8123 26.7949 23.8173 26.8033 23.824C26.8266 23.839 26.8483 23.854 26.8699 23.869ZM26.6065 23.6989C26.5865 23.6856 26.5682 23.6739 26.5465 23.6639C26.5515 23.6672 26.5582 23.6722 26.5632 23.6772C26.5782 23.6856 26.5915 23.6922 26.6065 23.6989ZM26.4965 23.6356C26.4965 23.6356 26.4848 23.6272 26.4798 23.6255C26.4831 23.6289 26.4865 23.6306 26.4898 23.6339C26.4898 23.6339 26.4948 23.6339 26.4965 23.6356ZM26.3981 30.5934C26.3848 30.6018 26.3714 30.6084 26.3597 30.6134C26.3981 30.5968 26.4348 30.5767 26.4715 30.5567C26.4464 30.5701 26.4214 30.5817 26.3981 30.5934ZM26.8099 32.1424C26.6332 32.2308 26.4498 32.3108 26.263 32.3792C26.4514 32.3141 26.6349 32.2341 26.8099 32.1424ZM26.0046 30.7668C26.0046 30.7668 26.0013 30.7702 25.9979 30.7735C26.0329 30.7602 26.068 30.7451 26.103 30.7301C26.0696 30.7418 26.0379 30.7535 26.0046 30.7668ZM25.7395 32.5359C25.7878 32.5259 25.8345 32.5125 25.8795 32.5009C26.0096 32.4659 26.138 32.4258 26.263 32.3792C26.1363 32.4242 26.0096 32.4642 25.8795 32.4992C25.8329 32.5125 25.7862 32.5242 25.7395 32.5359ZM25.9262 23.3804C25.9262 23.3804 25.9262 23.3804 25.9296 23.3804C25.9096 23.3721 25.8895 23.3654 25.8679 23.3604C25.8845 23.3688 25.8996 23.3738 25.9162 23.3804C25.9196 23.3804 25.9246 23.3804 25.9262 23.3804ZM25.5978 30.9002C25.6311 30.8919 25.6645 30.8835 25.6978 30.8719C25.6761 30.8769 25.6544 30.8819 25.6328 30.8902C25.6228 30.8952 25.6111 30.8969 25.5978 30.9002ZM25.5544 23.2671C25.5661 23.2704 25.5778 23.2737 25.5894 23.2771C25.6011 23.2787 25.6094 23.2821 25.6211 23.2837C25.5994 23.2771 25.5778 23.2704 25.5544 23.2671ZM25.3343 30.9552C25.3343 30.9552 25.3193 30.9602 25.311 30.9619C25.3577 30.9536 25.406 30.9469 25.4527 30.9352C25.4177 30.9419 25.376 30.9486 25.3343 30.9552ZM25.3043 30.9636C25.3043 30.9636 25.3093 30.9636 25.311 30.9619C25.306 30.9619 25.301 30.9636 25.2943 30.9652C25.2976 30.9652 25.301 30.9652 25.3026 30.9652L25.3043 30.9636ZM25.2543 30.9702C25.2543 30.9702 25.2359 30.9702 25.2293 30.9769C25.2509 30.9736 25.2726 30.9686 25.296 30.9652C25.2943 30.9652 25.2926 30.9652 25.2893 30.9652C25.2776 30.9686 25.266 30.9702 25.2543 30.9702ZM25.2643 23.2087C25.341 23.2221 25.4177 23.2337 25.491 23.2521C25.426 23.2354 25.361 23.2237 25.2976 23.2137C25.286 23.2104 25.2743 23.2087 25.2643 23.2087ZM25.1326 23.187C25.1559 23.1887 25.1776 23.1937 25.2026 23.1987C25.2193 23.2037 25.2359 23.2037 25.2543 23.207C25.2576 23.207 25.261 23.207 25.2643 23.207C25.2043 23.197 25.1442 23.187 25.0825 23.1787C25.0992 23.1804 25.1159 23.182 25.1326 23.1854V23.187ZM24.8058 23.1537C24.8991 23.1587 24.9908 23.1687 25.0825 23.1804C25.0575 23.177 25.0309 23.1737 25.0058 23.1704C24.9408 23.1637 24.8725 23.157 24.8058 23.1537ZM24.7908 31.0219C24.8241 31.0203 24.8591 31.0219 24.8925 31.0169C24.9475 31.0136 25.0025 31.0086 25.0575 31.0002C25.0042 31.0019 24.9492 31.0069 24.8891 31.0136C24.8558 31.0169 24.8241 31.0186 24.7908 31.0219ZM24.3856 23.157C24.4106 23.1554 24.4339 23.1537 24.459 23.152C24.4306 23.152 24.4006 23.1537 24.3723 23.157H24.3856ZM23.8354 23.2254C23.8637 23.2187 23.8937 23.2154 23.9237 23.2104C23.9171 23.2104 23.9104 23.212 23.9021 23.2137C23.8804 23.217 23.8587 23.222 23.8354 23.2254ZM24.0138 23.1954C24.0138 23.1954 24.0221 23.1954 24.0271 23.1937C24.0238 23.1937 24.0221 23.1937 24.0188 23.1937C24.0188 23.1937 24.0154 23.1937 24.0138 23.1937V23.1954ZM24.0021 23.1987C24.0021 23.1987 24.0104 23.197 24.0138 23.1954C23.9838 23.2004 23.9537 23.2054 23.9237 23.2104C23.9504 23.207 23.9754 23.202 24.0021 23.1987ZM24.0621 23.1904C24.0621 23.1904 24.0705 23.1887 24.0755 23.1904C24.1622 23.1754 24.2505 23.1637 24.3372 23.1587C24.3489 23.1587 24.3606 23.1554 24.3723 23.1554C24.2555 23.1604 24.1405 23.1737 24.0271 23.192C24.0388 23.192 24.0505 23.192 24.0621 23.1887V23.1904ZM24.0071 30.9819C24.0705 30.9919 24.1355 31.0002 24.2005 31.0086C24.1088 30.9986 24.0171 30.9869 23.9271 30.9702C23.9537 30.9736 23.9804 30.9786 24.0071 30.9819ZM23.7687 23.2404C23.7903 23.2354 23.8137 23.2304 23.8354 23.2254C23.797 23.2321 23.7587 23.2404 23.7203 23.2504C23.737 23.2454 23.752 23.2421 23.7687 23.2404ZM23.6336 23.2721C23.6486 23.2671 23.6636 23.2621 23.6786 23.2604C23.652 23.2654 23.6253 23.2721 23.5986 23.2787C23.6103 23.2771 23.6219 23.2737 23.6336 23.2721ZM23.2501 30.7885C23.3702 30.8335 23.4919 30.8719 23.6169 30.9019C23.5536 30.8852 23.4936 30.8669 23.4319 30.8485C23.3702 30.8302 23.3102 30.8102 23.2501 30.7885ZM23.5919 23.2821C23.5686 23.2871 23.5452 23.2937 23.5219 23.3004C23.5336 23.2971 23.5469 23.2937 23.5586 23.2921C23.5686 23.2887 23.5803 23.2854 23.5919 23.2821ZM23.3368 23.3621C23.3252 23.3654 23.3152 23.3704 23.3035 23.3738C23.3202 23.3671 23.3368 23.3621 23.3552 23.3554C23.3485 23.3571 23.3435 23.3588 23.3368 23.3621ZM23.1284 23.4388C23.1634 23.4255 23.1984 23.4105 23.2351 23.3988C23.2568 23.3905 23.2801 23.3821 23.3035 23.3738C23.1317 23.4338 22.965 23.5022 22.8066 23.5855C22.8166 23.5805 22.8266 23.5789 22.8366 23.5755C22.9 23.5422 22.9633 23.5122 23.0284 23.4838C23.0617 23.4688 23.0934 23.4538 23.1284 23.4388ZM23.4802 23.3121C23.4369 23.3254 23.3969 23.3421 23.3552 23.3554C23.3835 23.3454 23.4135 23.3354 23.4419 23.3271C23.4535 23.3221 23.4669 23.3171 23.4802 23.3121ZM23.0701 30.7151C23.1284 30.7418 23.1868 30.7652 23.2468 30.7868C23.1568 30.7551 23.0701 30.7185 22.9833 30.6785C23.0117 30.6918 23.04 30.7051 23.0701 30.7151ZM22.5982 23.7022C22.6199 23.6906 22.6449 23.6756 22.6716 23.6639C22.6782 23.6589 22.6849 23.6539 22.6899 23.6489C22.6582 23.6656 22.6282 23.6822 22.5982 23.7022ZM22.5282 23.7456C22.5498 23.7306 22.5732 23.7156 22.5982 23.7022C22.5615 23.7206 22.5282 23.7423 22.4948 23.7656C22.5065 23.7589 22.5165 23.7523 22.5282 23.7456ZM22.4615 23.7873C22.4615 23.7873 22.4581 23.7873 22.4565 23.7889C22.4598 23.7923 22.4598 23.7889 22.4615 23.7873ZM22.3698 23.8506C22.3698 23.8506 22.3848 23.8406 22.3948 23.8373C22.4131 23.8223 22.4298 23.8106 22.4481 23.7956C22.4165 23.8156 22.3864 23.8356 22.3564 23.859C22.3598 23.8556 22.3648 23.8523 22.3698 23.8506ZM22.3864 30.3416C22.3864 30.3416 22.3781 30.3366 22.3748 30.335C22.3914 30.3466 22.4081 30.3583 22.4265 30.37C22.4181 30.365 22.4114 30.36 22.4031 30.3533C22.3981 30.3483 22.3948 30.3466 22.3864 30.3416ZM22.1613 30.1766C22.198 30.2066 22.2364 30.2366 22.2747 30.2633C22.2614 30.2516 22.2464 30.2399 22.233 30.2299C22.2097 30.2133 22.1847 30.1949 22.1613 30.1766ZM21.9896 30.0315C22.0446 30.0832 22.1013 30.1316 22.1613 30.1766C22.1247 30.1466 22.088 30.1149 22.0513 30.0832C22.0296 30.0649 22.0096 30.0482 21.9896 30.0315ZM22.073 24.0757C22.033 24.1074 21.9946 24.1408 21.9563 24.1774C21.9713 24.1658 21.9863 24.1558 22.0013 24.1441C22.0246 24.1191 22.0496 24.0974 22.073 24.0757ZM21.8812 24.2475C21.8812 24.2475 21.8879 24.2425 21.8912 24.2391C21.9129 24.2175 21.9346 24.1975 21.9563 24.1774C21.9313 24.1991 21.9046 24.2225 21.8812 24.2475ZM21.7095 24.4275C21.7212 24.4142 21.7312 24.3992 21.7462 24.3875C21.7462 24.3859 21.7462 24.3842 21.7478 24.3825C21.7162 24.4142 21.6861 24.4476 21.6578 24.4809C21.6745 24.4626 21.6912 24.4459 21.7095 24.4275ZM21.5344 24.6326V24.626C21.5144 24.651 21.4944 24.676 21.4761 24.7027C21.4944 24.6793 21.5144 24.6543 21.5344 24.6326ZM21.3543 24.8727C21.3744 24.841 21.396 24.8094 21.4177 24.781C21.3794 24.831 21.3443 24.8811 21.3127 24.9328C21.3243 24.9127 21.3393 24.8927 21.3543 24.8727ZM21.276 24.9911C21.2877 24.9728 21.2993 24.9528 21.3127 24.9328C21.296 24.9561 21.281 24.9794 21.2676 25.0028C21.2676 24.9994 21.2726 24.9961 21.276 24.9911ZM21.2626 25.0145C21.2626 25.0145 21.266 25.0061 21.2676 25.0028C21.256 25.0211 21.2443 25.0378 21.2343 25.0561C21.2426 25.0428 21.2526 25.0295 21.2626 25.0145ZM21.2093 25.0995C21.2176 25.0845 21.226 25.0695 21.2343 25.0561C21.211 25.0945 21.1876 25.1328 21.1676 25.1712C21.1809 25.1462 21.1943 25.1228 21.2093 25.0995ZM21.1409 28.9644C21.0509 28.7977 20.9725 28.6226 20.9042 28.4425C20.9692 28.6226 21.0492 28.7977 21.1409 28.9644ZM20.6691 27.0836C20.6691 26.7068 20.7224 26.3433 20.8225 25.9949C20.7191 26.3433 20.6641 26.7102 20.6641 27.0903C20.6641 27.5638 20.7491 28.019 20.9042 28.4409C20.7524 28.019 20.6691 27.5622 20.6691 27.0836Z" fill="#00B7FF"/>
<path id="Vector_18" d="M28.5462 27.0901C28.5462 27.1718 28.5462 27.2518 28.5379 27.3318C28.5379 27.3552 28.5362 27.3785 28.5329 27.4002C28.5295 27.4502 28.5245 27.5002 28.5179 27.5502C28.5162 27.5853 28.5112 27.6186 28.5062 27.652C28.4979 27.707 28.4895 27.762 28.4778 27.8154C28.4712 27.8454 28.4662 27.877 28.4578 27.9071C28.4478 27.9571 28.4362 28.0088 28.4228 28.0605C28.4178 28.0821 28.4128 28.1038 28.4078 28.1272C28.4011 28.1555 28.3928 28.1838 28.3845 28.2122C28.3745 28.2455 28.3645 28.2772 28.3511 28.3106C28.3445 28.3356 28.3345 28.3606 28.3261 28.3856C28.3044 28.444 28.2828 28.499 28.2611 28.5557C28.2578 28.5673 28.2544 28.5773 28.2494 28.5873C28.2277 28.6407 28.2044 28.6941 28.1794 28.7457C28.1577 28.7941 28.1344 28.8408 28.1094 28.8875C28.1077 28.8925 28.1044 28.8975 28.1027 28.9025C28.0877 28.9325 28.071 28.9625 28.0543 28.9925C28.0443 29.0109 28.0343 29.0309 28.0227 29.0492C27.9977 29.0925 27.9726 29.1342 27.9476 29.1743C27.9443 29.1793 27.941 29.1843 27.9376 29.1893C27.931 29.2009 27.9243 29.2126 27.916 29.2226C27.8909 29.2626 27.8626 29.2993 27.8359 29.3393C27.8326 29.3443 27.8292 29.3493 27.8259 29.3543C27.8159 29.3693 27.8059 29.3843 27.7942 29.3993C27.7792 29.4227 27.7609 29.4477 27.7409 29.471C27.7342 29.481 27.7275 29.491 27.7192 29.501C27.6975 29.5294 27.6759 29.5577 27.6508 29.5844C27.6475 29.5894 27.6408 29.5961 27.6358 29.6028C27.6308 29.6078 27.6258 29.6144 27.6208 29.6211C27.5975 29.6511 27.5725 29.6795 27.5458 29.7078C27.5308 29.7261 27.5141 29.7445 27.4974 29.7628L27.4858 29.7745C27.4591 29.8012 27.4341 29.8279 27.4091 29.8529C27.3857 29.8795 27.3574 29.9079 27.329 29.9329C27.3157 29.9446 27.3024 29.9579 27.2874 29.9712C27.2707 29.9896 27.2523 30.0063 27.234 30.0213C27.234 30.0213 27.2334 30.0218 27.2323 30.0229C27.2007 30.0529 27.1673 30.0813 27.134 30.108C27.1023 30.1346 27.0723 30.1613 27.0389 30.1847C27.0273 30.1947 27.0139 30.2047 27.0022 30.213C26.9806 30.2297 26.9589 30.2464 26.9372 30.2614C26.8989 30.2897 26.8622 30.3164 26.8238 30.3447C26.7872 30.3681 26.7505 30.3914 26.7138 30.4148L26.6971 30.4264C26.6804 30.4364 26.6621 30.4481 26.6454 30.4581C26.6388 30.4631 26.6304 30.4664 26.6238 30.4715C26.6004 30.4865 26.5754 30.4998 26.5504 30.5131C26.5237 30.5281 26.4987 30.5431 26.4737 30.5565C26.437 30.5765 26.4003 30.5965 26.362 30.6132C26.3486 30.6198 26.337 30.6265 26.3253 30.6332C26.312 30.6399 26.2986 30.6449 26.2853 30.6515C26.2436 30.6715 26.2019 30.6899 26.1602 30.7082C26.1452 30.7149 26.1302 30.7199 26.1152 30.7266C26.1119 30.7282 26.1085 30.7282 26.1052 30.7299C26.0702 30.7449 26.0352 30.7599 26.0002 30.7732C25.9768 30.7816 25.9518 30.7916 25.9268 30.7999C25.9235 30.7999 25.9218 30.8016 25.9185 30.8016C25.8751 30.8149 25.8334 30.8283 25.7917 30.8449C25.7834 30.8483 25.7734 30.8516 25.7651 30.8533C25.7434 30.8616 25.7217 30.8666 25.7 30.8716C25.6667 30.8833 25.6333 30.8916 25.6 30.9C25.5983 30.9 25.5983 30.9016 25.5967 30.9016C25.5717 30.9083 25.5466 30.9133 25.5216 30.92C25.5083 30.9233 25.4966 30.9266 25.4833 30.9283C25.4749 30.9316 25.4666 30.9333 25.4599 30.9333C25.4583 30.9333 25.4566 30.9333 25.4549 30.9333C25.4083 30.9433 25.3616 30.9516 25.3132 30.96C25.3115 30.96 25.3082 30.96 25.3065 30.9617C25.3032 30.9617 25.2999 30.9617 25.2982 30.9617C25.2765 30.965 25.2549 30.97 25.2315 30.9733L25.2282 30.975C25.1982 30.9783 25.1715 30.9833 25.1431 30.9867C25.1198 30.99 25.0981 30.9933 25.0748 30.9967H25.0614C25.0064 31.005 24.9514 31.01 24.8964 31.0133C24.863 31.0167 24.8297 31.015 24.7947 31.0183C24.7363 31.0233 24.678 31.025 24.6196 31.025H24.6079C24.5412 31.025 24.4729 31.025 24.4045 31.02C24.3378 31.0167 24.2711 31.0117 24.2044 31.005C24.1394 30.9967 24.0744 30.9883 24.011 30.9783C23.9843 30.975 23.9577 30.97 23.931 30.9667C23.8926 30.96 23.8543 30.9516 23.8176 30.945H23.8143C23.7476 30.93 23.6842 30.915 23.6209 30.8983C23.4958 30.8683 23.3741 30.8299 23.254 30.7849C23.254 30.7849 23.254 30.7849 23.2507 30.7849C23.1907 30.7632 23.1323 30.7399 23.074 30.7132C23.0439 30.7032 23.0156 30.6899 22.9873 30.6765C22.9572 30.6649 22.9272 30.6499 22.8989 30.6365C22.8622 30.6165 22.8255 30.5998 22.7888 30.5798C22.7872 30.5782 22.7838 30.5782 22.7822 30.5765C22.7472 30.5582 22.7155 30.5398 22.6821 30.5198C22.6454 30.4998 22.6088 30.4798 22.5721 30.4581C22.5371 30.4364 22.5004 30.4131 22.4637 30.3881C22.452 30.3814 22.4404 30.3764 22.4304 30.3681C22.412 30.3564 22.3953 30.3447 22.3787 30.3331C22.3703 30.3281 22.362 30.3214 22.3537 30.3164C22.3287 30.2997 22.3053 30.2814 22.282 30.2647L22.2786 30.2614C22.2403 30.2347 22.2019 30.2047 22.1653 30.1747C22.1052 30.1296 22.0485 30.0813 21.9935 30.0296C21.9752 30.0146 21.9568 29.9979 21.9385 29.9796C21.9368 29.9796 21.9368 29.9779 21.9335 29.9762C21.8951 29.9429 21.8601 29.9079 21.8234 29.8712C21.7784 29.8262 21.7351 29.7812 21.6934 29.7345C21.66 29.6978 21.6284 29.6611 21.5967 29.6244C21.58 29.6061 21.5633 29.5861 21.5483 29.5661C21.5217 29.5344 21.4966 29.5027 21.4733 29.471C21.435 29.421 21.3983 29.3693 21.3616 29.316C21.3199 29.2543 21.2799 29.1926 21.2399 29.1292C21.2065 29.0725 21.1748 29.0192 21.1448 28.9625C21.0531 28.7958 20.9731 28.6207 20.9081 28.4406C20.753 28.0171 20.668 27.5619 20.668 27.0884C20.668 26.7082 20.723 26.3414 20.8264 25.9929C20.838 25.9513 20.8497 25.9112 20.863 25.8712C20.8747 25.8329 20.8881 25.7945 20.9031 25.7562C20.9097 25.7328 20.9181 25.7112 20.9281 25.6895C20.9514 25.6278 20.9764 25.5661 21.0031 25.5061C21.0331 25.4377 21.0648 25.371 21.0981 25.3043C21.0998 25.3027 21.0998 25.2993 21.1015 25.2977C21.1132 25.2793 21.1232 25.2593 21.1332 25.241C21.1465 25.216 21.1598 25.1926 21.1715 25.1693C21.1915 25.1309 21.2149 25.0926 21.2382 25.0542C21.2482 25.0359 21.2599 25.0192 21.2715 25.0009C21.2849 24.9775 21.2999 24.9542 21.3166 24.9308C21.3482 24.8792 21.3833 24.8291 21.4216 24.7791C21.4416 24.7524 21.46 24.7258 21.48 24.7007C21.4983 24.6741 21.5183 24.6491 21.5383 24.624C21.58 24.5724 21.62 24.524 21.6617 24.479C21.6901 24.4456 21.7201 24.4123 21.7517 24.3806C21.7517 24.3789 21.7551 24.3773 21.7567 24.3756C21.7701 24.3589 21.7851 24.3439 21.8001 24.3289C21.8251 24.3039 21.8485 24.2789 21.8751 24.2539C21.8801 24.2506 21.8835 24.2489 21.8851 24.2456C21.9085 24.2205 21.9352 24.1972 21.9602 24.1755C21.9985 24.1388 22.0369 24.1055 22.0769 24.0738C22.0869 24.0638 22.0986 24.0521 22.1119 24.0455C22.1252 24.0338 22.1386 24.0221 22.1519 24.0105C22.2186 23.9571 22.2886 23.9037 22.3603 23.8571C22.3903 23.8337 22.4204 23.8137 22.452 23.7937C22.4537 23.792 22.457 23.7887 22.4604 23.787C22.4604 23.7854 22.4637 23.7854 22.4654 23.7854C22.477 23.777 22.4871 23.7704 22.4987 23.7637C22.5321 23.7403 22.5654 23.7187 22.6021 23.7003C22.6321 23.6803 22.6621 23.6636 22.6938 23.647C22.6938 23.647 22.6949 23.6464 22.6971 23.6453C22.7321 23.6236 22.7705 23.6036 22.8072 23.5853C22.8072 23.5853 22.8083 23.5847 22.8105 23.5836C22.9689 23.5002 23.1373 23.4319 23.3074 23.3719C23.3191 23.3685 23.3291 23.3635 23.3407 23.3602C23.3457 23.3585 23.3524 23.3569 23.3591 23.3535C23.4008 23.3402 23.4424 23.3218 23.4841 23.3102C23.4858 23.3102 23.4875 23.3085 23.4891 23.3085C23.5008 23.3052 23.5141 23.3018 23.5258 23.2985C23.5492 23.2918 23.5725 23.2852 23.5958 23.2802C23.5958 23.2785 23.6008 23.2785 23.6025 23.2768C23.6292 23.2702 23.6559 23.2635 23.6825 23.2585C23.6975 23.2535 23.7109 23.2501 23.7242 23.2485C23.7626 23.2385 23.8009 23.2301 23.8393 23.2235C23.8626 23.2201 23.8843 23.2151 23.906 23.2118C23.9143 23.2118 23.921 23.2101 23.9276 23.2085C23.9577 23.2035 23.9877 23.1985 24.0177 23.1935C24.0193 23.1935 24.021 23.1935 24.0227 23.1935C24.026 23.1935 24.0277 23.1935 24.031 23.1935C24.1444 23.1768 24.2594 23.1634 24.3762 23.1568C24.4045 23.1534 24.4345 23.1518 24.4629 23.1518C24.5112 23.1484 24.5596 23.1484 24.6079 23.1484C24.6746 23.1484 24.7413 23.1484 24.8097 23.1534C24.8764 23.1568 24.9447 23.1634 25.0098 23.1701C25.0348 23.1734 25.0598 23.1768 25.0865 23.1801C25.1481 23.1885 25.2082 23.1985 25.2682 23.2085C25.2799 23.2085 25.2899 23.2085 25.3015 23.2135C25.3649 23.2235 25.4299 23.2351 25.495 23.2518C25.5166 23.2551 25.5383 23.2601 25.5583 23.2668C25.5817 23.2702 25.6033 23.2768 25.625 23.2835H25.6267C25.6667 23.2935 25.7067 23.3052 25.7467 23.3168C25.7567 23.3202 25.7667 23.3235 25.7767 23.3268C25.8084 23.3368 25.8401 23.3469 25.8718 23.3585C25.8935 23.3635 25.9135 23.3702 25.9335 23.3785C25.9351 23.3785 25.9368 23.3785 25.9385 23.3785C26.0068 23.4035 26.0735 23.4286 26.1386 23.4569C26.1986 23.4819 26.2569 23.5086 26.3136 23.5353C26.3586 23.5569 26.402 23.5786 26.4437 23.602C26.4553 23.6086 26.467 23.6136 26.4787 23.622C26.4804 23.622 26.482 23.622 26.4837 23.6236C26.4887 23.6253 26.4954 23.6286 26.5004 23.6336C26.502 23.6336 26.5054 23.6353 26.5054 23.637C26.507 23.637 26.5087 23.637 26.5104 23.637C26.5237 23.6436 26.537 23.652 26.5504 23.6603C26.5721 23.6703 26.5904 23.682 26.6104 23.6953C26.6238 23.7003 26.6354 23.7087 26.6471 23.717C26.6588 23.722 26.6688 23.7303 26.6788 23.737C26.6821 23.7387 26.6854 23.7403 26.6888 23.7437C26.7205 23.7604 26.7488 23.7787 26.7788 23.7987C26.7805 23.8004 26.7822 23.802 26.7855 23.8037C26.8155 23.8237 26.8455 23.8437 26.8739 23.8654C26.8822 23.8721 26.8922 23.8787 26.9005 23.8837C26.9472 23.9171 26.9922 23.9504 27.0373 23.9871C27.0623 24.0055 27.0889 24.0255 27.114 24.0455C27.199 24.1172 27.2807 24.1905 27.3591 24.2689L27.3907 24.3006C27.3907 24.3006 27.3991 24.3072 27.4024 24.3122C27.4057 24.3156 27.4107 24.3189 27.4141 24.3223C27.4458 24.3539 27.4774 24.3873 27.5074 24.4206C27.5208 24.434 27.5341 24.449 27.5458 24.464C27.5458 24.464 27.5469 24.4651 27.5491 24.4673C27.5825 24.504 27.6158 24.5423 27.6475 24.5807C27.6575 24.5924 27.6658 24.604 27.6742 24.614C27.6892 24.634 27.7009 24.6474 27.7142 24.6657C27.7275 24.6824 27.7409 24.6991 27.7526 24.7157H27.7542C27.7542 24.7157 27.7626 24.7258 27.7642 24.7308C27.7709 24.7391 27.7759 24.7474 27.7826 24.7541C27.921 24.9425 28.0427 25.1426 28.146 25.3543C28.1527 25.366 28.1594 25.3794 28.1644 25.3927C28.1694 25.401 28.1727 25.4094 28.1761 25.4177C28.1944 25.4561 28.2127 25.4961 28.2294 25.5344C28.2294 25.5361 28.2311 25.5378 28.2311 25.5394C28.2461 25.5711 28.2578 25.6028 28.2694 25.6345C28.2728 25.6411 28.2744 25.6478 28.2778 25.6545C28.2994 25.7095 28.3211 25.7645 28.3378 25.8212C28.3378 25.8245 28.3411 25.8295 28.3428 25.8329C28.3528 25.8596 28.3611 25.8879 28.3711 25.9162C28.3795 25.9446 28.3895 25.9763 28.3961 26.0079C28.3978 26.0113 28.3978 26.0163 28.3995 26.0196C28.4078 26.0413 28.4128 26.063 28.4178 26.0846C28.4195 26.0913 28.4212 26.098 28.4228 26.1063C28.4295 26.1363 28.4378 26.1663 28.4445 26.198C28.4545 26.233 28.4628 26.2681 28.4695 26.3047C28.4712 26.3114 28.4728 26.3164 28.4728 26.3231C28.4795 26.3564 28.4862 26.3898 28.4912 26.4231C28.4929 26.4331 28.4945 26.4431 28.4962 26.4548C28.4995 26.4631 28.5012 26.4715 28.5012 26.4798C28.5045 26.5048 28.5079 26.5282 28.5112 26.5532C28.5162 26.5815 28.5195 26.6099 28.5212 26.6382C28.5229 26.6432 28.5229 26.6465 28.5229 26.6515C28.5262 26.6766 28.5295 26.7016 28.5312 26.7282C28.5329 26.7416 28.5345 26.7549 28.5345 26.7699C28.5362 26.7733 28.5362 26.7749 28.5345 26.7766C28.5362 26.7883 28.5379 26.8016 28.5379 26.8133C28.5379 26.8133 28.5395 26.8183 28.5379 26.8199C28.5429 26.8733 28.5445 26.9267 28.5445 26.98C28.5479 27.015 28.5479 27.0517 28.5479 27.0867L28.5462 27.0901Z" fill="white"/>
<path id="Vector_19" d="M29.491 11.8457L29.4877 11.849V27.7839C29.4877 28.3475 29.391 28.8877 29.2159 29.3913C29.396 28.8877 29.4927 28.3458 29.4927 27.7839V11.8457H29.491ZM29.0942 29.7081C29.1092 29.6714 29.1259 29.6347 29.1376 29.598C29.1159 29.653 29.0925 29.7081 29.0692 29.7631C29.0792 29.7447 29.0875 29.7264 29.0942 29.7081ZM28.7974 30.2883C28.8658 30.1766 28.9275 30.0615 28.9858 29.9431C29.0158 29.8831 29.0458 29.8231 29.0692 29.7631C28.9608 30.0048 28.8341 30.2366 28.6907 30.455C28.729 30.4 28.7641 30.345 28.7974 30.2883ZM28.544 27.0903C28.544 27.1153 28.544 27.142 28.5423 27.1687C28.5423 27.1937 28.539 27.217 28.5373 27.2437V27.3321C28.544 27.252 28.5456 27.172 28.5456 27.0903C28.5456 27.0553 28.5456 27.0186 28.5423 26.9836C28.544 27.0153 28.544 27.0503 28.544 27.0836V27.0903ZM28.534 26.8285C28.5373 26.8485 28.5373 26.8702 28.5373 26.8886C28.539 26.9202 28.5423 26.9519 28.5423 26.9836C28.5423 26.9302 28.5406 26.8769 28.5356 26.8235C28.5356 26.8252 28.5356 26.8269 28.5356 26.8285H28.534ZM28.534 26.8169C28.534 26.8052 28.534 26.7919 28.5306 26.7802C28.5323 26.7919 28.5323 26.8019 28.5323 26.8135C28.5323 26.8152 28.5323 26.8169 28.5323 26.8169H28.534ZM28.529 27.4121C28.529 27.4238 28.529 27.4354 28.5256 27.4471C28.5256 27.4571 28.524 27.4671 28.5206 27.4771C28.5206 27.4888 28.5206 27.5021 28.519 27.5138C28.519 27.5255 28.519 27.5388 28.5156 27.5505C28.5223 27.5005 28.5273 27.4505 28.5306 27.4004C28.5306 27.4038 28.5306 27.4088 28.529 27.4121ZM28.5256 26.7268C28.5256 26.7268 28.529 26.7302 28.5273 26.7318C28.5256 26.7051 28.5223 26.6801 28.519 26.6551C28.5206 26.6651 28.5206 26.6735 28.5206 26.6851C28.5206 26.6968 28.5256 26.7152 28.5256 26.7268ZM28.5073 26.5568C28.509 26.5701 28.5106 26.5834 28.5106 26.5984C28.514 26.6068 28.514 26.6168 28.514 26.6268C28.5156 26.6335 28.5173 26.6368 28.5173 26.6418C28.5156 26.6134 28.5123 26.5851 28.5073 26.5568ZM28.499 26.5101V26.5167C28.5023 26.5301 28.5056 26.5434 28.5073 26.5568C28.504 26.5317 28.5006 26.5084 28.4973 26.4834C28.499 26.4934 28.499 26.5034 28.499 26.5101ZM28.499 27.6589V27.6672C28.494 27.6856 28.4923 27.7072 28.4889 27.7272C28.4839 27.7572 28.4789 27.7856 28.4756 27.8156C28.4873 27.7622 28.4956 27.7072 28.504 27.6522C28.5023 27.6522 28.5023 27.6539 28.5023 27.6539C28.499 27.6539 28.499 27.6572 28.499 27.6589ZM28.4206 28.0607C28.4339 28.009 28.4456 27.9573 28.4556 27.9073C28.4639 27.8773 28.4689 27.8456 28.4756 27.8156C28.4573 27.9206 28.4339 28.0257 28.4056 28.1274C28.4106 28.1041 28.4156 28.0824 28.4206 28.0607ZM28.4656 26.3083C28.4589 26.2716 28.4506 26.2366 28.4406 26.2016C28.4489 26.2333 28.4556 26.2666 28.4623 26.2983C28.4623 26.3017 28.4656 26.3067 28.4656 26.3083ZM28.3239 28.3858C28.3322 28.3608 28.3422 28.3358 28.3489 28.3108C28.3189 28.4042 28.2855 28.4976 28.2472 28.5876C28.2522 28.5776 28.2555 28.5676 28.2589 28.5559C28.2805 28.4992 28.3022 28.4442 28.3239 28.3858ZM28.3022 25.7381C28.3139 25.7664 28.3239 25.7964 28.3339 25.8248C28.3172 25.7681 28.2955 25.7131 28.2739 25.6581C28.2805 25.6764 28.2872 25.6947 28.2922 25.7131C28.2972 25.7214 28.3005 25.7297 28.3022 25.7381ZM28.2438 25.5864C28.2522 25.603 28.2589 25.6197 28.2655 25.638C28.2539 25.6064 28.2422 25.5747 28.2272 25.543C28.2272 25.548 28.2288 25.5513 28.2288 25.5547C28.2338 25.5647 28.2388 25.578 28.2438 25.5864ZM28.2322 28.6159C28.2155 28.661 28.1972 28.7043 28.1772 28.746C28.2022 28.6943 28.2255 28.6409 28.2472 28.5876C28.2422 28.5976 28.2388 28.6076 28.2322 28.6159ZM28.1655 25.4096C28.1655 25.4096 28.1705 25.418 28.1722 25.4213C28.1688 25.413 28.1655 25.4046 28.1605 25.3963C28.1621 25.3996 28.1655 25.4046 28.1655 25.4096ZM28.1538 25.3829C28.1538 25.3829 28.1588 25.3929 28.1605 25.3963C28.1555 25.3829 28.1488 25.3696 28.1421 25.3579C28.1471 25.3663 28.1505 25.3746 28.1538 25.3829ZM28.0738 31.2187C27.9804 31.3104 27.8854 31.4004 27.787 31.4854C27.8854 31.4021 27.9821 31.312 28.0738 31.2187ZM27.9254 29.2012C27.9254 29.2012 27.9187 29.2162 27.9137 29.2229C27.9221 29.2128 27.9287 29.2012 27.9354 29.1895C27.9321 29.1945 27.9287 29.1978 27.9254 29.2012ZM27.8337 29.3396C27.8187 29.3596 27.807 29.3796 27.792 29.3996C27.8037 29.3846 27.8137 29.3696 27.8237 29.3546C27.827 29.3496 27.8303 29.3446 27.8337 29.3396ZM27.8987 29.2429C27.8887 29.2562 27.882 29.2645 27.8754 29.2745C27.8604 29.2962 27.847 29.3179 27.8337 29.3396C27.8604 29.3012 27.8887 29.2629 27.9137 29.2229C27.9087 29.2312 27.9037 29.2379 27.8987 29.2429ZM27.792 29.3996C27.782 29.4146 27.7703 29.4296 27.7586 29.4429C27.752 29.4513 27.7453 29.4613 27.7386 29.4713C27.7586 29.4479 27.777 29.4229 27.792 29.3996ZM27.7486 24.7193C27.737 24.7027 27.7236 24.686 27.7103 24.6693C27.722 24.686 27.732 24.701 27.7436 24.7193H27.7486ZM27.6019 29.6397C27.5819 29.6614 27.5636 29.6847 27.5436 29.7081C27.5702 29.6797 27.5952 29.6514 27.6186 29.6213C27.6119 29.6264 27.6069 29.633 27.6019 29.6397ZM27.5419 24.4676C27.5302 24.4526 27.5169 24.4375 27.5035 24.4242C27.5085 24.4309 27.5119 24.4359 27.5169 24.4426C27.5252 24.4509 27.5336 24.4592 27.5419 24.4676ZM27.3568 29.9015C27.3468 29.9115 27.3368 29.9215 27.3268 29.9331C27.3551 29.9081 27.3835 29.8798 27.4068 29.8531C27.3902 29.8698 27.3735 29.8865 27.3568 29.9015ZM27.2334 30.0182L27.2318 30.0215C27.2501 30.0065 27.2684 29.9898 27.2851 29.9715C27.2668 29.9882 27.2501 30.0032 27.2334 30.0182ZM27.787 31.4854C27.4902 31.7406 27.1617 31.9623 26.8099 32.1424C27.1634 31.9656 27.4902 31.7439 27.787 31.4854ZM26.8699 23.869C26.8416 23.8473 26.8116 23.8273 26.7816 23.8073C26.7882 23.8123 26.7949 23.8173 26.8033 23.824C26.8266 23.839 26.8483 23.854 26.8699 23.869ZM26.6065 23.6989C26.5865 23.6856 26.5682 23.6739 26.5465 23.6639C26.5515 23.6672 26.5582 23.6722 26.5632 23.6772C26.5782 23.6856 26.5915 23.6922 26.6065 23.6989ZM26.4965 23.6356C26.4965 23.6356 26.4848 23.6272 26.4798 23.6255C26.4831 23.6289 26.4865 23.6306 26.4898 23.6339C26.4898 23.6339 26.4948 23.6339 26.4965 23.6356ZM26.3981 30.5934C26.3848 30.6018 26.3714 30.6084 26.3597 30.6134C26.3981 30.5968 26.4348 30.5767 26.4715 30.5567C26.4464 30.5701 26.4214 30.5817 26.3981 30.5934ZM26.8099 32.1424C26.6332 32.2308 26.4498 32.3108 26.263 32.3792C26.4514 32.3141 26.6349 32.2341 26.8099 32.1424ZM26.0046 30.7668C26.0046 30.7668 26.0013 30.7702 25.9979 30.7735C26.0329 30.7602 26.068 30.7451 26.103 30.7301C26.0696 30.7418 26.0379 30.7535 26.0046 30.7668ZM25.7395 32.5359C25.7878 32.5259 25.8345 32.5125 25.8795 32.5009C26.0096 32.4659 26.138 32.4258 26.263 32.3792C26.1363 32.4242 26.0096 32.4642 25.8795 32.4992C25.8329 32.5125 25.7862 32.5242 25.7395 32.5359ZM25.9262 23.3804C25.9262 23.3804 25.9262 23.3804 25.9296 23.3804C25.9096 23.3721 25.8895 23.3654 25.8679 23.3604C25.8845 23.3688 25.8996 23.3738 25.9162 23.3804C25.9196 23.3804 25.9246 23.3804 25.9262 23.3804ZM25.5978 30.9002C25.6311 30.8919 25.6645 30.8835 25.6978 30.8719C25.6761 30.8769 25.6544 30.8819 25.6328 30.8902C25.6228 30.8952 25.6111 30.8969 25.5978 30.9002ZM25.5544 23.2671C25.5661 23.2704 25.5778 23.2737 25.5894 23.2771C25.6011 23.2787 25.6094 23.2821 25.6211 23.2837C25.5994 23.2771 25.5778 23.2704 25.5544 23.2671ZM25.2543 30.9702C25.2543 30.9702 25.2359 30.9702 25.2293 30.9769C25.2509 30.9736 25.2726 30.9686 25.296 30.9652C25.2943 30.9652 25.2926 30.9652 25.2893 30.9652C25.2776 30.9686 25.266 30.9702 25.2543 30.9702ZM25.3043 30.9636C25.3043 30.9636 25.3093 30.9636 25.311 30.9619C25.306 30.9619 25.301 30.9636 25.2943 30.9652C25.2976 30.9652 25.301 30.9652 25.3026 30.9652L25.3043 30.9636ZM25.3343 30.9552C25.3343 30.9552 25.3193 30.9602 25.311 30.9619C25.3577 30.9536 25.406 30.9469 25.4527 30.9352C25.4177 30.9419 25.376 30.9486 25.3343 30.9552ZM25.1326 23.187C25.1559 23.1887 25.1776 23.1937 25.2026 23.1987C25.2193 23.2037 25.2359 23.2037 25.2543 23.207C25.2576 23.207 25.261 23.207 25.2643 23.207C25.2043 23.197 25.1442 23.187 25.0825 23.1787C25.0992 23.1804 25.1159 23.182 25.1326 23.1854V23.187ZM25.2643 23.2087C25.341 23.2221 25.4177 23.2337 25.491 23.2521C25.426 23.2354 25.361 23.2237 25.2976 23.2137C25.286 23.2104 25.2743 23.2087 25.2643 23.2087ZM24.8058 23.1537C24.8991 23.1587 24.9908 23.1687 25.0825 23.1804C25.0575 23.177 25.0309 23.1737 25.0058 23.1704C24.9408 23.1637 24.8725 23.157 24.8058 23.1537ZM24.7908 31.0219C24.8241 31.0203 24.8591 31.0219 24.8925 31.0169C24.9475 31.0136 25.0025 31.0086 25.0575 31.0002C25.0042 31.0019 24.9492 31.0069 24.8891 31.0136C24.8558 31.0169 24.8241 31.0186 24.7908 31.0219ZM24.3856 23.157C24.4106 23.1554 24.4339 23.1537 24.459 23.152C24.4306 23.152 24.4006 23.1537 24.3723 23.157H24.3856ZM23.8354 23.2254C23.8637 23.2187 23.8937 23.2154 23.9237 23.2104C23.9171 23.2104 23.9104 23.212 23.9021 23.2137C23.8804 23.217 23.8587 23.222 23.8354 23.2254ZM24.0138 23.1954C24.0138 23.1954 24.0221 23.1954 24.0271 23.1937C24.0238 23.1937 24.0221 23.1937 24.0188 23.1937C24.0188 23.1937 24.0154 23.1937 24.0138 23.1937V23.1954ZM24.0021 23.1987C24.0021 23.1987 24.0104 23.197 24.0138 23.1954C23.9838 23.2004 23.9537 23.2054 23.9237 23.2104C23.9504 23.207 23.9754 23.202 24.0021 23.1987ZM24.0621 23.1904C24.0621 23.1904 24.0705 23.1887 24.0755 23.1904C24.1622 23.1754 24.2505 23.1637 24.3372 23.1587C24.3489 23.1587 24.3606 23.1554 24.3723 23.1554C24.2555 23.1604 24.1405 23.1737 24.0271 23.192C24.0388 23.192 24.0505 23.192 24.0621 23.1887V23.1904ZM24.0071 30.9819C24.0705 30.9919 24.1355 31.0002 24.2005 31.0086C24.1088 30.9986 24.0171 30.9869 23.9271 30.9702C23.9537 30.9736 23.9804 30.9786 24.0071 30.9819ZM23.7687 23.2404C23.7903 23.2354 23.8137 23.2304 23.8354 23.2254C23.797 23.2321 23.7587 23.2404 23.7203 23.2504C23.737 23.2454 23.752 23.2421 23.7687 23.2404ZM23.6336 23.2721C23.6486 23.2671 23.6636 23.2621 23.6786 23.2604C23.652 23.2654 23.6253 23.2721 23.5986 23.2787C23.6103 23.2771 23.6219 23.2737 23.6336 23.2721ZM23.2501 30.7885C23.3702 30.8335 23.4919 30.8719 23.6169 30.9019C23.5536 30.8852 23.4936 30.8669 23.4319 30.8485C23.3702 30.8302 23.3102 30.8102 23.2501 30.7885ZM23.5919 23.2821C23.5686 23.2871 23.5452 23.2937 23.5219 23.3004C23.5336 23.2971 23.5469 23.2937 23.5586 23.2921C23.5686 23.2887 23.5803 23.2854 23.5919 23.2821ZM23.4802 23.3121C23.4369 23.3254 23.3969 23.3421 23.3552 23.3554C23.3835 23.3454 23.4135 23.3354 23.4419 23.3271C23.4535 23.3221 23.4669 23.3171 23.4802 23.3121ZM23.1284 23.4388C23.1634 23.4255 23.1984 23.4105 23.2351 23.3988C23.2568 23.3905 23.2801 23.3821 23.3035 23.3738C23.1317 23.4338 22.965 23.5022 22.8066 23.5855C22.8166 23.5805 22.8266 23.5789 22.8366 23.5755C22.9 23.5422 22.9633 23.5122 23.0284 23.4838C23.0617 23.4688 23.0934 23.4538 23.1284 23.4388ZM23.3368 23.3621C23.3252 23.3654 23.3152 23.3704 23.3035 23.3738C23.3202 23.3671 23.3368 23.3621 23.3552 23.3554C23.3485 23.3571 23.3435 23.3588 23.3368 23.3621ZM23.0701 30.7151C23.1284 30.7418 23.1868 30.7652 23.2468 30.7868C23.1568 30.7551 23.0701 30.7185 22.9833 30.6785C23.0117 30.6918 23.04 30.7051 23.0701 30.7151ZM22.5982 23.7022C22.6199 23.6906 22.6449 23.6756 22.6716 23.6639C22.6782 23.6589 22.6849 23.6539 22.6899 23.6489C22.6582 23.6656 22.6282 23.6822 22.5982 23.7022ZM22.5282 23.7456C22.5498 23.7306 22.5732 23.7156 22.5982 23.7022C22.5615 23.7206 22.5282 23.7423 22.4948 23.7656C22.5065 23.7589 22.5165 23.7523 22.5282 23.7456ZM22.4615 23.7873C22.4615 23.7873 22.4581 23.7873 22.4565 23.7889C22.4598 23.7923 22.4598 23.7889 22.4615 23.7873ZM22.3698 23.8506C22.3698 23.8506 22.3848 23.8406 22.3948 23.8373C22.4131 23.8223 22.4298 23.8106 22.4481 23.7956C22.4165 23.8156 22.3864 23.8356 22.3564 23.859C22.3598 23.8556 22.3648 23.8523 22.3698 23.8506ZM22.3864 30.3416C22.3864 30.3416 22.3781 30.3366 22.3748 30.335C22.3914 30.3466 22.4081 30.3583 22.4265 30.37C22.4181 30.365 22.4114 30.36 22.4031 30.3533C22.3981 30.3483 22.3948 30.3466 22.3864 30.3416ZM22.1613 30.1766C22.198 30.2066 22.2364 30.2366 22.2747 30.2633C22.2614 30.2516 22.2464 30.2399 22.233 30.2299C22.2097 30.2133 22.1847 30.1949 22.1613 30.1766ZM21.9896 30.0315C22.0446 30.0832 22.1013 30.1316 22.1613 30.1766C22.1247 30.1466 22.088 30.1149 22.0513 30.0832C22.0296 30.0649 22.0096 30.0482 21.9896 30.0315ZM22.073 24.0757C22.033 24.1074 21.9946 24.1408 21.9563 24.1774C21.9713 24.1658 21.9863 24.1558 22.0013 24.1441C22.0246 24.1191 22.0496 24.0974 22.073 24.0757ZM21.8812 24.2475C21.8812 24.2475 21.8879 24.2425 21.8912 24.2391C21.9129 24.2175 21.9346 24.1975 21.9563 24.1774C21.9313 24.1991 21.9046 24.2225 21.8812 24.2475ZM21.7095 24.4275C21.7212 24.4142 21.7312 24.3992 21.7462 24.3875C21.7462 24.3859 21.7462 24.3842 21.7478 24.3825C21.7162 24.4142 21.6861 24.4476 21.6578 24.4809C21.6745 24.4626 21.6912 24.4459 21.7095 24.4275ZM21.5344 24.6326V24.626C21.5144 24.651 21.4944 24.676 21.4761 24.7027C21.4944 24.6793 21.5144 24.6543 21.5344 24.6326ZM21.3543 24.8727C21.3744 24.841 21.396 24.8094 21.4177 24.781C21.3794 24.831 21.3443 24.8811 21.3127 24.9328C21.3243 24.9127 21.3393 24.8927 21.3543 24.8727ZM21.276 24.9911C21.2877 24.9728 21.2993 24.9528 21.3127 24.9328C21.296 24.9561 21.281 24.9794 21.2676 25.0028C21.2676 24.9994 21.2726 24.9961 21.276 24.9911ZM21.2626 25.0145C21.2626 25.0145 21.266 25.0061 21.2676 25.0028C21.256 25.0211 21.2443 25.0378 21.2343 25.0561C21.2426 25.0428 21.2526 25.0295 21.2626 25.0145ZM21.2093 25.0995C21.2176 25.0845 21.226 25.0695 21.2343 25.0561C21.211 25.0945 21.1876 25.1328 21.1676 25.1712C21.1809 25.1462 21.1943 25.1228 21.2093 25.0995ZM21.1409 28.9644C21.0509 28.7977 20.9725 28.6226 20.9042 28.4425C20.9692 28.6226 21.0492 28.7977 21.1409 28.9644ZM20.6691 27.0836C20.6691 26.7068 20.7224 26.3433 20.8225 25.9949C20.7191 26.3433 20.6641 26.7102 20.6641 27.0903C20.6641 27.5638 20.7491 28.019 20.9042 28.4409C20.7524 28.019 20.6691 27.5622 20.6691 27.0836Z" fill="#1B0050"/>
<path id="Vector_20" d="M29.4933 11.8457L29.4899 11.849V27.7839C29.4899 28.3475 29.3932 28.8877 29.2182 29.3913C29.3982 28.8877 29.4949 28.3458 29.4949 27.7839V11.8457H29.4933ZM29.0964 29.7081C29.1114 29.6714 29.1281 29.6347 29.1398 29.598C29.1181 29.653 29.0948 29.7081 29.0714 29.7631C29.0814 29.7447 29.0898 29.7264 29.0964 29.7081ZM28.7997 30.2883C28.868 30.1766 28.9297 30.0615 28.9881 29.9431C29.0181 29.8831 29.0481 29.8231 29.0714 29.7631C28.963 30.0048 28.8363 30.2366 28.6929 30.455C28.7313 30.4 28.7663 30.345 28.7997 30.2883ZM28.5462 27.0903C28.5462 27.1153 28.5462 27.142 28.5445 27.1687C28.5445 27.1937 28.5412 27.217 28.5395 27.2437V27.3321C28.5462 27.252 28.5479 27.172 28.5479 27.0903C28.5479 27.0553 28.5479 27.0186 28.5445 26.9836C28.5462 27.0153 28.5462 27.0503 28.5462 27.0836V27.0903ZM28.5362 26.8285C28.5395 26.8485 28.5395 26.8702 28.5395 26.8886C28.5412 26.9202 28.5445 26.9519 28.5445 26.9836C28.5445 26.9302 28.5429 26.8769 28.5379 26.8235C28.5379 26.8252 28.5379 26.8269 28.5379 26.8285H28.5362ZM28.5362 26.8169C28.5362 26.8052 28.5362 26.7919 28.5329 26.7802C28.5345 26.7919 28.5345 26.8019 28.5345 26.8135C28.5345 26.8152 28.5345 26.8169 28.5345 26.8169H28.5362ZM28.5312 27.4121C28.5312 27.4238 28.5312 27.4354 28.5279 27.4471C28.5279 27.4571 28.5262 27.4671 28.5229 27.4771C28.5229 27.4888 28.5229 27.5021 28.5212 27.5138C28.5212 27.5255 28.5212 27.5388 28.5179 27.5505C28.5245 27.5005 28.5295 27.4505 28.5329 27.4004C28.5329 27.4038 28.5329 27.4088 28.5312 27.4121ZM28.5279 26.7268C28.5279 26.7268 28.5312 26.7302 28.5295 26.7318C28.5279 26.7051 28.5245 26.6801 28.5212 26.6551C28.5229 26.6651 28.5229 26.6735 28.5229 26.6851C28.5229 26.6968 28.5279 26.7152 28.5279 26.7268ZM28.5095 26.5568C28.5112 26.5701 28.5129 26.5834 28.5129 26.5984C28.5162 26.6068 28.5162 26.6168 28.5162 26.6268C28.5179 26.6335 28.5195 26.6368 28.5195 26.6418C28.5179 26.6134 28.5145 26.5851 28.5095 26.5568ZM28.5012 26.5101V26.5167C28.5045 26.5301 28.5079 26.5434 28.5095 26.5568C28.5062 26.5317 28.5029 26.5084 28.4995 26.4834C28.5012 26.4934 28.5012 26.5034 28.5012 26.5101ZM28.5012 27.6589V27.6672C28.4962 27.6856 28.4945 27.7072 28.4912 27.7272C28.4862 27.7572 28.4812 27.7856 28.4778 27.8156C28.4895 27.7622 28.4979 27.7072 28.5062 27.6522C28.5045 27.6522 28.5045 27.6539 28.5045 27.6539C28.5012 27.6539 28.5012 27.6572 28.5012 27.6589ZM28.4228 28.0607C28.4362 28.009 28.4478 27.9573 28.4578 27.9073C28.4662 27.8773 28.4712 27.8456 28.4778 27.8156C28.4595 27.9206 28.4362 28.0257 28.4078 28.1274C28.4128 28.1041 28.4178 28.0824 28.4228 28.0607ZM28.4678 26.3083C28.4612 26.2716 28.4528 26.2366 28.4428 26.2016C28.4512 26.2333 28.4578 26.2666 28.4645 26.2983C28.4645 26.3017 28.4678 26.3067 28.4678 26.3083ZM28.3261 28.3858C28.3345 28.3608 28.3445 28.3358 28.3511 28.3108C28.3211 28.4042 28.2878 28.4976 28.2494 28.5876C28.2544 28.5776 28.2578 28.5676 28.2611 28.5559C28.2828 28.4992 28.3044 28.4442 28.3261 28.3858ZM28.3044 25.7381C28.3161 25.7664 28.3261 25.7964 28.3361 25.8248C28.3195 25.7681 28.2978 25.7131 28.2761 25.6581C28.2828 25.6764 28.2894 25.6947 28.2944 25.7131C28.2994 25.7214 28.3028 25.7297 28.3044 25.7381ZM28.2461 25.5864C28.2544 25.603 28.2611 25.6197 28.2678 25.638C28.2561 25.6064 28.2444 25.5747 28.2294 25.543C28.2294 25.548 28.2311 25.5513 28.2311 25.5547C28.2361 25.5647 28.2411 25.578 28.2461 25.5864ZM28.2344 28.6159C28.2177 28.661 28.1994 28.7043 28.1794 28.746C28.2044 28.6943 28.2277 28.6409 28.2494 28.5876C28.2444 28.5976 28.2411 28.6076 28.2344 28.6159ZM28.1677 25.4096C28.1677 25.4096 28.1727 25.418 28.1744 25.4213C28.1711 25.413 28.1677 25.4046 28.1627 25.3963C28.1644 25.3996 28.1677 25.4046 28.1677 25.4096ZM28.1561 25.3829C28.1561 25.3829 28.1611 25.3929 28.1627 25.3963C28.1577 25.3829 28.151 25.3696 28.1444 25.3579C28.1494 25.3663 28.1527 25.3746 28.1561 25.3829ZM28.076 31.2187C27.9826 31.3104 27.8876 31.4004 27.7892 31.4854C27.8876 31.4021 27.9843 31.312 28.076 31.2187ZM27.9276 29.2012C27.9276 29.2012 27.921 29.2162 27.916 29.2229C27.9243 29.2128 27.931 29.2012 27.9376 29.1895C27.9343 29.1945 27.931 29.1978 27.9276 29.2012ZM27.9009 29.2429C27.8909 29.2562 27.8843 29.2645 27.8776 29.2745C27.8626 29.2962 27.8493 29.3179 27.8359 29.3396C27.8626 29.3012 27.8909 29.2629 27.916 29.2229C27.911 29.2312 27.9059 29.2379 27.9009 29.2429ZM27.8359 29.3396C27.8209 29.3596 27.8092 29.3796 27.7942 29.3996C27.8059 29.3846 27.8159 29.3696 27.8259 29.3546C27.8292 29.3496 27.8326 29.3446 27.8359 29.3396ZM27.7942 29.3996C27.7842 29.4146 27.7726 29.4296 27.7609 29.4429C27.7542 29.4513 27.7475 29.4613 27.7409 29.4713C27.7609 29.4479 27.7792 29.4229 27.7942 29.3996ZM27.7509 24.7193C27.7392 24.7027 27.7259 24.686 27.7125 24.6693C27.7242 24.686 27.7342 24.701 27.7459 24.7193H27.7509ZM27.6042 29.6397C27.5842 29.6614 27.5658 29.6847 27.5458 29.7081C27.5725 29.6797 27.5975 29.6514 27.6208 29.6213C27.6142 29.6264 27.6092 29.633 27.6042 29.6397ZM27.5441 24.4676C27.5325 24.4526 27.5191 24.4375 27.5058 24.4242C27.5108 24.4309 27.5141 24.4359 27.5191 24.4426C27.5275 24.4509 27.5358 24.4592 27.5441 24.4676ZM27.3591 29.9015C27.3491 29.9115 27.339 29.9215 27.329 29.9331C27.3574 29.9081 27.3857 29.8798 27.4091 29.8531C27.3924 29.8698 27.3757 29.8865 27.3591 29.9015ZM27.2357 30.0182L27.234 30.0215C27.2523 30.0065 27.2707 29.9898 27.2874 29.9715C27.269 29.9882 27.2523 30.0032 27.2357 30.0182ZM27.7892 31.4854C27.4924 31.7406 27.164 31.9623 26.8122 32.1424C27.1656 31.9656 27.4924 31.7439 27.7892 31.4854ZM26.8722 23.869C26.8438 23.8473 26.8138 23.8273 26.7838 23.8073C26.7905 23.8123 26.7972 23.8173 26.8055 23.824C26.8288 23.839 26.8505 23.854 26.8722 23.869ZM26.6087 23.6989C26.5887 23.6856 26.5704 23.6739 26.5487 23.6639C26.5537 23.6672 26.5604 23.6722 26.5654 23.6772C26.5804 23.6856 26.5937 23.6922 26.6087 23.6989ZM26.4987 23.6356C26.4987 23.6356 26.487 23.6272 26.482 23.6255C26.4854 23.6289 26.4887 23.6306 26.492 23.6339C26.492 23.6339 26.497 23.6339 26.4987 23.6356ZM26.4003 30.5934C26.387 30.6018 26.3737 30.6084 26.362 30.6134C26.4003 30.5968 26.437 30.5767 26.4737 30.5567C26.4487 30.5701 26.4237 30.5817 26.4003 30.5934ZM26.8122 32.1424C26.6354 32.2308 26.452 32.3108 26.2653 32.3792C26.4537 32.3141 26.6371 32.2341 26.8122 32.1424ZM26.0068 30.7668C26.0068 30.7668 26.0035 30.7702 26.0002 30.7735C26.0352 30.7602 26.0702 30.7451 26.1052 30.7301C26.0719 30.7418 26.0402 30.7535 26.0068 30.7668ZM25.7417 32.5359C25.7901 32.5259 25.8368 32.5125 25.8818 32.5009C26.0118 32.4659 26.1402 32.4258 26.2653 32.3792C26.1386 32.4242 26.0118 32.4642 25.8818 32.4992C25.8351 32.5125 25.7884 32.5242 25.7417 32.5359ZM25.9285 23.3804C25.9285 23.3804 25.9285 23.3804 25.9318 23.3804C25.9118 23.3721 25.8918 23.3654 25.8701 23.3604C25.8868 23.3688 25.9018 23.3738 25.9185 23.3804C25.9218 23.3804 25.9268 23.3804 25.9285 23.3804ZM25.6 30.9002C25.6333 30.8919 25.6667 30.8835 25.7 30.8719C25.6784 30.8769 25.6567 30.8819 25.635 30.8902C25.625 30.8952 25.6133 30.8969 25.6 30.9002ZM25.5566 23.2671C25.5683 23.2704 25.58 23.2737 25.5917 23.2771C25.6033 23.2787 25.6117 23.2821 25.6233 23.2837C25.6017 23.2771 25.58 23.2704 25.5566 23.2671ZM25.3366 30.9552C25.3366 30.9552 25.3216 30.9602 25.3132 30.9619C25.3599 30.9536 25.4083 30.9469 25.4549 30.9352C25.4199 30.9419 25.3782 30.9486 25.3366 30.9552ZM25.3065 30.9636C25.3065 30.9636 25.3115 30.9636 25.3132 30.9619C25.3082 30.9619 25.3032 30.9636 25.2965 30.9652C25.2999 30.9652 25.3032 30.9652 25.3049 30.9652L25.3065 30.9636ZM25.2565 30.9702C25.2565 30.9702 25.2382 30.9702 25.2315 30.9769C25.2532 30.9736 25.2749 30.9686 25.2982 30.9652C25.2965 30.9652 25.2949 30.9652 25.2915 30.9652C25.2799 30.9686 25.2682 30.9702 25.2565 30.9702ZM25.1348 23.187C25.1581 23.1887 25.1798 23.1937 25.2048 23.1987C25.2215 23.2037 25.2382 23.2037 25.2565 23.207C25.2599 23.207 25.2632 23.207 25.2665 23.207C25.2065 23.197 25.1465 23.187 25.0848 23.1787C25.1015 23.1804 25.1181 23.182 25.1348 23.1854V23.187ZM24.808 23.1537C24.9014 23.1587 24.9931 23.1687 25.0848 23.1804C25.0598 23.177 25.0331 23.1737 25.0081 23.1704C24.9431 23.1637 24.8747 23.157 24.808 23.1537ZM25.2665 23.2087C25.3432 23.2221 25.4199 23.2337 25.4933 23.2521C25.4283 23.2354 25.3632 23.2237 25.2999 23.2137C25.2882 23.2104 25.2765 23.2087 25.2665 23.2087ZM24.7947 31.0219C24.828 31.0203 24.863 31.0219 24.8964 31.0169C24.9514 31.0136 25.0064 31.0086 25.0614 31.0002C25.0081 31.0019 24.9531 31.0069 24.893 31.0136C24.8597 31.0169 24.828 31.0186 24.7947 31.0219ZM24.3895 23.157C24.4145 23.1554 24.4379 23.1537 24.4629 23.152C24.4345 23.152 24.4045 23.1537 24.3762 23.157H24.3895ZM23.8393 23.2254C23.8676 23.2187 23.8976 23.2154 23.9276 23.2104C23.921 23.2104 23.9143 23.212 23.906 23.2137C23.8843 23.217 23.8626 23.222 23.8393 23.2254ZM24.066 23.1904C24.066 23.1904 24.0744 23.1887 24.0794 23.1904C24.1661 23.1754 24.2544 23.1637 24.3411 23.1587C24.3528 23.1587 24.3645 23.1554 24.3762 23.1554C24.2594 23.1604 24.1444 23.1737 24.031 23.192C24.0427 23.192 24.0544 23.192 24.066 23.1887V23.1904ZM24.0177 23.1954C24.0177 23.1954 24.026 23.1954 24.031 23.1937C24.0277 23.1937 24.026 23.1937 24.0227 23.1937C24.0227 23.1937 24.0193 23.1937 24.0177 23.1937V23.1954ZM24.006 23.1987C24.006 23.1987 24.0143 23.197 24.0177 23.1954C23.9877 23.2004 23.9577 23.2054 23.9276 23.2104C23.9543 23.207 23.9793 23.202 24.006 23.1987ZM24.011 30.9819C24.0744 30.9919 24.1394 31.0002 24.2044 31.0086C24.1127 30.9986 24.021 30.9869 23.931 30.9702C23.9577 30.9736 23.9843 30.9786 24.011 30.9819ZM23.7726 23.2404C23.7943 23.2354 23.8176 23.2304 23.8393 23.2254C23.8009 23.2321 23.7626 23.2404 23.7242 23.2504C23.7409 23.2454 23.7559 23.2421 23.7726 23.2404ZM23.6375 23.2721C23.6525 23.2671 23.6675 23.2621 23.6825 23.2604C23.6559 23.2654 23.6292 23.2721 23.6025 23.2787C23.6142 23.2771 23.6259 23.2737 23.6375 23.2721ZM23.254 30.7885C23.3741 30.8335 23.4958 30.8719 23.6208 30.9019C23.5575 30.8852 23.4975 30.8669 23.4358 30.8485C23.3741 30.8302 23.3141 30.8102 23.254 30.7885ZM23.5958 23.2821C23.5725 23.2871 23.5492 23.2937 23.5258 23.3004C23.5375 23.2971 23.5508 23.2937 23.5625 23.2921C23.5725 23.2887 23.5842 23.2854 23.5958 23.2821ZM23.1323 23.4388C23.1673 23.4255 23.2023 23.4105 23.239 23.3988C23.2607 23.3905 23.284 23.3821 23.3074 23.3738C23.1357 23.4338 22.9689 23.5022 22.8105 23.5855C22.8205 23.5805 22.8305 23.5789 22.8405 23.5755C22.9039 23.5422 22.9672 23.5122 23.0323 23.4838C23.0656 23.4688 23.0973 23.4538 23.1323 23.4388ZM23.3407 23.3621C23.3291 23.3654 23.3191 23.3704 23.3074 23.3738C23.3241 23.3671 23.3407 23.3621 23.3591 23.3554C23.3524 23.3571 23.3474 23.3588 23.3407 23.3621ZM23.4841 23.3121C23.4408 23.3254 23.4008 23.3421 23.3591 23.3554C23.3874 23.3454 23.4174 23.3354 23.4458 23.3271C23.4575 23.3221 23.4708 23.3171 23.4841 23.3121ZM23.074 30.7151C23.1323 30.7418 23.1907 30.7652 23.2507 30.7868C23.1607 30.7551 23.074 30.7185 22.9873 30.6785C23.0156 30.6918 23.0439 30.7051 23.074 30.7151ZM22.6021 23.7022C22.6238 23.6906 22.6488 23.6756 22.6755 23.6639C22.6821 23.6589 22.6888 23.6539 22.6938 23.6489C22.6621 23.6656 22.6321 23.6822 22.6021 23.7022ZM22.5321 23.7456C22.5537 23.7306 22.5771 23.7156 22.6021 23.7022C22.5654 23.7206 22.5321 23.7423 22.4987 23.7656C22.5104 23.7589 22.5204 23.7523 22.5321 23.7456ZM22.4654 23.7873C22.4654 23.7873 22.462 23.7873 22.4604 23.7889C22.4637 23.7923 22.4637 23.7889 22.4654 23.7873ZM22.3737 23.8506C22.3737 23.8506 22.3887 23.8406 22.3987 23.8373C22.417 23.8223 22.4337 23.8106 22.452 23.7956C22.4204 23.8156 22.3903 23.8356 22.3603 23.859C22.3637 23.8556 22.3687 23.8523 22.3737 23.8506ZM22.3903 30.3416C22.3903 30.3416 22.382 30.3366 22.3787 30.335C22.3953 30.3466 22.412 30.3583 22.4304 30.37C22.422 30.365 22.4154 30.36 22.407 30.3533C22.402 30.3483 22.3987 30.3466 22.3903 30.3416ZM22.1653 30.1766C22.2019 30.2066 22.2403 30.2366 22.2786 30.2633C22.2653 30.2516 22.2503 30.2399 22.2369 30.2299C22.2136 30.2133 22.1886 30.1949 22.1653 30.1766ZM21.9935 30.0315C22.0485 30.0832 22.1052 30.1316 22.1653 30.1766C22.1286 30.1466 22.0919 30.1149 22.0552 30.0832C22.0335 30.0649 22.0135 30.0482 21.9935 30.0315ZM22.0769 24.0757C22.0369 24.1074 21.9985 24.1408 21.9602 24.1774C21.9752 24.1658 21.9902 24.1558 22.0052 24.1441C22.0285 24.1191 22.0535 24.0974 22.0769 24.0757ZM21.8851 24.2475C21.8851 24.2475 21.8918 24.2425 21.8951 24.2391C21.9168 24.2175 21.9385 24.1975 21.9602 24.1774C21.9352 24.1991 21.9085 24.2225 21.8851 24.2475ZM21.7134 24.4275C21.7251 24.4142 21.7351 24.3992 21.7501 24.3875C21.7501 24.3859 21.7501 24.3842 21.7517 24.3825C21.7201 24.4142 21.6901 24.4476 21.6617 24.4809C21.6784 24.4626 21.6951 24.4459 21.7134 24.4275ZM21.5383 24.6326V24.626C21.5183 24.651 21.4983 24.676 21.48 24.7027C21.4983 24.6793 21.5183 24.6543 21.5383 24.6326ZM21.3583 24.8727C21.3783 24.841 21.3999 24.8094 21.4216 24.781C21.3833 24.831 21.3482 24.8811 21.3166 24.9328C21.3282 24.9127 21.3432 24.8927 21.3583 24.8727ZM21.2799 24.9911C21.2916 24.9728 21.3032 24.9528 21.3166 24.9328C21.2999 24.9561 21.2849 24.9794 21.2715 25.0028C21.2715 24.9994 21.2766 24.9961 21.2799 24.9911ZM21.2665 25.0145C21.2665 25.0145 21.2699 25.0061 21.2715 25.0028C21.2599 25.0211 21.2482 25.0378 21.2382 25.0561C21.2465 25.0428 21.2565 25.0295 21.2665 25.0145ZM21.2132 25.0995C21.2215 25.0845 21.2299 25.0695 21.2382 25.0561C21.2149 25.0945 21.1915 25.1328 21.1715 25.1712C21.1848 25.1462 21.1982 25.1228 21.2132 25.0995ZM21.1448 28.9644C21.0548 28.7977 20.9764 28.6226 20.9081 28.4425C20.9731 28.6226 21.0531 28.7977 21.1448 28.9644ZM20.673 27.0836C20.673 26.7068 20.7263 26.3433 20.8264 25.9949C20.723 26.3433 20.668 26.7102 20.668 27.0903C20.668 27.5638 20.753 28.019 20.9081 28.4409C20.7563 28.019 20.673 27.5622 20.673 27.0836Z" fill="#270075"/>
<path id="Vector_21" d="M19.7243 18.6274V27.7845C19.7243 29.1301 20.2712 30.3539 21.1582 31.2342C22.0386 32.1229 23.2608 32.6665 24.6063 32.6665C24.7164 32.6665 24.8248 32.6632 24.9331 32.6565C25.0298 32.6498 25.1265 32.6398 25.2233 32.6282C25.2349 32.6282 25.2449 32.6265 25.2566 32.6248C25.2633 32.6232 25.2683 32.6232 25.2749 32.6215C25.3266 32.6148 25.3783 32.6065 25.4283 32.5981C25.4867 32.5881 25.5434 32.5781 25.6001 32.5665C25.6468 32.5565 25.6951 32.5465 25.7418 32.5365C25.7885 32.5248 25.8352 32.5131 25.8819 32.4998C26.0119 32.4648 26.1386 32.4247 26.2653 32.3797C26.4521 32.3114 26.6355 32.2313 26.8122 32.143C27.1641 31.9629 27.4925 31.7411 27.7893 31.486C27.8877 31.401 27.9827 31.3109 28.0761 31.2176C28.1228 31.1709 28.1678 31.1242 28.2112 31.0759C28.2545 31.0275 28.2979 30.9791 28.3395 30.9291C28.3695 30.8941 28.3979 30.8591 28.4262 30.8241C28.4596 30.7824 28.4929 30.7407 28.5229 30.6974C28.5813 30.619 28.638 30.539 28.6913 30.4556C28.8347 30.2372 28.9615 30.0054 29.0698 29.7636C29.0932 29.7086 29.1165 29.6536 29.1382 29.5986C29.1415 29.5969 29.1415 29.5952 29.1382 29.5936C29.1449 29.5852 29.1482 29.5769 29.1499 29.5686C29.1532 29.5619 29.1565 29.5552 29.1582 29.5486C29.1765 29.4969 29.1949 29.4452 29.2149 29.3918C29.39 28.8883 29.4867 28.3481 29.4867 27.7845V11.8496L19.7227 18.6274H19.7243ZM28.538 27.3326V27.346C28.538 27.3643 28.538 27.381 28.5329 27.401C28.5296 27.451 28.5246 27.501 28.5179 27.5511C28.5163 27.5811 28.5113 27.6128 28.5079 27.6444C28.5079 27.6494 28.5063 27.6494 28.5063 27.6528C28.4979 27.7078 28.4896 27.7628 28.4779 27.8162C28.4596 27.9212 28.4362 28.0263 28.4079 28.128C28.4012 28.1563 28.3929 28.1847 28.3846 28.213C28.3745 28.2464 28.3645 28.278 28.3512 28.3114C28.3212 28.4048 28.2878 28.4981 28.2495 28.5882C28.2278 28.6415 28.2045 28.6949 28.1795 28.7466C28.1578 28.7949 28.1345 28.8416 28.1094 28.8883C28.1078 28.8933 28.1044 28.8983 28.1028 28.9033C28.0978 28.9133 28.0928 28.9233 28.0878 28.9333C28.0778 28.9533 28.0661 28.9733 28.0544 28.9933C28.0444 29.0117 28.0344 29.0317 28.0227 29.05C28.0127 29.0717 28.0011 29.0934 27.9861 29.115C27.9794 29.1301 27.9711 29.1367 27.9644 29.1517C27.9577 29.1584 27.9527 29.1684 27.9477 29.1751C27.9444 29.1801 27.941 29.1851 27.9377 29.1901C27.931 29.2017 27.9244 29.2134 27.916 29.2234C27.8777 29.2834 27.8377 29.3418 27.7943 29.4002C27.7793 29.4235 27.761 29.4485 27.741 29.4719C27.7343 29.4819 27.7276 29.4919 27.7193 29.5019C27.6976 29.5319 27.6759 29.5569 27.6509 29.5852C27.6476 29.5902 27.6409 29.5969 27.6359 29.6036C27.6309 29.6086 27.6259 29.6153 27.6209 29.6219C27.5976 29.6519 27.5726 29.6803 27.5459 29.7086C27.5325 29.7236 27.5192 29.7403 27.5059 29.757C27.5025 29.7603 27.4992 29.762 27.4975 29.7636L27.4859 29.7753C27.4592 29.802 27.4342 29.8287 27.4092 29.8537C27.3858 29.8804 27.3575 29.9087 27.3291 29.9337C27.3158 29.9454 27.3024 29.9587 27.2874 29.9721C27.2708 29.9904 27.2524 30.0071 27.2341 30.0221C27.2341 30.0221 27.2335 30.0226 27.2324 30.0238C27.2324 30.0238 27.2291 30.0304 27.2291 30.0338C27.1941 30.0604 27.1657 30.0838 27.134 30.1088C27.1024 30.1355 27.0723 30.1621 27.039 30.1855C27.0273 30.1955 27.014 30.2055 27.0023 30.2138C26.9806 30.2305 26.959 30.2472 26.9373 30.2622C26.8989 30.2905 26.8623 30.3172 26.8239 30.3456C26.7872 30.3689 26.7506 30.3939 26.7139 30.4156L26.6972 30.4273C26.6972 30.4273 26.6872 30.4323 26.6822 30.4373C26.6705 30.4439 26.6572 30.4523 26.6455 30.4589C26.6388 30.4639 26.6305 30.4673 26.6238 30.4723C26.6038 30.4823 26.5838 30.4956 26.5655 30.5073C26.5605 30.5073 26.5555 30.5123 26.5505 30.514C26.5238 30.529 26.4988 30.544 26.4738 30.5573C26.4371 30.5773 26.4004 30.5973 26.3621 30.614C26.3487 30.6207 26.337 30.6273 26.3254 30.634C26.312 30.6407 26.2987 30.6457 26.2854 30.6523C26.272 30.659 26.2603 30.6657 26.247 30.6724C26.217 30.684 26.1887 30.6957 26.1603 30.709C26.1453 30.7157 26.1303 30.7207 26.1153 30.7274C26.112 30.729 26.1086 30.729 26.1053 30.7307C26.0703 30.7457 26.0353 30.7607 26.0002 30.7741C26.0002 30.7757 25.9986 30.7757 25.9969 30.7774C25.9969 30.7774 25.9952 30.7785 25.9919 30.7807C25.9702 30.7891 25.9486 30.7941 25.9269 30.8007C25.9235 30.8007 25.9219 30.8024 25.9185 30.8024C25.8769 30.8191 25.8335 30.8324 25.7918 30.8458C25.7868 30.8474 25.7801 30.8508 25.7751 30.8524C25.7735 30.8524 25.7685 30.8524 25.7651 30.8541C25.7435 30.8624 25.7218 30.8674 25.7001 30.8724C25.6668 30.8841 25.6334 30.8924 25.6001 30.9008C25.5984 30.9008 25.5984 30.9024 25.5967 30.9024C25.5867 30.9074 25.5751 30.9108 25.5617 30.9125C25.5567 30.9125 25.5517 30.9158 25.5467 30.9158C25.5417 30.9175 25.5384 30.9191 25.5334 30.9191C25.53 30.9191 25.525 30.9191 25.5217 30.9208C25.5184 30.9208 25.5134 30.9225 25.51 30.9275C25.5017 30.9275 25.4917 30.9291 25.4834 30.9291C25.475 30.9325 25.4667 30.9341 25.46 30.9341C25.4584 30.9341 25.4567 30.9341 25.455 30.9341C25.3817 30.9508 25.3066 30.9641 25.2316 30.9758L25.2283 30.9775C25.1982 30.9808 25.1716 30.9858 25.1432 30.9892C25.1232 30.9925 25.1049 30.9958 25.0832 30.9992H25.0615C25.0065 31.0075 24.9515 31.0125 24.8965 31.0158C24.8064 31.0242 24.713 31.0275 24.6197 31.0275H24.608C24.5413 31.0275 24.4729 31.0275 24.4046 31.0225C24.3379 31.0192 24.2712 31.0142 24.2045 31.0075C24.1128 30.9975 24.0211 30.9858 23.9311 30.9691C23.8927 30.9625 23.8544 30.9541 23.8177 30.9475H23.8143C23.7476 30.9325 23.6843 30.9175 23.6209 30.9008C23.4959 30.8708 23.3742 30.8324 23.2541 30.7874C23.2541 30.7874 23.2541 30.7874 23.2508 30.7874C23.1607 30.7557 23.074 30.719 22.9873 30.679C22.9573 30.6674 22.9273 30.6523 22.899 30.639C22.8623 30.619 22.8256 30.6023 22.7889 30.5823C22.7873 30.5807 22.7839 30.5806 22.7822 30.579C22.7489 30.5623 22.7156 30.544 22.6822 30.5223C22.6455 30.5023 22.6088 30.4823 22.5722 30.4606C22.5371 30.4389 22.5005 30.4156 22.4638 30.3906C22.4521 30.3839 22.4404 30.3789 22.4304 30.3706C22.4121 30.3589 22.3954 30.3472 22.3788 30.3355C22.3737 30.3322 22.3687 30.3289 22.3621 30.3255C22.3571 30.3222 22.3554 30.3189 22.3537 30.3189C22.3521 30.3172 22.3504 30.3172 22.3471 30.3172C22.3254 30.3005 22.3037 30.2839 22.282 30.2672L22.2787 30.2639C22.2404 30.2372 22.202 30.2072 22.1653 30.1771C22.1053 30.1321 22.0486 30.0838 21.9936 30.0321C21.9752 30.0171 21.9569 30.0004 21.9386 29.9821C21.9369 29.9821 21.9369 29.9804 21.9336 29.9787C21.9319 29.9771 21.9302 29.9754 21.9286 29.9754C21.8902 29.9404 21.8585 29.9087 21.8235 29.8737H21.8219C21.7768 29.8287 21.7335 29.7837 21.6935 29.737C21.6601 29.702 21.6268 29.6653 21.5968 29.6269C21.5801 29.6086 21.5634 29.5886 21.5484 29.5686C21.5234 29.5386 21.4984 29.5069 21.4734 29.4735C21.435 29.4235 21.3983 29.3718 21.3617 29.3185C21.3183 29.2568 21.2783 29.1951 21.2399 29.1317C21.2066 29.075 21.1749 29.0217 21.1449 28.965C21.0532 28.7983 20.9732 28.6232 20.9081 28.4431C20.7531 28.0196 20.668 27.5644 20.668 27.0909C20.668 26.7107 20.7231 26.3439 20.8264 25.9954C20.8364 25.9537 20.8498 25.9137 20.8631 25.8737C20.8765 25.8354 20.8881 25.797 20.9031 25.7587C20.9098 25.7353 20.9181 25.7136 20.9282 25.692C20.9498 25.6303 20.9748 25.5686 21.0032 25.5086C21.0315 25.4402 21.0632 25.3735 21.0982 25.3068C21.0999 25.3051 21.0999 25.3018 21.1016 25.3001C21.1132 25.2818 21.1232 25.2618 21.1332 25.2435C21.1466 25.2184 21.1599 25.1951 21.1716 25.1718C21.1916 25.1334 21.2149 25.0951 21.2383 25.0567C21.2483 25.0384 21.26 25.0217 21.2716 25.0034C21.285 24.98 21.3 24.9567 21.3166 24.9333C21.3483 24.8816 21.3833 24.8316 21.4217 24.7816C21.4384 24.7549 21.4584 24.7282 21.48 24.7032C21.4984 24.6766 21.5184 24.6515 21.5384 24.6265C21.5801 24.5748 21.6201 24.5265 21.6618 24.4815C21.6901 24.4481 21.7201 24.4148 21.7518 24.3831C21.7518 24.3814 21.7552 24.3798 21.7568 24.3781C21.7702 24.3614 21.7852 24.3464 21.8002 24.3314C21.8252 24.3047 21.8502 24.2814 21.8752 24.2564C21.8802 24.253 21.8835 24.2514 21.8852 24.248C21.9086 24.223 21.9352 24.1997 21.9602 24.178C21.9986 24.1413 22.0369 24.108 22.077 24.0763C22.087 24.0663 22.0986 24.0546 22.112 24.048C22.1253 24.0363 22.1387 24.0246 22.152 24.0129C22.202 23.9713 22.2504 23.9329 22.3037 23.8962C22.3221 23.8829 22.3387 23.8696 22.3604 23.8596C22.3904 23.8362 22.4204 23.8162 22.4521 23.7962C22.4538 23.7945 22.4571 23.7912 22.4604 23.7895C22.4604 23.7879 22.4638 23.7879 22.4655 23.7879C22.4771 23.7795 22.4871 23.7728 22.4988 23.7662C22.5321 23.7428 22.5655 23.7212 22.6022 23.7028C22.6322 23.6828 22.6622 23.6661 22.6939 23.6495C22.6939 23.6495 22.695 23.6489 22.6972 23.6478C22.7156 23.6328 22.7322 23.6228 22.7522 23.6128C22.7706 23.6028 22.7906 23.5944 22.8073 23.5878C22.8073 23.5878 22.8084 23.5872 22.8106 23.5861C23.024 23.4744 23.2491 23.3827 23.4842 23.3127C23.4859 23.3127 23.4875 23.311 23.4892 23.311C23.5009 23.3077 23.5142 23.3043 23.5259 23.301C23.5492 23.2943 23.5726 23.2876 23.5959 23.2826C23.5959 23.281 23.6009 23.281 23.6026 23.2793C23.6293 23.2726 23.6559 23.266 23.6826 23.261C23.6976 23.256 23.711 23.2526 23.7243 23.251C23.7627 23.241 23.801 23.2326 23.8394 23.226C24.0144 23.1893 24.1928 23.1659 24.3762 23.1576C24.4046 23.1543 24.4346 23.1526 24.4629 23.1526C24.5113 23.1493 24.5596 23.1493 24.608 23.1493C24.6747 23.1493 24.7414 23.1493 24.8098 23.1543C25.0432 23.1659 25.2733 23.1993 25.495 23.2526C25.5167 23.256 25.5384 23.261 25.5584 23.2676C25.5817 23.271 25.6034 23.2776 25.6251 23.2843H25.6268C25.6651 23.2943 25.7068 23.3043 25.7468 23.3177C25.7885 23.3293 25.8302 23.3427 25.8719 23.3593C25.8935 23.3643 25.9135 23.371 25.9335 23.3794C25.9352 23.3794 25.9369 23.3794 25.9385 23.3794C25.9452 23.3794 25.9502 23.3827 25.9569 23.3844C26.0152 23.406 26.0803 23.4294 26.1386 23.4577C26.2003 23.4827 26.2553 23.5061 26.3137 23.5361C26.3254 23.5411 26.3387 23.5461 26.3504 23.5528C26.3804 23.5678 26.4071 23.5811 26.4438 23.6028C26.4538 23.6078 26.4671 23.6144 26.4788 23.6228C26.4804 23.6228 26.4821 23.6228 26.4838 23.6245C26.4888 23.6261 26.4954 23.6295 26.5004 23.6345C26.5021 23.6345 26.5054 23.6361 26.5054 23.6378C26.5071 23.6378 26.5088 23.6378 26.5105 23.6378C26.5271 23.6428 26.5388 23.6495 26.5505 23.6611C26.5721 23.6711 26.5905 23.6828 26.6105 23.6961C26.6238 23.7012 26.6355 23.7095 26.6472 23.7178C26.6588 23.7228 26.6688 23.7312 26.6789 23.7378C26.6822 23.7395 26.6855 23.7412 26.6889 23.7445C26.7222 23.7595 26.7505 23.7779 26.7789 23.7995C26.7806 23.8012 26.7822 23.8029 26.7856 23.8045C26.8156 23.8245 26.8456 23.8445 26.8739 23.8662C26.8823 23.8729 26.8923 23.8796 26.9006 23.8846C26.9473 23.9179 26.9923 23.9513 27.0373 23.9879C27.0623 24.0063 27.089 24.0263 27.114 24.0463C27.1641 24.0896 27.2074 24.1263 27.2591 24.1697L27.3591 24.2697L27.3908 24.3014C27.3908 24.3014 27.3991 24.3081 27.4025 24.3131C27.4058 24.3164 27.4108 24.3197 27.4142 24.3231C27.4442 24.3481 27.4675 24.3748 27.4925 24.4031C27.4975 24.4098 27.5025 24.4164 27.5075 24.4214C27.5209 24.4348 27.5342 24.4498 27.5459 24.4648C27.5459 24.4648 27.547 24.4659 27.5492 24.4681C27.5492 24.4681 27.5659 24.4865 27.5759 24.4965C27.5976 24.5198 27.6192 24.5448 27.6376 24.5682C27.6409 24.5732 27.6442 24.5765 27.6476 24.5815C27.6576 24.5932 27.6659 24.6049 27.6743 24.6149C27.6893 24.6349 27.7009 24.6482 27.7143 24.6665C27.7276 24.6832 27.741 24.6999 27.7526 24.7166H27.7543C27.7543 24.7166 27.7626 24.7266 27.7643 24.7316C27.771 24.7399 27.776 24.7483 27.7826 24.7549C27.816 24.7999 27.846 24.84 27.8793 24.885C27.9444 24.9934 28.0094 25.0934 28.0761 25.2101C28.1028 25.2601 28.1261 25.3051 28.1461 25.3552C28.1528 25.3668 28.1595 25.3802 28.1645 25.3935C28.1695 25.4019 28.1728 25.4102 28.1761 25.4185C28.1995 25.4552 28.2195 25.4952 28.2295 25.5352C28.2295 25.5369 28.2312 25.5386 28.2312 25.5402C28.2462 25.5719 28.2578 25.6036 28.2695 25.6353C28.2728 25.642 28.2745 25.6486 28.2778 25.6553C28.2995 25.7103 28.3212 25.7653 28.3379 25.822C28.3379 25.8254 28.3412 25.8304 28.3429 25.8337C28.3529 25.862 28.3645 25.8871 28.3712 25.9171C28.3796 25.9454 28.3896 25.9771 28.3962 26.0088C28.3979 26.0121 28.3979 26.0171 28.3996 26.0204C28.4062 26.0404 28.4129 26.0621 28.4179 26.0855C28.4196 26.0921 28.4212 26.0988 28.4229 26.1071C28.4296 26.1372 28.4379 26.1672 28.4446 26.1988C28.4546 26.2339 28.4629 26.2689 28.4696 26.3056C28.4713 26.3122 28.4729 26.3172 28.4729 26.3239C28.4813 26.3556 28.4863 26.3889 28.4913 26.4239C28.4929 26.4339 28.4946 26.4439 28.4963 26.4556C28.4996 26.464 28.5013 26.4723 28.5013 26.4806C28.5046 26.5056 28.5079 26.529 28.5113 26.554C28.5163 26.5823 28.5196 26.6107 28.5213 26.639C28.5229 26.644 28.5229 26.6474 28.5229 26.6524C28.5263 26.6774 28.5296 26.7024 28.5313 26.7291C28.5329 26.7307 28.5329 26.7324 28.5329 26.7341C28.5346 26.7457 28.5363 26.7574 28.5346 26.7707C28.5363 26.7741 28.5363 26.7758 28.5346 26.7774C28.5363 26.7891 28.538 26.8024 28.538 26.8141C28.5396 26.8174 28.5396 26.8191 28.538 26.8208C28.543 26.8741 28.5446 26.9275 28.5446 26.9808C28.548 27.0158 28.548 27.0525 28.548 27.0875C28.548 27.1692 28.548 27.2493 28.5396 27.3293L28.538 27.3326Z" fill="#270075"/>
<path id="Vector_22" d="M28.2581 39.6888L15.0159 47.4637C14.0822 47.0669 13.1785 46.6117 12.3065 46.1081C5.22691 41.9981 0.38992 34.445 0.0931312 25.7398C0.0831271 25.453 0.078125 25.1679 0.078125 24.8844C0.078125 24.1358 0.111472 23.3955 0.178166 22.6668L12.1548 11.8457V27.7839C12.1548 34.6501 17.7404 40.2341 24.6032 40.2341C25.8754 40.2341 27.1026 40.0423 28.2581 39.6888Z" fill="#270075"/>
</g>
</g>
</g>
</g>
</g>
<defs>
<linearGradient id="paint0_linear_4857_39256" x1="0.0607265" y1="24.6366" x2="48.9331" y2="24.6366" gradientUnits="userSpaceOnUse">
<stop stop-color="#8500C2"/>
<stop offset="0.17" stop-color="#8B00B9"/>
<stop offset="0.44" stop-color="#9E00A3"/>
<stop offset="0.77" stop-color="#BB007F"/>
<stop offset="1" stop-color="#D40062"/>
</linearGradient>
<clipPath id="clip0_4857_39256">
<rect width="130.949" height="49.0485" fill="white" transform="translate(0.078125 0.355469)"/>
</clipPath>
</defs>
</svg>
