<svg width="22" height="12" viewBox="0 0 22 12" fill="none" xmlns="http://www.w3.org/2000/svg">
<path id="Vector" d="M10.5138 0.761742L0.917535 10.0964C0.757336 10.2521 0.667969 10.459 0.667969 10.6742C0.667969 10.8894 0.757336 11.0963 0.917535 11.2521L0.928378 11.2621C1.00604 11.3379 1.09952 11.3982 1.20313 11.4395C1.30674 11.4807 1.41832 11.502 1.53108 11.502C1.64384 11.502 1.75541 11.4807 1.85903 11.4395C1.96264 11.3982 2.05612 11.3379 2.13378 11.2621L11.1698 2.47189L20.2022 11.2621C20.2798 11.3379 20.3733 11.3982 20.4769 11.4395C20.5805 11.4807 20.6921 11.502 20.8049 11.502C20.9176 11.502 21.0292 11.4807 21.1328 11.4395C21.2364 11.3982 21.3299 11.3379 21.4076 11.2621L21.4184 11.2521C21.5786 11.0963 21.668 10.8894 21.668 10.6742C21.668 10.459 21.5786 10.2521 21.4184 10.0964L11.8222 0.761742C11.7378 0.679648 11.6363 0.614292 11.5238 0.569636C11.4114 0.52498 11.2903 0.501953 11.168 0.501953C11.0456 0.501953 10.9246 0.52498 10.8121 0.569636C10.6997 0.614292 10.5982 0.679648 10.5138 0.761742Z" fill="#98FFF9"/>
</svg>
