<svg width="137" height="41" viewBox="0 0 137 41" fill="none" xmlns="http://www.w3.org/2000/svg">
<g id="Whimsy Games LOGO">
<g id="WHIMSY">
<path d="M62.3211 18.6914C62.1629 18.6914 62.0623 18.6195 62.0191 18.4757L58.2013 3.87289L58.1797 3.78661C58.1797 3.65719 58.2588 3.59248 58.417 3.59248H61.0916C61.2354 3.59248 61.3289 3.66438 61.372 3.80818L63.4212 12.5871C63.4356 12.6447 63.4571 12.6734 63.4859 12.6734C63.5147 12.6734 63.5362 12.6447 63.5506 12.5871L65.535 3.82975C65.5782 3.67157 65.6716 3.59248 65.8154 3.59248H68.4254C68.5836 3.59248 68.6842 3.66438 68.7274 3.80818L70.8844 12.5871C70.8988 12.6303 70.9203 12.659 70.9491 12.6734C70.9779 12.6734 70.9994 12.6447 71.0138 12.5871L72.9982 3.82975C73.0414 3.67157 73.1348 3.59248 73.2786 3.59248H75.8239C76.0252 3.59248 76.1043 3.68595 76.0612 3.87289L72.5237 18.4757C72.4806 18.6195 72.3799 18.6914 72.2217 18.6914H69.6549C69.5111 18.6914 69.4176 18.6195 69.3745 18.4757L67.1744 9.13595C67.16 9.07843 67.1384 9.04967 67.1096 9.04967C67.0809 9.04967 67.0593 9.07843 67.0449 9.13595L64.9958 18.4542C64.967 18.6123 64.8736 18.6914 64.7154 18.6914H62.3211Z" fill="white"/>
<path d="M85.9176 3.85132C85.9176 3.77942 85.9392 3.7219 85.9823 3.67876C86.0398 3.62124 86.1046 3.59248 86.1765 3.59248H88.7001C88.772 3.59248 88.8296 3.62124 88.8727 3.67876C88.9302 3.7219 88.959 3.77942 88.959 3.85132V18.4326C88.959 18.5045 88.9302 18.5692 88.8727 18.6267C88.8296 18.6699 88.772 18.6914 88.7001 18.6914H86.1765C86.1046 18.6914 86.0398 18.6699 85.9823 18.6267C85.9392 18.5692 85.9176 18.5045 85.9176 18.4326V12.4793C85.9176 12.4074 85.8817 12.3714 85.8098 12.3714H81.0428C80.9709 12.3714 80.935 12.4074 80.935 12.4793V18.4326C80.935 18.5045 80.9062 18.5692 80.8487 18.6267C80.8055 18.6699 80.748 18.6914 80.6761 18.6914H78.1524C78.0805 18.6914 78.0158 18.6699 77.9583 18.6267C77.9152 18.5692 77.8936 18.5045 77.8936 18.4326V3.85132C77.8936 3.77942 77.9152 3.7219 77.9583 3.67876C78.0158 3.62124 78.0805 3.59248 78.1524 3.59248H80.6761C80.748 3.59248 80.8055 3.62124 80.8487 3.67876C80.9062 3.7219 80.935 3.77942 80.935 3.85132V9.65363C80.935 9.72553 80.9709 9.76148 81.0428 9.76148H85.8098C85.8817 9.76148 85.9176 9.72553 85.9176 9.65363V3.85132Z" fill="white"/>
<path d="M91.6968 18.6914C91.6249 18.6914 91.5602 18.6699 91.5027 18.6267C91.4596 18.5692 91.438 18.5045 91.438 18.4326V3.85132C91.438 3.77942 91.4596 3.7219 91.5027 3.67876C91.5602 3.62124 91.6249 3.59248 91.6968 3.59248H94.2205C94.2924 3.59248 94.3499 3.62124 94.3931 3.67876C94.4506 3.7219 94.4794 3.77942 94.4794 3.85132V18.4326C94.4794 18.5045 94.4506 18.5692 94.3931 18.6267C94.3499 18.6699 94.2924 18.6914 94.2205 18.6914H91.6968Z" fill="white"/>
<path d="M106.811 3.76504C106.883 3.65 106.983 3.59248 107.113 3.59248H109.636C109.708 3.59248 109.766 3.62124 109.809 3.67876C109.867 3.7219 109.895 3.77942 109.895 3.85132V18.4326C109.895 18.5045 109.867 18.5692 109.809 18.6267C109.766 18.6699 109.708 18.6914 109.636 18.6914H107.113C107.041 18.6914 106.976 18.6699 106.919 18.6267C106.876 18.5692 106.854 18.5045 106.854 18.4326V8.92026C106.854 8.86274 106.84 8.83398 106.811 8.83398C106.782 8.83398 106.753 8.85555 106.725 8.89868L104.438 12.4793C104.366 12.5943 104.266 12.6519 104.136 12.6519H102.863C102.734 12.6519 102.633 12.5943 102.562 12.4793L100.275 8.89868C100.246 8.85555 100.218 8.84117 100.189 8.85555C100.16 8.85555 100.146 8.88431 100.146 8.94182V18.4326C100.146 18.5045 100.117 18.5692 100.059 18.6267C100.016 18.6699 99.9587 18.6914 99.8868 18.6914H97.3632C97.2913 18.6914 97.2266 18.6699 97.169 18.6267C97.1259 18.5692 97.1043 18.5045 97.1043 18.4326V3.85132C97.1043 3.77942 97.1259 3.7219 97.169 3.67876C97.2266 3.62124 97.2913 3.59248 97.3632 3.59248H99.8868C100.016 3.59248 100.117 3.65 100.189 3.76504L103.424 8.79084C103.467 8.87712 103.511 8.87712 103.554 8.79084L106.811 3.76504Z" fill="white"/>
<path d="M117.7 18.864C116.55 18.864 115.543 18.6842 114.68 18.3247C113.818 17.9509 113.149 17.426 112.674 16.7501C112.214 16.0599 111.984 15.2618 111.984 14.3559V13.8813C111.984 13.8094 112.006 13.7519 112.049 13.7088C112.106 13.6513 112.171 13.6225 112.243 13.6225H114.702C114.774 13.6225 114.831 13.6513 114.875 13.7088C114.932 13.7519 114.961 13.8094 114.961 13.8813V14.2049C114.961 14.7801 115.227 15.269 115.759 15.6716C116.291 16.0599 117.01 16.254 117.916 16.254C118.678 16.254 119.246 16.0959 119.62 15.7795C119.994 15.4488 120.181 15.0461 120.181 14.5716C120.181 14.2265 120.066 13.9389 119.836 13.7088C119.606 13.4643 119.289 13.2558 118.887 13.0833C118.498 12.8963 117.873 12.6447 117.01 12.3283C116.047 11.9976 115.227 11.6596 114.551 11.3145C113.89 10.9694 113.329 10.5021 112.869 9.91247C112.423 9.30851 112.2 8.56795 112.2 7.69077C112.2 6.82797 112.423 6.07302 112.869 5.42593C113.314 4.77883 113.933 4.28272 114.724 3.9376C115.514 3.59248 116.428 3.41992 117.463 3.41992C118.556 3.41992 119.527 3.61405 120.375 4.00231C121.238 4.39057 121.906 4.93701 122.381 5.64162C122.87 6.33186 123.114 7.13714 123.114 8.05746V8.38101C123.114 8.45291 123.086 8.51762 123.028 8.57514C122.985 8.61828 122.927 8.63985 122.855 8.63985H120.375C120.303 8.63985 120.238 8.61828 120.181 8.57514C120.138 8.51762 120.116 8.45291 120.116 8.38101V8.20845C120.116 7.60449 119.864 7.094 119.361 6.67698C118.872 6.24558 118.196 6.02988 117.334 6.02988C116.658 6.02988 116.126 6.17368 115.737 6.46128C115.364 6.74888 115.177 7.14433 115.177 7.64763C115.177 8.00713 115.284 8.30911 115.5 8.55357C115.73 8.79803 116.061 9.02092 116.492 9.22223C116.938 9.40917 117.621 9.66801 118.541 9.99875C119.562 10.3726 120.361 10.7034 120.936 10.991C121.525 11.2786 122.05 11.71 122.51 12.2852C122.985 12.846 123.222 13.5794 123.222 14.4853C123.222 15.837 122.726 16.9083 121.734 17.6992C120.742 18.4757 119.397 18.864 117.7 18.864Z" fill="white"/>
<path d="M128.818 18.6699C128.746 18.6699 128.681 18.6483 128.623 18.6052C128.58 18.5476 128.559 18.4829 128.559 18.411V12.9538C128.559 12.8963 128.551 12.8532 128.537 12.8244L124.094 3.89446C124.065 3.83694 124.051 3.7938 124.051 3.76504C124.051 3.65 124.13 3.59248 124.288 3.59248H127.006C127.149 3.59248 127.25 3.65719 127.308 3.78661L130.004 9.52421C130.047 9.61049 130.09 9.61049 130.133 9.52421L132.83 3.78661C132.887 3.65719 132.988 3.59248 133.132 3.59248H135.892C135.993 3.59248 136.058 3.62124 136.087 3.67876C136.13 3.7219 136.13 3.7938 136.087 3.89446L131.6 12.8244C131.586 12.8532 131.578 12.8963 131.578 12.9538V18.411C131.578 18.4829 131.55 18.5476 131.492 18.6052C131.449 18.6483 131.392 18.6699 131.32 18.6699H128.818Z" fill="white"/>
</g>
<g id="GAMES">
<path d="M64.3067 36.5339C63.3289 36.5339 62.4661 36.3398 61.7183 35.9515C60.9706 35.5633 60.3882 35.024 59.9711 34.3338C59.5685 33.6292 59.3672 32.8239 59.3672 31.918V25.7058C59.3672 24.7855 59.5685 23.9802 59.9711 23.29C60.3882 22.5854 60.9706 22.0461 61.7183 21.6722C62.4661 21.284 63.3289 21.0898 64.3067 21.0898C65.2702 21.0898 66.1186 21.284 66.852 21.6722C67.5997 22.0461 68.1749 22.571 68.5776 23.2468C68.9946 23.9227 69.2031 24.6992 69.2031 25.5764V25.8784C69.2031 26.0222 69.1312 26.0941 68.9874 26.0941H68.2756C68.1318 26.0941 68.0599 26.0222 68.0599 25.8784V25.598C68.0599 24.5626 67.7148 23.7214 67.0245 23.0743C66.3343 22.4272 65.4283 22.1036 64.3067 22.1036C63.1707 22.1036 62.2504 22.4344 61.5458 23.0958C60.8555 23.7429 60.5104 24.5986 60.5104 25.6627V31.9611C60.5104 33.0252 60.8555 33.888 61.5458 34.5495C62.2504 35.1966 63.1779 35.5201 64.3283 35.5201C65.4499 35.5201 66.3487 35.211 67.0245 34.5926C67.7148 33.9599 68.0599 33.1259 68.0599 32.0905V29.9119C68.0599 29.8544 68.0311 29.8257 67.9736 29.8257H64.6087C64.4649 29.8257 64.393 29.7538 64.393 29.61V29.0276C64.393 28.8838 64.4649 28.8119 64.6087 28.8119H68.9874C69.1312 28.8119 69.2031 28.8838 69.2031 29.0276V31.8317C69.2031 33.284 68.7573 34.4344 67.8657 35.2829C66.9742 36.1169 65.7878 36.5339 64.3067 36.5339Z" fill="white"/>
<path d="M81.5451 36.3614C81.4157 36.3614 81.3294 36.3038 81.2863 36.1888L80.3588 33.32C80.3444 33.2769 80.3156 33.2553 80.2725 33.2553H73.5427C73.4995 33.2553 73.4708 33.2769 73.4564 33.32L72.5505 36.1888C72.5073 36.3038 72.421 36.3614 72.2916 36.3614H71.5367C71.3785 36.3614 71.321 36.2823 71.3641 36.1241L76.1526 21.435C76.1958 21.3199 76.2821 21.2624 76.4115 21.2624H77.3821C77.5115 21.2624 77.5978 21.3199 77.641 21.435L82.4511 36.1241L82.4726 36.2104C82.4726 36.311 82.4079 36.3614 82.2785 36.3614H81.5451ZM73.8015 32.1984C73.7871 32.2271 73.7871 32.2559 73.8015 32.2846C73.8303 32.299 73.859 32.3062 73.8878 32.3062H79.9274C79.9561 32.3062 79.9777 32.299 79.9921 32.2846C80.0209 32.2559 80.028 32.2271 80.0137 32.1984L76.9723 22.8154C76.9579 22.7867 76.9364 22.7723 76.9076 22.7723C76.8788 22.7723 76.8573 22.7867 76.8429 22.8154L73.8015 32.1984Z" fill="white"/>
<path d="M94.8504 21.4134C94.9223 21.3127 95.0086 21.2624 95.1092 21.2624H95.8426C95.9864 21.2624 96.0583 21.3343 96.0583 21.4781V36.1457C96.0583 36.2895 95.9864 36.3614 95.8426 36.3614H95.1308C94.987 36.3614 94.9151 36.2895 94.9151 36.1457V23.4841C94.9151 23.441 94.9007 23.4194 94.872 23.4194C94.8432 23.405 94.8216 23.4194 94.8073 23.4625L91.011 29.3296C90.9391 29.4302 90.8528 29.4805 90.7521 29.4805H90.3854C90.2848 29.4805 90.1985 29.4302 90.1266 29.3296L86.2871 23.4841C86.2728 23.441 86.2512 23.4266 86.2224 23.441C86.1937 23.4553 86.1793 23.4841 86.1793 23.5272V36.1457C86.1793 36.2895 86.1074 36.3614 85.9636 36.3614H85.2518C85.108 36.3614 85.0361 36.2895 85.0361 36.1457V21.4781C85.0361 21.3343 85.108 21.2624 85.2518 21.2624H86.0067C86.1074 21.2624 86.1937 21.3127 86.2656 21.4134L90.4933 27.8844C90.5077 27.8988 90.5292 27.9059 90.558 27.9059C90.5868 27.9059 90.6083 27.8988 90.6227 27.8844L94.8504 21.4134Z" fill="white"/>
<path d="M109.665 22.0605C109.665 22.2043 109.593 22.2762 109.449 22.2762H101.274C101.217 22.2762 101.188 22.3049 101.188 22.3625V28.1864C101.188 28.2439 101.217 28.2726 101.274 28.2726H107.077C107.22 28.2726 107.292 28.3445 107.292 28.4883V29.0707C107.292 29.2145 107.22 29.2864 107.077 29.2864H101.274C101.217 29.2864 101.188 29.3152 101.188 29.3727V35.2613C101.188 35.3188 101.217 35.3476 101.274 35.3476H109.449C109.593 35.3476 109.665 35.4195 109.665 35.5633V36.1457C109.665 36.2895 109.593 36.3614 109.449 36.3614H100.261C100.117 36.3614 100.045 36.2895 100.045 36.1457V21.4781C100.045 21.3343 100.117 21.2624 100.261 21.2624H109.449C109.593 21.2624 109.665 21.3343 109.665 21.4781V22.0605Z" fill="white"/>
<path d="M116.963 36.5339C115.381 36.5339 114.13 36.1816 113.21 35.477C112.289 34.758 111.829 33.8017 111.829 32.6082V31.8964C111.829 31.7526 111.901 31.6807 112.045 31.6807H112.714C112.857 31.6807 112.929 31.7526 112.929 31.8964V32.5435C112.929 33.435 113.296 34.154 114.029 34.7005C114.763 35.2469 115.769 35.5201 117.049 35.5201C118.243 35.5201 119.156 35.2757 119.788 34.7868C120.421 34.2835 120.738 33.5932 120.738 32.716C120.738 32.184 120.594 31.7238 120.306 31.3356C120.033 30.9329 119.602 30.559 119.012 30.2139C118.437 29.8688 117.617 29.4734 116.553 29.0276C115.431 28.553 114.583 28.1576 114.008 27.8412C113.447 27.5249 112.994 27.1294 112.649 26.6549C112.304 26.166 112.131 25.5404 112.131 24.7783C112.131 23.5991 112.534 22.6932 113.339 22.0605C114.159 21.4134 115.288 21.0898 116.726 21.0898C118.293 21.0898 119.522 21.4493 120.414 22.1683C121.306 22.8873 121.751 23.8508 121.751 25.0587V25.5548C121.751 25.6986 121.679 25.7705 121.536 25.7705H120.824C120.68 25.7705 120.608 25.6986 120.608 25.5548V25.1234C120.608 24.2175 120.263 23.4913 119.573 22.9449C118.883 22.384 117.912 22.1036 116.661 22.1036C115.568 22.1036 114.727 22.3337 114.137 22.7939C113.548 23.2396 113.253 23.8867 113.253 24.7352C113.253 25.3104 113.389 25.7777 113.663 26.1372C113.936 26.4967 114.324 26.8131 114.827 27.0863C115.345 27.3451 116.136 27.6902 117.2 28.1216C118.264 28.553 119.12 28.9701 119.767 29.3727C120.428 29.761 120.946 30.2211 121.32 30.7532C121.694 31.2852 121.881 31.9251 121.881 32.6729C121.881 33.8377 121.449 34.7724 120.587 35.477C119.724 36.1816 118.516 36.5339 116.963 36.5339Z" fill="white"/>
</g>
<g id="Union">
<path d="M6.09435 10.0405C5.441 8.61064 4.47743 4.60697 5.84988 0.0314127C9.51327 -0.0911406 17.2894 1.15081 19.087 7.09906C19.2912 7.63015 19.5772 8.87209 19.087 9.5911C17.099 8.29741 12.3957 5.53845 9.48644 4.85212C9.13153 6.22753 7.95625 9.1908 6.09435 10.0405Z" fill="white"/>
<path d="M23.6968 16.865C23.6968 12.634 22.3437 7.96574 21.0525 6.2876C20.7895 5.94581 20.1709 5.47801 20.3908 5.9178C20.6656 6.46754 20.8438 9.202 20.7522 11.3093C20.6789 12.9952 19.785 12.6305 19.3473 12.2374C17.9831 10.903 15.9691 9.98359 15.1326 9.69066C15.8412 10.277 15.998 11.462 15.9878 11.9812C9.82054 11.9324 6.8047 14.1884 6.06769 15.3225C6.06769 14.7936 5.77405 13.0454 5.62723 12.2374C2.90942 15.6163 -1.77695 23.2555 1.21998 26.7813C4.21691 30.3071 10.4017 30.8947 13.1195 30.7478C12.4581 30.6009 10.4742 29.6019 7.82983 26.7813C4.52439 23.2555 9.152 17.3057 14.6611 15.9835C20.1701 14.6614 21.933 18.6279 21.933 22.3741C21.933 25.7393 21.2224 26.2593 19.161 27.7679C18.9277 27.9387 18.677 28.1222 18.4081 28.3238C15.7638 30.3071 15.9841 31.8496 18.4081 36.4772C20.1341 39.7722 22.919 40.5186 24.4946 40.4875C26.0702 40.5186 28.8552 39.7722 30.5811 36.4772C33.0051 31.8496 33.2255 30.3071 30.5811 28.3238C30.3124 28.1223 30.0618 27.9389 29.8285 27.7682C27.7671 26.2595 27.0562 25.7393 27.0562 22.3741C27.0562 18.6279 28.8191 14.6614 34.3282 15.9835C39.8373 17.3057 44.4649 23.2555 41.1594 26.7813C38.5151 29.6019 36.5311 30.6009 35.8697 30.7478C38.5875 30.8947 44.7724 30.3071 47.7693 26.7813C50.7662 23.2555 46.0798 15.6163 43.362 12.2374C43.2152 13.0454 42.9216 14.7936 42.9216 15.3225C42.1846 14.1884 39.1687 11.9324 33.0015 11.9812C32.9913 11.462 33.1481 10.277 33.8566 9.69066C33.0201 9.98359 31.0061 10.903 29.642 12.2374C29.2042 12.6305 28.3104 12.9952 28.2371 11.3093C28.1455 9.202 28.3236 6.46754 28.5985 5.9178C28.8184 5.47801 28.1998 5.94581 27.9368 6.2876C26.6456 7.96574 25.2924 12.634 25.2924 16.865V30.7478C25.7332 31.6293 27.0553 33.4803 28.8182 33.8329C28.2306 35.3754 26.5705 38.4605 24.6314 38.4605C24.5842 38.4605 24.5387 38.4613 24.4946 38.4628C24.4506 38.4613 24.405 38.4605 24.3579 38.4605C22.4187 38.4605 20.7586 35.3754 20.171 33.8329C21.9339 33.4803 23.2561 31.6293 23.6968 30.7478V16.865Z" fill="white"/>
<path d="M17.6109 24.9155C18.865 24.9155 19.8817 23.8989 19.8817 22.6447C19.8817 21.3906 18.865 20.374 17.6109 20.374C16.3568 20.374 15.3401 21.3906 15.3401 22.6447C15.3401 23.8989 16.3568 24.9155 17.6109 24.9155Z" fill="white"/>
<path d="M42.8949 10.0405C43.5483 8.61064 44.5118 4.60697 43.1394 0.0314127C39.476 -0.0911406 31.6998 1.15081 29.9023 7.09906C29.698 7.63015 29.412 8.87209 29.9023 9.5911C31.8903 8.29741 36.5936 5.53845 39.5028 4.85212C39.8577 6.22753 41.033 9.1908 42.8949 10.0405Z" fill="white"/>
<path d="M31.3784 24.9155C30.1243 24.9155 29.1076 23.8989 29.1076 22.6447C29.1076 21.3906 30.1243 20.374 31.3784 20.374C32.6325 20.374 33.6491 21.3906 33.6491 22.6447C33.6491 23.8989 32.6325 24.9155 31.3784 24.9155Z" fill="white"/>
</g>
</g>
</svg>
