<svg width="21" height="22" viewBox="0 0 21 22" fill="none" xmlns="http://www.w3.org/2000/svg">
<g id="akar-icons:paper" clip-path="url(#clip0_5248_40713)">
<g id="Group">
<path id="Vector" d="M3.5 4.42676V18.4268C3.5 18.8909 3.68437 19.336 4.01256 19.6642C4.34075 19.9924 4.78587 20.1768 5.25 20.1768H15.75C16.2141 20.1768 16.6592 19.9924 16.9874 19.6642C17.3156 19.336 17.5 18.8909 17.5 18.4268V8.22601C17.5 7.99287 17.4534 7.76209 17.3629 7.54722C17.2724 7.33235 17.14 7.13772 16.9733 6.97476L13.0883 3.17551C12.7613 2.85583 12.3223 2.67681 11.865 2.67676H5.25C4.78587 2.67676 4.34075 2.86113 4.01256 3.18932C3.68437 3.51751 3.5 3.96263 3.5 4.42676Z" stroke="white" stroke-width="2" stroke-linecap="round" stroke-linejoin="round"/>
<path id="Vector_2" d="M12.25 2.67676V6.17676C12.25 6.64089 12.4344 7.08601 12.7626 7.41419C13.0908 7.74238 13.5359 7.92676 14 7.92676H17.5" stroke="white" stroke-width="2" stroke-linejoin="round"/>
</g>
</g>
<defs>
<clipPath id="clip0_5248_40713">
<rect width="21" height="21" fill="white" transform="translate(0 0.926758)"/>
</clipPath>
</defs>
</svg>
