<svg width="265" height="36" viewBox="0 0 265 36" fill="none" xmlns="http://www.w3.org/2000/svg">
<g clip-path="url(#clip0_3301_29314)">
<path d="M24.5134 27.7793C22.6921 27.7793 21.1129 26.7147 20.3717 25.1688L15.5471 15.0624L11.6285 6.84693H16.981C18.7199 6.84693 20.2992 7.84835 21.0499 9.41852L24.5327 16.7103L28.6017 8.14488L28.282 7.46916L27.9478 6.76916C26.0005 2.68574 21.8927 0.0898438 17.3832 0.0898438H0.25L3.77155 7.46916L13.3868 27.6237C13.5612 28.0613 13.7646 28.4841 13.9923 28.8926C15.4019 31.4495 17.7028 33.428 20.4784 34.4198C21.0499 34.2009 21.7135 33.8996 22.4111 33.4815C22.4935 33.4329 22.5758 33.3843 22.6582 33.3308C22.7405 33.2774 22.8277 33.2238 22.91 33.1655C23.065 33.0635 23.2249 32.9516 23.3799 32.835C23.5445 32.7134 23.6996 32.5919 23.8498 32.4704C25.6711 30.9828 26.6739 29.2766 27.1824 28.2314C27.6571 27.2349 28.1367 26.2383 28.6114 25.2417C27.8605 26.7488 26.3056 27.7793 24.5134 27.7793Z" fill="url(#paint0_linear_3301_29314)"/>
<path d="M48.7768 0.0732198L35.5286 27.8356L35.1168 28.701C35.0829 28.7641 35.0443 28.8322 35.0104 28.8954C34.9861 28.944 34.957 28.9926 34.9328 29.0364C34.928 29.0412 34.928 29.0509 34.923 29.0557C34.865 29.1529 34.8068 29.2503 34.7488 29.3475C34.739 29.362 34.7342 29.3766 34.7244 29.3911C34.6664 29.4835 34.6082 29.5711 34.5501 29.6634C34.5308 29.6974 34.5065 29.7267 34.4872 29.7607C34.429 29.8432 34.3757 29.9259 34.3176 30.0085C34.2449 30.1155 34.1675 30.2176 34.09 30.3196C33.8768 30.6064 33.6346 30.903 33.3586 31.2045C33.2713 31.2967 33.1841 31.3891 33.097 31.4815C33.0049 31.5739 32.9177 31.6614 32.8256 31.7488C32.7336 31.8364 32.6416 31.9239 32.5447 32.0113C32.5399 32.0163 32.5303 32.026 32.5205 32.0308C32.3656 32.167 32.2154 32.2983 32.0555 32.4246C31.9828 32.4829 31.9149 32.5365 31.8471 32.5899C31.8278 32.6044 31.8133 32.6142 31.7939 32.6287C31.7698 32.6482 31.7454 32.6677 31.7213 32.6871C31.6631 32.7259 31.6098 32.7697 31.5516 32.8135C31.4742 32.8669 31.4015 32.9205 31.3241 32.9691C31.2466 33.0225 31.169 33.076 31.0866 33.1246C30.5393 33.4843 29.9872 33.7761 29.4544 34.0143C29.3575 34.0579 29.2654 34.0969 29.1685 34.1358C28.8875 34.2525 28.6066 34.3594 28.3402 34.4517C28.2869 34.4712 28.2337 34.4907 28.1803 34.5052C28.1029 34.5295 28.0205 34.5586 27.9429 34.5781C27.8654 34.6024 27.788 34.6219 27.7105 34.6462C27.3665 34.7434 27.042 34.8163 26.7416 34.8795C26.6253 34.9038 26.5141 34.9233 26.4026 34.9428C26.3396 34.9524 26.2816 34.9621 26.2186 34.9719C26.0684 34.9962 25.923 35.0157 25.7874 35.0302C25.7777 35.0302 25.7681 35.0302 25.7536 35.035C25.6567 35.0448 25.5646 35.0545 25.4822 35.0643C25.4387 35.0691 25.3998 35.0691 25.3563 35.074C25.2933 35.0788 25.2352 35.0836 25.1722 35.0886C25.148 35.0886 25.1287 35.0934 25.1044 35.0934C25.0609 35.0983 25.0124 35.0983 24.9736 35.0983C24.8525 35.1031 24.7556 35.1031 24.6878 35.1079C24.4553 35.1129 24.1937 35.1079 23.9079 35.0934C23.8886 35.0934 23.8693 35.0934 23.845 35.0886C23.7385 35.0836 23.6367 35.074 23.5349 35.0691C23.3799 35.0545 23.2153 35.04 23.0458 35.0205C22.9876 35.0157 22.9245 35.0059 22.8617 34.9962C22.6485 34.9671 22.4257 34.9281 22.1932 34.8844C21.8348 34.8114 21.457 34.7239 21.0646 34.6072C20.9677 34.5781 20.8708 34.5489 20.7691 34.515C20.6722 34.4809 20.5657 34.4469 20.4688 34.4128H20.4736C21.0452 34.1941 21.7088 33.8926 22.4063 33.4746C22.4887 33.426 22.571 33.3774 22.6533 33.324C22.7357 33.2704 22.8228 33.217 22.9052 33.1587C23.0603 33.0565 23.2201 32.9448 23.3752 32.8281C23.5399 32.7066 23.6948 32.5851 23.845 32.4634C25.6663 30.976 26.669 29.2696 27.1777 28.2246C27.6523 27.228 28.1319 26.2314 28.6065 25.2349C28.8924 24.6321 29.183 24.0342 29.4688 23.4313L33.465 15.0603L37.4227 6.76225C39.3698 2.67883 43.4727 0.0780818 47.9823 0.0683594L48.7768 0.0732198Z" fill="url(#paint1_linear_3301_29314)"/>
<path d="M65.8121 0.0732198L52.5638 27.8356L52.152 28.701C52.1181 28.7641 52.0794 28.8322 52.0455 28.8954C52.0212 28.944 51.9923 28.9926 51.968 29.0364C51.9632 29.0412 51.9632 29.0509 51.9584 29.0557C51.9002 29.1529 51.8421 29.2503 51.7839 29.3475C51.7742 29.362 51.7694 29.3766 51.7598 29.3911C51.7016 29.4835 51.6435 29.5711 51.5853 29.6634C51.566 29.6974 51.5417 29.7267 51.5223 29.7607C51.4643 29.8432 51.411 29.9259 51.3528 30.0085C51.2802 30.1155 51.2027 30.2176 51.1251 30.3196C50.912 30.6064 50.6699 30.903 50.3937 31.2045C50.3066 31.2967 50.2193 31.3891 50.1321 31.4815C50.0402 31.5739 49.9529 31.6614 49.8609 31.7488C49.7688 31.8364 49.6769 31.9239 49.58 32.0113C49.575 32.0163 49.5654 32.026 49.5557 32.0308C49.4007 32.167 49.2506 32.2983 49.0907 32.4246C49.0181 32.4829 48.9503 32.5365 48.8825 32.5899C48.863 32.6044 48.8484 32.6142 48.8291 32.6287C48.8049 32.6482 48.7806 32.6677 48.7565 32.6871C48.6983 32.7259 48.645 32.7697 48.587 32.8135C48.5094 32.8669 48.4368 32.9205 48.3593 32.9691C48.2817 33.0225 48.2043 33.076 48.122 33.1246C47.5745 33.4843 47.0223 33.7761 46.4895 34.0143C46.3926 34.0579 46.3005 34.0969 46.2036 34.1358C45.9227 34.2525 45.6417 34.3594 45.3753 34.4517C45.3221 34.4712 45.2688 34.4907 45.2156 34.5052C45.138 34.5295 45.0557 34.5586 44.9781 34.5781C44.9007 34.6024 44.8232 34.6219 44.7456 34.6462C44.4017 34.7434 44.0772 34.8163 43.7769 34.8795C43.6607 34.9038 43.5492 34.9233 43.4378 34.9428C43.3748 34.9524 43.3167 34.9621 43.2537 34.9719C43.1036 34.9962 42.9582 35.0157 42.8226 35.0302C42.8129 35.0302 42.8033 35.0302 42.7887 35.035C42.6918 35.0448 42.5997 35.0545 42.5174 35.0643C42.4739 35.0691 42.435 35.0691 42.3915 35.074C42.3285 35.0788 42.2705 35.0836 42.2075 35.0886C42.1832 35.0886 42.1638 35.0934 42.1397 35.0934C42.096 35.0983 42.0476 35.0983 42.0089 35.0983C41.8877 35.1031 41.7908 35.1031 41.723 35.1079C41.4905 35.1129 41.2289 35.1079 40.9431 35.0934C40.9238 35.0934 40.9044 35.0934 40.8801 35.0886C40.7736 35.0836 40.6719 35.074 40.5702 35.0691C40.4151 35.0545 40.2504 35.04 40.0809 35.0205C40.0229 35.0157 39.9599 35.0059 39.8969 34.9962C39.6837 34.9671 39.461 34.9281 39.2283 34.8844C38.87 34.8114 38.4921 34.7239 38.0997 34.6072C38.0028 34.5781 37.9059 34.5489 37.8042 34.515C37.7073 34.4809 37.6008 34.4469 37.5039 34.4128H37.5087C38.0804 34.1941 38.744 33.8926 39.4415 33.4746C39.5238 33.426 39.6062 33.3774 39.6885 33.324C39.7709 33.2704 39.8582 33.217 39.9405 33.1587C40.0955 33.0565 40.2554 32.9448 40.4103 32.8281C40.575 32.7066 40.73 32.5851 40.8801 32.4634C42.7016 30.976 43.7042 29.2696 44.2128 28.2246C44.6876 27.228 45.1671 26.2314 45.6417 25.2349C45.9276 24.6321 46.2182 24.0342 46.5041 23.4313L50.5002 15.0603L54.4578 6.76225C56.4051 2.67883 60.5079 0.0780818 65.0177 0.0683594L65.8121 0.0732198Z" fill="url(#paint2_linear_3301_29314)"/>
<path d="M102.435 10.9761L98.4149 21.9965L93.5128 8.46289H89.3857L84.382 21.9285L80.4874 11.0053C79.9448 9.48861 78.5014 8.46775 76.8981 8.46775H74.7812L81.8728 27.8591L81.9406 28.0487H86.5908L91.3524 15.4874L96.0462 28.0487H100.701L107.904 8.46775H106.015C104.421 8.46775 102.983 9.47403 102.435 10.9761Z" fill="white"/>
<path d="M212.037 10.9761L208.017 21.9965L203.115 8.46289H198.987L193.983 21.9285L190.089 11.0053C189.546 9.48861 188.103 8.46775 186.499 8.46775H184.383L191.475 27.8591L191.542 28.0487H196.197L200.959 15.4874L205.653 28.0487H210.307L217.506 8.46775H215.616C214.027 8.46775 212.589 9.47403 212.037 10.9761Z" fill="white"/>
<path d="M111.77 8.46875H110.336V28.0448H115.345V12.0515C115.345 10.0778 113.741 8.46875 111.77 8.46875Z" fill="white"/>
<path d="M112.859 0C111.076 0 109.734 1.27364 109.734 2.96048C109.734 4.64733 111.076 5.92097 112.859 5.92097C114.641 5.92097 115.983 4.60358 115.983 2.85354C115.983 1.22503 114.641 0 112.859 0Z" fill="white"/>
<path d="M129.6 8.25391C127.004 8.25391 124.785 9.06572 123.288 10.5581C122.993 9.36226 121.913 8.46779 120.634 8.46779H118.57V28.044H123.579V18.1465C123.579 14.6902 125.4 12.7068 128.573 12.7068C131.329 12.7068 132.787 14.3401 132.787 17.4319V28.044H137.796V16.8679C137.796 11.472 134.735 8.25391 129.6 8.25391Z" fill="white"/>
<path d="M157.052 10.6174C155.522 9.06669 153.341 8.25 150.701 8.25C144.986 8.25 140.84 12.2168 140.84 17.6856C140.84 23.1933 144.986 27.1893 150.701 27.1893C153.148 27.1893 155.227 26.4602 156.757 25.0698V25.3712C156.757 29.1581 154.988 30.845 151.016 30.845C149.68 30.845 148.299 30.6116 147.03 30.1644C145.059 29.4741 142.86 30.2714 141.799 32.0553L141.673 32.2692L141.867 32.4297C143.974 34.1651 147.491 35.2005 151.268 35.2005C158.234 35.2005 161.77 31.7249 161.77 24.8754V8.46876H159.779C158.462 8.46876 157.352 9.38266 157.052 10.6174ZM156.835 17.6856C156.835 20.7191 154.592 22.8386 151.381 22.8386C148.149 22.8386 145.892 20.7191 145.892 17.6856C145.892 14.6911 148.149 12.6008 151.381 12.6008C154.592 12.6057 156.835 14.696 156.835 17.6856Z" fill="white"/>
<path d="M175.135 16.3236C172.886 15.9541 170.948 15.6333 170.948 14.2721C170.948 13.1151 172.325 12.4297 174.631 12.4297C175.913 12.4297 177.067 12.6144 178.151 12.9936C179.372 13.4214 180.743 12.8429 181.343 11.647L182.138 10.072L181.91 9.93103C180.23 8.91017 177.386 8.25391 174.668 8.25391C169.433 8.25391 166.046 10.6991 166.046 14.486C166.046 19.216 170.3 19.8771 173.72 20.4118C175.88 20.7472 177.745 21.039 177.745 22.2786C177.745 22.7257 177.745 24.0868 174.064 24.0868C172.571 24.0868 170.944 23.7709 169.477 23.1924C168.221 22.6966 166.769 23.2362 166.172 24.4224L165.398 25.9633L165.601 26.1091C167.441 27.4168 170.731 28.2967 173.783 28.2967C179.17 28.2967 182.651 25.8807 182.651 22.1376C182.651 17.5632 178.481 16.8729 175.135 16.3236Z" fill="white"/>
<path d="M233.476 10.4327C231.979 9.0035 229.969 8.25 227.624 8.25C221.816 8.25 217.762 12.3626 217.762 18.2544C217.762 24.1656 221.816 28.2927 227.624 28.2927C230.069 28.2927 232.124 27.5199 233.611 26.0469V28.0449H238.406V8.46876H235.99C234.784 8.46876 233.761 9.30489 233.476 10.4327ZM233.47 18.2544C233.47 21.6329 231.32 23.9079 228.122 23.9079C224.993 23.9079 222.809 21.5843 222.809 18.2544C222.809 14.9244 224.993 12.6008 228.122 12.6008C231.32 12.6057 233.47 14.8758 233.47 18.2544Z" fill="white"/>
<path d="M252.944 8.25391C250.449 8.25391 248.366 9.056 246.875 10.5824C246.573 9.37199 245.484 8.46779 244.185 8.46779H242.16V34.9518H247.17V26.1627C248.652 27.5626 250.632 28.2967 252.944 28.2967C258.771 28.2967 262.839 24.1695 262.839 18.2583C262.839 12.3665 258.771 8.25391 252.944 8.25391ZM257.759 18.2535C257.759 21.5833 255.573 23.907 252.444 23.907C249.296 23.907 247.097 21.5833 247.097 18.2535C247.097 14.9235 249.296 12.5998 252.444 12.5998C255.573 12.6047 257.759 14.9284 257.759 18.2535Z" fill="white"/>
</g>
<defs>
<linearGradient id="paint0_linear_3301_29314" x1="0.251114" y1="17.2599" x2="28.6159" y2="17.2599" gradientUnits="userSpaceOnUse">
<stop stop-color="white"/>
<stop offset="1" stop-color="#B2B2B2"/>
</linearGradient>
<linearGradient id="paint1_linear_3301_29314" x1="34.6268" y1="35.122" x2="34.6268" y2="0.0744843" gradientUnits="userSpaceOnUse">
<stop stop-color="white"/>
<stop offset="1" stop-color="#B2B2B2"/>
</linearGradient>
<linearGradient id="paint2_linear_3301_29314" x1="51.662" y1="35.122" x2="51.662" y2="0.0744843" gradientUnits="userSpaceOnUse">
<stop stop-color="white"/>
<stop offset="1" stop-color="#B2B2B2"/>
</linearGradient>
<clipPath id="clip0_3301_29314">
<rect width="264" height="36" fill="white" transform="translate(0.25)"/>
</clipPath>
</defs>
</svg>
