<svg width="236" height="32" viewBox="0 0 236 32" fill="none" xmlns="http://www.w3.org/2000/svg">
<g clip-path="url(#clip0_1048_29875)">
<path d="M21.9854 24.6929C20.3665 24.6929 18.9628 23.7466 18.304 22.3725L14.0154 13.389L10.5322 6.08638H15.29C16.8357 6.08638 18.2394 6.97652 18.9068 8.37223L22.0026 14.8538L25.6194 7.24011L25.3353 6.63947L25.0382 6.01724C23.3073 2.38754 19.656 0.0800781 15.6474 0.0800781H0.417969L3.54824 6.63947L12.0951 24.5546C12.2501 24.9436 12.431 25.3194 12.6334 25.6825C13.8864 27.9553 15.9316 29.714 18.3988 30.5956C18.9068 30.401 19.4966 30.1332 20.1168 29.7616C20.19 29.7184 20.2632 29.6752 20.3364 29.6276C20.4096 29.5801 20.487 29.5325 20.5602 29.4806C20.698 29.39 20.8401 29.2905 20.9778 29.1869C21.1242 29.0788 21.2621 28.9708 21.3956 28.8628C23.0145 27.5405 23.9058 26.0238 24.3578 25.0948C24.7798 24.209 25.2061 23.3232 25.6281 22.4373C24.9606 23.7769 23.5785 24.6929 21.9854 24.6929Z" fill="url(#paint0_linear_1048_29875)"/>
<path d="M43.5533 0.0648673L31.7772 24.7426L31.4112 25.5118C31.381 25.5679 31.3466 25.6284 31.3165 25.6846C31.2949 25.7278 31.269 25.771 31.2476 25.8099C31.2433 25.8142 31.2433 25.8228 31.2389 25.8271C31.1873 25.9135 31.1356 26 31.084 26.0864C31.0753 26.0994 31.071 26.1123 31.0624 26.1252C31.0108 26.2074 30.959 26.2852 30.9074 26.3672C30.8902 26.3975 30.8686 26.4235 30.8514 26.4538C30.7997 26.5271 30.7524 26.6006 30.7008 26.674C30.6361 26.7691 30.5673 26.8599 30.4984 26.9506C30.3089 27.2055 30.0936 27.4691 29.8482 27.7371C29.7706 27.8191 29.6932 27.9012 29.6157 27.9834C29.5338 28.0655 29.4564 28.1432 29.3745 28.221C29.2928 28.2988 29.2109 28.3766 29.1248 28.4543C29.1205 28.4587 29.112 28.4674 29.1033 28.4716C28.9656 28.5927 28.8321 28.7094 28.69 28.8216C28.6253 28.8735 28.565 28.9211 28.5048 28.9686C28.4876 28.9815 28.4746 28.9902 28.4574 29.0031C28.436 29.0204 28.4144 29.0378 28.3929 29.055C28.3412 29.0895 28.2938 29.1284 28.2421 29.1674C28.1733 29.2148 28.1086 29.2624 28.0398 29.3056C27.9709 29.3531 27.902 29.4007 27.8288 29.4439C27.3422 29.7636 26.8514 30.023 26.3778 30.2347C26.2917 30.2735 26.2098 30.3082 26.1237 30.3427C25.874 30.4464 25.6242 30.5415 25.3874 30.6235C25.3401 30.6408 25.2928 30.6582 25.2453 30.6711C25.1765 30.6927 25.1033 30.7186 25.0344 30.7359C24.9654 30.7575 24.8966 30.7748 24.8277 30.7964C24.522 30.8828 24.2336 30.9476 23.9665 31.0038C23.8632 31.0254 23.7642 31.0427 23.6652 31.06C23.6092 31.0686 23.5576 31.0772 23.5016 31.0859C23.3681 31.1075 23.2389 31.1248 23.1184 31.1378C23.1097 31.1378 23.1012 31.1378 23.0882 31.142C23.0021 31.1507 22.9202 31.1594 22.847 31.168C22.8084 31.1723 22.7738 31.1723 22.7352 31.1767C22.6792 31.181 22.6274 31.1852 22.5714 31.1896C22.55 31.1896 22.5328 31.1939 22.5112 31.1939C22.4725 31.1983 22.4294 31.1983 22.3949 31.1983C22.2873 31.2026 22.2012 31.2026 22.1409 31.2068C21.9342 31.2112 21.7017 31.2068 21.4477 31.1939C21.4305 31.1939 21.4133 31.1939 21.3917 31.1896C21.297 31.1852 21.2066 31.1767 21.1161 31.1723C20.9784 31.1594 20.832 31.1464 20.6813 31.1291C20.6296 31.1248 20.5736 31.1162 20.5177 31.1075C20.3282 31.0816 20.1301 31.047 19.9234 31.0082C19.6049 30.9432 19.269 30.8655 18.9202 30.7618C18.8341 30.7359 18.748 30.7099 18.6576 30.6798C18.5714 30.6495 18.4768 30.6192 18.3906 30.589H18.3949C18.903 30.3946 19.4929 30.1266 20.1129 29.755C20.1861 29.7118 20.2593 29.6686 20.3325 29.6211C20.4057 29.5735 20.4832 29.526 20.5564 29.4742C20.6942 29.3834 20.8362 29.284 20.9741 29.1803C21.1205 29.0723 21.2582 28.9643 21.3917 28.8562C23.0106 27.534 23.902 26.0172 24.3541 25.0883C24.776 24.2024 25.2024 23.3166 25.6242 22.4308C25.8784 21.895 26.1366 21.3635 26.3906 20.8276L29.9429 13.3867L33.4608 6.01067C35.1916 2.38096 38.8386 0.069189 42.8472 0.0605469L43.5533 0.0648673Z" fill="url(#paint1_linear_1048_29875)"/>
<path d="M58.694 0.0648673L46.9178 24.7426L46.5518 25.5118C46.5216 25.5679 46.4872 25.6284 46.4571 25.6846C46.4355 25.7278 46.4098 25.771 46.3882 25.8099C46.3839 25.8142 46.3839 25.8228 46.3797 25.8271C46.3279 25.9135 46.2763 26 46.2246 26.0864C46.2159 26.0994 46.2116 26.1123 46.2031 26.1252C46.1514 26.2074 46.0998 26.2852 46.048 26.3672C46.0308 26.3975 46.0092 26.4235 45.992 26.4538C45.9404 26.5271 45.8931 26.6006 45.8414 26.674C45.7768 26.7691 45.7079 26.8599 45.639 26.9506C45.4495 27.2055 45.2343 27.4691 44.9888 27.7371C44.9114 27.8191 44.8338 27.9012 44.7563 27.9834C44.6746 28.0655 44.597 28.1432 44.5153 28.221C44.4334 28.2988 44.3516 28.3766 44.2655 28.4543C44.2611 28.4587 44.2526 28.4674 44.2439 28.4716C44.1062 28.5927 43.9727 28.7094 43.8306 28.8216C43.7661 28.8735 43.7058 28.9211 43.6455 28.9686C43.6282 28.9815 43.6152 28.9902 43.5981 29.0031C43.5766 29.0204 43.555 29.0378 43.5335 29.055C43.4818 29.0895 43.4345 29.1284 43.3828 29.1674C43.3139 29.2148 43.2494 29.2624 43.1804 29.3056C43.1115 29.3531 43.0427 29.4007 42.9695 29.4439C42.4828 29.7636 41.992 30.023 41.5184 30.2347C41.4323 30.2735 41.3504 30.3082 41.2643 30.3427C41.0146 30.4464 40.7648 30.5415 40.528 30.6235C40.4807 30.6408 40.4334 30.6582 40.386 30.6711C40.3171 30.6927 40.2439 30.7186 40.175 30.7359C40.1062 30.7575 40.0372 30.7748 39.9683 30.7964C39.6626 30.8828 39.3742 30.9476 39.1072 31.0038C39.0039 31.0254 38.9049 31.0427 38.8058 31.06C38.7498 31.0686 38.6982 31.0772 38.6422 31.0859C38.5087 31.1075 38.3795 31.1248 38.259 31.1378C38.2503 31.1378 38.2418 31.1378 38.2288 31.142C38.1427 31.1507 38.0608 31.1594 37.9876 31.168C37.949 31.1723 37.9144 31.1723 37.8758 31.1767C37.8198 31.181 37.7682 31.1852 37.7122 31.1896C37.6906 31.1896 37.6734 31.1939 37.6519 31.1939C37.6131 31.1983 37.57 31.1983 37.5356 31.1983C37.4279 31.2026 37.3418 31.2026 37.2815 31.2068C37.0748 31.2112 36.8423 31.2068 36.5883 31.1939C36.5711 31.1939 36.5539 31.1939 36.5323 31.1896C36.4376 31.1852 36.3472 31.1767 36.2568 31.1723C36.119 31.1594 35.9726 31.1464 35.8219 31.1291C35.7703 31.1248 35.7143 31.1162 35.6583 31.1075C35.4688 31.0816 35.2708 31.047 35.064 31.0082C34.7455 30.9432 34.4096 30.8655 34.0608 30.7618C33.9747 30.7359 33.8886 30.7099 33.7982 30.6798C33.712 30.6495 33.6174 30.6192 33.5312 30.589H33.5355C34.0436 30.3946 34.6335 30.1266 35.2535 29.755C35.3267 29.7118 35.3999 29.6686 35.4731 29.6211C35.5463 29.5735 35.6239 29.526 35.6971 29.4742C35.8348 29.3834 35.977 29.284 36.1147 29.1803C36.2611 29.0723 36.3988 28.9643 36.5323 28.8562C38.1514 27.534 39.0426 26.0172 39.4947 25.0883C39.9167 24.2024 40.343 23.3166 40.7648 22.4308C41.019 21.895 41.2772 21.3635 41.5314 20.8276L45.0835 13.3867L48.6014 6.01067C50.3323 2.38096 53.9792 0.069189 57.9879 0.0605469L58.694 0.0648673Z" fill="url(#paint2_linear_1048_29875)"/>
<path d="M91.2533 9.75744L87.6796 19.5533L83.3221 7.52344H79.6536L75.2059 19.4929L71.744 9.78337C71.2617 8.43518 69.9787 7.52776 68.5535 7.52776H66.6719L72.9755 24.7645L73.0357 24.933H77.1692L81.4017 13.7674L85.574 24.933H89.7119L96.1145 7.52776H94.4352C93.0187 7.52776 91.7399 8.42222 91.2533 9.75744Z" fill="white"/>
<path d="M188.671 9.75744L185.098 19.5533L180.741 7.52344H177.071L172.623 19.4929L169.162 9.78337C168.679 8.43518 167.397 7.52776 165.971 7.52776H164.09L170.394 24.7645L170.454 24.933H174.591L178.825 13.7674L182.997 24.933H187.134L193.533 7.52776H191.853C190.441 7.52776 189.162 8.42222 188.671 9.75744Z" fill="white"/>
<path d="M99.548 7.52734H98.2734V24.9283H102.726V10.712C102.726 8.95762 101.3 7.52734 99.548 7.52734Z" fill="white"/>
<path d="M100.512 0C98.927 0 97.7344 1.13212 97.7344 2.63153C97.7344 4.13096 98.927 5.26308 100.512 5.26308C102.096 5.26308 103.289 4.09207 103.289 2.53648C103.289 1.08891 102.096 0 100.512 0Z" fill="white"/>
<path d="M115.394 7.33594C113.086 7.33594 111.114 8.05755 109.784 9.38412C109.521 8.32114 108.561 7.52606 107.424 7.52606H105.59V24.9271H110.042V16.1294C110.042 13.057 111.661 11.294 114.481 11.294C116.931 11.294 118.227 12.7459 118.227 15.4942V24.9271H122.679V14.9928C122.679 10.1965 119.958 7.33594 115.394 7.33594Z" fill="white"/>
<path d="M139.798 9.4364C138.438 8.05798 136.499 7.33203 134.153 7.33203C129.072 7.33203 125.387 10.858 125.387 15.7192C125.387 20.615 129.072 24.167 134.153 24.167C136.327 24.167 138.175 23.5188 139.535 22.283V22.5508C139.535 25.917 137.963 27.4164 134.433 27.4164C133.245 27.4164 132.018 27.209 130.889 26.8115C129.137 26.1979 127.182 26.9066 126.239 28.4923L126.127 28.6824L126.3 28.8251C128.172 30.3676 131.298 31.288 134.657 31.288C140.849 31.288 143.991 28.1986 143.991 22.1102V7.52648H142.222C141.051 7.52648 140.065 8.33884 139.798 9.4364ZM139.605 15.7192C139.605 18.4156 137.611 20.2996 134.757 20.2996C131.884 20.2996 129.878 18.4156 129.878 15.7192C129.878 13.0575 131.884 11.1994 134.757 11.1994C137.611 11.2037 139.605 13.0618 139.605 15.7192Z" fill="white"/>
<path d="M155.873 14.509C153.875 14.1806 152.152 13.8954 152.152 12.6854C152.152 11.657 153.376 11.0478 155.425 11.0478C156.565 11.0478 157.591 11.212 158.555 11.549C159.64 11.9292 160.859 11.415 161.392 10.352L162.099 8.95202L161.896 8.82671C160.403 7.91928 157.875 7.33594 155.459 7.33594C150.805 7.33594 147.795 9.50944 147.795 12.8756C147.795 17.08 151.576 17.6676 154.616 18.143C156.536 18.4411 158.193 18.7004 158.193 19.8023C158.193 20.1998 158.193 21.4096 154.921 21.4096C153.595 21.4096 152.148 21.1288 150.844 20.6146C149.728 20.1739 148.437 20.6535 147.907 21.7079L147.219 23.0776L147.399 23.2072C149.035 24.3696 151.959 25.1518 154.672 25.1518C159.46 25.1518 162.555 23.0042 162.555 19.677C162.555 15.6108 158.848 14.9972 155.873 14.509Z" fill="white"/>
<path d="M207.726 9.2722C206.395 8.0018 204.608 7.33203 202.524 7.33203C197.362 7.33203 193.758 10.9877 193.758 16.2248C193.758 21.4792 197.362 25.1478 202.524 25.1478C204.698 25.1478 206.524 24.4608 207.846 23.1515V24.9275H212.108V7.52648H209.96C208.888 7.52648 207.979 8.26971 207.726 9.2722ZM207.72 16.2248C207.72 19.2279 205.81 21.2502 202.967 21.2502C200.186 21.2502 198.244 19.1847 198.244 16.2248C198.244 13.2649 200.186 11.1994 202.967 11.1994C205.81 11.2037 207.72 13.2217 207.72 16.2248Z" fill="white"/>
<path d="M225.038 7.33594C222.821 7.33594 220.969 8.04891 219.644 9.40574C219.376 8.32979 218.408 7.52606 217.253 7.52606H215.453V31.0674H219.906V23.2548C221.224 24.4992 222.984 25.1518 225.038 25.1518C230.218 25.1518 233.834 21.4831 233.834 16.2287C233.834 10.9916 230.218 7.33594 225.038 7.33594ZM229.318 16.2244C229.318 19.1843 227.376 21.2498 224.594 21.2498C221.796 21.2498 219.841 19.1843 219.841 16.2244C219.841 13.2645 221.796 11.199 224.594 11.199C227.376 11.2033 229.318 13.2688 229.318 16.2244Z" fill="white"/>
</g>
<defs>
<linearGradient id="paint0_linear_1048_29875" x1="0.418959" y1="15.3424" x2="25.6321" y2="15.3424" gradientUnits="userSpaceOnUse">
<stop stop-color="#4CACF7"/>
<stop offset="1" stop-color="#2C72DB"/>
</linearGradient>
<linearGradient id="paint1_linear_1048_29875" x1="30.9756" y1="31.2194" x2="30.9756" y2="0.0659913" gradientUnits="userSpaceOnUse">
<stop stop-color="#4EACF7"/>
<stop offset="1" stop-color="#2669D7"/>
</linearGradient>
<linearGradient id="paint2_linear_1048_29875" x1="46.1158" y1="31.2194" x2="46.1158" y2="0.0659913" gradientUnits="userSpaceOnUse">
<stop stop-color="#4EABF7"/>
<stop offset="1" stop-color="#276AD8"/>
</linearGradient>
<clipPath id="clip0_1048_29875">
<rect width="234.667" height="32" fill="white" transform="translate(0.417969)"/>
</clipPath>
</defs>
</svg>
