<svg width="159" height="34" viewBox="0 0 159 34" fill="none" xmlns="http://www.w3.org/2000/svg">
<g id="svgexport-1 (1) 3" clip-path="url(#clip0_4857_39848)">
<path id="Vector" d="M27.9823 19.7351C27.6587 20.2592 27.0547 20.3359 26.1444 20.4425C25.8639 20.4808 25.5447 20.5149 25.1823 20.5703C25.1239 20.5781 25.0677 20.5976 25.0173 20.6277C24.9668 20.6577 24.9231 20.6977 24.8889 20.745C24.8576 20.7924 24.8361 20.8454 24.8257 20.901C24.8154 20.9566 24.8163 21.0137 24.8285 21.0689C24.8565 21.3401 24.9745 21.5946 25.1641 21.7927C25.3537 21.9908 25.6043 22.1214 25.8769 22.1641C26.1087 22.241 26.3181 22.3722 26.4872 22.5467C26.6563 22.7211 26.78 22.9335 26.8476 23.1656C26.9141 23.3966 26.9222 23.6402 26.871 23.8751C26.8199 24.1099 26.7111 24.3287 26.5542 24.5122C25.8984 25.258 24.6516 26.1444 22.4211 26.1444C22.214 26.1444 21.9896 26.1444 21.7912 26.1188C21.3597 26.089 20.8852 26.0379 20.4278 25.9739H20.4063H20.3545L19.4355 25.8376C18.3366 25.6455 17.2248 25.5344 16.1092 25.5052C15.4726 25.4987 14.8372 25.563 14.2152 25.6969C13.4471 25.8447 12.7602 26.2645 12.2835 26.8774C11.8068 27.4903 11.5732 28.2541 11.6266 29.0252C11.6322 29.8206 11.9309 30.5868 12.4668 31.1805C13.0028 31.7743 13.7393 32.1548 14.5387 32.2511C14.5387 32.2511 14.6121 33.0523 14.4223 33.0267L14.2065 32.9927C11.917 32.6347 9.72872 31.8073 7.78247 30.5636C6.58423 29.7975 5.4884 28.8855 4.52082 27.849C4.36119 27.6743 4.20587 27.4996 4.05055 27.3206C1.22625 24.0266 -0.181566 19.772 0.128015 15.4663C0.437596 11.1605 2.44001 7.14521 5.70726 4.27853L5.76766 4.22313C5.76766 4.20183 5.84964 4.27001 5.86689 4.25722C6.00495 4.1379 6.34147 4.75582 6.34147 4.75582C6.25048 4.8335 6.18504 4.93624 6.15352 5.05088C6.12201 5.16552 6.12586 5.28685 6.16459 5.39931C6.1996 5.5147 6.26892 5.61703 6.36355 5.69302C6.45818 5.76902 6.57374 5.81516 6.69525 5.82546H6.81174C7.15365 5.23521 7.59084 4.70406 8.10604 4.25296C8.51444 3.89396 9.04351 3.69799 9.59018 3.70323C10.1543 3.70217 10.6963 3.9194 11.1002 4.30836C11.4368 4.64102 11.7269 5.0165 11.9631 5.42488C12.3085 5.38999 12.6556 5.37292 13.0028 5.37374C13.8814 5.38011 14.7582 5.45133 15.626 5.58682C15.9986 5.17205 16.4355 4.81822 16.9203 4.53849C17.2006 4.36784 17.5229 4.27645 17.8522 4.27427C18.2354 4.29618 18.6058 4.41871 18.9251 4.62922C19.2444 4.83972 19.501 5.13058 19.6685 5.47176C20.0821 6.15036 20.3876 6.88768 20.5745 7.65792C22.7317 9.47759 26.1055 13.624 26.1832 14.9025C26.3637 15.3951 26.6011 15.8656 26.8907 16.3045C27.3397 17.0367 27.725 17.8051 28.0427 18.6015C28.1217 18.7823 28.1573 18.9786 28.1468 19.1753C28.1363 19.3719 28.08 19.5635 27.9823 19.7351Z" fill="white"/>
<path id="Vector_2" d="M26.8803 23.6811C26.8803 25.9141 24.1407 27.2011 20.1672 26.7963C17.5009 26.5193 13.8467 26.6897 13.1477 28.0406C11.957 30.3419 15.0115 32.9627 14.8735 32.9542C14.6319 32.9286 14.6534 33.0522 14.4162 33.0181L14.2004 32.984C11.9109 32.6261 9.72262 31.7986 7.77637 30.5549C7.52182 30.3887 7.26728 30.2225 7.02136 30.0436C5.23427 28.7784 3.80292 27.0845 2.86232 25.1215C0.0321048 19.0446 4.09623 14.8939 6.84016 13.9648C2.68543 17.4295 4.66572 23.2976 8.85496 24.3715C10.1445 24.7107 11.5053 24.6781 12.7767 24.2777C13.6269 24.0772 14.425 23.7026 15.1194 23.1783C15.1194 23.1783 21.5909 25.113 23.8517 24.6953C23.9854 24.6655 24.1148 24.6229 24.2313 24.5846C25.5774 24.1584 26.2116 23.3061 25.2279 22.7564H25.1977L25.2797 22.6967C25.6248 22.4666 26.8803 21.7506 26.8803 23.6811Z" fill="#DFE3E4"/>
<path id="Vector_3" d="M33.6159 16.3975C33.6809 20.4341 32.244 24.3539 29.5776 27.4135C29.3878 27.6309 29.1936 27.8397 28.9952 28.0442C27.4309 29.6615 25.5507 30.9485 23.4684 31.8275C21.3861 32.7065 19.1449 33.1591 16.8805 33.1581C16.0678 33.1576 15.2561 33.1007 14.4515 32.9876C9.88691 32.3313 9.56764 25.8751 14.0675 24.8907C16.2937 24.4092 18.4509 24.8907 20.4873 25.1592H20.5649C21.005 25.2188 21.4364 25.2657 21.8592 25.2998C24.2235 25.466 25.4186 24.5796 25.9579 23.966C26.0304 23.8798 26.0804 23.7774 26.1036 23.6678C26.1268 23.5581 26.1224 23.4445 26.091 23.3369C26.0595 23.2293 26.0018 23.1309 25.9229 23.0504C25.8441 22.9699 25.7465 22.9097 25.6386 22.875C25.232 22.7883 24.8621 22.5803 24.579 22.2793C24.2958 21.9783 24.113 21.5986 24.0552 21.1917C24.0211 21.0312 24.0206 20.8655 24.0537 20.7048C24.0868 20.544 24.1529 20.3917 24.2479 20.2572C24.3429 20.1226 24.4648 20.0087 24.606 19.9225C24.7472 19.8362 24.9048 19.7794 25.0691 19.7556C26.9329 19.4786 27.5801 19.6064 27.291 18.8223C26.7345 17.2967 25.4272 15.6389 25.3841 14.9102C25.328 14.0579 22.0663 9.7964 19.8444 8.04492C19.694 7.26102 19.4017 6.51034 18.9816 5.82893C18.589 5.17691 17.9806 4.78912 17.3162 5.17691C16.7838 5.50047 16.3123 5.91286 15.9227 6.39571C14.4678 6.1257 12.9805 6.06969 11.5091 6.22951C11.2716 5.70852 10.9397 5.23481 10.5297 4.83173C10.2786 4.59187 9.94449 4.45532 9.59518 4.44978C9.24587 4.44425 8.90751 4.57013 8.64869 4.8019C8.07433 5.3089 7.61552 5.93058 7.30261 6.62583L6.64251 6.56617C6.36857 6.53931 6.1085 6.43411 5.89418 6.26345C5.67985 6.09279 5.52057 5.86409 5.43586 5.60537C5.35114 5.34664 5.34467 5.06913 5.41722 4.80682C5.48978 4.54452 5.63822 4.30881 5.84436 4.12858C8.2532 2.05079 11.2136 0.69706 14.376 0.227171C17.5385 -0.242718 20.771 0.19085 23.6921 1.4767C26.6132 2.76255 29.1009 4.84701 30.8616 7.48404C32.6223 10.1211 33.5825 13.2006 33.6288 16.3591L33.6159 16.3975Z" fill="#FF4F24"/>
<path id="Vector_4" d="M16.2305 15.1499C17.2141 17.0676 18.228 16.8545 19.3886 16.4284C19.3886 16.4284 18.7069 13.1086 16.2305 15.1499Z" fill="#FF4F24"/>
<path id="Vector_5" opacity="0.1" d="M29.5641 27.4312C29.3576 27.6237 29.1698 27.8348 29.0032 28.0619C27.4389 29.6791 25.5588 30.9662 23.4765 31.8452C21.3942 32.7241 19.153 33.1768 16.8885 33.1757C16.0758 33.1753 15.2642 33.1183 14.4596 33.0052C9.89497 32.349 9.5757 25.8928 14.0756 24.9084C16.3018 24.4268 18.459 24.9084 20.4953 25.1768C8.75166 23.5575 18.0405 37.8293 29.5641 27.4312Z" fill="black"/>
<path id="Vector_6" d="M10.6557 6.9848C9.81873 7.11264 8.92998 7.27032 8.18359 7.44504C8.36275 6.84029 8.69888 6.29232 9.15864 5.85549C9.24609 5.79572 9.34905 5.76194 9.45533 5.75817C9.56161 5.75439 9.66676 5.78077 9.75833 5.83419C10.1367 6.15052 10.4426 6.54273 10.6557 6.9848Z" fill="#DFE3E4"/>
<path id="Vector_7" d="M55.3215 9.88086L57.9662 20.0531L60.6713 9.88086H64.8476L60.1795 25.0774H55.96L53.2851 15.1822L50.6102 25.0774H46.3865L41.7227 9.88086H45.899L48.5868 20.0531L51.2315 9.88086H55.3215Z" fill="white"/>
<path id="Vector_8" d="M73.601 9.51562C78.5064 9.51562 82.1477 13.0271 82.1477 17.4719C82.1477 21.9166 78.5064 25.4281 73.601 25.4281C68.6956 25.4281 65.0586 21.9209 65.0586 17.4719C65.0586 13.0229 68.6956 9.51562 73.601 9.51562ZM73.601 21.874C74.4801 21.8749 75.3397 21.6182 76.071 21.1364C76.8024 20.6546 77.3726 19.9693 77.7096 19.1674C78.0466 18.3654 78.1352 17.4827 77.9642 16.631C77.7933 15.7792 77.3704 14.9967 76.7491 14.3824C76.1278 13.7681 75.336 13.3497 74.4739 13.18C73.6117 13.0102 72.718 13.0969 71.9058 13.429C71.0935 13.7611 70.3992 14.3237 69.9108 15.0456C69.4223 15.7675 69.1615 16.6164 69.1615 17.4847C69.154 18.0622 69.2637 18.6354 69.4842 19.1703C69.7048 19.7052 70.0316 20.191 70.4455 20.5991C70.8594 21.0071 71.3519 21.329 71.8939 21.5458C72.4358 21.7626 73.0163 21.8698 73.601 21.8612V21.874Z" fill="white"/>
<path id="Vector_9" d="M108.68 15.6683V25.0777H104.59V16.0944C104.59 14.3898 103.477 13.0816 101.902 13.0816C100.177 13.0816 98.5587 14.5092 98.5587 16.7976V25.0777H94.473V16.0944C94.473 14.3898 93.3556 13.0816 91.7809 13.0816C90.0551 13.0816 88.4373 14.5092 88.4373 16.7976V25.0777H84.3516V9.88115H88.4373V11.5431C88.9462 10.915 89.5907 10.407 90.3236 10.0561C91.0565 9.70517 91.8595 9.5202 92.674 9.51466C93.7414 9.49488 94.793 9.77212 95.7085 10.3147C96.624 10.8573 97.3665 11.6433 97.8512 12.583C98.9039 10.7036 100.703 9.51466 102.8 9.51466C106.109 9.51466 108.68 11.9821 108.68 15.6683Z" fill="white"/>
<path id="Vector_10" d="M120.77 25.4275C119.807 25.4527 118.85 25.2719 117.965 24.8974C117.079 24.523 116.286 23.9639 115.64 23.2584V25.078H111.598V3.64258H115.64V11.6883C116.286 10.9822 117.079 10.4224 117.964 10.0473C118.85 9.67218 119.807 9.49057 120.77 9.51495C125.063 9.51495 128.199 13.0264 128.199 17.4712C128.199 21.916 125.063 25.4275 120.77 25.4275ZM119.907 13.0691C119.335 13.0773 118.77 13.1978 118.246 13.4237C117.721 13.6496 117.247 13.9763 116.852 14.3848C116.456 14.7933 116.147 15.2754 115.942 15.8031C115.737 16.3308 115.64 16.8935 115.657 17.4584C115.64 18.0234 115.737 18.5861 115.942 19.1138C116.147 19.6414 116.456 20.1236 116.852 20.532C117.247 20.9405 117.721 21.2672 118.246 21.4931C118.77 21.719 119.335 21.8396 119.907 21.8478C122.271 21.8478 124.114 19.9429 124.114 17.4584C124.114 14.974 122.254 13.0818 119.89 13.0818L119.907 13.0691Z" fill="white"/>
<path id="Vector_11" d="M136.961 9.51555C137.923 9.49292 138.879 9.67533 139.764 10.0504C140.648 10.4254 141.44 10.9843 142.086 11.6889V9.88204H146.129V25.0786H142.086V23.2589C141.44 23.963 140.648 24.5213 139.763 24.8956C138.879 25.2699 137.923 25.4515 136.961 25.4281C132.647 25.4281 129.527 21.9208 129.527 17.4718C129.527 13.0228 132.664 9.51555 136.961 9.51555ZM137.824 21.874C138.396 21.8657 138.961 21.7452 139.485 21.5193C140.01 21.2934 140.484 20.9667 140.879 20.5582C141.275 20.1497 141.584 19.6676 141.789 19.1399C141.994 18.6122 142.091 18.0495 142.073 17.4846C142.091 16.9196 141.994 16.3569 141.789 15.8293C141.584 15.3016 141.275 14.8195 140.879 14.411C140.484 14.0025 140.01 13.6758 139.485 13.4499C138.961 13.224 138.396 13.1034 137.824 13.0952C135.46 13.0952 133.617 15.0214 133.617 17.4846C133.617 19.9477 135.473 21.8612 137.837 21.8612L137.824 21.874Z" fill="white"/>
<path id="Vector_12" d="M154.474 19.8068C154.474 21.26 155.112 21.9376 156.825 21.9376C157.282 21.9376 157.878 21.9077 158.279 21.8651V24.7971C157.446 25.2439 156.508 25.4659 155.561 25.4405C152.23 25.4405 150.384 23.6379 150.384 20.071V13.3762H147.691V9.88173H150.384V6.25944L154.469 5.4668V9.88173H158.098V13.3762H154.469L154.474 19.8068Z" fill="white"/>
</g>
<defs>
<clipPath id="clip0_4857_39848">
<rect width="158.181" height="33.1077" fill="white" transform="translate(0.0976562 0.0800781)"/>
</clipPath>
</defs>
</svg>
