<svg xmlns="http://www.w3.org/2000/svg" viewBox="0 0 512 512">
  <defs>
    <!-- Bright purple gradient for the wizard hat -->
    <linearGradient id="hatGradient" x1="0%" y1="0%" x2="100%" y2="100%">
      <stop offset="0%" style="stop-color:#C084FC;stop-opacity:1" />
      <stop offset="50%" style="stop-color:#A855F7;stop-opacity:1" />
      <stop offset="100%" style="stop-color:#7C3AED;stop-opacity:1" />
    </linearGradient>
    
    <!-- Brighter brim -->
    <linearGradient id="brimGradient" x1="0%" y1="0%" x2="0%" y2="100%">
      <stop offset="0%" style="stop-color:#9333EA;stop-opacity:1" />
      <stop offset="100%" style="stop-color:#7C3AED;stop-opacity:1" />
    </linearGradient>
    
    <!-- Gradient for stars -->
    <linearGradient id="starGradient" x1="0%" y1="0%" x2="100%" y2="100%">
      <stop offset="0%" style="stop-color:#FCD34D;stop-opacity:1" />
      <stop offset="100%" style="stop-color:#F59E0B;stop-opacity:1" />
    </linearGradient>
  </defs>
  
  <!-- Scale entire drawing up around center to appear bigger in tab -->
  <g transform="translate(256 256) scale(1.22) translate(-256 -256)">
    <!-- Main wizard hat cone with bent tip -->
    <path d="M 256 60 Q 240 50 220 70 L 140 420 L 372 420 Z" fill="url(#hatGradient)" stroke="#3B0CA8" stroke-width="2.5"/>
    
    <!-- Hat brim -->
    <ellipse cx="256" cy="420" rx="150" ry="38" fill="url(#brimGradient)" />
    <ellipse cx="256" cy="415" rx="145" ry="34" fill="#8B5CF6" />
    
    <!-- Hat buckle/band -->
    <rect x="176" y="338" width="160" height="32" fill="#111827" />
    <rect x="238" y="344" width="36" height="22" fill="#FCD34D" stroke="#F59E0B" stroke-width="1.2" rx="3"/>
    
    <!-- Stars on hat -->
    <g id="star">
      <path d="M 0,-10 L 3,-3 L 10,0 L 3,3 L 0,10 L -3,3 L -10,0 L -3,-3 Z" />
    </g>
    
    <use href="#star" transform="translate(220,180)" fill="url(#starGradient)" />
    <use href="#star" transform="translate(292,158) scale(0.8)" fill="url(#starGradient)" />
    <use href="#star" transform="translate(256,248) scale(1.25)" fill="url(#starGradient)" />
    <use href="#star" transform="translate(238,118) scale(0.55)" fill="#FCD34D" />
    <use href="#star" transform="translate(302,238) scale(0.7)" fill="#FCD34D" />
    <use href="#star" transform="translate(198,282) scale(0.9)" fill="url(#starGradient)" />
    
    <!-- Moon and crescents pattern -->
    <path d="M 270 198 A 8 8 0 1 1 270 214 A 6 6 0 1 0 270 198" fill="#FCD34D" opacity="0.95"/>
    
    <!-- Shadow/depth on cone -->
    <path d="M 256 60 Q 240 50 220 70 L 200 250 L 256 250 Z" fill="#000000" opacity="0.18"/>
  </g>
</svg>