<svg xmlns="http://www.w3.org/2000/svg" viewBox="0 0 32 32">
  <rect width="32" height="32" fill="#1e1b4b"/>

  <!-- Pixel dragon in purple -->
  <g fill="#a855f7">
    <!-- Head -->
    <rect x="12" y="8" width="4" height="4"/>
    <rect x="16" y="8" width="4" height="4"/>
    <rect x="20" y="8" width="4" height="4"/>

    <!-- Horn -->
    <rect x="20" y="4" width="4" height="4"/>

    <!-- Eye -->
    <rect x="16" y="10" width="2" height="2" fill="#fbbf24"/>

    <!-- Body -->
    <rect x="12" y="12" width="4" height="4"/>
    <rect x="16" y="12" width="4" height="4"/>
    <rect x="20" y="12" width="4" height="4"/>

    <rect x="12" y="16" width="4" height="4"/>
    <rect x="16" y="16" width="4" height="4"/>

    <!-- Wings -->
    <rect x="8" y="12" width="4" height="4"/>
    <rect x="4" y="8" width="4" height="4"/>

    <!-- Legs -->
    <rect x="12" y="20" width="4" height="4"/>
    <rect x="16" y="20" width="4" height="4"/>

    <!-- Tail -->
    <rect x="20" y="16" width="4" height="4"/>
    <rect x="24" y="20" width="4" height="4"/>
  </g>
</svg>
