<svg width="64" height="64" viewBox="0 0 64 64" fill="none" xmlns="http://www.w3.org/2000/svg">
  <defs>
    <linearGradient id="magicads-bg" x1="6" y1="58" x2="58" y2="8" gradientUnits="userSpaceOnUse">
      <stop stop-color="#4C1D95"/>
      <stop offset="0.5" stop-color="#7C3AED"/>
      <stop offset="1" stop-color="#FB923C"/>
    </linearGradient>
  </defs>

  <!-- Bold rounded square background -->
  <rect x="4" y="4" width="56" height="56" rx="18" fill="url(#magicads-bg)"/>

  <!-- Inner stroke for contrast -->
  <rect x="7" y="7" width="50" height="50" rx="15" stroke="white" stroke-opacity="0.18" stroke-width="2"/>

  <!-- Simple high-contrast wizard hat -->
  <path
    d="M20 40C21.5 34.5 25.3 23 32 17C33.5 15.6 35.9 15.9 36.7 17.7C39.4 23.8 41 29.7 42 35.5C42.4 37.7 41.1 39.8 39 40.5L24 43C21.9 43.4 19.5 41.8 20 40Z"
    fill="white"
  />
  <path
    d="M20 40C21.5 34.5 25.3 23 32 17C33.5 15.6 35.9 15.9 36.7 17.7C39.4 23.8 41 29.7 42 35.5C42.4 37.7 41.1 39.8 39 40.5L24 43C21.9 43.4 19.5 41.8 20 40Z"
    stroke="#111827"
    stroke-width="1.6"
    stroke-linejoin="round"
    opacity="0.85"
  />

  <!-- Hat brim -->
  <ellipse cx="26" cy="41.5" rx="11" ry="3.3" fill="#111827" opacity="0.95"/>

  <!-- Hat band -->
  <path
    d="M23 32.8C26.3 33.6 30.4 33.5 33.8 32.7"
    stroke="#FBBF24"
    stroke-width="2.4"
    stroke-linecap="round"
  />

  <!-- Big sparkle star -->
  <path
    d="M44 14L45.4 17L48.7 17.5L46.4 19.7L46.9 23L44 21.6L41.1 23L41.6 19.7L39.3 17.5L42.6 17L44 14Z"
    fill="#FEF9C3"
  />

  <!-- Small sparkles -->
  <circle cx="37" cy="15" r="1.3" fill="#FEFCE8"/>
  <circle cx="48" cy="24" r="1.3" fill="#FEFCE8" opacity="0.85"/>
</svg>
